<svg width="151" height="46" viewBox="0 0 151 46" fill="none" xmlns="http://www.w3.org/2000/svg">
<path d="M37.1502 22.7837C35.188 21.4563 32.6486 21.9757 31.3212 23.9957C30.2247 25.6693 28.551 25.9002 27.9161 25.9002C25.7808 25.9002 24.3379 24.3997 23.9339 22.8991C23.9339 22.8991 23.9339 22.8991 23.9339 22.8414V22.7837C23.7031 22.1489 23.6454 21.8026 23.6454 21.1677C23.6454 17.4741 27.3967 13.3765 32.8218 13.3765C38.3622 13.3765 41.5941 17.5895 42.4021 19.9558C42.4021 19.898 42.4021 19.898 42.3444 19.8403C40.7862 15.2233 36.4 11.9336 31.2635 11.9336C24.8574 11.9336 19.6055 17.1855 19.6055 23.6494C19.6055 29.4207 23.7608 34.384 29.5321 34.384C34.1492 34.384 37.2657 31.7869 38.6508 28.2087C39.4587 26.2465 38.9393 23.9957 37.1502 22.7837Z" fill="#7A7384"/>
<path d="M42.5177 20.1861C41.8251 17.8776 38.6509 13.376 32.8796 13.376C27.4546 13.376 23.6455 17.4736 23.6455 21.1672C23.6455 21.8598 23.7032 22.1484 23.8764 22.7832C23.8186 22.4946 23.7609 22.2061 23.7609 21.9752C23.7609 18.1662 27.57 15.5114 31.5522 15.5114C36.8618 15.5114 41.1903 19.8398 41.1903 25.1494C41.1903 29.3048 38.7663 32.9407 35.3035 34.6721C39.8052 32.9984 43.0371 28.7276 43.0371 23.6489C43.0371 22.4369 42.8639 21.3981 42.5177 20.1861Z" fill="#7A7384"/>
<path d="M53.1605 23.6832H46.7842V17.9001H48.267V19.4571H51.6776V17.9001H53.1605V23.6832ZM51.6776 20.7175H48.267V22.4228H51.6776V20.7175ZM55.8296 27.168C55.8296 27.6128 55.7554 27.9835 55.6072 28.2801C55.4589 28.6508 55.2364 28.9474 54.9399 29.1698C54.6433 29.4664 54.3467 29.6888 53.976 29.8371C53.6053 29.9854 53.2346 30.0595 52.7897 30.0595C52.3449 30.0595 51.9742 29.9854 51.6035 29.8371C51.2327 29.6888 50.9362 29.4664 50.6396 29.1698C50.343 28.8732 50.1206 28.5767 49.9723 28.2801C49.824 27.9094 49.7499 27.5387 49.7499 27.168C49.7499 26.7972 49.824 26.3524 49.9723 26.0558C50.1206 25.6851 50.343 25.3885 50.6396 25.092C50.9362 24.7954 51.2327 24.573 51.6035 24.4247C51.9742 24.2764 52.3449 24.2022 52.7897 24.2022C53.2346 24.2022 53.6053 24.2764 53.976 24.4247C54.3467 24.573 54.7174 24.7954 54.9399 25.092C55.2364 25.3885 55.4589 25.6851 55.6072 26.0558C55.7554 26.3524 55.8296 26.7972 55.8296 27.168ZM54.3467 27.168C54.3467 26.7231 54.1985 26.3524 53.8277 25.9817C53.5312 25.6851 53.0863 25.5368 52.6415 25.5368C52.1966 25.5368 51.8259 25.6851 51.4552 25.9817C51.1586 26.2782 51.0103 26.649 51.0103 27.168C51.0103 27.6128 51.1586 27.9835 51.4552 28.3542C51.7517 28.6508 52.1225 28.7991 52.6415 28.7991C53.0863 28.7991 53.457 28.6508 53.8277 28.3542C54.1985 27.9835 54.3467 27.6128 54.3467 27.168ZM56.4969 23.9798H55.014V17.6777H56.4969V20.0503H58.2022V21.5331H56.4969V23.9798Z" fill="#7A7384"/>
<path d="M63.9853 22.8665V21.0871H65.4681V22.8665H70.2874V24.1269H59.166V22.8665H63.9853ZM64.7267 17.3799L69.8426 21.0871L68.9529 22.1251L64.6526 19.0111L60.4264 22.1251L59.5367 21.0871L64.7267 17.3799ZM67.7666 27.3892C67.7666 27.7599 67.6924 28.1306 67.5441 28.5013C67.3959 28.872 67.1734 29.1686 66.8769 29.391C66.5803 29.6876 66.2837 29.8359 65.913 29.9842C65.5423 30.1325 65.1716 30.2066 64.7267 30.2066C64.2819 30.2066 63.9111 30.1325 63.5404 29.9842C63.1697 29.8359 62.8731 29.6135 62.5766 29.391C62.28 29.1686 62.1317 28.872 61.9093 28.5013C61.761 28.1306 61.6869 27.7599 61.6869 27.3892C61.6869 27.0185 61.761 26.6478 61.9093 26.2771C62.0576 25.9063 62.28 25.6098 62.5766 25.3873C62.8731 25.1649 63.1697 24.9425 63.5404 24.7942C63.9111 24.6459 64.2819 24.5718 64.7267 24.5718C65.1716 24.5718 65.5423 24.6459 65.913 24.7942C66.2837 24.9425 66.5803 25.1649 66.8769 25.3873C67.1734 25.6098 67.3217 25.9063 67.5441 26.2771C67.6183 26.6478 67.7666 27.0185 67.7666 27.3892ZM66.2837 27.3892C66.2837 26.9443 66.1354 26.6478 65.8389 26.2771C65.5423 25.9805 65.1716 25.8322 64.7267 25.8322C64.2819 25.8322 63.9853 25.9805 63.6146 26.2771C63.318 26.5736 63.1697 26.9443 63.1697 27.3892C63.1697 27.834 63.318 28.1306 63.6146 28.4272C63.9111 28.7238 64.2819 28.872 64.7267 28.872C65.1716 28.872 65.4681 28.7238 65.8389 28.4272C66.1354 28.1306 66.2837 27.7599 66.2837 27.3892Z" fill="#7A7384"/>
<path d="M82.7426 24.5722H71.6953V23.3117H76.5146V22.4962H72.585V17.751H81.8529V19.0115H74.0679V19.6046H81.8529V20.7167H74.0679V21.3099H81.927V22.4962H77.9974V23.3117H82.8167V24.5722H82.7426ZM80.1476 27.5379C80.1476 27.9086 80.0734 28.2793 79.9252 28.5759C79.7769 28.8724 79.5544 29.169 79.332 29.4656C79.0354 29.688 78.7389 29.9104 78.3682 30.0587C77.9974 30.207 77.6267 30.2812 77.256 30.2812C76.8853 30.2812 76.4404 30.207 76.1439 30.0587C75.7732 29.9104 75.4766 29.688 75.18 29.4656C74.8834 29.2432 74.7352 28.9466 74.5869 28.5759C74.4386 28.2793 74.3644 27.9086 74.3644 27.5379C74.3644 27.1672 74.4386 26.7964 74.5869 26.4999C74.7352 26.2033 74.9576 25.9067 75.18 25.6102C75.4766 25.3877 75.7732 25.1653 76.1439 25.017C76.5146 24.8687 76.8853 24.7946 77.256 24.7946C77.6267 24.7946 78.0716 24.8687 78.3682 25.017C78.7389 25.1653 79.0354 25.3877 79.332 25.6102C79.6286 25.8326 79.7769 26.1292 79.9252 26.4999C80.0734 26.7964 80.1476 27.1672 80.1476 27.5379ZM78.7389 27.5379C78.7389 27.1672 78.5906 26.7964 78.294 26.4999C77.9974 26.2033 77.6267 26.055 77.256 26.055C76.8112 26.055 76.5146 26.2033 76.218 26.4999C75.9214 26.7964 75.7732 27.1672 75.7732 27.5379C75.7732 27.9086 75.9214 28.2793 76.218 28.5759C76.5146 28.8724 76.8853 29.0207 77.256 29.0207C77.7009 29.0207 77.9974 28.8724 78.294 28.5759C78.5906 28.2793 78.7389 27.9086 78.7389 27.5379Z" fill="#7A7384"/>
<path d="M87.9326 17.6025L91.7139 23.4598L90.5276 24.2754L87.9326 20.1234L85.3376 24.3495L84.1514 23.534L87.9326 17.6025ZM85.1152 29.4654V25.4617H86.5981V28.1308H94.9762V29.4654H85.1152ZM93.3451 25.3875V17.6767H94.8279V25.3875H93.3451Z" fill="#7A7384"/>
<path d="M96.6826 26.0549V24.7204H104.764V26.0549H101.428V29.3172H99.9449V26.0549H96.6826ZM103.8 20.9391C103.8 21.3839 103.726 21.7547 103.578 22.1254C103.43 22.4961 103.207 22.7927 102.911 23.0892C102.614 23.3858 102.243 23.6082 101.873 23.7565C101.502 23.9048 101.057 23.9789 100.612 23.9789C100.167 23.9789 99.7225 23.9048 99.3518 23.7565C98.981 23.6082 98.6103 23.3858 98.3138 23.0892C98.0172 22.7927 97.7948 22.4961 97.6465 22.1254C97.4982 21.7547 97.424 21.3839 97.424 20.9391C97.424 20.4942 97.4982 20.1235 97.6465 19.7528C97.7948 19.3821 98.0172 19.0855 98.3138 18.789C98.6103 18.4924 98.981 18.27 99.3518 18.1217C99.7225 17.9734 100.167 17.8992 100.612 17.8992C101.057 17.8992 101.502 17.9734 101.873 18.1217C102.243 18.27 102.614 18.4924 102.911 18.789C103.207 19.0855 103.43 19.3821 103.578 19.7528C103.726 20.1235 103.8 20.5684 103.8 20.9391ZM102.392 20.9391C102.392 20.4201 102.243 20.0494 101.873 19.6787C101.502 19.308 101.131 19.1597 100.612 19.1597C100.093 19.1597 99.7225 19.308 99.3518 19.6787C98.981 20.0494 98.8328 20.4201 98.8328 20.9391C98.8328 21.3839 98.981 21.8288 99.3518 22.1995C99.7225 22.5702 100.093 22.7185 100.612 22.7185C101.131 22.7185 101.502 22.5702 101.873 22.1995C102.243 21.8288 102.392 21.4581 102.392 20.9391ZM105.654 17.6768H107.137V29.6879H105.654V17.6768Z" fill="#7A7384"/>
<path d="M113.957 24.646V26.2772H112.474V24.646H109.212V23.3856H117.219V24.646H113.957ZM111.51 25.684V28.2049H120.111V29.4653H110.027V25.684H111.51ZM116.033 20.2716C116.033 20.6423 115.959 21.013 115.811 21.3096C115.662 21.6062 115.44 21.9027 115.217 22.1993C114.921 22.4217 114.624 22.6442 114.328 22.7925C113.957 22.9407 113.586 23.0149 113.216 23.0149C112.845 23.0149 112.474 22.9407 112.103 22.7925C111.733 22.6442 111.436 22.4217 111.14 22.1993C110.917 21.9769 110.695 21.6803 110.546 21.3096C110.398 21.013 110.324 20.6423 110.324 20.2716C110.324 19.9009 110.398 19.5302 110.546 19.2336C110.695 18.937 110.917 18.6405 111.14 18.3439C111.436 18.1215 111.733 17.899 112.103 17.7507C112.474 17.6025 112.845 17.5283 113.216 17.5283C113.586 17.5283 113.957 17.6025 114.328 17.7507C114.698 17.899 114.995 18.1215 115.217 18.3439C115.514 18.5663 115.662 18.8629 115.811 19.2336C115.959 19.5302 116.033 19.9009 116.033 20.2716ZM114.624 20.2716C114.624 19.9009 114.476 19.5302 114.179 19.2336C113.883 18.937 113.512 18.7887 113.141 18.7887C112.697 18.7887 112.4 18.937 112.103 19.2336C111.807 19.5302 111.659 19.8267 111.659 20.2716C111.659 20.6423 111.807 21.013 112.103 21.3096C112.4 21.6062 112.771 21.7545 113.141 21.7545C113.586 21.7545 113.883 21.6062 114.179 21.3096C114.476 21.013 114.624 20.6423 114.624 20.2716ZM118.257 22.3476H116.552V21.0872H118.257V17.6766H119.74V26.3513H118.257V22.3476Z" fill="#7A7384"/>
<path d="M129.6 28.5015H121.741V27.1669H124.929V25.6841C124.781 25.6841 124.633 25.61 124.559 25.5358C124.188 25.3875 123.891 25.1651 123.595 24.9427C123.298 24.7202 123.15 24.4237 122.927 24.053C122.779 23.7564 122.705 23.3857 122.705 23.015C122.705 22.6442 122.779 22.2735 122.927 21.977C123.076 21.6804 123.298 21.3838 123.595 21.0872C123.891 20.8648 124.188 20.6424 124.559 20.4941C124.929 20.3458 125.3 20.2717 125.671 20.2717C126.041 20.2717 126.486 20.3458 126.783 20.4941C127.154 20.6424 127.45 20.8648 127.673 21.0872C127.969 21.3097 128.192 21.6062 128.34 21.977C128.488 22.2735 128.562 22.6442 128.562 23.015C128.562 23.3857 128.488 23.7564 128.34 24.053C128.192 24.3495 127.969 24.6461 127.673 24.9427C127.376 25.1651 127.079 25.3875 126.783 25.5358C126.635 25.61 126.486 25.6841 126.338 25.6841V27.1669H129.674V28.5015H129.6ZM124.781 18.863V17.6025H126.412V18.863H129.304V20.1234H121.815V18.863H124.781ZM127.079 23.0891C127.079 22.7184 126.931 22.3477 126.635 22.0511C126.338 21.7545 125.967 21.6062 125.597 21.6062C125.152 21.6062 124.855 21.7545 124.559 22.0511C124.262 22.3477 124.114 22.6442 124.114 23.0891C124.114 23.4598 124.262 23.8305 124.559 24.1271C124.855 24.4237 125.226 24.572 125.597 24.572C126.041 24.572 126.338 24.4237 126.635 24.1271C126.931 23.8305 127.079 23.4598 127.079 23.0891ZM130.638 17.6767H132.121V29.6878H130.638V17.6767Z" fill="#7A7384"/>
<path fill-rule="evenodd" clip-rule="evenodd" d="M19.1952 2.50034C19.156 2.73674 19.0777 2.93373 18.9994 3.13073C18.7644 3.72173 18.451 4.27332 18.0202 4.74612C17.5894 5.25831 17.041 5.61291 16.4144 5.84931C16.0619 6.00691 15.6702 6.04631 15.3177 6.04631C15.2785 6.04631 15.2394 6.04631 15.2394 6.04631C15.2002 6.04631 15.161 6.0463 15.1219 6.0857C14.8869 6.2827 14.6519 6.4403 14.456 6.6373C13.9077 7.14949 13.3985 7.66169 12.9285 8.21328C12.811 8.33148 12.7327 8.44968 12.6152 8.56788L12.576 8.60728C12.576 8.64668 12.6152 8.64668 12.6152 8.64668C12.7327 8.64668 12.811 8.64668 12.9285 8.60728C12.9285 8.56788 12.9677 8.56788 12.9677 8.52848C13.1635 8.01629 13.5552 7.66169 14.0644 7.42529C14.4952 7.22829 14.9652 7.14949 15.4352 7.18889C15.7485 7.18889 16.0227 7.22829 16.336 7.30709C16.7669 7.38589 17.1585 7.46469 17.5894 7.54349C17.6285 7.54349 17.7069 7.58289 17.746 7.58289C17.746 7.66169 17.7069 7.70109 17.6677 7.74049C17.4327 8.05569 17.1194 8.33148 16.806 8.56788C16.4144 8.84368 15.9835 9.08008 15.4744 9.19828C15.161 9.27707 14.8085 9.31647 14.4952 9.27707C14.1819 9.27707 13.8685 9.19827 13.5944 9.08008C13.4377 9.00128 13.281 8.92248 13.1244 8.84368C13.0852 8.80428 13.0069 8.80428 12.9677 8.80428C12.811 8.84368 12.6544 8.88308 12.4977 8.84368C12.0277 9.27707 10.4219 11.7199 10.1085 12.4291C10.1869 12.4291 10.3044 12.4291 10.5002 12.3109C10.5002 12.2715 10.5002 12.2715 10.5394 12.2321C10.6569 11.6411 10.9702 11.1683 11.4794 10.8531C11.7927 10.6561 12.106 10.5379 12.4585 10.4591C12.8502 10.3409 13.281 10.3409 13.7119 10.3015C14.0644 10.3015 14.456 10.2621 14.8085 10.2621C14.926 10.2621 15.0435 10.2621 15.1219 10.2621C15.161 10.2621 15.161 10.2621 15.2394 10.2621C15.2002 10.3015 15.2002 10.3409 15.161 10.3803C14.7694 11.0107 14.2602 11.5623 13.6727 11.9563C13.1635 12.3109 12.576 12.5473 11.9494 12.6261C11.5185 12.6655 11.1269 12.6261 10.7352 12.4685C10.696 12.4685 10.6569 12.4291 10.6569 12.4291C10.6177 12.3897 10.5785 12.4291 10.5394 12.4291C10.5002 12.4685 10.4219 12.4685 10.3827 12.5079C10.2652 12.5473 10.1477 12.5867 10.0302 12.6261C9.24686 14.1232 8.6202 15.6992 8.1502 17.354C8.2677 17.354 8.34603 17.2752 8.5027 17.157C8.5027 17.0388 8.5027 16.96 8.5027 16.8418C8.54186 16.2114 8.77686 15.6992 9.2077 15.2264C9.4427 14.9506 9.71686 14.7536 10.0302 14.596C10.4219 14.3596 10.8135 14.202 11.2052 14.0444C11.7144 13.8474 12.1844 13.6898 12.6935 13.5322C12.7327 13.4928 12.811 13.4928 12.8502 13.4534C12.8502 13.4534 12.8894 13.4534 12.9285 13.4534C12.9285 13.4928 12.9285 13.5322 12.9285 13.5322C12.8502 13.808 12.7327 14.0838 12.6152 14.3596C12.4194 14.7536 12.2235 15.1082 11.9885 15.4628C11.636 15.975 11.166 16.4084 10.6569 16.763C10.3827 16.9206 10.1085 17.0782 9.83436 17.1964C9.48186 17.3146 9.12936 17.354 8.77686 17.354C8.69853 17.354 8.62019 17.354 8.54185 17.4328C8.42435 17.551 8.26769 17.6692 8.11102 17.748C7.79769 18.93 7.5627 20.112 7.40603 21.3334C7.24936 22.5154 7.24936 23.0276 7.24936 23.2246C7.28853 23.2246 7.28853 23.2246 7.28853 23.1852C7.36686 23.1064 7.40603 23.0276 7.48436 22.9882C7.52353 22.9488 7.52353 22.9094 7.52353 22.8306C7.52353 22.7912 7.48436 22.7124 7.48436 22.673C7.4452 22.3184 7.4452 21.9638 7.52353 21.6486C7.60186 21.294 7.71936 20.9394 7.9152 20.6242C8.11103 20.2696 8.34603 19.9544 8.6202 19.6786C8.9727 19.2846 9.36436 18.9694 9.7952 18.6542C10.1477 18.3784 10.5002 18.142 10.8527 17.8662C10.931 17.8268 10.9702 17.748 11.0485 17.7086C11.0877 17.7086 11.0877 17.6692 11.1269 17.6692C11.166 17.7086 11.166 17.748 11.166 17.748C11.1269 18.142 11.0877 18.536 11.0094 18.93C10.8527 19.5604 10.6569 20.1514 10.3435 20.703C10.0302 21.294 9.63853 21.8062 9.12936 22.2396C8.77686 22.5548 8.34603 22.7912 7.9152 22.9488H7.87603C7.75853 22.9882 7.64103 23.0276 7.60186 23.1458C7.52353 23.264 7.4452 23.4215 7.28853 23.5003C7.24936 23.5397 7.24936 23.5791 7.24936 23.6185C7.24936 23.8549 7.24936 24.0519 7.24936 24.2883C7.24936 24.6035 7.24936 24.9581 7.24936 25.2733C7.24936 25.7855 7.28853 26.2583 7.3277 26.7705C7.36686 27.2039 7.4452 27.6767 7.48436 28.1101C7.52353 28.3465 7.5627 28.5829 7.60186 28.8193C7.60186 28.8587 7.60186 28.8981 7.64103 28.9375C7.71936 28.8587 7.7977 28.7011 7.87603 28.5041V28.4647C7.71936 28.2677 7.64103 28.0707 7.60186 27.8343C7.5627 27.5191 7.5627 27.2433 7.60186 26.9281C7.64103 26.4553 7.83685 25.9825 8.03269 25.5491C8.26769 25.0763 8.58102 24.6035 8.89435 24.1701C9.16852 23.8155 9.48186 23.4215 9.75603 23.067C9.9127 22.8306 10.1085 22.6336 10.2652 22.3972C10.3044 22.3578 10.3044 22.3578 10.3435 22.3184C10.3435 22.3578 10.3827 22.3972 10.3827 22.3972C10.4219 22.5942 10.4219 22.7912 10.4219 22.9882C10.461 23.5791 10.4219 24.1307 10.3435 24.7217C10.2652 25.1945 10.1085 25.6673 9.95186 26.1007C9.75603 26.5341 9.56019 26.9675 9.28603 27.3615C8.97269 27.7949 8.62019 28.1495 8.18935 28.4253C8.11102 28.4647 8.0327 28.5435 7.99353 28.6617C7.9152 28.8587 7.83686 29.0163 7.75853 29.1739C7.71936 29.2133 7.71936 29.2921 7.71936 29.3315C7.75853 29.4497 7.75853 29.5679 7.7977 29.6861C8.0327 30.7499 8.34603 31.7743 8.7377 32.7593C8.93353 33.3109 9.16853 33.8624 9.4427 34.3746C9.4427 34.414 9.48186 34.4534 9.52103 34.4928C9.5602 34.3746 9.59936 34.2564 9.59936 34.0594C9.4427 33.9018 9.28603 33.7443 9.2077 33.5079C9.16853 33.3897 9.0902 33.2321 9.05103 33.0745C8.9727 32.7593 8.89435 32.4047 8.89435 32.0501C8.89435 31.8137 8.93353 31.5379 8.9727 31.3015C9.05103 30.7499 9.24686 30.2377 9.4427 29.6861C9.63853 29.1739 9.87352 28.6617 10.1085 28.1101C10.226 27.8737 10.3044 27.5979 10.4219 27.3615C10.4219 27.3615 10.4219 27.3221 10.461 27.3221C10.5002 27.3221 10.5002 27.3615 10.5394 27.4009C10.6569 27.6767 10.7352 27.9131 10.8135 28.1889C10.931 28.6617 11.0485 29.1345 11.0877 29.6073C11.1269 30.0801 11.1269 30.5529 11.0485 31.0257C11.0094 31.4591 10.8919 31.8531 10.7744 32.2865C10.5785 32.8775 10.3044 33.4291 9.91269 33.9019C9.83435 33.9806 9.7952 34.0594 9.7952 34.1776C9.75603 34.3352 9.75603 34.4928 9.71686 34.6504C9.71686 34.7292 9.71686 34.7686 9.75603 34.8474C9.87353 35.0444 9.95186 35.202 10.0694 35.399C10.4219 36.0294 10.8135 36.6204 11.2444 37.2114C11.636 37.7236 12.0277 38.1964 12.4585 38.6692C12.4977 38.7086 12.5369 38.748 12.576 38.7874C12.576 38.748 12.6152 38.748 12.6152 38.7086C12.6152 38.5904 12.6152 38.4722 12.6152 38.354L12.576 38.3146C12.341 38.1964 12.1452 37.9994 11.9494 37.8024C11.6752 37.4478 11.4794 37.0144 11.3619 36.581C11.3227 36.4628 11.3227 36.3052 11.2835 36.187C11.2444 35.7142 11.2444 35.2414 11.2835 34.7686C11.3227 34.217 11.401 33.7049 11.4794 33.1533C11.5577 32.7199 11.5969 32.2865 11.6752 31.8137C11.6752 31.7743 11.6752 31.7743 11.7144 31.7349C11.7927 31.7349 11.7927 31.8137 11.8319 31.8531C12.0277 32.0895 12.1844 32.3259 12.341 32.5623C12.6935 33.1533 12.9677 33.7837 13.1244 34.4928C13.2027 34.8474 13.2419 35.202 13.281 35.596C13.281 35.8718 13.281 36.187 13.281 36.4628C13.2419 36.975 13.1244 37.4872 12.9285 37.96C12.8502 38.157 12.7719 38.354 12.811 38.551C12.811 38.6692 12.811 38.7874 12.811 38.9056C12.811 38.9844 12.811 39.0238 12.8894 39.0632C13.0852 39.2602 13.281 39.4572 13.4769 39.6148C14.221 40.2846 15.0044 40.8756 15.866 41.3878C16.1402 41.5454 16.4535 41.703 16.7277 41.8606C16.7669 41.8606 16.806 41.9 16.8452 41.9C16.8844 41.7818 16.8452 41.703 16.7669 41.5454C16.5319 41.5454 16.2969 41.4666 16.101 41.309C15.7094 41.0332 15.396 40.718 15.161 40.324C15.0435 40.1664 14.9652 39.93 14.8869 39.733C14.691 39.2208 14.5735 38.6692 14.4952 38.157C14.4169 37.566 14.3385 37.0144 14.2602 36.4234C14.2602 36.3052 14.221 36.2264 14.221 36.1082C14.221 36.0688 14.221 35.99 14.221 35.9112C14.2602 35.9112 14.2994 35.9112 14.3385 35.9506C14.456 36.0294 14.6127 36.1082 14.7302 36.187C15.2002 36.5022 15.631 36.8962 15.9835 37.4084C16.2185 37.763 16.4144 38.1176 16.571 38.5116C16.7277 38.9056 16.8844 39.339 16.9235 39.7724C17.0019 40.1664 17.0019 40.5604 16.9627 40.9938C16.9627 41.112 16.9235 41.2302 16.9235 41.3484C16.9235 41.3878 16.9235 41.4272 16.9235 41.4272C16.9627 41.5848 17.0019 41.7818 17.041 41.9394C17.041 41.9788 17.041 41.9788 17.0802 42.0182C17.276 42.097 17.4719 42.1758 17.6677 42.2546C18.0594 42.4122 18.4902 42.5698 18.8819 42.688C19.3519 42.8456 19.8219 42.9638 20.2919 43.0426C20.2919 43.0426 20.331 43.0426 20.3702 43.0426C20.4877 43.0426 20.5269 43.1214 20.566 43.2002C20.6052 43.279 20.6052 43.3578 20.6052 43.476C20.566 43.476 20.5269 43.476 20.4877 43.476C20.1744 43.3972 19.8219 43.3578 19.5085 43.279C18.8427 43.1214 18.1769 42.885 17.511 42.6092C17.4327 42.5698 17.3544 42.5698 17.2369 42.5698C17.1194 42.6092 16.9627 42.6092 16.8452 42.6486C16.806 42.6486 16.7669 42.6486 16.7277 42.688C16.6885 42.7274 16.6885 42.7668 16.6494 42.8062C16.4144 43.2396 16.0619 43.5154 15.6702 43.7518C15.3177 43.9488 14.926 44.0276 14.5344 44.067C14.456 44.067 14.3385 44.067 14.2602 44.1064C14.221 44.1064 14.1427 44.1458 14.1035 44.1458C13.8294 44.1458 13.516 44.1458 13.2419 44.1064C13.2027 44.067 13.1244 44.067 13.0852 44.067C12.811 44.0276 12.5369 43.9882 12.2627 43.9094C11.871 43.7912 11.4794 43.673 11.1269 43.476C10.9702 43.3972 10.8135 43.3184 10.696 43.2002C10.6569 43.1608 10.6177 43.1214 10.5785 43.082C10.5394 43.0426 10.5002 43.0032 10.5002 42.9638C10.5394 42.9638 10.5394 42.9244 10.5785 42.885C10.8135 42.688 11.0485 42.5304 11.2835 42.3728C11.7144 42.097 12.1452 41.9 12.6152 41.7424C12.9677 41.6242 13.3202 41.5454 13.6727 41.5454C13.986 41.506 14.2602 41.506 14.5735 41.5454C15.0044 41.5848 15.396 41.7424 15.7485 41.9C16.0227 42.0182 16.2969 42.1758 16.571 42.3334C16.6494 42.3728 16.7277 42.4122 16.806 42.3728C16.8452 42.3728 16.8844 42.3728 16.9235 42.3334C16.9235 42.2546 16.8452 42.2546 16.806 42.2546C15.7877 41.7424 14.8477 41.1514 13.986 40.4422C13.7119 40.2058 13.4377 39.9694 13.2027 39.733C13.1635 39.6936 13.0852 39.6542 13.0069 39.6542C12.8894 39.6542 12.7719 39.6148 12.6544 39.6148C12.6152 39.6148 12.576 39.6148 12.4977 39.6148C12.4585 39.6542 12.4585 39.6936 12.4194 39.6936C12.3019 39.8118 12.1844 39.8906 12.0669 40.0088C11.7144 40.2452 11.3227 40.324 10.931 40.324C10.6569 40.324 10.3435 40.2846 10.0694 40.2452C9.48186 40.127 8.93353 39.8906 8.42436 39.6148C8.1502 39.4572 7.9152 39.2996 7.64103 39.142C7.3277 38.945 7.0927 38.7086 6.8577 38.4328C6.77936 38.3146 6.66186 38.1964 6.6227 38.0782C6.6227 38.0388 6.58353 38.0388 6.58353 37.9994C6.62269 37.96 6.70103 37.96 6.7402 37.9206C6.9752 37.8418 7.17103 37.763 7.40603 37.7236C8.18936 37.5266 8.9727 37.4872 9.7952 37.6054C10.1869 37.6842 10.5394 37.8024 10.8919 37.96C11.3619 38.1964 11.7535 38.5116 12.106 38.8662C12.2627 39.0238 12.3802 39.1814 12.5369 39.339C12.576 39.3784 12.576 39.4178 12.6152 39.4178C12.6544 39.4178 12.7327 39.4572 12.811 39.4572V39.4178C12.7719 39.3784 12.7327 39.339 12.7327 39.2996C12.341 38.9056 11.9885 38.4722 11.636 38.0388C11.0877 37.3296 10.5785 36.581 10.1085 35.7536C10.0302 35.6354 9.99103 35.5172 9.87353 35.4778C9.87353 35.4778 9.83436 35.4778 9.83436 35.4384C9.71686 35.3596 9.5602 35.2414 9.4427 35.1626C9.40353 35.202 9.36436 35.202 9.3252 35.202C9.12936 35.2808 8.93353 35.3596 8.7377 35.3596C8.3852 35.399 8.07186 35.3596 7.75853 35.2414C7.28853 35.0838 6.8577 34.8474 6.46603 34.5322C6.07436 34.1776 5.72186 33.823 5.40853 33.3897C5.13436 33.0351 4.8602 32.6017 4.66436 32.2077C4.54686 31.9713 4.46853 31.6955 4.42936 31.4197C4.42936 31.3803 4.42936 31.3409 4.42936 31.3015C4.46853 31.3015 4.5077 31.3015 4.5077 31.3015C4.66436 31.3015 4.82103 31.3015 4.9777 31.3015C5.25186 31.3015 5.52603 31.3409 5.8002 31.4197C6.2702 31.5379 6.70103 31.6955 7.0927 31.9319C7.64103 32.2471 8.11103 32.6411 8.5027 33.1533C8.77686 33.4685 9.01186 33.823 9.2077 34.217C9.3252 34.414 9.40353 34.6504 9.52103 34.8868C9.5602 35.005 9.63853 35.0444 9.7952 35.0838C9.7952 35.0444 9.75603 35.005 9.75603 35.005C9.63853 34.808 9.5602 34.5716 9.4427 34.3746C9.0902 33.6655 8.81602 32.9563 8.54185 32.2077C8.30685 31.4985 8.07186 30.7893 7.87603 30.0801C7.83686 30.0013 7.83686 29.8831 7.75853 29.8043C7.71936 29.7649 7.71936 29.7255 7.6802 29.6861C7.60186 29.5679 7.52353 29.4497 7.4452 29.3315C7.40603 29.3315 7.36686 29.3315 7.3277 29.3315C6.93603 29.3709 6.58353 29.2921 6.2702 29.1345C5.95685 28.9769 5.72186 28.7799 5.48686 28.5435C5.13436 28.1495 4.82103 27.7161 4.54686 27.2433C4.31186 26.8099 4.11603 26.3765 3.95936 25.9431C3.84186 25.5885 3.6852 25.2339 3.60686 24.8793C3.5677 24.7611 3.5677 24.6035 3.52853 24.4853C3.52853 24.4459 3.52853 24.4065 3.4502 24.3671C3.4502 24.2095 3.4502 24.0519 3.4502 23.9337C3.48936 23.9337 3.52853 23.9337 3.5677 23.9337C3.88103 24.0125 4.19436 24.1701 4.5077 24.3671C5.0952 24.7217 5.64353 25.1945 6.07436 25.7461C6.46603 26.2189 6.77936 26.6917 6.9752 27.2433C7.13186 27.6373 7.24936 28.0313 7.36686 28.4647C7.40603 28.6617 7.4452 28.8587 7.48436 29.0557C7.48436 29.1739 7.52353 29.2527 7.64103 29.2921C7.64103 29.2133 7.64103 29.1739 7.64103 29.1345C7.60186 28.9375 7.5627 28.7011 7.52353 28.5041C7.4452 27.9131 7.36686 27.3615 7.28853 26.7705C7.24936 26.2189 7.2102 25.6673 7.2102 25.1157C7.2102 24.8793 7.2102 24.6429 7.2102 24.4065C7.2102 24.3671 7.2102 24.3277 7.2102 24.2883C7.13186 24.0913 7.05353 23.8943 6.9752 23.6973L6.93603 23.6579H6.89686C6.5052 23.6185 6.19186 23.4215 5.9177 23.1458C5.6827 22.9094 5.48686 22.673 5.3302 22.3578C5.01686 21.8062 4.8602 21.2152 4.70353 20.5848C4.58603 20.1514 4.5077 19.6786 4.46853 19.2452C4.42936 18.7724 4.3902 18.2996 4.42936 17.8268C4.42936 17.6298 4.46853 17.4328 4.5077 17.2358C4.5077 17.1964 4.54686 17.1964 4.54686 17.157C4.58603 17.1964 4.6252 17.1964 4.66436 17.2358C4.93853 17.4328 5.17353 17.6692 5.40853 17.9056C5.87853 18.4178 6.2702 19.0088 6.54436 19.6392C6.93603 20.506 7.17103 21.4122 7.17103 22.3972C7.17103 22.7518 7.17103 23.067 7.13186 23.4215C7.13186 23.5397 7.13186 23.6579 7.2102 23.7761C7.2102 23.8155 7.24936 23.8155 7.24936 23.7761C7.3277 22.1608 7.48436 20.5848 7.7977 19.0088C7.75853 18.93 7.71936 18.8906 7.71936 18.8512C7.6802 18.6936 7.6802 18.536 7.64103 18.3784C7.64103 18.339 7.60186 18.2996 7.60186 18.2208C7.5627 18.1814 7.52353 18.1814 7.52353 18.1814C7.28853 18.0632 7.0927 17.8662 6.89686 17.6692C6.66186 17.3934 6.54436 17.0388 6.42686 16.7236C6.2702 16.2114 6.23103 15.6992 6.23103 15.187C6.23103 14.7536 6.23103 14.3596 6.2702 13.9262C6.30936 13.414 6.34853 12.9018 6.46603 12.3897C6.54436 12.1139 6.6227 11.8381 6.7402 11.5623C6.7402 11.5229 6.7402 11.4835 6.81853 11.4835L6.8577 11.5229C7.17103 11.9169 7.4452 12.3503 7.6802 12.823C7.9152 13.3352 8.07185 13.8474 8.18935 14.399C8.30685 15.0294 8.30686 15.6992 8.22853 16.3296C8.1502 16.8812 8.0327 17.4328 7.87603 17.9844C7.83686 18.142 7.83686 18.2996 7.87603 18.4572V18.4966C7.87603 18.4966 7.87603 18.536 7.9152 18.536C7.9152 18.4966 7.95436 18.4178 7.95436 18.3784C8.0327 18.0238 8.1502 17.6692 8.22853 17.2752C8.5027 16.2508 8.89436 15.2658 9.28603 14.3202C9.32519 14.2414 9.36436 14.1232 9.3252 14.005V13.9656C9.3252 13.808 9.3252 13.6898 9.36436 13.5322C9.36436 13.4534 9.36436 13.3746 9.28603 13.2958C9.09019 13.1382 8.93352 12.9018 8.81602 12.6655C8.62019 12.2715 8.54185 11.8775 8.54185 11.4441C8.50269 10.9319 8.58103 10.4197 8.65936 9.94687C8.7377 9.55287 8.81603 9.15888 8.93353 8.76488C9.0902 8.25268 9.24686 7.77989 9.4427 7.30709C9.5602 7.0707 9.6777 6.8343 9.83436 6.5979C9.87353 6.5585 9.91269 6.5191 9.91269 6.4797C9.95185 6.5191 9.95186 6.5191 9.95186 6.5585C10.226 7.11009 10.4219 7.70109 10.5002 8.33148C10.5785 8.80428 10.5785 9.23767 10.5785 9.71047C10.5785 9.90747 10.5394 10.1045 10.5394 10.3015C10.5002 10.8925 10.3435 11.4441 10.1477 11.9563C9.52103 12.5079 9.3252 12.9018 9.0902 13.2958C9.05103 13.3746 9.01186 13.4534 9.01186 13.5322C9.01186 13.5716 9.01186 13.6504 9.01186 13.6898C9.01186 13.6898 9.01186 13.7292 9.05103 13.7292C9.05103 13.6898 9.0902 13.6898 9.0902 13.6504C9.3252 13.1776 9.5602 12.7049 9.7952 12.2715C10.1869 11.6017 10.6177 10.9319 11.0485 10.2621C11.2052 10.0651 11.3619 9.86807 11.4794 9.63167C11.5185 9.59227 11.5185 9.55287 11.5185 9.51347C11.5577 9.39527 11.5577 9.23767 11.5969 9.11948C11.5969 9.04068 11.636 8.92248 11.636 8.84368C11.636 8.80428 11.5969 8.80428 11.5969 8.80428C11.4402 8.64668 11.3619 8.44968 11.2835 8.25268C11.2052 7.97689 11.166 7.74049 11.166 7.46469C11.166 6.8737 11.2835 6.3221 11.4402 5.73111C11.5577 5.33711 11.7535 4.98252 11.9494 4.62792C12.2235 4.11572 12.5369 3.64293 12.9285 3.24893C13.1244 3.05193 13.3202 2.85494 13.5552 2.65794C13.5944 2.61854 13.5944 2.61854 13.6727 2.61854C13.6727 2.65794 13.7119 2.73674 13.7119 2.77614C13.751 3.05193 13.7902 3.32773 13.7902 3.60353C13.7902 4.31272 13.7119 4.98252 13.5944 5.65231C13.516 6.04631 13.3985 6.4797 13.2419 6.8737C12.9677 7.54349 12.576 8.17388 12.0669 8.68608C11.871 8.92248 11.871 8.92248 11.8319 9.19828V9.23767C11.8319 9.23767 11.8319 9.27707 11.871 9.27707L11.9102 9.23767C12.106 9.00128 12.2627 8.76488 12.4585 8.56788C12.9677 7.97689 13.4769 7.42529 14.0252 6.9131C14.221 6.7161 14.4169 6.5585 14.6127 6.3615C14.7302 6.2433 14.8869 6.1251 15.0435 6.00691C15.0044 6.00691 15.0435 5.96751 15.0435 5.96751C15.0435 5.92811 15.0435 5.92811 15.0435 5.92811C15.0044 5.45531 15.1219 5.02191 15.396 4.62792C15.631 4.27332 15.9052 3.99752 16.2577 3.72173C16.6102 3.44593 17.0019 3.24893 17.4327 3.09133C17.7852 2.97313 18.1377 2.85494 18.451 2.73674C18.6469 2.65794 18.8035 2.61854 18.9994 2.53974C19.0385 2.53974 19.1169 2.50034 19.1169 2.46094C19.156 2.50034 19.1952 2.50034 19.1952 2.50034Z" fill="#7A7384"/>
<path fill-rule="evenodd" clip-rule="evenodd" d="M132.133 2.46094C132.173 2.69734 132.251 2.89434 132.329 3.13073C132.564 3.72173 132.838 4.27332 133.269 4.74612C133.7 5.25831 134.209 5.65231 134.836 5.92811C135.188 6.0857 135.58 6.1645 135.933 6.1645C135.972 6.1645 136.011 6.1645 136.011 6.1645C136.05 6.1645 136.089 6.1645 136.128 6.2039C136.363 6.4009 136.559 6.5585 136.794 6.7555C137.343 7.26769 137.813 7.81929 138.283 8.37088C138.361 8.48908 138.478 8.60728 138.557 8.72548C138.557 8.76488 138.596 8.76488 138.596 8.76488C138.596 8.80428 138.557 8.80428 138.557 8.80428C138.439 8.80428 138.361 8.80428 138.243 8.76488C138.243 8.72548 138.204 8.72548 138.204 8.68608C138.008 8.17389 137.656 7.81929 137.147 7.58289C136.716 7.38589 136.246 7.26769 135.776 7.30709C135.463 7.30709 135.188 7.34649 134.875 7.38589C134.444 7.46469 134.053 7.50409 133.622 7.58289C133.583 7.58289 133.504 7.62229 133.465 7.62229C133.465 7.70109 133.504 7.74049 133.543 7.77989C133.778 8.09509 134.092 8.37088 134.405 8.60728C134.797 8.92248 135.228 9.11948 135.698 9.23768C136.011 9.31647 136.363 9.35587 136.677 9.35587C136.99 9.35587 137.303 9.31647 137.617 9.19828C137.773 9.11948 137.969 9.04068 138.126 8.96188C138.165 8.92248 138.243 8.92248 138.283 8.92248C138.439 8.96188 138.596 9.00128 138.753 8.96188C139.223 9.39527 140.75 11.8775 141.024 12.5867C140.946 12.5867 140.828 12.5473 140.633 12.4685C140.633 12.4291 140.633 12.4291 140.593 12.3897C140.515 11.7987 140.163 11.3259 139.693 10.9713C139.379 10.7743 139.066 10.6561 138.713 10.5379C138.322 10.4197 137.891 10.3803 137.46 10.3409C137.108 10.3015 136.716 10.3015 136.363 10.2621C136.246 10.2621 136.128 10.2621 136.05 10.2227C136.011 10.2227 136.011 10.2227 135.933 10.2227C135.972 10.2621 135.972 10.3409 136.011 10.3409C136.403 10.9713 136.873 11.5229 137.46 11.9563C137.969 12.3109 138.557 12.5867 139.183 12.6655C139.614 12.7443 140.006 12.7049 140.437 12.5473C140.476 12.5473 140.515 12.5473 140.515 12.5079C140.554 12.4685 140.593 12.5079 140.633 12.5079C140.672 12.5473 140.75 12.5867 140.789 12.5867C140.907 12.6261 141.024 12.6655 141.142 12.7049C141.886 14.2414 142.473 15.8174 142.904 17.4722C142.787 17.4722 142.708 17.3934 142.552 17.2752C142.552 17.157 142.552 17.0782 142.552 16.96C142.552 16.3296 142.317 15.8174 141.886 15.3446C141.651 15.0688 141.377 14.8718 141.103 14.6748C140.75 14.4384 140.319 14.2414 139.928 14.0838C139.458 13.8868 138.948 13.6898 138.478 13.5322C138.439 13.4928 138.361 13.4928 138.322 13.4534C138.322 13.4534 138.283 13.4534 138.243 13.4534C138.243 13.4928 138.243 13.5322 138.243 13.5322C138.322 13.808 138.4 14.0838 138.518 14.3596C138.674 14.7536 138.87 15.1476 139.144 15.5022C139.497 16.0144 139.928 16.4478 140.437 16.8418C140.711 17.0388 140.985 17.157 141.259 17.2752C141.612 17.3934 141.964 17.4722 142.317 17.4328C142.395 17.4328 142.473 17.4328 142.552 17.5116C142.669 17.6298 142.826 17.748 142.983 17.8268C143.296 19.0088 143.492 20.2302 143.609 21.4516C143.727 22.6336 143.727 23.1458 143.688 23.3428C143.648 23.3428 143.648 23.3428 143.648 23.3034C143.57 23.2246 143.531 23.1458 143.453 23.1064C143.413 23.067 143.413 23.0276 143.413 22.9488C143.413 22.9094 143.453 22.8306 143.453 22.7912C143.531 22.4366 143.492 22.082 143.453 21.7668C143.374 21.4122 143.257 21.0576 143.1 20.703C142.943 20.3484 142.708 20.0332 142.434 19.7574C142.082 19.3634 141.69 19.0088 141.298 18.6936C140.946 18.4178 140.633 18.142 140.28 17.8662C140.202 17.8268 140.163 17.748 140.084 17.7086C140.045 17.7086 140.045 17.6692 140.006 17.6692C139.967 17.7086 139.967 17.748 139.967 17.748C139.967 18.142 140.045 18.536 140.084 18.93C140.202 19.5604 140.398 20.1514 140.711 20.7424C141.024 21.3334 141.416 21.8456 141.886 22.3184C142.238 22.6336 142.63 22.87 143.1 23.0276H143.139C143.257 23.067 143.374 23.1458 143.413 23.264C143.492 23.3822 143.57 23.5397 143.688 23.6579C143.727 23.6973 143.727 23.7367 143.727 23.7761C143.727 24.0125 143.727 24.2489 143.727 24.4459C143.727 24.7611 143.688 25.1157 143.688 25.4309C143.648 25.9431 143.609 26.4159 143.57 26.9281C143.492 27.3615 143.453 27.8343 143.374 28.2677C143.335 28.5041 143.296 28.7405 143.257 28.9769C143.257 29.0163 143.218 29.0557 143.218 29.0951C143.139 29.0163 143.061 28.8193 143.022 28.6617V28.6223C143.178 28.4253 143.257 28.2283 143.296 27.9919C143.335 27.6767 143.335 27.4009 143.335 27.0857C143.296 26.6129 143.139 26.1401 142.943 25.7067C142.708 25.2339 142.434 24.7611 142.082 24.3277C141.808 23.9337 141.533 23.5791 141.22 23.2246C141.063 22.9882 140.907 22.7912 140.711 22.5548C140.672 22.5154 140.672 22.5154 140.633 22.476C140.633 22.5154 140.593 22.5548 140.593 22.5548C140.554 22.7518 140.554 22.9488 140.515 23.1458C140.476 23.7367 140.476 24.2883 140.554 24.8793C140.633 25.3521 140.75 25.8249 140.946 26.2977C141.103 26.7311 141.338 27.1645 141.612 27.5585C141.886 27.9919 142.238 28.3465 142.669 28.6617C142.748 28.7405 142.826 28.7799 142.865 28.8981C142.943 29.0951 142.983 29.2527 143.1 29.4103C143.139 29.4497 143.139 29.5285 143.1 29.5679C143.061 29.6861 143.061 29.8043 143.022 29.9225C142.748 30.9469 142.434 31.9713 142.003 32.9563C141.768 33.5079 141.533 34.0594 141.259 34.5716C141.259 34.611 141.22 34.6504 141.181 34.6898C141.142 34.5716 141.103 34.414 141.103 34.2564C141.259 34.0988 141.416 33.9413 141.494 33.7049C141.533 33.5867 141.612 33.4291 141.651 33.3109C141.768 32.9957 141.808 32.6411 141.847 32.2865C141.886 32.0501 141.847 31.7743 141.808 31.5379C141.729 30.9863 141.573 30.4347 141.377 29.9225C141.181 29.3709 140.985 28.8587 140.789 28.3465C140.672 28.1101 140.593 27.8343 140.515 27.5979C140.515 27.5979 140.515 27.5585 140.476 27.5585C140.437 27.5585 140.398 27.5979 140.398 27.6373C140.28 27.8737 140.163 28.1495 140.084 28.4253C139.928 28.8981 139.849 29.3315 139.771 29.8437C139.732 30.3165 139.693 30.7893 139.771 31.2621C139.81 31.6955 139.888 32.0895 140.006 32.5229C140.163 33.1139 140.437 33.6655 140.828 34.1776C140.907 34.2564 140.946 34.3352 140.946 34.4534C140.985 34.611 140.985 34.7686 141.024 34.9262C141.024 35.005 141.024 35.0444 140.985 35.1232C140.868 35.3202 140.789 35.4778 140.672 35.6748C140.319 36.3052 139.888 36.8962 139.458 37.4478C139.066 37.96 138.674 38.4328 138.204 38.8662C138.165 38.9056 138.126 38.945 138.087 38.9844C138.087 38.945 138.048 38.945 138.048 38.9056C138.048 38.7874 138.048 38.6692 138.087 38.551L138.126 38.5116C138.4 38.3934 138.596 38.1964 138.753 37.9994C139.027 37.6448 139.262 37.2508 139.379 36.778C139.418 36.6598 139.418 36.5022 139.458 36.384C139.536 35.9112 139.536 35.4384 139.497 34.9656C139.458 34.414 139.418 33.9019 139.34 33.3503C139.262 32.9169 139.223 32.4441 139.183 32.0107C139.183 31.9713 139.183 31.9713 139.144 31.9319C139.066 31.9319 139.066 32.0107 139.027 32.0107C138.831 32.2471 138.674 32.4835 138.518 32.7199C138.126 33.3109 137.852 33.9413 137.695 34.611C137.617 34.9656 137.538 35.3202 137.538 35.7142C137.499 35.99 137.499 36.3052 137.499 36.581C137.538 37.0932 137.617 37.6054 137.813 38.1176C137.891 38.3146 137.93 38.5116 137.93 38.7086C137.93 38.8268 137.93 38.945 137.93 39.0632C137.93 39.142 137.93 39.1814 137.852 39.2208C137.656 39.4178 137.46 39.5754 137.264 39.7724C136.52 40.4422 135.698 40.9938 134.836 41.4666C134.562 41.6242 134.248 41.7818 133.935 41.9394C133.896 41.9394 133.857 41.9788 133.818 41.9788C133.778 41.8606 133.818 41.7818 133.896 41.6242C134.131 41.6242 134.366 41.5454 134.562 41.4272C134.953 41.1908 135.267 40.8362 135.541 40.4816C135.658 40.324 135.737 40.127 135.815 39.93C136.011 39.4178 136.128 38.9056 136.246 38.354C136.324 37.763 136.442 37.2114 136.52 36.6204C136.52 36.5022 136.559 36.4234 136.559 36.3052C136.559 36.2658 136.559 36.187 136.598 36.1082C136.559 36.1082 136.52 36.1082 136.481 36.1476C136.363 36.2264 136.207 36.3052 136.089 36.384C135.58 36.6992 135.149 37.0932 134.797 37.566C134.562 37.8812 134.327 38.2358 134.17 38.6298C133.974 39.0238 133.857 39.4572 133.778 39.8906C133.7 40.2846 133.7 40.6786 133.739 41.112C133.739 41.2302 133.778 41.3484 133.778 41.4666C133.778 41.506 133.778 41.5454 133.778 41.5454C133.739 41.703 133.7 41.9 133.661 42.0576C133.661 42.097 133.661 42.097 133.622 42.1364C133.426 42.2152 133.23 42.294 133.034 42.3728C132.643 42.5304 132.212 42.688 131.82 42.8062C131.35 42.9244 130.88 43.0426 130.41 43.1214C130.41 43.1214 130.371 43.1214 130.332 43.1214C130.214 43.1214 130.175 43.2002 130.136 43.279C130.097 43.3578 130.097 43.4366 130.097 43.5548C130.136 43.5548 130.175 43.5548 130.214 43.5548C130.567 43.476 130.88 43.4366 131.233 43.3578C131.898 43.2002 132.564 43.0032 133.23 42.7668C133.308 42.7274 133.387 42.7274 133.504 42.7668C133.622 42.8062 133.778 42.8062 133.896 42.8456C133.935 42.8456 133.974 42.8456 134.013 42.885C134.053 42.9244 134.053 42.9638 134.092 43.0032C134.327 43.4366 134.64 43.7518 135.071 43.9488C135.423 44.1458 135.815 44.264 136.207 44.3034C136.285 44.3034 136.403 44.3034 136.481 44.3428C136.52 44.3428 136.598 44.3822 136.638 44.3822C136.912 44.3822 137.225 44.3822 137.499 44.3822C137.538 44.3428 137.617 44.3428 137.656 44.3428C137.93 44.3034 138.204 44.264 138.478 44.1852C138.87 44.1064 139.262 43.9882 139.614 43.7912C139.771 43.7124 139.928 43.6336 140.084 43.5154C140.123 43.476 140.163 43.4366 140.202 43.4366C140.241 43.3972 140.28 43.3578 140.28 43.3184C140.241 43.3184 140.241 43.279 140.202 43.2396C139.967 43.0426 139.771 42.885 139.497 42.7274C139.066 42.4516 138.635 42.2152 138.165 42.0576C137.813 41.9394 137.46 41.8606 137.108 41.8212C136.794 41.7818 136.52 41.7818 136.207 41.8212C135.776 41.8606 135.384 41.9788 134.993 42.1364C134.718 42.2546 134.444 42.4122 134.17 42.5698C134.092 42.6092 134.013 42.6486 133.935 42.6092C133.896 42.6092 133.857 42.6092 133.818 42.5698C133.818 42.491 133.896 42.491 133.935 42.491C134.953 42.0182 135.933 41.4272 136.833 40.718C137.108 40.4816 137.382 40.2846 137.656 40.0482C137.695 40.0088 137.773 39.9694 137.852 39.9694C137.969 39.9694 138.087 39.93 138.204 39.93C138.243 39.93 138.283 39.93 138.361 39.93C138.4 39.9694 138.4 40.0088 138.439 40.0088C138.557 40.127 138.674 40.2452 138.792 40.324C139.144 40.5604 139.536 40.6392 139.928 40.6786C140.202 40.6786 140.515 40.6786 140.789 40.5998C141.377 40.4816 141.925 40.2846 142.473 40.0088C142.748 39.8512 142.983 39.6936 143.257 39.536C143.57 39.339 143.844 39.1026 144.079 38.8268C144.158 38.7086 144.275 38.5904 144.314 38.4722C144.314 38.4328 144.353 38.4328 144.353 38.3934C144.314 38.354 144.236 38.354 144.197 38.3146C143.962 38.2358 143.766 38.157 143.531 38.0782C142.748 37.8418 141.964 37.8024 141.142 37.9206C140.75 37.9994 140.398 38.0782 140.045 38.2358C139.575 38.4722 139.183 38.748 138.792 39.142C138.635 39.2996 138.478 39.4572 138.322 39.6148C138.283 39.6542 138.243 39.6936 138.243 39.6936C138.204 39.6936 138.126 39.733 138.048 39.733V39.6936C138.087 39.6542 138.126 39.6148 138.126 39.5754C138.518 39.1814 138.909 38.7874 139.262 38.354C139.849 37.6448 140.358 36.8962 140.868 36.1082C140.946 35.99 140.985 35.8718 141.142 35.8324C141.142 35.8324 141.181 35.8324 141.181 35.793C141.298 35.7142 141.455 35.596 141.573 35.5172C141.612 35.5566 141.651 35.5566 141.69 35.596C141.886 35.7142 142.082 35.7536 142.278 35.793C142.63 35.8324 142.943 35.793 143.257 35.7142C143.727 35.596 144.158 35.3596 144.549 35.0444C144.941 34.7292 145.293 34.3352 145.646 33.9413C145.959 33.5867 146.194 33.1927 146.429 32.7593C146.547 32.5229 146.664 32.2471 146.703 31.9713C146.703 31.9319 146.703 31.8925 146.703 31.8531C146.664 31.8531 146.625 31.8531 146.625 31.8531C146.468 31.8531 146.312 31.8531 146.155 31.8531C145.881 31.8531 145.607 31.8925 145.333 31.9319C144.863 32.0107 144.432 32.2077 144.04 32.4047C143.492 32.7199 142.983 33.1139 142.591 33.5867C142.317 33.9019 142.082 34.2564 141.886 34.611C141.768 34.808 141.651 35.0444 141.533 35.2414C141.494 35.3596 141.416 35.399 141.259 35.4384C141.259 35.399 141.298 35.3596 141.298 35.3596C141.416 35.1626 141.533 34.9262 141.651 34.7292C142.003 34.0201 142.317 33.3109 142.63 32.6017C142.904 31.8925 143.139 31.2227 143.335 30.5135C143.374 30.4347 143.374 30.3165 143.453 30.2377C143.492 30.1983 143.492 30.1589 143.531 30.1195C143.609 30.0013 143.688 29.8831 143.766 29.7649C143.805 29.7649 143.844 29.7649 143.883 29.7649C144.275 29.8437 144.628 29.7649 144.941 29.6073C145.254 29.4497 145.489 29.2527 145.724 29.0163C146.116 28.6223 146.429 28.2283 146.703 27.7555C146.938 27.3615 147.134 26.9281 147.33 26.4553C147.487 26.1007 147.604 25.7461 147.683 25.3915C147.722 25.2733 147.722 25.1157 147.761 24.9975C147.761 24.9581 147.761 24.9187 147.839 24.9187C147.839 24.7611 147.839 24.6035 147.839 24.4853C147.8 24.4459 147.761 24.4853 147.683 24.4853C147.33 24.5641 147.056 24.7217 146.743 24.8793C146.116 25.2339 145.607 25.6673 145.137 26.2189C144.745 26.6523 144.432 27.1645 144.197 27.6767C144.04 28.0707 143.883 28.4647 143.805 28.8981C143.766 29.0951 143.727 29.2921 143.688 29.4891C143.648 29.6073 143.609 29.6861 143.531 29.7255C143.531 29.6467 143.531 29.6073 143.531 29.5679C143.57 29.3709 143.609 29.1345 143.688 28.9375C143.805 28.3465 143.883 27.7949 143.962 27.2039C144.04 26.6523 144.04 26.1007 144.079 25.5491C144.079 25.3127 144.079 25.0763 144.118 24.8399C144.118 24.8005 144.118 24.7611 144.118 24.7217C144.197 24.5247 144.275 24.3277 144.393 24.1307L144.432 24.0913H144.471C144.863 24.0519 145.176 23.8943 145.45 23.6185C145.685 23.3822 145.881 23.1458 146.038 22.87C146.351 22.3184 146.547 21.7274 146.703 21.1364C146.821 20.703 146.899 20.2302 146.978 19.7968C147.056 19.324 147.095 18.8512 147.056 18.3784C147.056 18.1814 147.017 17.9844 147.017 17.748C147.017 17.7086 146.978 17.7086 146.978 17.6692C146.938 17.7086 146.899 17.7086 146.86 17.748C146.586 17.945 146.351 18.1814 146.116 18.4178C145.646 18.93 145.254 19.4816 144.941 20.112C144.51 20.9788 144.275 21.885 144.275 22.8306C144.275 23.1852 144.275 23.5003 144.314 23.8549C144.314 23.9731 144.314 24.0913 144.236 24.2095C144.236 24.2489 144.197 24.2489 144.197 24.2095C144.158 22.5942 144.04 21.0182 143.766 19.4422C143.805 19.3634 143.844 19.324 143.844 19.2846C143.883 19.127 143.923 18.9694 143.923 18.8118C143.923 18.7724 143.962 18.733 143.962 18.6936C144.001 18.6936 144.04 18.6542 144.04 18.6542C144.275 18.536 144.51 18.339 144.667 18.142C144.902 17.8662 145.058 17.551 145.137 17.1964C145.293 16.6842 145.333 16.172 145.372 15.6598C145.411 15.2264 145.411 14.8324 145.372 14.399C145.372 13.8868 145.293 13.3746 145.215 12.8625C145.137 12.5867 145.058 12.2715 144.98 12.0351C144.98 11.9957 144.98 11.9563 144.902 11.9563L144.863 11.9957C144.549 12.3897 144.236 12.7837 144.001 13.2564C143.766 13.7686 143.57 14.2808 143.453 14.8324C143.335 15.4628 143.296 16.1326 143.374 16.763C143.413 17.3146 143.531 17.9056 143.688 18.4572C143.727 18.6148 143.727 18.7724 143.688 18.93V18.9694C143.688 18.9694 143.688 19.0088 143.648 19.0088C143.648 18.9694 143.609 18.8906 143.609 18.8512C143.531 18.4966 143.453 18.1026 143.374 17.748C143.1 16.7236 142.787 15.7386 142.395 14.7536C142.356 14.6748 142.317 14.5566 142.356 14.4384V14.399C142.356 14.2414 142.356 14.1232 142.317 13.9656C142.317 13.8868 142.317 13.808 142.395 13.7292C142.591 13.5716 142.748 13.3352 142.865 13.1382C143.061 12.7443 143.139 12.3503 143.178 11.9169C143.218 11.4047 143.178 10.8925 143.1 10.4197C143.061 10.0257 142.943 9.63167 142.865 9.23768C142.748 8.72548 142.591 8.25268 142.395 7.77989C142.278 7.54349 142.16 7.30709 142.003 7.0707C141.964 7.0313 141.964 6.9919 141.925 6.9525C141.886 6.9919 141.886 6.9919 141.886 7.0313C141.612 7.58289 141.416 8.17389 141.298 8.76488C141.22 9.23768 141.181 9.67107 141.181 10.1439C141.181 10.3409 141.181 10.5379 141.22 10.7349C141.259 11.3259 141.377 11.8775 141.573 12.4291C141.729 12.8625 141.886 13.2564 142.121 13.6504C142.16 13.7292 142.199 13.808 142.199 13.8868C142.199 13.9262 142.199 14.005 142.199 14.0444C142.199 14.0444 142.199 14.0838 142.16 14.0838C142.16 14.0444 142.121 14.0444 142.121 14.005C141.925 13.5322 141.69 13.0594 141.416 12.5867C141.063 11.8775 140.633 11.2077 140.202 10.5773C140.045 10.3803 139.928 10.1439 139.771 9.94687C139.732 9.90747 139.732 9.86807 139.732 9.82867C139.693 9.71047 139.693 9.55287 139.693 9.43467C139.693 9.31647 139.653 9.23768 139.653 9.15888C139.653 9.11948 139.693 9.11948 139.693 9.11948C139.849 8.96188 139.967 8.80428 140.006 8.60728C140.084 8.33148 140.163 8.09509 140.163 7.81929C140.202 7.22829 140.084 6.6373 139.928 6.0857C139.81 5.69171 139.653 5.33711 139.458 4.98252C139.183 4.47032 138.909 3.99752 138.518 3.56413C138.322 3.32773 138.126 3.13073 137.891 2.97313C137.852 2.93373 137.852 2.93373 137.773 2.93373C137.773 2.97313 137.734 3.05193 137.734 3.09133C137.695 3.36713 137.656 3.64293 137.656 3.91873C137.617 4.62792 137.695 5.29771 137.813 5.96751C137.891 6.4009 138.008 6.7949 138.165 7.18889C138.439 7.85869 138.792 8.48908 139.301 9.04068C139.497 9.27707 139.497 9.27707 139.536 9.55287V9.59227C139.536 9.59227 139.536 9.63167 139.497 9.63167L139.458 9.59227C139.262 9.35587 139.105 9.11948 138.909 8.88308C138.439 8.29208 137.93 7.74049 137.382 7.18889C137.186 6.9919 136.99 6.8343 136.833 6.6373C136.716 6.5191 136.559 6.3615 136.403 6.2827C136.363 6.2433 136.363 6.2433 136.324 6.2039C136.324 6.1645 136.324 6.1645 136.324 6.1645C136.403 5.69171 136.285 5.25831 136.05 4.86432C135.854 4.50972 135.541 4.19452 135.228 3.95813C134.875 3.68233 134.483 3.44593 134.053 3.28833C133.7 3.17013 133.348 3.05193 133.034 2.89434C132.838 2.81554 132.682 2.77614 132.486 2.69734C132.447 2.69734 132.368 2.65794 132.368 2.61854C132.173 2.46094 132.133 2.46094 132.133 2.46094Z" fill="#7A7384"/>
</svg>
