<svg width="124" height="46" viewBox="0 0 124 46" fill="none" xmlns="http://www.w3.org/2000/svg">
<path fill-rule="evenodd" clip-rule="evenodd" d="M18.4237 2.42417C18.3845 2.66057 18.3062 2.85757 18.2279 3.05457C17.9929 3.64556 17.6795 4.19715 17.2487 4.66995C16.8179 5.18214 16.2695 5.53674 15.6429 5.77314C15.2904 5.93074 14.8987 5.97014 14.5462 5.97014C14.507 5.97014 14.4679 5.97014 14.4679 5.97014C14.4287 5.97014 14.3895 5.97014 14.3504 6.00954C14.1154 6.20653 13.8804 6.36413 13.6845 6.56113C13.1362 7.07333 12.627 7.58552 12.157 8.13712C12.0395 8.25532 11.9612 8.37351 11.8437 8.49171L11.8045 8.53111C11.8045 8.57051 11.8437 8.57051 11.8437 8.57051C11.9612 8.57051 12.0395 8.57051 12.157 8.53111C12.157 8.49171 12.1962 8.49171 12.1962 8.45231C12.392 7.94012 12.7837 7.58552 13.2929 7.34912C13.7237 7.15213 14.1937 7.07333 14.6637 7.11273C14.977 7.11273 15.2512 7.15213 15.5645 7.23093C15.9954 7.30972 16.387 7.38852 16.8179 7.46732C16.857 7.46732 16.9354 7.50672 16.9745 7.50672C16.9745 7.58552 16.9354 7.62492 16.8962 7.66432C16.6612 7.97952 16.3479 8.25532 16.0345 8.49171C15.6429 8.76751 15.212 9.00391 14.7029 9.12211C14.3895 9.20091 14.037 9.24031 13.7237 9.20091C13.4104 9.20091 13.097 9.12211 12.8229 9.00391C12.6662 8.92511 12.5095 8.84631 12.3529 8.76751C12.3137 8.72811 12.2354 8.72811 12.1962 8.72811C12.0395 8.76751 11.8829 8.80691 11.7262 8.76751C11.2562 9.20091 9.65038 11.6436 9.33704 12.3528C9.41538 12.3528 9.53288 12.3528 9.72871 12.2346C9.72871 12.1952 9.72871 12.1952 9.76788 12.1558C9.88538 11.5648 10.1987 11.092 10.7079 10.7768C11.0212 10.5798 11.3345 10.4616 11.687 10.3828C12.0787 10.2646 12.5095 10.2646 12.9404 10.2252C13.2929 10.2252 13.6845 10.1858 14.037 10.1858C14.1545 10.1858 14.272 10.1858 14.3504 10.1858C14.3895 10.1858 14.3895 10.1858 14.4679 10.1858C14.4287 10.2252 14.4287 10.2646 14.3895 10.304C13.9979 10.9344 13.4887 11.486 12.9012 11.88C12.392 12.2346 11.8045 12.471 11.1779 12.5498C10.747 12.5892 10.3554 12.5498 9.96371 12.3922C9.92454 12.3922 9.88538 12.3528 9.88538 12.3528C9.84621 12.3134 9.80704 12.3528 9.76788 12.3528C9.72871 12.3922 9.65038 12.3922 9.61121 12.4316C9.49371 12.471 9.37621 12.5104 9.25871 12.5498C8.47538 14.047 7.84871 15.623 7.37871 17.2778C7.49621 17.2778 7.57454 17.199 7.73121 17.0808C7.73121 16.9626 7.73121 16.8838 7.73121 16.7656C7.77038 16.1352 8.00538 15.623 8.43621 15.1502C8.67121 14.8744 8.94538 14.6774 9.25871 14.5198C9.65038 14.2834 10.042 14.1258 10.4337 13.9682C10.9429 13.7712 11.4129 13.6136 11.922 13.456C11.9612 13.4166 12.0395 13.4166 12.0787 13.3772C12.0787 13.3772 12.1179 13.3772 12.157 13.3772C12.157 13.4166 12.157 13.456 12.157 13.456C12.0787 13.7318 11.9612 14.0076 11.8437 14.2834C11.6479 14.6774 11.452 15.032 11.217 15.3866C10.8645 15.8988 10.3945 16.3322 9.88538 16.6868C9.61121 16.8444 9.33704 17.002 9.06288 17.1202C8.71038 17.2384 8.35788 17.2778 8.00538 17.2778C7.92704 17.2778 7.84871 17.2778 7.77038 17.3566C7.65288 17.4748 7.49621 17.593 7.33954 17.6718C7.02621 18.8538 6.79121 20.0358 6.63454 21.2571C6.47788 22.4391 6.47788 22.9513 6.47788 23.1483C6.51704 23.1483 6.51704 23.1483 6.51704 23.1089C6.59538 23.0301 6.63454 22.9513 6.71288 22.9119C6.75204 22.8725 6.75204 22.8331 6.75204 22.7543C6.75204 22.7149 6.71288 22.6361 6.71288 22.5967C6.67371 22.2421 6.67371 21.8875 6.75204 21.5723C6.83038 21.2177 6.94788 20.8631 7.14371 20.5479C7.33954 20.1934 7.57454 19.8782 7.84871 19.6024C8.20121 19.2084 8.59288 18.8932 9.02371 18.578C9.37621 18.3022 9.72871 18.0658 10.0812 17.79C10.1595 17.7506 10.1987 17.6718 10.277 17.6324C10.3162 17.6324 10.3162 17.593 10.3554 17.593C10.3945 17.6324 10.3945 17.6718 10.3945 17.6718C10.3554 18.0658 10.3162 18.4598 10.2379 18.8538C10.0812 19.4842 9.88538 20.0752 9.57204 20.6267C9.25871 21.2177 8.86704 21.7299 8.35788 22.1633C8.00538 22.4785 7.57454 22.7149 7.14371 22.8725H7.10454C6.98704 22.9119 6.86954 22.9513 6.83038 23.0695C6.75204 23.1877 6.67371 23.3453 6.51704 23.4241C6.47788 23.4635 6.47788 23.5029 6.47788 23.5423C6.47788 23.7787 6.47788 23.9757 6.47788 24.2121C6.47788 24.5273 6.47788 24.8819 6.47788 25.1971C6.47788 25.7093 6.51704 26.1821 6.55621 26.6943C6.59538 27.1277 6.67371 27.6005 6.71288 28.0339C6.75204 28.2703 6.79121 28.5067 6.83038 28.7431C6.83038 28.7825 6.83038 28.8219 6.86954 28.8613C6.94788 28.7825 7.02621 28.6249 7.10454 28.4279V28.3885C6.94788 28.1915 6.86954 27.9945 6.83038 27.7581C6.79121 27.4429 6.79121 27.1671 6.83038 26.8519C6.86954 26.3791 7.06538 25.9063 7.26121 25.4729C7.49621 25.0001 7.80954 24.5273 8.12288 24.0939C8.39704 23.7393 8.71038 23.3453 8.98454 22.9907C9.14121 22.7543 9.33704 22.5573 9.49371 22.3209C9.53288 22.2815 9.53288 22.2815 9.57204 22.2421C9.57204 22.2815 9.61121 22.3209 9.61121 22.3209C9.65038 22.5179 9.65038 22.7149 9.65038 22.9119C9.68954 23.5029 9.65038 24.0545 9.57204 24.6455C9.49371 25.1183 9.33704 25.5911 9.18038 26.0245C8.98454 26.4579 8.78871 26.8913 8.51454 27.2853C8.20121 27.7187 7.84871 28.0733 7.41788 28.3491C7.33954 28.3885 7.26121 28.4673 7.22204 28.5855C7.14371 28.7825 7.06538 28.9401 6.98704 29.0977C6.94788 29.1371 6.94788 29.2159 6.94788 29.2553C6.98704 29.3735 6.98704 29.4917 7.02621 29.6099C7.26121 30.6737 7.57454 31.698 7.96621 32.683C8.16204 33.2346 8.39704 33.7862 8.67121 34.2984C8.67121 34.3378 8.71038 34.3772 8.74954 34.4166C8.78871 34.2984 8.82788 34.1802 8.82788 33.9832C8.67121 33.8256 8.51454 33.668 8.43621 33.4316C8.39704 33.3134 8.31871 33.1558 8.27954 32.9982C8.20121 32.683 8.12288 32.3284 8.12288 31.9738C8.12288 31.7374 8.16204 31.4616 8.20121 31.2252C8.27954 30.6737 8.47538 30.1615 8.67121 29.6099C8.86704 29.0977 9.10204 28.5855 9.33704 28.0339C9.45454 27.7975 9.53288 27.5217 9.65038 27.2853C9.65038 27.2853 9.65038 27.2459 9.68954 27.2459C9.72871 27.2459 9.72871 27.2853 9.76788 27.3247C9.88538 27.6005 9.96371 27.8369 10.042 28.1127C10.1595 28.5855 10.277 29.0583 10.3162 29.5311C10.3554 30.0039 10.3554 30.4767 10.277 30.9494C10.2379 31.3828 10.1204 31.7768 10.0029 32.2102C9.80704 32.8012 9.53288 33.3528 9.14121 33.8256C9.06288 33.9044 9.02371 33.9832 9.02371 34.1014C8.98454 34.259 8.98454 34.4166 8.94538 34.5742C8.94538 34.653 8.94538 34.6924 8.98454 34.7712C9.10204 34.9682 9.18038 35.1258 9.29788 35.3228C9.65038 35.9532 10.042 36.5442 10.4729 37.1352C10.8645 37.6474 11.2562 38.1202 11.687 38.593C11.7262 38.6324 11.7654 38.6718 11.8045 38.7112C11.8045 38.6718 11.8437 38.6718 11.8437 38.6324C11.8437 38.5142 11.8437 38.396 11.8437 38.2778L11.8045 38.2384C11.5695 38.1202 11.3737 37.9232 11.1779 37.7262C10.9037 37.3716 10.7079 36.9382 10.5904 36.5048C10.5512 36.3866 10.5512 36.229 10.512 36.1108C10.4729 35.638 10.4729 35.1652 10.512 34.6924C10.5512 34.1408 10.6295 33.6286 10.7079 33.077C10.7862 32.6436 10.8254 32.2102 10.9037 31.7374C10.9037 31.698 10.9037 31.698 10.9429 31.6586C11.0212 31.6586 11.0212 31.7374 11.0604 31.7768C11.2562 32.0132 11.4129 32.2496 11.5695 32.486C11.922 33.077 12.1962 33.7074 12.3529 34.4166C12.4312 34.7712 12.4704 35.1258 12.5095 35.5198C12.5095 35.7956 12.5095 36.1108 12.5095 36.3866C12.4704 36.8988 12.3529 37.411 12.157 37.8838C12.0787 38.0808 12.0004 38.2778 12.0395 38.4748C12.0395 38.593 12.0395 38.7112 12.0395 38.8294C12.0395 38.9082 12.0395 38.9476 12.1179 38.987C12.3137 39.184 12.5095 39.381 12.7054 39.5386C13.4495 40.2084 14.2329 40.7994 15.0945 41.3116C15.3687 41.4691 15.682 41.6267 15.9562 41.7843C15.9954 41.7843 16.0345 41.8237 16.0737 41.8237C16.1129 41.7055 16.0737 41.6267 15.9954 41.4691C15.7604 41.4691 15.5254 41.3903 15.3295 41.2328C14.9379 40.957 14.6245 40.6418 14.3895 40.2478C14.272 40.0902 14.1937 39.8538 14.1154 39.6568C13.9195 39.1446 13.802 38.593 13.7237 38.0808C13.6454 37.4898 13.567 36.9382 13.4887 36.3472C13.4887 36.229 13.4495 36.1502 13.4495 36.032C13.4495 35.9926 13.4495 35.9138 13.4495 35.835C13.4887 35.835 13.5279 35.835 13.567 35.8744C13.6845 35.9532 13.8412 36.032 13.9587 36.1108C14.4287 36.426 14.8595 36.82 15.212 37.3322C15.447 37.6868 15.6429 38.0414 15.7995 38.4354C15.9562 38.8294 16.1129 39.2628 16.152 39.6962C16.2304 40.0902 16.2304 40.4842 16.1912 40.9176C16.1912 41.0358 16.152 41.154 16.152 41.2721C16.152 41.3115 16.152 41.3509 16.152 41.3509C16.1912 41.5086 16.2304 41.7055 16.2695 41.8631C16.2695 41.9025 16.2695 41.9025 16.3087 41.9419C16.5045 42.0207 16.7004 42.0995 16.8962 42.1783C17.2879 42.3359 17.7187 42.4935 18.1104 42.6117C18.5804 42.7693 19.0504 42.8875 19.5204 42.9663C19.5204 42.9663 19.5595 42.9663 19.5987 42.9663C19.7162 42.9663 19.7554 43.0451 19.7945 43.1239C19.8337 43.2027 19.8337 43.2815 19.8337 43.3997C19.7945 43.3997 19.7554 43.3997 19.7162 43.3997C19.4029 43.3209 19.0504 43.2815 18.737 43.2027C18.0712 43.0451 17.4054 42.8087 16.7395 42.5329C16.6612 42.4935 16.5829 42.4935 16.4654 42.4935C16.3479 42.5329 16.1912 42.5329 16.0737 42.5723C16.0345 42.5723 15.9954 42.5723 15.9562 42.6117C15.917 42.6511 15.917 42.6905 15.8779 42.7299C15.6429 43.1633 15.2904 43.4391 14.8987 43.6755C14.5462 43.8725 14.1545 43.9513 13.7629 43.9907C13.6845 43.9907 13.567 43.9907 13.4887 44.0301C13.4495 44.0301 13.3712 44.0695 13.332 44.0695C13.0579 44.0695 12.7445 44.0695 12.4704 44.0301C12.4312 43.9907 12.3529 43.9907 12.3137 43.9907C12.0395 43.9513 11.7654 43.9119 11.4912 43.8331C11.0995 43.7149 10.7079 43.5967 10.3554 43.3997C10.1987 43.3209 10.042 43.2421 9.92454 43.1239C9.88538 43.0845 9.84621 43.0451 9.80704 43.0057C9.76788 42.9663 9.72871 42.9269 9.72871 42.8875C9.76788 42.8875 9.76788 42.8481 9.80704 42.8087C10.042 42.6117 10.277 42.4541 10.512 42.2965C10.9429 42.0207 11.3737 41.8237 11.8437 41.6661C12.1962 41.5479 12.5487 41.4691 12.9012 41.4691C13.2145 41.4297 13.4887 41.4297 13.802 41.4691C14.2329 41.5085 14.6245 41.6661 14.977 41.8237C15.2512 41.9419 15.5254 42.0995 15.7995 42.2571C15.8779 42.2965 15.9562 42.3359 16.0345 42.2965C16.0737 42.2965 16.1129 42.2965 16.152 42.2571C16.152 42.1783 16.0737 42.1783 16.0345 42.1783C15.0162 41.6661 14.0762 41.0752 13.2145 40.366C12.9404 40.1296 12.6662 39.8932 12.4312 39.6568C12.392 39.6174 12.3137 39.578 12.2354 39.578C12.1179 39.578 12.0004 39.5386 11.8829 39.5386C11.8437 39.5386 11.8045 39.5386 11.7262 39.5386C11.687 39.578 11.687 39.6174 11.6479 39.6174C11.5304 39.7356 11.4129 39.8144 11.2954 39.9326C10.9429 40.169 10.5512 40.2478 10.1595 40.2478C9.88538 40.2478 9.57204 40.2084 9.29788 40.169C8.71038 40.0508 8.16204 39.8144 7.65288 39.5386C7.37871 39.381 7.14371 39.2234 6.86954 39.0658C6.55621 38.8688 6.32121 38.6324 6.08621 38.3566C6.00788 38.2384 5.89038 38.1202 5.85121 38.002C5.85121 37.9626 5.81204 37.9626 5.81204 37.9232C5.85121 37.8838 5.92954 37.8838 5.96871 37.8444C6.20371 37.7656 6.39954 37.6868 6.63454 37.6474C7.41788 37.4504 8.20121 37.411 9.02371 37.5292C9.41538 37.608 9.76788 37.7262 10.1204 37.8838C10.5904 38.1202 10.982 38.4354 11.3345 38.79C11.4912 38.9476 11.6087 39.1052 11.7654 39.2628C11.8045 39.3022 11.8045 39.3416 11.8437 39.3416C11.8829 39.3416 11.9612 39.381 12.0395 39.381V39.3416C12.0004 39.3022 11.9612 39.2628 11.9612 39.2234C11.5695 38.8294 11.217 38.396 10.8645 37.9626C10.3162 37.2534 9.80704 36.5048 9.33704 35.6774C9.25871 35.5592 9.21954 35.441 9.10204 35.4016C9.10204 35.4016 9.06288 35.4016 9.06288 35.3622C8.94538 35.2834 8.78871 35.1652 8.67121 35.0864C8.63204 35.1258 8.59288 35.1258 8.55371 35.1258C8.35788 35.2046 8.16204 35.2834 7.96621 35.2834C7.61371 35.3228 7.30038 35.2834 6.98704 35.1652C6.51704 35.0076 6.08621 34.7712 5.69454 34.456C5.30288 34.1014 4.95038 33.7468 4.63704 33.3134C4.36288 32.9588 4.08871 32.5254 3.89288 32.1314C3.77538 31.895 3.69704 31.6192 3.65788 31.3434C3.65788 31.304 3.65788 31.2646 3.65788 31.2252C3.69704 31.2252 3.73621 31.2252 3.73621 31.2252C3.89288 31.2252 4.04954 31.2252 4.20621 31.2252C4.48038 31.2252 4.75454 31.2646 5.02871 31.3434C5.49871 31.4616 5.92954 31.6192 6.32121 31.8556C6.86954 32.1708 7.33954 32.5648 7.73121 33.077C8.00538 33.3922 8.24038 33.7468 8.43621 34.1408C8.55371 34.3378 8.63204 34.5742 8.74954 34.8106C8.78871 34.9288 8.86704 34.9682 9.02371 35.0076C9.02371 34.9682 8.98454 34.9288 8.98454 34.9288C8.86704 34.7318 8.78871 34.4954 8.67121 34.2984C8.31871 33.5892 8.04454 32.88 7.77038 32.1314C7.53538 31.4222 7.30038 30.7131 7.10454 30.0039C7.06538 29.9251 7.06538 29.8069 6.98704 29.7281C6.94788 29.6887 6.94788 29.6493 6.90871 29.6099C6.83038 29.4917 6.75204 29.3735 6.67371 29.2553C6.63454 29.2553 6.59538 29.2553 6.55621 29.2553C6.16454 29.2947 5.81204 29.2159 5.49871 29.0583C5.18538 28.9007 4.95038 28.7037 4.71538 28.4673C4.36288 28.0733 4.04954 27.6399 3.77538 27.1671C3.54038 26.7337 3.34454 26.3003 3.18788 25.8669C3.07038 25.5123 2.91371 25.1577 2.83538 24.8031C2.79621 24.6849 2.79621 24.5273 2.75704 24.4091C2.75704 24.3697 2.75704 24.3303 2.67871 24.2909C2.67871 24.1333 2.67871 23.9757 2.67871 23.8575C2.71788 23.8575 2.75704 23.8575 2.79621 23.8575C3.10954 23.9363 3.42288 24.0939 3.73621 24.2909C4.32371 24.6455 4.87204 25.1183 5.30288 25.6699C5.69454 26.1427 6.00788 26.6155 6.20371 27.1671C6.36038 27.5611 6.47788 27.9551 6.59538 28.3885C6.63454 28.5855 6.67371 28.7825 6.71288 28.9795C6.71288 29.0977 6.75204 29.1765 6.86954 29.2159C6.86954 29.1371 6.86954 29.0977 6.86954 29.0583C6.83038 28.8613 6.79121 28.6249 6.75204 28.4279C6.67371 27.8369 6.59538 27.2853 6.51704 26.6943C6.47788 26.1427 6.43871 25.5911 6.43871 25.0395C6.43871 24.8031 6.43871 24.5667 6.43871 24.3303C6.43871 24.2909 6.43871 24.2515 6.43871 24.2121C6.36038 24.0151 6.28204 23.8181 6.20371 23.6211L6.16454 23.5817H6.12538C5.73371 23.5423 5.42038 23.3453 5.14621 23.0695C4.91121 22.8331 4.71538 22.5967 4.55871 22.2815C4.24538 21.7299 4.08871 21.1389 3.93204 20.5085C3.81454 20.0752 3.73621 19.6024 3.69704 19.169C3.65788 18.6962 3.61871 18.2234 3.65788 17.7506C3.65788 17.5536 3.69704 17.3566 3.73621 17.1596C3.73621 17.1202 3.77538 17.1202 3.77538 17.0808C3.81454 17.1202 3.85371 17.1202 3.89288 17.1596C4.16704 17.3566 4.40204 17.593 4.63704 17.8294C5.10704 18.3416 5.49871 18.9326 5.77288 19.563C6.16454 20.4297 6.39954 21.3359 6.39954 22.3209C6.39954 22.6755 6.39954 22.9907 6.36038 23.3453C6.36038 23.4635 6.36038 23.5817 6.43871 23.6999C6.43871 23.7393 6.47788 23.7393 6.47788 23.6999C6.55621 22.0845 6.71288 20.5085 7.02621 18.9326C6.98704 18.8538 6.94788 18.8144 6.94788 18.775C6.90871 18.6174 6.90871 18.4598 6.86954 18.3022C6.86954 18.2628 6.83038 18.2234 6.83038 18.1446C6.79121 18.1052 6.75204 18.1052 6.75204 18.1052C6.51704 17.987 6.32121 17.79 6.12538 17.593C5.89038 17.3172 5.77288 16.9626 5.65538 16.6474C5.49871 16.1352 5.45954 15.623 5.45954 15.1108C5.45954 14.6774 5.45954 14.2834 5.49871 13.85C5.53788 13.3378 5.57704 12.8256 5.69454 12.3134C5.77288 12.0376 5.85121 11.7618 5.96871 11.486C5.96871 11.4466 5.96871 11.4072 6.04704 11.4072L6.08621 11.4466C6.39954 11.8406 6.67371 12.274 6.90871 12.7468C7.14371 13.259 7.30038 13.7712 7.41788 14.3228C7.53538 14.9532 7.53538 15.623 7.45704 16.2534C7.37871 16.805 7.26121 17.3566 7.10454 17.9082C7.06538 18.0658 7.06538 18.2234 7.10454 18.381V18.4204C7.10454 18.4204 7.10454 18.4598 7.14371 18.4598C7.14371 18.4204 7.18288 18.3416 7.18288 18.3022C7.26121 17.9476 7.37871 17.593 7.45704 17.199C7.73121 16.1746 8.12288 15.1896 8.51454 14.244C8.55371 14.1652 8.59288 14.047 8.55371 13.9288V13.8894C8.55371 13.7318 8.55371 13.6136 8.59288 13.456C8.59288 13.3772 8.59288 13.2984 8.51454 13.2196C8.31871 13.062 8.16204 12.8256 8.04454 12.5892C7.84871 12.1952 7.77038 11.8012 7.77038 11.3678C7.73121 10.8556 7.80954 10.3434 7.88788 9.8707C7.96621 9.4767 8.04454 9.08271 8.16204 8.68871C8.31871 8.17652 8.47538 7.70372 8.67121 7.23093C8.78871 6.99453 8.90621 6.75813 9.06288 6.52173C9.10204 6.48233 9.14121 6.44293 9.14121 6.40353C9.18038 6.44293 9.18038 6.44293 9.18038 6.48233C9.45454 7.03393 9.65038 7.62492 9.72871 8.25532C9.80704 8.72811 9.80704 9.16151 9.80704 9.6343C9.80704 9.8313 9.76788 10.0282 9.76788 10.2252C9.72871 10.8162 9.57204 11.3678 9.37621 11.88C8.74954 12.4316 8.55371 12.8256 8.31871 13.2196C8.27954 13.2984 8.24038 13.3772 8.24038 13.456C8.24038 13.4954 8.24038 13.5742 8.24038 13.6136C8.24038 13.6136 8.24038 13.653 8.27954 13.653C8.27954 13.6136 8.31871 13.6136 8.31871 13.5742C8.55371 13.1014 8.78871 12.6286 9.02371 12.1952C9.41538 11.5254 9.84621 10.8556 10.277 10.1858C10.4337 9.9889 10.5904 9.7919 10.7079 9.5555C10.747 9.5161 10.747 9.4767 10.747 9.4373C10.7862 9.31911 10.7862 9.16151 10.8254 9.04331C10.8254 8.96451 10.8645 8.84631 10.8645 8.76751C10.8645 8.72811 10.8254 8.72811 10.8254 8.72811C10.6687 8.57051 10.5904 8.37351 10.512 8.17652C10.4337 7.90072 10.3945 7.66432 10.3945 7.38852C10.3945 6.79753 10.512 6.24593 10.6687 5.65494C10.7862 5.26094 10.982 4.90635 11.1779 4.55175C11.452 4.03956 11.7654 3.56676 12.157 3.17276C12.3529 2.97577 12.5487 2.77877 12.7837 2.58177C12.8229 2.54237 12.8229 2.54237 12.9012 2.54237C12.9012 2.58177 12.9404 2.66057 12.9404 2.69997C12.9795 2.97577 13.0187 3.25156 13.0187 3.52736C13.0187 4.23655 12.9404 4.90635 12.8229 5.57614C12.7445 5.97014 12.627 6.40353 12.4704 6.79753C12.1962 7.46732 11.8045 8.09772 11.2954 8.60991C11.0995 8.84631 11.0995 8.84631 11.0604 9.12211V9.16151C11.0604 9.16151 11.0604 9.20091 11.0995 9.20091L11.1387 9.16151C11.3345 8.92511 11.4912 8.68871 11.687 8.49171C12.1962 7.90072 12.7054 7.34912 13.2537 6.83693C13.4495 6.63993 13.6454 6.48233 13.8412 6.28533C13.9587 6.16714 14.1154 6.04894 14.272 5.93074C14.2329 5.93074 14.272 5.89134 14.272 5.89134C14.272 5.85194 14.272 5.85194 14.272 5.85194C14.2329 5.37914 14.3504 4.94575 14.6245 4.55175C14.8595 4.19715 15.1337 3.92136 15.4862 3.64556C15.8387 3.36976 16.2304 3.17276 16.6612 3.01517C17.0137 2.89697 17.3662 2.77877 17.6795 2.66057C17.8754 2.58177 18.032 2.54237 18.2279 2.46357C18.267 2.46357 18.3454 2.42417 18.3454 2.38477C18.3845 2.42417 18.4237 2.42417 18.4237 2.42417Z" fill="#7A7384"/>
<path fill-rule="evenodd" clip-rule="evenodd" d="M105.273 2.38477C105.312 2.62117 105.39 2.81817 105.469 3.05457C105.704 3.64556 105.978 4.19715 106.409 4.66995C106.84 5.18215 107.349 5.57614 107.975 5.85194C108.328 6.00954 108.72 6.08834 109.072 6.08834C109.111 6.08834 109.15 6.08834 109.15 6.08834C109.19 6.08834 109.229 6.08834 109.268 6.12774C109.503 6.32473 109.699 6.48233 109.934 6.67933C110.482 7.19153 110.952 7.74312 111.422 8.29472C111.5 8.41291 111.618 8.53111 111.696 8.64931C111.696 8.68871 111.735 8.68871 111.735 8.68871C111.735 8.72811 111.696 8.72811 111.696 8.72811C111.579 8.72811 111.5 8.72811 111.383 8.68871C111.383 8.64931 111.344 8.64931 111.344 8.60991C111.148 8.09772 110.795 7.74312 110.286 7.50672C109.855 7.30972 109.385 7.19153 108.915 7.23093C108.602 7.23093 108.328 7.27033 108.015 7.30972C107.584 7.38852 107.192 7.42792 106.761 7.50672C106.722 7.50672 106.644 7.54612 106.605 7.54612C106.605 7.62492 106.644 7.66432 106.683 7.70372C106.918 8.01892 107.231 8.29472 107.545 8.53111C107.936 8.84631 108.367 9.04331 108.837 9.16151C109.15 9.24031 109.503 9.27971 109.816 9.27971C110.13 9.27971 110.443 9.24031 110.756 9.12211C110.913 9.04331 111.109 8.96451 111.265 8.88571C111.305 8.84631 111.383 8.84631 111.422 8.84631C111.579 8.88571 111.735 8.92511 111.892 8.88571C112.362 9.31911 113.89 11.8012 114.164 12.5104C114.085 12.5104 113.968 12.471 113.772 12.3922C113.772 12.3528 113.772 12.3528 113.733 12.3134C113.655 11.7224 113.302 11.2496 112.832 10.895C112.519 10.698 112.205 10.5798 111.853 10.4616C111.461 10.3434 111.03 10.304 110.6 10.2646C110.247 10.2252 109.855 10.2252 109.503 10.1858C109.385 10.1858 109.268 10.1858 109.19 10.1464C109.15 10.1464 109.15 10.1464 109.072 10.1464C109.111 10.1858 109.111 10.2646 109.15 10.2646C109.542 10.895 110.012 11.4466 110.6 11.88C111.109 12.2346 111.696 12.5104 112.323 12.5892C112.754 12.668 113.145 12.6286 113.576 12.471C113.615 12.471 113.655 12.471 113.655 12.4316C113.694 12.3922 113.733 12.4316 113.772 12.4316C113.811 12.471 113.89 12.5104 113.929 12.5104C114.046 12.5498 114.164 12.5892 114.281 12.6286C115.025 14.1652 115.613 15.7412 116.044 17.396C115.926 17.396 115.848 17.3172 115.691 17.199C115.691 17.0808 115.691 17.002 115.691 16.8838C115.691 16.2534 115.456 15.7412 115.025 15.2684C114.79 14.9926 114.516 14.7956 114.242 14.5986C113.89 14.3622 113.459 14.1652 113.067 14.0076C112.597 13.8106 112.088 13.6136 111.618 13.456C111.579 13.4166 111.5 13.4166 111.461 13.3772C111.461 13.3772 111.422 13.3772 111.383 13.3772C111.383 13.4166 111.383 13.456 111.383 13.456C111.461 13.7318 111.54 14.0076 111.657 14.2834C111.814 14.6774 112.01 15.0714 112.284 15.426C112.636 15.9382 113.067 16.3716 113.576 16.7656C113.85 16.9626 114.125 17.0808 114.399 17.199C114.751 17.3172 115.104 17.396 115.456 17.3566C115.535 17.3566 115.613 17.3566 115.691 17.4354C115.809 17.5536 115.965 17.6718 116.122 17.7506C116.435 18.9326 116.631 20.154 116.749 21.3753C116.866 22.5573 116.866 23.0695 116.827 23.2665C116.788 23.2665 116.788 23.2665 116.788 23.2271C116.71 23.1483 116.67 23.0695 116.592 23.0301C116.553 22.9907 116.553 22.9513 116.553 22.8725C116.553 22.8331 116.592 22.7543 116.592 22.7149C116.67 22.3603 116.631 22.0057 116.592 21.6905C116.514 21.3359 116.396 20.9813 116.24 20.6267C116.083 20.2722 115.848 19.957 115.574 19.6812C115.221 19.2872 114.83 18.9326 114.438 18.6174C114.085 18.3416 113.772 18.0658 113.42 17.79C113.341 17.7506 113.302 17.6718 113.224 17.6324C113.185 17.6324 113.185 17.593 113.145 17.593C113.106 17.6324 113.106 17.6718 113.106 17.6718C113.106 18.0658 113.185 18.4598 113.224 18.8538C113.341 19.4842 113.537 20.0752 113.85 20.6661C114.164 21.2571 114.555 21.7693 115.025 22.2421C115.378 22.5573 115.77 22.7937 116.24 22.9513H116.279C116.396 22.9907 116.514 23.0695 116.553 23.1877C116.631 23.3059 116.71 23.4635 116.827 23.5817C116.866 23.6211 116.866 23.6605 116.866 23.6999C116.866 23.9363 116.866 24.1727 116.866 24.3697C116.866 24.6849 116.827 25.0395 116.827 25.3547C116.788 25.8669 116.749 26.3397 116.71 26.8519C116.631 27.2853 116.592 27.7581 116.514 28.1915C116.475 28.4279 116.435 28.6643 116.396 28.9007C116.396 28.9401 116.357 28.9795 116.357 29.0189C116.279 28.9401 116.2 28.7431 116.161 28.5855V28.5461C116.318 28.3491 116.396 28.1521 116.435 27.9157C116.475 27.6005 116.475 27.3247 116.475 27.0095C116.435 26.5367 116.279 26.0639 116.083 25.6305C115.848 25.1577 115.574 24.6849 115.221 24.2515C114.947 23.8575 114.673 23.5029 114.36 23.1483C114.203 22.9119 114.046 22.7149 113.85 22.4785C113.811 22.4391 113.811 22.4391 113.772 22.3997C113.772 22.4391 113.733 22.4785 113.733 22.4785C113.694 22.6755 113.694 22.8725 113.655 23.0695C113.615 23.6605 113.615 24.2121 113.694 24.8031C113.772 25.2759 113.89 25.7487 114.085 26.2215C114.242 26.6549 114.477 27.0883 114.751 27.4823C115.025 27.9157 115.378 28.2703 115.809 28.5855C115.887 28.6643 115.965 28.7037 116.005 28.8219C116.083 29.0189 116.122 29.1765 116.24 29.3341C116.279 29.3735 116.279 29.4523 116.24 29.4917C116.2 29.6099 116.2 29.7281 116.161 29.8463C115.887 30.8707 115.574 31.895 115.143 32.88C114.908 33.4316 114.673 33.9832 114.399 34.4954C114.399 34.5348 114.36 34.5742 114.32 34.6136C114.281 34.4954 114.242 34.3378 114.242 34.1802C114.399 34.0226 114.555 33.865 114.634 33.6286C114.673 33.5104 114.751 33.3528 114.79 33.2346C114.908 32.9194 114.947 32.5648 114.986 32.2102C115.025 31.9738 114.986 31.698 114.947 31.4616C114.869 30.9101 114.712 30.3585 114.516 29.8463C114.32 29.2947 114.125 28.7825 113.929 28.2703C113.811 28.0339 113.733 27.7581 113.655 27.5217C113.655 27.5217 113.655 27.4823 113.615 27.4823C113.576 27.4823 113.537 27.5217 113.537 27.5611C113.42 27.7975 113.302 28.0733 113.224 28.3491C113.067 28.8219 112.989 29.2553 112.91 29.7675C112.871 30.2403 112.832 30.7131 112.91 31.1858C112.95 31.6192 113.028 32.0132 113.145 32.4466C113.302 33.0376 113.576 33.5892 113.968 34.1014C114.046 34.1802 114.085 34.259 114.085 34.3772C114.125 34.5348 114.125 34.6924 114.164 34.85C114.164 34.9288 114.164 34.9682 114.125 35.047C114.007 35.244 113.929 35.4016 113.811 35.5986C113.459 36.229 113.028 36.82 112.597 37.3716C112.205 37.8838 111.814 38.3566 111.344 38.79C111.305 38.8294 111.265 38.8688 111.226 38.9082C111.226 38.8688 111.187 38.8688 111.187 38.8294C111.187 38.7112 111.187 38.593 111.226 38.4748L111.265 38.4354C111.54 38.3172 111.735 38.1202 111.892 37.9232C112.166 37.5686 112.401 37.1746 112.519 36.7018C112.558 36.5836 112.558 36.426 112.597 36.3078C112.675 35.835 112.675 35.3622 112.636 34.8894C112.597 34.3378 112.558 33.8256 112.48 33.274C112.401 32.8406 112.362 32.3678 112.323 31.9344C112.323 31.895 112.323 31.895 112.284 31.8556C112.205 31.8556 112.205 31.9344 112.166 31.9344C111.97 32.1708 111.814 32.4072 111.657 32.6436C111.265 33.2346 110.991 33.865 110.835 34.5348C110.756 34.8894 110.678 35.244 110.678 35.638C110.639 35.9138 110.639 36.229 110.639 36.5048C110.678 37.017 110.756 37.5292 110.952 38.0414C111.03 38.2384 111.07 38.4354 111.07 38.6324C111.07 38.7506 111.07 38.8688 111.07 38.987C111.07 39.0658 111.07 39.1052 110.991 39.1446C110.795 39.3416 110.6 39.4992 110.404 39.6962C109.66 40.366 108.837 40.9176 107.975 41.3904C107.701 41.548 107.388 41.7055 107.075 41.8631C107.035 41.8631 106.996 41.9025 106.957 41.9025C106.918 41.7843 106.957 41.7055 107.035 41.548C107.27 41.548 107.505 41.4692 107.701 41.351C108.093 41.1146 108.406 40.76 108.68 40.4054C108.798 40.2478 108.876 40.0508 108.955 39.8538C109.15 39.3416 109.268 38.8294 109.385 38.2778C109.464 37.6868 109.581 37.1352 109.66 36.5442C109.66 36.426 109.699 36.3472 109.699 36.229C109.699 36.1896 109.699 36.1108 109.738 36.032C109.699 36.032 109.66 36.032 109.62 36.0714C109.503 36.1502 109.346 36.229 109.229 36.3078C108.72 36.623 108.289 37.017 107.936 37.4898C107.701 37.805 107.466 38.1596 107.31 38.5536C107.114 38.9476 106.996 39.381 106.918 39.8144C106.84 40.2084 106.84 40.6024 106.879 41.0358C106.879 41.154 106.918 41.2722 106.918 41.3904C106.918 41.4298 106.918 41.4691 106.918 41.4691C106.879 41.6267 106.84 41.8237 106.8 41.9813C106.8 42.0207 106.8 42.0207 106.761 42.0601C106.565 42.1389 106.37 42.2177 106.174 42.2965C105.782 42.4541 105.351 42.6117 104.96 42.7299C104.49 42.8481 104.02 42.9663 103.55 43.0451C103.55 43.0451 103.51 43.0451 103.471 43.0451C103.354 43.0451 103.315 43.1239 103.275 43.2027C103.236 43.2815 103.236 43.3603 103.236 43.4785C103.275 43.4785 103.315 43.4785 103.354 43.4785C103.706 43.3997 104.02 43.3603 104.372 43.2815C105.038 43.1239 105.704 42.9269 106.37 42.6905C106.448 42.6511 106.526 42.6511 106.644 42.6905C106.761 42.7299 106.918 42.7299 107.035 42.7693C107.075 42.7693 107.114 42.7693 107.153 42.8087C107.192 42.8481 107.192 42.8875 107.231 42.9269C107.466 43.3603 107.78 43.6755 108.21 43.8725C108.563 44.0695 108.955 44.1877 109.346 44.2271C109.425 44.2271 109.542 44.2271 109.62 44.2665C109.66 44.2665 109.738 44.3059 109.777 44.3059C110.051 44.3059 110.365 44.3059 110.639 44.3059C110.678 44.2665 110.756 44.2665 110.795 44.2665C111.07 44.2271 111.344 44.1877 111.618 44.1089C112.01 44.0301 112.401 43.9119 112.754 43.7149C112.91 43.6361 113.067 43.5573 113.224 43.4391C113.263 43.3997 113.302 43.3603 113.341 43.3603C113.38 43.3209 113.42 43.2815 113.42 43.2421C113.38 43.2421 113.38 43.2027 113.341 43.1633C113.106 42.9663 112.91 42.8087 112.636 42.6511C112.205 42.3753 111.775 42.1389 111.305 41.9813C110.952 41.8631 110.6 41.7843 110.247 41.745C109.934 41.7055 109.66 41.7055 109.346 41.745C108.915 41.7843 108.524 41.9025 108.132 42.0601C107.858 42.1783 107.584 42.3359 107.31 42.4935C107.231 42.5329 107.153 42.5723 107.075 42.5329C107.035 42.5329 106.996 42.5329 106.957 42.4935C106.957 42.4147 107.035 42.4147 107.075 42.4147C108.093 41.9419 109.072 41.3509 109.973 40.6418C110.247 40.4054 110.521 40.2084 110.795 39.972C110.835 39.9326 110.913 39.8932 110.991 39.8932C111.109 39.8932 111.226 39.8538 111.344 39.8538C111.383 39.8538 111.422 39.8538 111.5 39.8538C111.54 39.8932 111.54 39.9326 111.579 39.9326C111.696 40.0508 111.814 40.169 111.931 40.2478C112.284 40.4842 112.675 40.563 113.067 40.6024C113.341 40.6024 113.655 40.6024 113.929 40.5236C114.516 40.4054 115.065 40.2084 115.613 39.9326C115.887 39.775 116.122 39.6174 116.396 39.4598C116.71 39.2628 116.984 39.0264 117.219 38.7506C117.297 38.6324 117.415 38.5142 117.454 38.396C117.454 38.3566 117.493 38.3566 117.493 38.3172C117.454 38.2778 117.375 38.2778 117.336 38.2384C117.101 38.1596 116.905 38.0808 116.67 38.002C115.887 37.7656 115.104 37.7262 114.281 37.8444C113.89 37.9232 113.537 38.002 113.185 38.1596C112.715 38.396 112.323 38.6718 111.931 39.0658C111.775 39.2234 111.618 39.381 111.461 39.5386C111.422 39.578 111.383 39.6174 111.383 39.6174C111.344 39.6174 111.265 39.6568 111.187 39.6568V39.6174C111.226 39.578 111.265 39.5386 111.265 39.4992C111.657 39.1052 112.049 38.7112 112.401 38.2778C112.989 37.5686 113.498 36.82 114.007 36.032C114.085 35.9138 114.125 35.7956 114.281 35.7562C114.281 35.7562 114.32 35.7562 114.32 35.7168C114.438 35.638 114.595 35.5198 114.712 35.441C114.751 35.4804 114.79 35.4804 114.83 35.5198C115.025 35.638 115.221 35.6774 115.417 35.7168C115.77 35.7562 116.083 35.7168 116.396 35.638C116.866 35.5198 117.297 35.2834 117.689 34.9682C118.08 34.653 118.433 34.259 118.785 33.865C119.099 33.5104 119.334 33.1164 119.569 32.683C119.686 32.4466 119.804 32.1708 119.843 31.895C119.843 31.8556 119.843 31.8162 119.843 31.7768C119.804 31.7768 119.765 31.7768 119.765 31.7768C119.608 31.7768 119.451 31.7768 119.295 31.7768C119.02 31.7768 118.746 31.8162 118.472 31.8556C118.002 31.9344 117.571 32.1314 117.18 32.3284C116.631 32.6436 116.122 33.0376 115.73 33.5104C115.456 33.8256 115.221 34.1802 115.025 34.5348C114.908 34.7318 114.79 34.9682 114.673 35.1652C114.634 35.2834 114.555 35.3228 114.399 35.3622C114.399 35.3228 114.438 35.2834 114.438 35.2834C114.555 35.0864 114.673 34.85 114.79 34.653C115.143 33.9438 115.456 33.2346 115.77 32.5254C116.044 31.8162 116.279 31.1464 116.475 30.4373C116.514 30.3585 116.514 30.2403 116.592 30.1615C116.631 30.1221 116.631 30.0827 116.67 30.0433C116.749 29.9251 116.827 29.8069 116.905 29.6887C116.945 29.6887 116.984 29.6887 117.023 29.6887C117.415 29.7675 117.767 29.6887 118.08 29.5311C118.394 29.3735 118.629 29.1765 118.864 28.9401C119.255 28.5461 119.569 28.1521 119.843 27.6793C120.078 27.2853 120.274 26.8519 120.47 26.3791C120.626 26.0245 120.744 25.6699 120.822 25.3153C120.861 25.1971 120.861 25.0395 120.9 24.9213C120.9 24.8819 120.9 24.8425 120.979 24.8425C120.979 24.6849 120.979 24.5273 120.979 24.4091C120.94 24.3697 120.9 24.4091 120.822 24.4091C120.47 24.4879 120.195 24.6455 119.882 24.8031C119.255 25.1577 118.746 25.5911 118.276 26.1427C117.885 26.5761 117.571 27.0883 117.336 27.6005C117.18 27.9945 117.023 28.3885 116.945 28.8219C116.905 29.0189 116.866 29.2159 116.827 29.4129C116.788 29.5311 116.749 29.6099 116.67 29.6493C116.67 29.5705 116.67 29.5311 116.67 29.4917C116.71 29.2947 116.749 29.0583 116.827 28.8613C116.945 28.2703 117.023 27.7187 117.101 27.1277C117.18 26.5761 117.18 26.0245 117.219 25.4729C117.219 25.2365 117.219 25.0001 117.258 24.7637C117.258 24.7243 117.258 24.6849 117.258 24.6455C117.336 24.4485 117.415 24.2515 117.532 24.0545L117.571 24.0151H117.61C118.002 23.9757 118.315 23.8181 118.59 23.5423C118.825 23.3059 119.02 23.0695 119.177 22.7937C119.49 22.2421 119.686 21.6511 119.843 21.0601C119.96 20.6267 120.039 20.154 120.117 19.7206C120.195 19.2478 120.235 18.775 120.195 18.3022C120.195 18.1052 120.156 17.9082 120.156 17.6718C120.156 17.6324 120.117 17.6324 120.117 17.593C120.078 17.6324 120.039 17.6324 120 17.6718C119.725 17.8688 119.49 18.1052 119.255 18.3416C118.785 18.8538 118.394 19.4054 118.08 20.0358C117.65 20.9025 117.415 21.8087 117.415 22.7543C117.415 23.1089 117.415 23.4241 117.454 23.7787C117.454 23.8969 117.454 24.0151 117.375 24.1333C117.375 24.1727 117.336 24.1727 117.336 24.1333C117.297 22.5179 117.18 20.9419 116.905 19.366C116.945 19.2872 116.984 19.2478 116.984 19.2084C117.023 19.0508 117.062 18.8932 117.062 18.7356C117.062 18.6962 117.101 18.6568 117.101 18.6174C117.14 18.6174 117.18 18.578 117.18 18.578C117.415 18.4598 117.65 18.2628 117.806 18.0658C118.041 17.79 118.198 17.4748 118.276 17.1202C118.433 16.608 118.472 16.0958 118.511 15.5836C118.55 15.1502 118.55 14.7562 118.511 14.3228C118.511 13.8106 118.433 13.2984 118.355 12.7862C118.276 12.5104 118.198 12.1952 118.12 11.9588C118.12 11.9194 118.12 11.88 118.041 11.88L118.002 11.9194C117.689 12.3134 117.375 12.7074 117.14 13.1802C116.905 13.6924 116.71 14.2046 116.592 14.7562C116.475 15.3866 116.435 16.0564 116.514 16.6868C116.553 17.2384 116.67 17.8294 116.827 18.381C116.866 18.5386 116.866 18.6962 116.827 18.8538V18.8932C116.827 18.8932 116.827 18.9326 116.788 18.9326C116.788 18.8932 116.749 18.8144 116.749 18.775C116.67 18.4204 116.592 18.0264 116.514 17.6718C116.24 16.6474 115.926 15.6624 115.535 14.6774C115.495 14.5986 115.456 14.4804 115.495 14.3622V14.3228C115.495 14.1652 115.495 14.047 115.456 13.8894C115.456 13.8106 115.456 13.7318 115.535 13.653C115.73 13.4954 115.887 13.259 116.005 13.062C116.2 12.668 116.279 12.274 116.318 11.8406C116.357 11.3284 116.318 10.8162 116.24 10.3434C116.2 9.9495 116.083 9.5555 116.005 9.16151C115.887 8.64931 115.73 8.17652 115.535 7.70372C115.417 7.46732 115.3 7.23093 115.143 6.99453C115.104 6.95513 115.104 6.91573 115.065 6.87633C115.025 6.91573 115.025 6.91573 115.025 6.95513C114.751 7.50672 114.555 8.09772 114.438 8.68871C114.36 9.16151 114.32 9.5949 114.32 10.0676C114.32 10.2646 114.32 10.4616 114.36 10.6586C114.399 11.2496 114.516 11.8012 114.712 12.3528C114.869 12.7862 115.025 13.1802 115.26 13.5742C115.3 13.653 115.339 13.7318 115.339 13.8106C115.339 13.85 115.339 13.9288 115.339 13.9682C115.339 13.9682 115.339 14.0076 115.3 14.0076C115.3 13.9682 115.26 13.9682 115.26 13.9288C115.065 13.456 114.83 12.9832 114.555 12.5104C114.203 11.8012 113.772 11.1314 113.341 10.501C113.185 10.304 113.067 10.0676 112.91 9.8707C112.871 9.8313 112.871 9.7919 112.871 9.7525C112.832 9.6343 112.832 9.4767 112.832 9.35851C112.832 9.24031 112.793 9.16151 112.793 9.08271C112.793 9.04331 112.832 9.04331 112.832 9.04331C112.989 8.88571 113.106 8.72811 113.145 8.53111C113.224 8.25532 113.302 8.01892 113.302 7.74312C113.341 7.15213 113.224 6.56113 113.067 6.00954C112.95 5.61554 112.793 5.26094 112.597 4.90635C112.323 4.39415 112.049 3.92136 111.657 3.48796C111.461 3.25156 111.265 3.05457 111.03 2.89697C110.991 2.85757 110.991 2.85757 110.913 2.85757C110.913 2.89697 110.874 2.97577 110.874 3.01517C110.835 3.29096 110.795 3.56676 110.795 3.84256C110.756 4.55175 110.835 5.22154 110.952 5.89134C111.03 6.32473 111.148 6.71873 111.305 7.11273C111.579 7.78252 111.931 8.41291 112.44 8.96451C112.636 9.20091 112.636 9.20091 112.675 9.4767V9.5161C112.675 9.5161 112.675 9.5555 112.636 9.5555L112.597 9.5161C112.401 9.27971 112.245 9.04331 112.049 8.80691C111.579 8.21592 111.07 7.66432 110.521 7.11273C110.325 6.91573 110.13 6.75813 109.973 6.56113C109.855 6.44293 109.699 6.28533 109.542 6.20654C109.503 6.16714 109.503 6.16714 109.464 6.12774C109.464 6.08834 109.464 6.08834 109.464 6.08834C109.542 5.61554 109.425 5.18215 109.19 4.78815C108.994 4.43355 108.68 4.11836 108.367 3.88196C108.015 3.60616 107.623 3.36976 107.192 3.21216C106.84 3.09396 106.487 2.97577 106.174 2.81817C105.978 2.73937 105.821 2.69997 105.625 2.62117C105.586 2.62117 105.508 2.58177 105.508 2.54237C105.312 2.38477 105.273 2.38477 105.273 2.38477Z" fill="#7A7384"/>
<path d="M39.312 15.9223C39.2631 15.8734 39.1652 15.8244 39.1162 15.7754C39.1652 15.8244 39.2631 15.8734 39.312 15.9223Z" fill="#7A7384"/>
<path d="M41.9558 18.8113C41.9069 18.7624 41.9069 18.7134 41.8579 18.6645C41.809 18.6645 41.76 18.6155 41.711 18.6155C40.585 18.077 39.2142 18.2238 38.284 19.154L34.5631 22.8749C33.535 24.0009 33.535 25.7145 34.5631 26.8405C34.6121 26.8895 34.6121 26.8895 34.661 26.9384L35.4933 27.7707C36.5704 28.9457 36.5215 30.7082 35.3954 31.8342L34.4163 32.8134L34.0735 33.1561L29.5204 28.603C27.5131 26.5957 27.3663 23.4134 29.0798 21.2593C29.2267 21.1124 29.3736 20.9165 29.5204 20.7697L34.2694 16.0207C35.5423 14.7478 37.6475 14.7478 39.1162 15.727C37.2558 14.4541 35.1017 13.7197 32.7517 13.7197C27.0725 13.7197 22.4215 18.028 21.8829 23.5603C21.834 23.903 21.834 24.2457 21.834 24.6374C21.834 30.3165 26.1913 35.0165 31.7725 35.5061C32.0663 35.5551 32.409 35.5551 32.7517 35.5551C33.8777 35.5551 34.9548 35.4082 35.934 35.0655C36.1298 35.0165 36.2767 34.9676 36.4725 34.8696C37.8923 34.3311 39.2142 33.5478 40.2912 32.4707C42.3475 30.4634 43.6694 27.7217 43.6694 24.5884C43.6204 22.4832 42.984 20.4759 41.9558 18.8113Z" fill="#7A7384"/>
<path d="M53.9993 20.0351V16.7549H50.9639V25.5674H53.9993V22.3361L57.2305 25.5674H61.7836L57.1816 21.1611L61.7836 16.8038L57.2305 16.7549L53.9993 20.0351Z" fill="#7A7384"/>
<path d="M72.9465 16.7549L69.6663 21.5528C69.4215 21.9445 68.834 21.9445 68.5892 21.5528L65.358 16.7549H61.833L67.3653 24.784C68.2465 25.959 70.009 25.959 70.8413 24.7351L76.5205 16.7549H72.9465Z" fill="#7A7384"/>
<path d="M100.95 25.6163L95.3691 17.5871C94.4878 16.4121 92.7253 16.4121 91.893 17.6361L86.2139 25.6163H89.7389L93.0191 20.8184C93.2639 20.4267 93.8514 20.4267 94.0962 20.8184L95.6628 23.1684H92.1868L90.6691 25.6163H97.3274H100.95Z" fill="#7A7384"/>
<path d="M79.7038 23.1683C79.6059 23.1683 79.5079 23.1683 79.41 23.1193C78.9694 22.9725 77.8923 22.4829 77.8923 21.21C77.8923 19.986 78.8225 19.3985 79.2142 19.2516C79.3121 19.2027 79.41 19.2027 79.5079 19.2027H84.9913L86.6558 16.8037H79.41C77.0111 16.8037 75.0527 18.762 75.0527 21.161C75.0527 23.56 77.0111 25.5183 79.41 25.5183H84.9423L86.509 23.1683H79.7038Z" fill="#7A7384"/>
<path d="M51.7478 28.162V27.9172C51.7478 27.7703 51.6988 27.6234 51.6499 27.4766H52.678V28.162H53.9999V28.7984H53.4124C53.5592 28.9943 53.6082 29.2391 53.6082 29.4349C53.6082 29.7776 53.4613 30.0714 53.1676 30.3161C52.8738 30.5609 52.5801 30.7078 52.1884 30.7078C51.7967 30.7078 51.503 30.5609 51.2092 30.3161C50.9155 30.0714 50.7686 29.7776 50.7686 29.4349C50.7686 29.1901 50.8176 28.9943 50.9645 28.7984H50.377V28.162H51.7478ZM55.2728 32.862H51.8457C51.7967 32.862 51.6988 32.813 51.6499 32.7641C51.6009 32.7151 51.552 32.6661 51.552 32.5682V31.638C51.552 31.4422 51.503 31.1974 51.4051 31.0505H52.4332V32.1766H55.2238V32.862H55.2728ZM52.7269 29.4839C52.7269 29.288 52.678 29.1901 52.5801 29.0432C52.4822 28.9453 52.3353 28.8964 52.1884 28.8964C52.0415 28.8964 51.8947 28.9453 51.7967 29.0432C51.6988 29.1411 51.6499 29.288 51.6499 29.4839C51.6499 29.6307 51.6988 29.7776 51.7967 29.9245C51.8947 30.0224 52.0415 30.1203 52.1884 30.1203C52.3353 30.1203 52.4822 30.0713 52.5801 29.9245C52.678 29.7776 52.7269 29.6307 52.7269 29.4839ZM55.9582 29.5818H55.1749V30.6588C55.1749 30.9036 55.1749 31.0995 55.1259 31.3443H54.2936V28.113C54.2936 27.9172 54.2447 27.6724 54.1467 27.5255H55.1749V28.8964H55.9582V29.5818Z" fill="#7A7384"/>
<path d="M59.9725 29.4844C60.0215 29.2885 60.0215 29.0927 60.0215 28.9458V28.3094H56.9861V27.6729H60.9027V28.8479C60.9027 29.0927 60.8538 29.2885 60.8048 29.5333H61.6371V30.1698H59.434V30.9042H60.9027V32.226C60.9027 32.4708 60.9027 32.6667 60.8538 32.9114H60.0215V31.5406H57.084V30.9042H58.5527V30.1698H56.3496V29.5333H59.9725V29.4844Z" fill="#7A7384"/>
<path d="M64.8693 28.7503H65.3589V28.1139C65.3589 27.8691 65.31 27.6733 65.212 27.5264H66.1912V30.6597C66.1912 30.9045 66.1912 31.1003 66.1422 31.3451H65.3589V29.3868H64.8693V30.5128H62.6662C62.6173 30.5128 62.5683 30.4639 62.4704 30.4149C62.3725 30.366 62.3725 30.317 62.3725 30.2191V28.3097C62.3725 28.0649 62.3235 27.8691 62.2256 27.7222H63.2537V28.5545H63.9881V28.3097C63.9881 28.0649 63.9391 27.8691 63.8412 27.7222H64.8693V28.7503ZM63.9881 29.2399H63.2537V29.9253H63.9881V29.2399ZM67.3172 32.8628H63.8902C63.8412 32.8628 63.7433 32.8139 63.6943 32.7649C63.6454 32.716 63.5964 32.667 63.5964 32.5691V31.492C63.5964 31.2962 63.5475 31.0514 63.4495 30.9045H64.4777V32.1774H67.2683V32.8628H67.3172ZM67.2193 30.6597C67.2193 30.9045 67.2193 31.1003 67.1704 31.3451H66.387V28.1139C66.387 27.8691 66.3381 27.6733 66.2402 27.5264H67.2193V30.6597Z" fill="#7A7384"/>
<path d="M69.1776 28.9951H68.1005V28.3587H69.1776V28.016C69.1776 27.8691 69.1286 27.7222 69.0797 27.5753H70.1078V28.3587H71.1849V28.9951H70.1078V29.191C70.1078 29.6316 70.2057 30.0232 70.4505 30.366C70.6953 30.7087 71.038 30.9535 71.4297 31.0514L70.9401 31.541C70.6953 31.443 70.4505 31.3451 70.1568 31.1493C69.912 30.9535 69.7161 30.7576 69.5693 30.5618C69.4224 30.7576 69.2266 30.9535 68.9818 31.1493C68.737 31.3451 68.4922 31.443 68.2474 31.541L67.7578 31.0514C68.1984 30.9535 68.5411 30.7087 68.737 30.366C68.9328 30.0232 69.0797 29.6316 69.0797 29.191V28.9951H69.1776ZM72.7516 32.2264C72.7516 32.4712 72.7516 32.667 72.7026 32.9118H71.8703V30.0722H70.7443V29.4358H71.8703V28.1139C71.8703 27.918 71.8213 27.6733 71.7234 27.5264H72.7516V32.2264Z" fill="#7A7384"/>
<path d="M74.8556 29.7773H73.7785V29.1409H75.1004C75.1493 28.945 75.1983 28.7002 75.1983 28.4555H73.7785V27.819H76.1775C76.1775 28.7492 75.9816 29.4836 75.59 30.12C75.1983 30.7565 74.6108 31.1971 73.8764 31.4419L73.3379 31.0013C74.0233 30.7565 74.5619 30.3648 74.8556 29.7773ZM78.4296 32.2252C78.4296 32.47 78.4296 32.6659 78.3806 32.9107H77.5973V29.6794H77.3035V32.2742C77.3035 32.519 77.3035 32.7148 77.2546 32.9596H76.4712V28.1617C76.4712 27.9169 76.4223 27.7211 76.3243 27.5742H77.3035V29.0919H77.5973V28.2107C77.5973 27.9659 77.5483 27.77 77.4504 27.6232H78.4296V32.2252Z" fill="#7A7384"/>
<path d="M83.1304 30.5618V28.1139C83.1304 27.918 83.0814 27.6733 82.9835 27.5264H84.0116V32.2753C84.0116 32.5201 84.0116 32.716 83.9627 32.9607H83.1304V31.2472C82.8366 31.3451 82.5429 31.3451 82.2491 31.3451H79.2627V30.7087H79.8012V28.5545H79.2627V27.918H82.6898V28.5545H82.1512V30.7087H82.3471C82.5429 30.6597 82.8366 30.6107 83.1304 30.5618ZM81.221 28.5055H80.6335V30.6597H81.221V28.5055Z" fill="#7A7384"/>
<path d="M88.5646 29.4847V28.1139C88.5646 27.918 88.5156 27.6733 88.4177 27.5264H89.4458V28.6035H90.2292V29.2399H89.4458V29.7295C89.4458 29.9743 89.4458 30.1701 89.3969 30.4149H88.5646V30.1212C88.2708 30.2191 87.9771 30.2191 87.6833 30.2191H85.2844C85.2354 30.2191 85.1375 30.1701 85.0885 30.1212C85.0396 30.0722 84.9906 30.0233 84.9906 29.9743V28.3587C84.9906 28.1628 84.9417 27.918 84.8438 27.7712H87.7812V28.4076H85.8719V28.6524H87.7812V29.2889H85.8719V29.5826H87.6833C88.026 29.5826 88.3198 29.5337 88.5646 29.4847ZM89.4458 32.9118H85.9698C85.9208 32.9118 85.8229 32.9118 85.774 32.8139C85.725 32.7649 85.676 32.716 85.676 32.618V31.9326C85.676 31.7368 85.6271 31.541 85.5781 31.3941H88.5156V31.1982H85.6271V30.5618H89.3969V32.0305H86.5573V32.2753H89.4458V32.9118Z" fill="#7A7384"/>
<path d="M93.5587 28.7986H94.5868V28.1131C94.5868 27.9173 94.5379 27.6725 94.44 27.5257H95.4681V29.8756C95.4681 30.1204 95.4681 30.3163 95.4191 30.5611H94.5868V30.1694H93.3629C93.0691 30.4142 92.7264 30.5611 92.3348 30.5611C91.9431 30.5611 91.6494 30.4631 91.3556 30.2184C91.0619 29.9736 90.9639 29.6798 90.9639 29.3861C90.9639 29.1413 91.0129 28.9454 91.1598 28.7496H90.5723V28.1131H91.8941V27.8684C91.8941 27.7215 91.8452 27.5746 91.7962 27.4277H92.8243V28.0642H94.1462V28.7006H93.5098C93.5098 28.7496 93.5098 28.7496 93.5587 28.7986ZM92.6285 31.1975H94.5868C94.5868 31.0017 94.5379 30.8548 94.44 30.7079H95.4681V32.9111H91.9921C91.9431 32.9111 91.8941 32.8621 91.7962 32.8131C91.7473 32.7642 91.6983 32.7152 91.6983 32.6173V31.3444C91.6983 31.0996 91.6493 30.9038 91.5514 30.7569H92.5796V31.1975H92.6285ZM92.8733 29.3371C92.8733 29.1902 92.8244 29.0434 92.7264 28.9454C92.6285 28.8475 92.5306 28.7986 92.3837 28.7986C92.2369 28.7986 92.1389 28.8475 92.041 28.9454C91.9431 29.0434 91.8941 29.1902 91.8941 29.3371C91.8941 29.484 91.9431 29.6309 92.041 29.7288C92.1389 29.8267 92.2369 29.8756 92.3837 29.8756C92.5306 29.8756 92.6285 29.8267 92.7264 29.7288C92.8244 29.6309 92.8733 29.484 92.8733 29.3371ZM94.5868 31.834H92.6285V32.2256H94.5868V31.834ZM93.7056 29.5329H94.5868V29.3861H93.7056C93.7056 29.484 93.7056 29.5329 93.7056 29.5329Z" fill="#7A7384"/>
<path d="M100.069 30.9535V28.1139C100.069 27.918 100.02 27.6733 99.922 27.5264H100.95V32.2753C100.95 32.5201 100.95 32.716 100.901 32.9607H100.069V31.6389C99.7751 31.7368 99.4814 31.7368 99.1876 31.7368H96.2012V31.1003H97.6699V30.6597C97.4251 30.5618 97.1803 30.4149 97.0335 30.2191C96.8866 30.0233 96.7887 29.7785 96.7887 29.5337C96.7887 29.3378 96.8376 29.142 96.9355 28.9951H96.348V28.3587H97.621V28.0649C97.621 27.918 97.572 27.7712 97.5231 27.6243H98.5512V28.3587H99.8241V28.8972H99.2366C99.3345 29.093 99.3835 29.2399 99.3835 29.4357C99.3835 29.6805 99.2855 29.8764 99.1387 30.0722C98.9918 30.268 98.747 30.4149 98.5022 30.5128V30.9535H99.2366C99.5303 31.0024 99.8241 31.0024 100.069 30.9535ZM98.4043 29.8274C98.5022 29.7295 98.5512 29.6316 98.5512 29.4847C98.5512 29.3378 98.5022 29.2399 98.4043 29.142C98.3064 29.0441 98.2085 28.9951 98.0616 28.9951C97.9147 28.9951 97.8168 29.0441 97.7678 29.142C97.7189 29.2399 97.621 29.3378 97.621 29.4847C97.621 29.6316 97.6699 29.7295 97.7678 29.8274C97.8658 29.9253 97.9637 29.9743 98.0616 29.9743C98.2085 29.9743 98.3064 29.9253 98.4043 29.8274Z" fill="#7A7384"/>
</svg>
