<svg width="124" height="46" viewBox="0 0 124 46" fill="none" xmlns="http://www.w3.org/2000/svg">
<path d="M54.7517 25.9564V26.7452C54.8952 26.7452 55.0386 26.817 55.182 26.8887C55.5406 27.0321 55.8275 27.2473 56.1144 27.4624C56.4012 27.6776 56.5447 27.9644 56.6881 28.323C56.8315 28.6816 56.9032 28.9685 56.9032 29.327C56.9032 29.6856 56.8315 30.0442 56.6881 30.3311C56.5447 30.6897 56.3295 30.9048 56.1144 31.1917C55.8275 31.4068 55.5406 31.622 55.182 31.7654C54.8235 31.9088 54.4649 31.9806 54.1063 31.9806C53.7477 31.9806 53.3174 31.9088 53.0305 31.7654C52.672 31.622 52.3851 31.4068 52.0982 31.1917C51.8114 30.9765 51.6679 30.6897 51.5245 30.3311C51.3811 29.9725 51.3093 29.6856 51.3093 29.327C51.3093 28.9685 51.3811 28.6099 51.5245 28.323C51.6679 27.9644 51.8831 27.7493 52.0982 27.4624C52.3851 27.2473 52.672 27.0321 53.0305 26.8887C53.174 26.817 53.2457 26.817 53.3891 26.7452V25.9564H48.7275V24.7372H59.4133V25.9564H54.7517ZM49.5164 21.223V20.0039H58.6962V21.223H54.7517L58.7679 23.0877L58.1942 24.2352L54.1063 22.2988L50.0184 24.2352L49.373 23.0877L53.4609 21.2948H49.5164V21.223ZM55.5406 29.2553C55.5406 28.825 55.3972 28.5382 55.1103 28.2513C54.8235 27.9644 54.4649 27.821 54.1063 27.821C53.676 27.821 53.3891 27.9644 53.1023 28.2513C52.8154 28.5382 52.672 28.8967 52.672 29.2553C52.672 29.6856 52.8154 29.9725 53.1023 30.2594C53.3891 30.5462 53.7477 30.6897 54.1063 30.6897C54.5366 30.6897 54.8235 30.5462 55.1103 30.2594C55.3972 30.0442 55.5406 29.6856 55.5406 29.2553Z" fill="#7A7384"/>
<path d="M64.8633 29.3994V25.8136H66.2976V29.3994H70.9592V30.6903H60.2734V29.3994H64.8633ZM65.5805 20.0762L70.3855 26.1722L69.3098 27.0328L65.5805 22.2277L61.8512 27.0328L60.7037 26.1722L65.5805 20.0762Z" fill="#7A7384"/>
<path d="M76.4101 29.9725H74.9757V21.8685H70.5293V20.5776H76.4101V29.9725ZM78.9919 19.8604H80.4262V31.4786H78.9919V19.8604Z" fill="#7A7384"/>
<path d="M88.4589 22.8008C88.4589 23.1594 88.3872 23.518 88.2437 23.8766C88.1003 24.2352 87.8852 24.522 87.5983 24.7372C87.3114 25.024 87.0246 25.1675 86.666 25.3109C86.3074 25.4543 85.9488 25.5261 85.5185 25.5261C85.0882 25.5261 84.7296 25.4543 84.371 25.3109C84.0125 25.1675 83.7256 24.9523 83.4387 24.7372C83.1518 24.4503 82.9367 24.1634 82.7933 23.8766C82.6498 23.518 82.5781 23.1594 82.5781 22.8008C82.5781 22.4422 82.6498 22.0837 82.7933 21.7251C82.9367 21.3665 83.1518 21.0796 83.4387 20.8645C83.7256 20.5776 84.0125 20.4342 84.371 20.219C84.7296 20.0756 85.0882 20.0039 85.5185 20.0039C85.9488 20.0039 86.3074 20.0756 86.666 20.219C87.0246 20.3625 87.3114 20.5776 87.5983 20.8645C87.8852 21.0796 88.1003 21.3665 88.2437 21.7251C88.3872 22.0119 88.4589 22.3705 88.4589 22.8008ZM83.4387 26.2432H84.873V27.3907H91.1841V26.2432H92.6185V31.3351H83.5104V26.2432H83.4387ZM87.0963 22.8008C87.0963 22.3705 86.9528 22.0119 86.666 21.7251C86.3791 21.4382 86.0205 21.2948 85.5902 21.2948C85.1599 21.2948 84.8013 21.4382 84.5145 21.7251C84.2276 22.0119 84.0842 22.3705 84.0842 22.8008C84.0842 23.2311 84.2276 23.5897 84.5145 23.8766C84.8013 24.1634 85.1599 24.3069 85.5902 24.3069C86.0205 24.3069 86.3791 24.1634 86.666 23.8766C86.9528 23.5897 87.0963 23.2311 87.0963 22.8008ZM91.1841 28.4665H84.873V30.0442H91.1841V28.4665ZM91.1124 19.8604H92.5468V25.3826H91.1124V23.1594H89.1761V21.8685H91.1124V19.8604Z" fill="#7A7384"/>
<path d="M94.4824 22.084V20.8648H97.2077V19.7891H98.7137V20.8648H101.296V22.084H98.4986L101.439 25.0244L100.507 25.885L97.9966 23.2315L95.4865 26.1001L94.5541 25.1678L97.4945 22.0123H94.4824V22.084ZM103.806 29.0405C103.806 29.3991 103.734 29.8294 103.59 30.1163C103.447 30.4749 103.232 30.7617 102.945 31.0486C102.658 31.3355 102.371 31.5506 102.013 31.694C101.654 31.8375 101.224 31.9092 100.865 31.9092C100.435 31.9092 100.076 31.8375 99.7177 31.694C99.3592 31.5506 99.0006 31.3355 98.7854 31.0486C98.4986 30.7617 98.2834 30.4749 98.14 30.1163C97.9965 29.7577 97.9248 29.3991 97.9248 29.0405C97.9248 28.6819 97.9965 28.2516 98.14 27.9648C98.2834 27.6062 98.4986 27.3193 98.7854 27.0325C99.0723 26.7456 99.3592 26.5304 99.7177 26.387C100.076 26.2436 100.507 26.1719 100.865 26.1719C101.296 26.1719 101.654 26.2436 102.013 26.387C102.371 26.5304 102.73 26.7456 102.945 27.0325C103.232 27.3193 103.447 27.6062 103.59 27.9648C103.662 28.2516 103.806 28.6102 103.806 29.0405ZM102.371 29.0405C102.371 28.6102 102.228 28.2516 101.869 27.8931C101.582 27.6062 101.152 27.391 100.722 27.391C100.291 27.391 99.9329 27.5345 99.5743 27.8931C99.2875 28.1799 99.0723 28.6102 99.0723 29.0405C99.0723 29.4708 99.2157 29.8294 99.5743 30.188C99.8612 30.4749 100.291 30.6183 100.722 30.6183C101.152 30.6183 101.511 30.4749 101.869 30.188C102.156 29.8294 102.371 29.4708 102.371 29.0405ZM103.304 26.1001V23.8769H101.296V22.6577H103.304V19.9325H104.738V26.1001H103.304Z" fill="#7A7384"/>
<path d="M39.0936 24.8217C37.1313 23.4943 34.592 24.0137 33.2646 26.0337C32.168 27.7074 30.4943 27.9382 29.8595 27.9382C27.7241 27.9382 26.2813 26.4377 25.8773 24.9372C25.8773 24.9372 25.8773 24.9372 25.8773 24.8794V24.8217C25.6465 24.1869 25.5887 23.8406 25.5887 23.2058C25.5887 19.5121 29.3401 15.4145 34.7651 15.4145C40.3056 15.4145 43.5375 19.6276 44.3455 21.9938C44.3455 21.9361 44.3455 21.9361 44.2878 21.8784C42.7295 17.2613 38.3433 13.9717 33.2069 13.9717C26.8007 13.9717 21.5488 19.2236 21.5488 25.6874C21.5488 31.4587 25.7042 36.422 31.4755 36.422C36.0925 36.422 39.209 33.825 40.5941 30.2468C41.4021 28.2845 40.8827 26.0337 39.0936 24.8217Z" fill="#7A7384"/>
<path d="M44.461 22.2242C43.7685 19.9157 40.5943 15.4141 34.823 15.4141C29.3979 15.4141 25.5889 19.5117 25.5889 23.2054C25.5889 23.8979 25.6466 24.1865 25.8197 24.8213C25.762 24.5328 25.7043 24.2442 25.7043 24.0133C25.7043 20.2043 29.5134 17.5495 33.4956 17.5495C38.8052 17.5495 43.1336 21.878 43.1336 27.1876C43.1336 31.3429 40.7097 34.9788 37.2469 36.7102C41.7485 35.0365 44.9804 30.7658 44.9804 25.687C44.9804 24.4751 44.8073 23.4362 44.461 22.2242Z" fill="#7A7384"/>
<path fill-rule="evenodd" clip-rule="evenodd" d="M17.6102 2.49935C17.5711 2.73575 17.4927 2.93275 17.4144 3.12975C17.1794 3.72074 16.8661 4.27234 16.4352 4.74513C16.0044 5.25733 15.4561 5.61193 14.8294 5.84832C14.4769 6.00592 14.0852 6.04532 13.7327 6.04532C13.6936 6.04532 13.6544 6.04532 13.6544 6.04532C13.6152 6.04532 13.5761 6.04532 13.5369 6.08472C13.3019 6.28172 13.0669 6.43932 12.8711 6.63632C12.3227 7.14851 11.8136 7.66071 11.3436 8.2123C11.2261 8.3305 11.1477 8.4487 11.0302 8.5669L10.9911 8.6063C10.9911 8.6457 11.0302 8.6457 11.0302 8.6457C11.1477 8.6457 11.2261 8.6457 11.3436 8.6063C11.3436 8.5669 11.3827 8.5669 11.3827 8.5275C11.5786 8.0153 11.9702 7.66071 12.4794 7.42431C12.9102 7.22731 13.3802 7.14851 13.8502 7.18791C14.1636 7.18791 14.4377 7.22731 14.7511 7.30611C15.1819 7.38491 15.5736 7.46371 16.0044 7.54251C16.0436 7.54251 16.1219 7.58191 16.1611 7.58191C16.1611 7.66071 16.1219 7.70011 16.0827 7.7395C15.8477 8.0547 15.5344 8.3305 15.2211 8.5669C14.8294 8.84269 14.3986 9.07909 13.8894 9.19729C13.5761 9.27609 13.2236 9.31549 12.9102 9.27609C12.5969 9.27609 12.2836 9.19729 12.0094 9.07909C11.8527 9.00029 11.6961 8.92149 11.5394 8.84269C11.5002 8.80329 11.4219 8.80329 11.3827 8.80329C11.2261 8.84269 11.0694 8.88209 10.9127 8.84269C10.4427 9.27609 8.8369 11.7189 8.52357 12.4281C8.6019 12.4281 8.7194 12.4281 8.91523 12.3099C8.91523 12.2705 8.91523 12.2705 8.9544 12.2311C9.0719 11.6401 9.38523 11.1673 9.8944 10.8521C10.2077 10.6551 10.5211 10.5369 10.8736 10.4581C11.2652 10.3399 11.6961 10.3399 12.1269 10.3005C12.4794 10.3005 12.8711 10.2611 13.2236 10.2611C13.3411 10.2611 13.4586 10.2611 13.5369 10.2611C13.5761 10.2611 13.5761 10.2611 13.6544 10.2611C13.6152 10.3005 13.6152 10.3399 13.5761 10.3793C13.1844 11.0097 12.6752 11.5613 12.0877 11.9553C11.5786 12.3099 10.9911 12.5463 10.3644 12.6251C9.93357 12.6645 9.5419 12.6251 9.15023 12.4675C9.11107 12.4675 9.0719 12.4281 9.0719 12.4281C9.03273 12.3887 8.99357 12.4281 8.9544 12.4281C8.91523 12.4675 8.8369 12.4675 8.79773 12.5069C8.68023 12.5463 8.56273 12.5857 8.44523 12.6251C7.6619 14.1223 7.03523 15.6983 6.56523 17.3531C6.68273 17.3531 6.76107 17.2743 6.91773 17.1561C6.91773 17.0379 6.91773 16.9591 6.91773 16.8409C6.9569 16.2105 7.1919 15.6983 7.62273 15.2255C7.85773 14.9497 8.1319 14.7527 8.44523 14.5951C8.8369 14.3587 9.22857 14.2011 9.62023 14.0435C10.1294 13.8465 10.5994 13.6889 11.1086 13.5313C11.1477 13.4919 11.2261 13.4919 11.2652 13.4525C11.2652 13.4525 11.3044 13.4525 11.3436 13.4525C11.3436 13.4919 11.3436 13.5313 11.3436 13.5313C11.2652 13.8071 11.1477 14.0829 11.0302 14.3587C10.8344 14.7527 10.6386 15.1073 10.4036 15.4619C10.0511 15.9741 9.58107 16.4075 9.0719 16.7621C8.79773 16.9197 8.52357 17.0773 8.2494 17.1955C7.8969 17.3137 7.5444 17.3531 7.1919 17.3531C7.11357 17.3531 7.03523 17.3531 6.9569 17.4319C6.8394 17.5501 6.68273 17.6683 6.52607 17.7471C6.21273 18.929 5.97773 20.1109 5.82107 21.3323C5.6644 22.5143 5.6644 23.0266 5.6644 23.2236C5.70357 23.2236 5.70357 23.2236 5.70357 23.1842C5.7819 23.1054 5.82107 23.0266 5.8994 22.9872C5.93857 22.9478 5.93857 22.9083 5.93857 22.8295C5.93857 22.7901 5.8994 22.7113 5.8994 22.6719C5.86023 22.3173 5.86023 21.9628 5.93857 21.6476C6.0169 21.293 6.1344 20.9383 6.33023 20.6231C6.52607 20.2685 6.76107 19.9533 7.03523 19.6775C7.38773 19.2835 7.7794 18.9683 8.21023 18.6532C8.56273 18.3774 8.91523 18.1411 9.26773 17.8653C9.34607 17.8259 9.38523 17.7471 9.46357 17.7077C9.50273 17.7077 9.50273 17.6683 9.5419 17.6683C9.58107 17.7077 9.58107 17.7471 9.58107 17.7471C9.5419 18.1411 9.50273 18.535 9.4244 18.9289C9.26773 19.5593 9.0719 20.1504 8.75857 20.702C8.44523 21.293 8.05357 21.8052 7.5444 22.2386C7.1919 22.5538 6.76107 22.7902 6.33023 22.9478H6.29107C6.17357 22.9872 6.05607 23.0266 6.0169 23.1448C5.93857 23.263 5.86023 23.4205 5.70357 23.4993C5.6644 23.5387 5.6644 23.5781 5.6644 23.6175C5.6644 23.8539 5.6644 24.0509 5.6644 24.2873C5.6644 24.6025 5.6644 24.9572 5.6644 25.2724C5.6644 25.7846 5.70357 26.2574 5.74273 26.7696C5.7819 27.203 5.86023 27.6757 5.8994 28.1091C5.93857 28.3455 5.97773 28.5819 6.0169 28.8183C6.0169 28.8577 6.0169 28.8972 6.05607 28.9366C6.1344 28.8578 6.21273 28.7002 6.29107 28.5032V28.4638C6.1344 28.2668 6.05607 28.0697 6.0169 27.8333C5.97773 27.5181 5.97773 27.2424 6.0169 26.9272C6.05607 26.4544 6.2519 25.9816 6.44773 25.5482C6.68273 25.0754 6.99607 24.6025 7.3094 24.1691C7.58357 23.8145 7.8969 23.4206 8.17107 23.066C8.32773 22.8296 8.52357 22.6326 8.68023 22.3962C8.7194 22.3568 8.7194 22.3568 8.75857 22.3174C8.75857 22.3568 8.79773 22.3962 8.79773 22.3962C8.8369 22.5932 8.8369 22.7902 8.8369 22.9872C8.87607 23.5782 8.8369 24.1298 8.75857 24.7208C8.68023 25.1936 8.52357 25.6664 8.3669 26.0998C8.17107 26.5332 7.97523 26.9665 7.70107 27.3605C7.38773 27.7939 7.03523 28.1486 6.6044 28.4244C6.52607 28.4638 6.44773 28.5425 6.40857 28.6607C6.33023 28.8577 6.2519 29.0154 6.17357 29.173C6.1344 29.2124 6.1344 29.2911 6.1344 29.3305C6.17357 29.4487 6.17357 29.5669 6.21273 29.6851C6.44773 30.7489 6.76107 31.7732 7.15273 32.7582C7.34857 33.3098 7.58357 33.8615 7.85773 34.3737C7.85773 34.4131 7.8969 34.4525 7.93607 34.4919C7.97523 34.3737 8.0144 34.2555 8.0144 34.0585C7.85773 33.9009 7.70107 33.7432 7.62273 33.5068C7.58357 33.3886 7.50523 33.2311 7.46607 33.0735C7.38773 32.7583 7.3094 32.4037 7.3094 32.0491C7.3094 31.8127 7.34857 31.5368 7.38773 31.3004C7.46607 30.7488 7.6619 30.2367 7.85773 29.6851C8.05357 29.1729 8.28857 28.6607 8.52357 28.1091C8.64107 27.8727 8.7194 27.5969 8.8369 27.3605C8.8369 27.3605 8.8369 27.3211 8.87607 27.3211C8.91523 27.3211 8.91523 27.3606 8.9544 27.4C9.0719 27.6758 9.15023 27.9122 9.22857 28.188C9.34607 28.6608 9.46357 29.1336 9.50273 29.6063C9.5419 30.0791 9.5419 30.5519 9.46357 31.0247C9.4244 31.4581 9.3069 31.8521 9.1894 32.2855C8.99357 32.8765 8.7194 33.4281 8.32773 33.9009C8.2494 33.9797 8.21023 34.0584 8.21023 34.1766C8.17107 34.3342 8.17107 34.4919 8.1319 34.6495C8.1319 34.7283 8.1319 34.7677 8.17107 34.8465C8.28857 35.0435 8.3669 35.2011 8.4844 35.3981C8.8369 36.0285 9.22857 36.6195 9.6594 37.2105C10.0511 37.7227 10.4427 38.1955 10.8736 38.6683C10.9127 38.7077 10.9519 38.7471 10.9911 38.7865C10.9911 38.7471 11.0302 38.7471 11.0302 38.7077C11.0302 38.5895 11.0302 38.4713 11.0302 38.3531L10.9911 38.3137C10.7561 38.1955 10.5602 37.9985 10.3644 37.8015C10.0902 37.4469 9.8944 37.0135 9.7769 36.5801C9.73773 36.4619 9.73773 36.3043 9.69857 36.1861C9.6594 35.7133 9.6594 35.2405 9.69857 34.7677C9.73773 34.2161 9.81607 33.7039 9.8944 33.1523C9.97273 32.7189 10.0119 32.2855 10.0902 31.8127C10.0902 31.7733 10.0902 31.7733 10.1294 31.7339C10.2077 31.7339 10.2077 31.8127 10.2469 31.8521C10.4427 32.0885 10.5994 32.3249 10.7561 32.5613C11.1086 33.1523 11.3827 33.7827 11.5394 34.4919C11.6177 34.8465 11.6569 35.2011 11.6961 35.5951C11.6961 35.8709 11.6961 36.1861 11.6961 36.4619C11.6569 36.9741 11.5394 37.4863 11.3436 37.9591C11.2652 38.1561 11.1869 38.3531 11.2261 38.5501C11.2261 38.6683 11.2261 38.7865 11.2261 38.9047C11.2261 38.9835 11.2261 39.0229 11.3044 39.0623C11.5002 39.2593 11.6961 39.4563 11.8919 39.6139C12.6361 40.2836 13.4194 40.8746 14.2811 41.3868C14.5552 41.5444 14.8686 41.702 15.1427 41.8596C15.1819 41.8596 15.2211 41.899 15.2602 41.899C15.2994 41.7808 15.2602 41.702 15.1819 41.5444C14.9469 41.5444 14.7119 41.4656 14.5161 41.308C14.1244 41.0322 13.8111 40.717 13.5761 40.323C13.4586 40.1654 13.3802 39.929 13.3019 39.7321C13.1061 39.2199 12.9886 38.6683 12.9102 38.1561C12.8319 37.5651 12.7536 37.0135 12.6752 36.4225C12.6752 36.3043 12.6361 36.2255 12.6361 36.1073C12.6361 36.0679 12.6361 35.9891 12.6361 35.9103C12.6752 35.9103 12.7144 35.9103 12.7536 35.9497C12.8711 36.0285 13.0277 36.1073 13.1452 36.1861C13.6152 36.5013 14.0461 36.8953 14.3986 37.4075C14.6336 37.7621 14.8294 38.1167 14.9861 38.5107C15.1427 38.9047 15.2994 39.3381 15.3386 39.7714C15.4169 40.1654 15.4169 40.5594 15.3777 40.9928C15.3777 41.111 15.3386 41.2292 15.3386 41.3474C15.3386 41.3868 15.3386 41.4262 15.3386 41.4262C15.3777 41.5838 15.4169 41.7808 15.4561 41.9384C15.4561 41.9778 15.4561 41.9778 15.4952 42.0172C15.6911 42.096 15.8869 42.1748 16.0827 42.2536C16.4744 42.4112 16.9052 42.5688 17.2969 42.687C17.7669 42.8446 18.2369 42.9628 18.7069 43.0416C18.7069 43.0416 18.7461 43.0416 18.7852 43.0416C18.9027 43.0416 18.9419 43.1204 18.9811 43.1992C19.0202 43.278 19.0202 43.3568 19.0202 43.475C18.9811 43.475 18.9419 43.475 18.9027 43.475C18.5894 43.3962 18.2369 43.3568 17.9236 43.278C17.2577 43.1204 16.5919 42.884 15.9261 42.6082C15.8477 42.5688 15.7694 42.5688 15.6519 42.5688C15.5344 42.6082 15.3777 42.6082 15.2602 42.6476C15.2211 42.6476 15.1819 42.6476 15.1427 42.687C15.1036 42.7264 15.1036 42.7658 15.0644 42.8052C14.8294 43.2386 14.4769 43.5144 14.0852 43.7508C13.7327 43.9478 13.3411 44.0266 12.9494 44.066C12.8711 44.066 12.7536 44.066 12.6752 44.1054C12.6361 44.1054 12.5577 44.1448 12.5186 44.1448C12.2444 44.1448 11.9311 44.1448 11.6569 44.1054C11.6177 44.066 11.5394 44.066 11.5002 44.066C11.2261 44.0266 10.9519 43.9872 10.6777 43.9084C10.2861 43.7902 9.8944 43.672 9.5419 43.475C9.38523 43.3962 9.22857 43.3174 9.11107 43.1992C9.0719 43.1598 9.03273 43.1204 8.99357 43.081C8.9544 43.0416 8.91523 43.0022 8.91523 42.9628C8.9544 42.9628 8.9544 42.9234 8.99357 42.884C9.22857 42.687 9.46357 42.5294 9.69857 42.3718C10.1294 42.096 10.5602 41.899 11.0302 41.7414C11.3827 41.6232 11.7352 41.5444 12.0877 41.5444C12.4011 41.505 12.6752 41.505 12.9886 41.5444C13.4194 41.5838 13.8111 41.7414 14.1636 41.899C14.4377 42.0172 14.7119 42.1748 14.9861 42.3324C15.0644 42.3718 15.1427 42.4112 15.2211 42.3718C15.2602 42.3718 15.2994 42.3718 15.3386 42.3324C15.3386 42.2536 15.2602 42.2536 15.2211 42.2536C14.2027 41.7414 13.2627 41.1504 12.4011 40.4412C12.1269 40.2048 11.8527 39.9684 11.6177 39.7321C11.5786 39.6926 11.5002 39.6533 11.4219 39.6533C11.3044 39.6533 11.1869 39.6139 11.0694 39.6139C11.0302 39.6139 10.9911 39.6139 10.9127 39.6139C10.8736 39.6533 10.8736 39.6926 10.8344 39.6926C10.7169 39.8109 10.5994 39.8897 10.4819 40.0078C10.1294 40.2442 9.73773 40.323 9.34607 40.323C9.0719 40.323 8.75857 40.2836 8.4844 40.2442C7.8969 40.126 7.34857 39.8897 6.8394 39.6139C6.56523 39.4563 6.33023 39.2987 6.05607 39.1411C5.74273 38.9441 5.50773 38.7077 5.27273 38.4319C5.1944 38.3137 5.0769 38.1955 5.03773 38.0773C5.03773 38.0379 4.99857 38.0379 4.99857 37.9985C5.03773 37.9591 5.11607 37.9591 5.15523 37.9197C5.39023 37.8409 5.58607 37.7621 5.82107 37.7227C6.6044 37.5257 7.38773 37.4863 8.21023 37.6045C8.6019 37.6833 8.9544 37.8015 9.3069 37.9591C9.7769 38.1955 10.1686 38.5107 10.5211 38.8653C10.6777 39.0229 10.7952 39.1805 10.9519 39.3381C10.9911 39.3775 10.9911 39.4169 11.0302 39.4169C11.0694 39.4169 11.1477 39.4563 11.2261 39.4563V39.4169C11.1869 39.3775 11.1477 39.3381 11.1477 39.2987C10.7561 38.9047 10.4036 38.4713 10.0511 38.0379C9.50273 37.3287 8.99357 36.5801 8.52357 35.7527C8.44523 35.6345 8.40607 35.5163 8.28857 35.4769C8.28857 35.4769 8.2494 35.4769 8.2494 35.4375C8.1319 35.3587 7.97523 35.2405 7.85773 35.1617C7.81857 35.2011 7.7794 35.2011 7.74023 35.2011C7.5444 35.2799 7.34857 35.3587 7.15273 35.3587C6.80023 35.3981 6.4869 35.3587 6.17357 35.2405C5.70357 35.0829 5.27273 34.8465 4.88107 34.5313C4.4894 34.1767 4.1369 33.8221 3.82357 33.3887C3.5494 33.0341 3.27523 32.6007 3.0794 32.2067C2.9619 31.9703 2.88357 31.6944 2.8444 31.4186C2.8444 31.3792 2.8444 31.3398 2.8444 31.3004C2.88357 31.3004 2.92273 31.3004 2.92273 31.3004C3.0794 31.3004 3.23607 31.3004 3.39273 31.3004C3.6669 31.3004 3.94107 31.3398 4.21523 31.4186C4.68523 31.5368 5.11607 31.6945 5.50773 31.9309C6.05607 32.2461 6.52607 32.6401 6.91773 33.1523C7.1919 33.4675 7.4269 33.8221 7.62273 34.2161C7.74023 34.4131 7.81857 34.6495 7.93607 34.8859C7.97523 35.0041 8.05357 35.0435 8.21023 35.0829C8.21023 35.0435 8.17107 35.0041 8.17107 35.0041C8.05357 34.8071 7.97523 34.5707 7.85773 34.3737C7.50523 33.6645 7.23107 32.9553 6.9569 32.2067C6.7219 31.4975 6.4869 30.7883 6.29107 30.0791C6.2519 30.0003 6.2519 29.882 6.17357 29.8032C6.1344 29.7638 6.1344 29.7245 6.09523 29.6851C6.0169 29.5669 5.93857 29.4487 5.86023 29.3305C5.82107 29.3305 5.7819 29.3305 5.74273 29.3305C5.35107 29.3699 4.99857 29.291 4.68523 29.1334C4.3719 28.9759 4.1369 28.779 3.9019 28.5426C3.5494 28.1486 3.23607 27.7151 2.9619 27.2423C2.7269 26.8089 2.53107 26.3756 2.3744 25.9422C2.2569 25.5876 2.10023 25.2329 2.0219 24.8783C1.98273 24.7601 1.98273 24.6026 1.94357 24.4844C1.94357 24.445 1.94357 24.4055 1.86523 24.3661C1.86523 24.2085 1.86523 24.051 1.86523 23.9328C1.9044 23.9328 1.94357 23.9328 1.98273 23.9328C2.29607 24.0116 2.6094 24.1691 2.92273 24.3661C3.51023 24.7207 4.05857 25.1935 4.4894 25.7451C4.88107 26.2179 5.1944 26.6907 5.39023 27.2423C5.5469 27.6363 5.6644 28.0304 5.7819 28.4638C5.82107 28.6608 5.86023 28.8578 5.8994 29.0548C5.8994 29.173 5.93857 29.2516 6.05607 29.291C6.05607 29.2122 6.05607 29.1728 6.05607 29.1334C6.0169 28.9365 5.97773 28.7002 5.93857 28.5032C5.86023 27.9122 5.7819 27.3606 5.70357 26.7696C5.6644 26.218 5.62523 25.6663 5.62523 25.1147C5.62523 24.8783 5.62523 24.6419 5.62523 24.4056C5.62523 24.3662 5.62523 24.3267 5.62523 24.2873C5.5469 24.0903 5.46857 23.8934 5.39023 23.6964L5.35107 23.6569H5.3119C4.92023 23.6175 4.6069 23.4206 4.33273 23.1448C4.09773 22.9084 3.9019 22.672 3.74523 22.3568C3.4319 21.8052 3.27523 21.2141 3.11857 20.5837C3.00107 20.1503 2.92273 19.6776 2.88357 19.2442C2.8444 18.7714 2.80523 18.2987 2.8444 17.8259C2.8444 17.6289 2.88357 17.4319 2.92273 17.2349C2.92273 17.1955 2.9619 17.1955 2.9619 17.1561C3.00107 17.1955 3.04023 17.1955 3.0794 17.2349C3.35357 17.4319 3.58857 17.6683 3.82357 17.9047C4.29357 18.4169 4.68523 19.0077 4.9594 19.6381C5.35107 20.5049 5.58607 21.4112 5.58607 22.3962C5.58607 22.7508 5.58607 23.0659 5.5469 23.4205C5.5469 23.5387 5.5469 23.657 5.62523 23.7752C5.62523 23.8146 5.6644 23.8146 5.6644 23.7752C5.74273 22.1598 5.8994 20.5837 6.21273 19.0077C6.17357 18.9289 6.1344 18.8896 6.1344 18.8502C6.09523 18.6927 6.09523 18.5351 6.05607 18.3775C6.05607 18.3381 6.0169 18.2987 6.0169 18.2199C5.97773 18.1805 5.93857 18.1805 5.93857 18.1805C5.70357 18.0623 5.50773 17.8653 5.3119 17.6683C5.0769 17.3925 4.9594 17.0379 4.8419 16.7227C4.68523 16.2105 4.64607 15.6983 4.64607 15.1861C4.64607 14.7527 4.64607 14.3587 4.68523 13.9253C4.7244 13.4131 4.76357 12.9009 4.88107 12.3887C4.9594 12.1129 5.03773 11.8371 5.15523 11.5613C5.15523 11.5219 5.15523 11.4825 5.23357 11.4825L5.27273 11.5219C5.58607 11.9159 5.86023 12.3493 6.09523 12.8221C6.33023 13.3343 6.4869 13.8465 6.6044 14.3981C6.7219 15.0285 6.7219 15.6983 6.64357 16.3287C6.56523 16.8803 6.44773 17.4319 6.29107 17.9835C6.2519 18.1411 6.2519 18.2987 6.29107 18.4563V18.4956C6.29107 18.4956 6.29107 18.535 6.33023 18.535C6.33023 18.4956 6.3694 18.4169 6.3694 18.3775C6.44773 18.0229 6.56523 17.6683 6.64357 17.2743C6.91773 16.2499 7.3094 15.2649 7.70107 14.3193C7.74023 14.2405 7.7794 14.1223 7.74023 14.0041V13.9647C7.74023 13.8071 7.74023 13.6889 7.7794 13.5313C7.7794 13.4525 7.7794 13.3737 7.70107 13.2949C7.50523 13.1373 7.34857 12.9009 7.23107 12.6645C7.03523 12.2705 6.9569 11.8765 6.9569 11.4431C6.91773 10.9309 6.99607 10.4187 7.0744 9.94588C7.15273 9.55189 7.23107 9.15789 7.34857 8.76389C7.50523 8.2517 7.6619 7.7789 7.85773 7.30611C7.97523 7.06971 8.09273 6.83331 8.2494 6.59692C8.28857 6.55752 8.32773 6.51812 8.32773 6.47872C8.3669 6.51812 8.3669 6.51812 8.3669 6.55752C8.64107 7.10911 8.8369 7.70011 8.91523 8.3305C8.99357 8.80329 8.99357 9.23669 8.99357 9.70949C8.99357 9.90648 8.9544 10.1035 8.9544 10.3005C8.91523 10.8915 8.75857 11.4431 8.56273 11.9553C7.93607 12.5069 7.74023 12.9009 7.50523 13.2949C7.46607 13.3737 7.4269 13.4525 7.4269 13.5313C7.4269 13.5707 7.4269 13.6495 7.4269 13.6889C7.4269 13.6889 7.4269 13.7283 7.46607 13.7283C7.46607 13.6889 7.50523 13.6889 7.50523 13.6495C7.74023 13.1767 7.97523 12.7039 8.21023 12.2705C8.6019 11.6007 9.03273 10.9309 9.46357 10.2611C9.62023 10.0641 9.7769 9.86708 9.8944 9.63069C9.93357 9.59129 9.93357 9.55189 9.93357 9.51249C9.97273 9.39429 9.97273 9.23669 10.0119 9.11849C10.0119 9.03969 10.0511 8.92149 10.0511 8.84269C10.0511 8.80329 10.0119 8.80329 10.0119 8.80329C9.85523 8.6457 9.7769 8.4487 9.69857 8.2517C9.62023 7.9759 9.58107 7.7395 9.58107 7.46371C9.58107 6.87271 9.69857 6.32112 9.85523 5.73012C9.97273 5.33613 10.1686 4.98153 10.3644 4.62693C10.6386 4.11474 10.9519 3.64194 11.3436 3.24795C11.5394 3.05095 11.7352 2.85395 11.9702 2.65695C12.0094 2.61755 12.0094 2.61755 12.0877 2.61755C12.0877 2.65695 12.1269 2.73575 12.1269 2.77515C12.1661 3.05095 12.2052 3.32675 12.2052 3.60254C12.2052 4.31174 12.1269 4.98153 12.0094 5.65132C11.9311 6.04532 11.8136 6.47872 11.6569 6.87271C11.3827 7.54251 10.9911 8.1729 10.4819 8.6851C10.2861 8.92149 10.2861 8.92149 10.2469 9.19729V9.23669C10.2469 9.23669 10.2469 9.27609 10.2861 9.27609L10.3252 9.23669C10.5211 9.00029 10.6777 8.76389 10.8736 8.5669C11.3827 7.9759 11.8919 7.42431 12.4402 6.91211C12.6361 6.71511 12.8319 6.55752 13.0277 6.36052C13.1452 6.24232 13.3019 6.12412 13.4586 6.00592C13.4194 6.00592 13.4586 5.96652 13.4586 5.96652C13.4586 5.92712 13.4586 5.92712 13.4586 5.92712C13.4194 5.45433 13.5369 5.02093 13.8111 4.62693C14.0461 4.27234 14.3202 3.99654 14.6727 3.72074C15.0252 3.44495 15.4169 3.24795 15.8477 3.09035C16.2002 2.97215 16.5527 2.85395 16.8661 2.73575C17.0619 2.65695 17.2186 2.61755 17.4144 2.53875C17.4536 2.53875 17.5319 2.49935 17.5319 2.45996C17.5711 2.49935 17.6102 2.49935 17.6102 2.49935Z" fill="#7A7384"/>
<path fill-rule="evenodd" clip-rule="evenodd" d="M106.775 2.45996C106.814 2.69635 106.892 2.89335 106.971 3.12975C107.206 3.72074 107.48 4.27234 107.911 4.74513C108.342 5.25733 108.851 5.65132 109.477 5.92712C109.83 6.08472 110.222 6.16352 110.574 6.16352C110.613 6.16352 110.652 6.16352 110.652 6.16352C110.692 6.16352 110.731 6.16352 110.77 6.20292C111.005 6.39992 111.201 6.55752 111.436 6.75451C111.984 7.26671 112.454 7.8183 112.924 8.3699C113.002 8.4881 113.12 8.6063 113.198 8.7245C113.198 8.7639 113.237 8.7639 113.237 8.7639C113.237 8.80329 113.198 8.80329 113.198 8.80329C113.081 8.80329 113.002 8.80329 112.885 8.7639C112.885 8.7245 112.846 8.7245 112.846 8.6851C112.65 8.1729 112.297 7.8183 111.788 7.58191C111.357 7.38491 110.887 7.26671 110.417 7.30611C110.104 7.30611 109.83 7.34551 109.517 7.38491C109.086 7.46371 108.694 7.50311 108.263 7.58191C108.224 7.58191 108.146 7.62131 108.107 7.62131C108.107 7.70011 108.146 7.73951 108.185 7.7789C108.42 8.0941 108.733 8.3699 109.047 8.6063C109.438 8.92149 109.869 9.11849 110.339 9.23669C110.652 9.31549 111.005 9.35489 111.318 9.35489C111.632 9.35489 111.945 9.31549 112.258 9.19729C112.415 9.11849 112.611 9.03969 112.767 8.96089C112.807 8.92149 112.885 8.92149 112.924 8.92149C113.081 8.96089 113.237 9.00029 113.394 8.96089C113.864 9.39429 115.392 11.8765 115.666 12.5857C115.587 12.5857 115.47 12.5463 115.274 12.4675C115.274 12.4281 115.274 12.4281 115.235 12.3887C115.157 11.7977 114.804 11.3249 114.334 10.9703C114.021 10.7733 113.707 10.6551 113.355 10.5369C112.963 10.4187 112.532 10.3793 112.102 10.3399C111.749 10.3005 111.357 10.3005 111.005 10.2611C110.887 10.2611 110.77 10.2611 110.692 10.2217C110.652 10.2217 110.652 10.2217 110.574 10.2217C110.613 10.2611 110.613 10.3399 110.652 10.3399C111.044 10.9703 111.514 11.5219 112.102 11.9553C112.611 12.3099 113.198 12.5857 113.825 12.6645C114.256 12.7433 114.647 12.7039 115.078 12.5463C115.117 12.5463 115.157 12.5463 115.157 12.5069C115.196 12.4675 115.235 12.5069 115.274 12.5069C115.313 12.5463 115.392 12.5857 115.431 12.5857C115.548 12.6251 115.666 12.6645 115.783 12.7039C116.527 14.2405 117.115 15.8165 117.546 17.4713C117.428 17.4713 117.35 17.3925 117.193 17.2743C117.193 17.1561 117.193 17.0773 117.193 16.9591C117.193 16.3287 116.958 15.8165 116.527 15.3437C116.292 15.0679 116.018 14.8709 115.744 14.6739C115.392 14.4375 114.961 14.2405 114.569 14.0829C114.099 13.8859 113.59 13.6889 113.12 13.5313C113.081 13.4919 113.002 13.4919 112.963 13.4525C112.963 13.4525 112.924 13.4525 112.885 13.4525C112.885 13.4919 112.885 13.5313 112.885 13.5313C112.963 13.8071 113.042 14.0829 113.159 14.3587C113.316 14.7527 113.512 15.1467 113.786 15.5013C114.138 16.0135 114.569 16.4469 115.078 16.8409C115.352 17.0379 115.627 17.1561 115.901 17.2743C116.253 17.3925 116.606 17.4713 116.958 17.4319C117.037 17.4319 117.115 17.4319 117.193 17.5107C117.311 17.6289 117.467 17.7471 117.624 17.8259C117.937 19.0078 118.133 20.2292 118.251 21.4506C118.368 22.6326 118.368 23.1447 118.329 23.3417C118.29 23.3417 118.29 23.3418 118.29 23.3024C118.212 23.2236 118.172 23.1448 118.094 23.1054C118.055 23.066 118.055 23.0266 118.055 22.9478C118.055 22.9084 118.094 22.8295 118.094 22.7901C118.172 22.4355 118.133 22.081 118.094 21.7658C118.016 21.4112 117.898 21.0566 117.742 20.702C117.585 20.3474 117.35 20.0321 117.076 19.7563C116.723 19.3623 116.332 19.0077 115.94 18.6926C115.587 18.4168 115.274 18.1411 114.922 17.8653C114.843 17.8259 114.804 17.7471 114.726 17.7077C114.687 17.7077 114.687 17.6683 114.647 17.6683C114.608 17.7077 114.608 17.7471 114.608 17.7471C114.608 18.1411 114.687 18.535 114.726 18.9289C114.843 19.5593 115.039 20.1504 115.352 20.7414C115.666 21.3324 116.057 21.8446 116.527 22.3174C116.88 22.6326 117.272 22.869 117.742 23.0266H117.781C117.898 23.066 118.016 23.1448 118.055 23.263C118.133 23.3812 118.212 23.5388 118.329 23.6569C118.368 23.6963 118.368 23.7358 118.368 23.7752C118.368 24.0116 118.368 24.248 118.368 24.445C118.368 24.7602 118.329 25.1148 118.329 25.43C118.29 25.9422 118.251 26.415 118.212 26.9272C118.133 27.3606 118.094 27.8334 118.016 28.2668C117.977 28.5032 117.937 28.7396 117.898 28.976C117.898 29.0154 117.859 29.0548 117.859 29.0942C117.781 29.0154 117.702 28.8183 117.663 28.6607V28.6213C117.82 28.4243 117.898 28.2273 117.937 27.9909C117.977 27.6757 117.977 27.3999 117.977 27.0847C117.937 26.6119 117.781 26.1391 117.585 25.7057C117.35 25.2329 117.076 24.7601 116.723 24.3267C116.449 23.9327 116.175 23.5782 115.862 23.2236C115.705 22.9872 115.548 22.7902 115.352 22.5538C115.313 22.5144 115.313 22.5144 115.274 22.475C115.274 22.5144 115.235 22.5538 115.235 22.5538C115.196 22.7508 115.196 22.9478 115.157 23.1448C115.117 23.7358 115.117 24.2873 115.196 24.8783C115.274 25.3511 115.392 25.824 115.587 26.2968C115.744 26.7302 115.979 27.1636 116.253 27.5576C116.527 27.991 116.88 28.3455 117.311 28.6607C117.389 28.7395 117.467 28.779 117.507 28.8972C117.585 29.0942 117.624 29.2518 117.742 29.4093C117.781 29.4487 117.781 29.5275 117.742 29.5669C117.702 29.685 117.702 29.8032 117.663 29.9214C117.389 30.9458 117.076 31.9703 116.645 32.9553C116.41 33.5069 116.175 34.0585 115.901 34.5707C115.901 34.6101 115.862 34.6495 115.822 34.6889C115.783 34.5707 115.744 34.413 115.744 34.2554C115.901 34.0978 116.057 33.9403 116.136 33.7039C116.175 33.5857 116.253 33.4281 116.292 33.3099C116.41 32.9947 116.449 32.6401 116.488 32.2855C116.527 32.0491 116.488 31.7732 116.449 31.5368C116.371 30.9852 116.214 30.4336 116.018 29.9214C115.822 29.3698 115.627 28.8578 115.431 28.3456C115.313 28.1092 115.235 27.8334 115.157 27.597C115.157 27.597 115.157 27.5576 115.117 27.5576C115.078 27.5576 115.039 27.597 115.039 27.6364C114.922 27.8728 114.804 28.1486 114.726 28.4244C114.569 28.8972 114.491 29.3305 114.412 29.8426C114.373 30.3154 114.334 30.7882 114.412 31.261C114.452 31.6944 114.53 32.0884 114.647 32.5218C114.804 33.1128 115.078 33.6644 115.47 34.1766C115.548 34.2554 115.587 34.3343 115.587 34.4525C115.627 34.6101 115.627 34.7677 115.666 34.9253C115.666 35.0041 115.666 35.0435 115.627 35.1223C115.509 35.3193 115.431 35.4769 115.313 35.6739C114.961 36.3043 114.53 36.8953 114.099 37.4469C113.707 37.9591 113.316 38.4319 112.846 38.8653C112.807 38.9047 112.767 38.9441 112.728 38.9835C112.728 38.9441 112.689 38.9441 112.689 38.9047C112.689 38.7865 112.689 38.6683 112.728 38.5501L112.767 38.5107C113.042 38.3925 113.237 38.1955 113.394 37.9985C113.668 37.6439 113.903 37.2499 114.021 36.7771C114.06 36.6589 114.06 36.5013 114.099 36.3831C114.177 35.9103 114.177 35.4375 114.138 34.9647C114.099 34.4131 114.06 33.9008 113.982 33.3492C113.903 32.9158 113.864 32.443 113.825 32.0096C113.825 31.9702 113.825 31.9703 113.786 31.9309C113.707 31.9309 113.707 32.0096 113.668 32.0096C113.472 32.246 113.316 32.4825 113.159 32.7189C112.767 33.3099 112.493 33.9403 112.337 34.6101C112.258 34.9647 112.18 35.3193 112.18 35.7133C112.141 35.9891 112.141 36.3043 112.141 36.5801C112.18 37.0923 112.258 37.6045 112.454 38.1167C112.532 38.3137 112.572 38.5107 112.572 38.7077C112.572 38.8259 112.572 38.9441 112.572 39.0623C112.572 39.1411 112.572 39.1805 112.493 39.2199C112.297 39.4169 112.102 39.5745 111.906 39.7715C111.162 40.4412 110.339 40.9928 109.477 41.4656C109.203 41.6232 108.89 41.7808 108.577 41.9384C108.537 41.9384 108.498 41.9778 108.459 41.9778C108.42 41.8596 108.459 41.7808 108.537 41.6232C108.772 41.6232 109.007 41.5444 109.203 41.4262C109.595 41.1898 109.908 40.8352 110.182 40.4806C110.3 40.323 110.378 40.126 110.457 39.929C110.652 39.4169 110.77 38.9047 110.887 38.3531C110.966 37.7621 111.083 37.2105 111.162 36.6195C111.162 36.5013 111.201 36.4225 111.201 36.3043C111.201 36.2649 111.201 36.1861 111.24 36.1073C111.201 36.1073 111.162 36.1073 111.122 36.1467C111.005 36.2255 110.848 36.3043 110.731 36.3831C110.222 36.6983 109.791 37.0923 109.438 37.5651C109.203 37.8803 108.968 38.2349 108.812 38.6289C108.616 39.0229 108.498 39.4563 108.42 39.8897C108.342 40.2836 108.342 40.6776 108.381 41.111C108.381 41.2292 108.42 41.3474 108.42 41.4656C108.42 41.505 108.42 41.5444 108.42 41.5444C108.381 41.702 108.342 41.899 108.302 42.0566C108.302 42.096 108.302 42.096 108.263 42.1354C108.067 42.2142 107.872 42.293 107.676 42.3718C107.284 42.5294 106.853 42.687 106.462 42.8052C105.992 42.9234 105.522 43.0416 105.052 43.1204C105.052 43.1204 105.012 43.1204 104.973 43.1204C104.856 43.1204 104.817 43.1992 104.777 43.278C104.738 43.3568 104.738 43.4356 104.738 43.5538C104.777 43.5538 104.817 43.5538 104.856 43.5538C105.208 43.475 105.522 43.4356 105.874 43.3568C106.54 43.1992 107.206 43.0022 107.872 42.7658C107.95 42.7264 108.028 42.7264 108.146 42.7658C108.263 42.8052 108.42 42.8052 108.537 42.8446C108.577 42.8446 108.616 42.8446 108.655 42.884C108.694 42.9234 108.694 42.9628 108.733 43.0022C108.968 43.4356 109.282 43.7508 109.712 43.9478C110.065 44.1448 110.457 44.263 110.848 44.3024C110.927 44.3024 111.044 44.3024 111.122 44.3418C111.162 44.3418 111.24 44.3812 111.279 44.3812C111.553 44.3812 111.867 44.3812 112.141 44.3812C112.18 44.3418 112.258 44.3418 112.297 44.3418C112.572 44.3024 112.846 44.263 113.12 44.1842C113.512 44.1054 113.903 43.9872 114.256 43.7902C114.412 43.7114 114.569 43.6326 114.726 43.5144C114.765 43.475 114.804 43.4356 114.843 43.4356C114.882 43.3962 114.922 43.3568 114.922 43.3174C114.882 43.3174 114.882 43.278 114.843 43.2386C114.608 43.0416 114.412 42.884 114.138 42.7264C113.707 42.4506 113.277 42.2142 112.807 42.0566C112.454 41.9384 112.102 41.8596 111.749 41.8202C111.436 41.7808 111.162 41.7808 110.848 41.8202C110.417 41.8596 110.026 41.9778 109.634 42.1354C109.36 42.2536 109.086 42.4112 108.812 42.5688C108.733 42.6082 108.655 42.6476 108.577 42.6082C108.537 42.6082 108.498 42.6082 108.459 42.5688C108.459 42.49 108.537 42.49 108.577 42.49C109.595 42.0172 110.574 41.4262 111.475 40.717C111.749 40.4806 112.023 40.2836 112.297 40.0473C112.337 40.0078 112.415 39.9684 112.493 39.9684C112.611 39.9684 112.728 39.929 112.846 39.929C112.885 39.929 112.924 39.929 113.002 39.929C113.042 39.9685 113.042 40.0078 113.081 40.0078C113.198 40.1261 113.316 40.2442 113.433 40.323C113.786 40.5594 114.177 40.6382 114.569 40.6776C114.843 40.6776 115.157 40.6776 115.431 40.5988C116.018 40.4806 116.567 40.2836 117.115 40.0078C117.389 39.8503 117.624 39.6927 117.898 39.5351C118.212 39.3381 118.486 39.1017 118.721 38.8259C118.799 38.7077 118.917 38.5895 118.956 38.4713C118.956 38.4319 118.995 38.4319 118.995 38.3925C118.956 38.3531 118.877 38.3531 118.838 38.3137C118.603 38.2349 118.407 38.1561 118.172 38.0773C117.389 37.8409 116.606 37.8015 115.783 37.9197C115.392 37.9985 115.039 38.0773 114.687 38.2349C114.217 38.4713 113.825 38.7471 113.433 39.1411C113.277 39.2987 113.12 39.4563 112.963 39.6139C112.924 39.6533 112.885 39.6927 112.885 39.6927C112.846 39.6927 112.767 39.7321 112.689 39.7321V39.6927C112.728 39.6533 112.767 39.6139 112.767 39.5745C113.159 39.1805 113.551 38.7865 113.903 38.3531C114.491 37.6439 115 36.8953 115.509 36.1073C115.587 35.9891 115.627 35.8709 115.783 35.8315C115.783 35.8315 115.822 35.8315 115.822 35.7921C115.94 35.7133 116.097 35.5951 116.214 35.5163C116.253 35.5557 116.292 35.5557 116.332 35.5951C116.527 35.7133 116.723 35.7527 116.919 35.7921C117.272 35.8315 117.585 35.7921 117.898 35.7133C118.368 35.5951 118.799 35.3587 119.191 35.0435C119.582 34.7283 119.935 34.3342 120.287 33.9402C120.601 33.5856 120.836 33.1916 121.071 32.7582C121.188 32.5218 121.306 32.2461 121.345 31.9703C121.345 31.9309 121.345 31.8915 121.345 31.8521C121.306 31.8521 121.267 31.8521 121.267 31.8521C121.11 31.8521 120.953 31.8521 120.797 31.8521C120.522 31.8521 120.248 31.8915 119.974 31.9309C119.504 32.0097 119.073 32.2067 118.682 32.4037C118.133 32.7189 117.624 33.1128 117.232 33.5856C116.958 33.9008 116.723 34.2555 116.527 34.6101C116.41 34.8071 116.292 35.0435 116.175 35.2405C116.136 35.3587 116.057 35.3981 115.901 35.4375C115.901 35.3981 115.94 35.3587 115.94 35.3587C116.057 35.1617 116.175 34.9253 116.292 34.7283C116.645 34.0191 116.958 33.3098 117.272 32.6006C117.546 31.8914 117.781 31.2216 117.977 30.5124C118.016 30.4336 118.016 30.3155 118.094 30.2367C118.133 30.1973 118.133 30.1579 118.172 30.1185C118.251 30.0003 118.329 29.882 118.407 29.7638C118.447 29.7638 118.486 29.7638 118.525 29.7638C118.917 29.8426 119.269 29.7639 119.582 29.6063C119.896 29.4487 120.131 29.2518 120.366 29.0154C120.757 28.6214 121.071 28.2274 121.345 27.7546C121.58 27.3606 121.776 26.9271 121.972 26.4543C122.128 26.0997 122.246 25.7452 122.324 25.3906C122.363 25.2724 122.363 25.1147 122.402 24.9965C122.402 24.9571 122.402 24.9177 122.481 24.9177C122.481 24.7601 122.481 24.6026 122.481 24.4844C122.442 24.445 122.402 24.4844 122.324 24.4844C121.972 24.5632 121.697 24.7207 121.384 24.8783C120.757 25.2329 120.248 25.6664 119.778 26.218C119.387 26.6514 119.073 27.1636 118.838 27.6758C118.682 28.0698 118.525 28.4638 118.447 28.8972C118.407 29.0942 118.368 29.2911 118.329 29.4881C118.29 29.6063 118.251 29.6851 118.172 29.7245C118.172 29.6457 118.172 29.6062 118.172 29.5669C118.212 29.3699 118.251 29.1336 118.329 28.9366C118.447 28.3456 118.525 27.7939 118.603 27.2029C118.682 26.6513 118.682 26.0998 118.721 25.5482C118.721 25.3118 118.721 25.0753 118.76 24.8389C118.76 24.7995 118.76 24.7602 118.76 24.7208C118.838 24.5238 118.917 24.3267 119.034 24.1297L119.073 24.0903H119.112C119.504 24.0509 119.817 23.8933 120.092 23.6175C120.327 23.3811 120.522 23.1447 120.679 22.8689C120.992 22.3173 121.188 21.7263 121.345 21.1353C121.462 20.7019 121.541 20.2291 121.619 19.7957C121.697 19.3229 121.737 18.8503 121.697 18.3775C121.697 18.1805 121.658 17.9835 121.658 17.7471C121.658 17.7077 121.619 17.7077 121.619 17.6683C121.58 17.7077 121.541 17.7077 121.502 17.7471C121.227 17.9441 120.992 18.1805 120.757 18.4169C120.287 18.929 119.896 19.4806 119.582 20.111C119.152 20.9778 118.917 21.8839 118.917 22.8295C118.917 23.1841 118.917 23.4994 118.956 23.854C118.956 23.9722 118.956 24.0903 118.877 24.2085C118.877 24.2479 118.838 24.2479 118.838 24.2085C118.799 22.5931 118.682 21.0172 118.407 19.4412C118.447 19.3624 118.486 19.323 118.486 19.2836C118.525 19.126 118.564 18.9684 118.564 18.8109C118.564 18.7715 118.603 18.732 118.603 18.6926C118.642 18.6926 118.682 18.6532 118.682 18.6532C118.917 18.535 119.152 18.3381 119.308 18.1411C119.543 17.8653 119.7 17.5501 119.778 17.1955C119.935 16.6833 119.974 16.1711 120.013 15.6589C120.052 15.2255 120.052 14.8315 120.013 14.3981C120.013 13.8859 119.935 13.3737 119.857 12.8615C119.778 12.5857 119.7 12.2705 119.622 12.0341C119.622 11.9947 119.622 11.9553 119.543 11.9553L119.504 11.9947C119.191 12.3887 118.877 12.7827 118.642 13.2555C118.407 13.7677 118.212 14.2799 118.094 14.8315C117.977 15.4619 117.937 16.1317 118.016 16.7621C118.055 17.3137 118.172 17.9047 118.329 18.4563C118.368 18.6139 118.368 18.7714 118.329 18.9289V18.9683C118.329 18.9683 118.329 19.0077 118.29 19.0077C118.29 18.9683 118.251 18.8896 118.251 18.8502C118.172 18.4957 118.094 18.1017 118.016 17.7471C117.742 16.7227 117.428 15.7377 117.037 14.7527C116.997 14.6739 116.958 14.5557 116.997 14.4375V14.3981C116.997 14.2405 116.997 14.1223 116.958 13.9647C116.958 13.8859 116.958 13.8071 117.037 13.7283C117.232 13.5707 117.389 13.3343 117.507 13.1373C117.702 12.7433 117.781 12.3493 117.82 11.9159C117.859 11.4037 117.82 10.8915 117.742 10.4187C117.702 10.0247 117.585 9.63069 117.507 9.23669C117.389 8.7245 117.232 8.2517 117.037 7.7789C116.919 7.54251 116.802 7.30611 116.645 7.06971C116.606 7.03031 116.606 6.99091 116.567 6.95151C116.527 6.99091 116.527 6.99091 116.527 7.03031C116.253 7.58191 116.057 8.1729 115.94 8.7639C115.862 9.23669 115.822 9.67009 115.822 10.1429C115.822 10.3399 115.822 10.5369 115.862 10.7339C115.901 11.3249 116.018 11.8765 116.214 12.4281C116.371 12.8615 116.527 13.2555 116.762 13.6495C116.802 13.7283 116.841 13.8071 116.841 13.8859C116.841 13.9253 116.841 14.0041 116.841 14.0435C116.841 14.0435 116.841 14.0829 116.802 14.0829C116.802 14.0435 116.762 14.0435 116.762 14.0041C116.567 13.5313 116.332 13.0585 116.057 12.5857C115.705 11.8765 115.274 11.2067 114.843 10.5763C114.687 10.3793 114.569 10.1429 114.412 9.94588C114.373 9.90648 114.373 9.86709 114.373 9.82769C114.334 9.70949 114.334 9.55189 114.334 9.43369C114.334 9.31549 114.295 9.23669 114.295 9.15789C114.295 9.11849 114.334 9.11849 114.334 9.11849C114.491 8.96089 114.608 8.80329 114.647 8.6063C114.726 8.3305 114.804 8.0941 114.804 7.8183C114.843 7.22731 114.726 6.63632 114.569 6.08472C114.452 5.69072 114.295 5.33613 114.099 4.98153C113.825 4.46934 113.551 3.99654 113.159 3.56314C112.963 3.32675 112.767 3.12975 112.532 2.97215C112.493 2.93275 112.493 2.93275 112.415 2.93275C112.415 2.97215 112.376 3.05095 112.376 3.09035C112.337 3.36615 112.297 3.64194 112.297 3.91774C112.258 4.62693 112.337 5.29673 112.454 5.96652C112.532 6.39992 112.65 6.79391 112.807 7.18791C113.081 7.8577 113.433 8.4881 113.942 9.03969C114.138 9.27609 114.138 9.27609 114.177 9.55189V9.59129C114.177 9.59129 114.177 9.63069 114.138 9.63069L114.099 9.59129C113.903 9.35489 113.747 9.11849 113.551 8.88209C113.081 8.2911 112.572 7.73951 112.023 7.18791C111.827 6.99091 111.632 6.83331 111.475 6.63632C111.357 6.51812 111.201 6.36052 111.044 6.28172C111.005 6.24232 111.005 6.24232 110.966 6.20292C110.966 6.16352 110.966 6.16352 110.966 6.16352C111.044 5.69072 110.927 5.25733 110.692 4.86333C110.496 4.50874 110.182 4.19354 109.869 3.95714C109.517 3.68134 109.125 3.44495 108.694 3.28735C108.342 3.16915 107.989 3.05095 107.676 2.89335C107.48 2.81455 107.323 2.77515 107.127 2.69635C107.088 2.69635 107.01 2.65695 107.01 2.61755C106.814 2.45996 106.775 2.45996 106.775 2.45996Z" fill="#7A7384"/>
</svg>
