<svg width="136" height="46" viewBox="0 0 136 46" fill="none" xmlns="http://www.w3.org/2000/svg">
<path fill-rule="evenodd" clip-rule="evenodd" d="M18.7616 1.54526C18.7224 1.78166 18.6441 1.97866 18.5658 2.17566C18.3308 2.76665 18.0174 3.31825 17.5866 3.79104C17.1558 4.30324 16.6074 4.65783 15.9808 4.89423C15.6283 5.05183 15.2366 5.09123 14.8841 5.09123C14.8449 5.09123 14.8058 5.09123 14.8058 5.09123C14.7666 5.09123 14.7274 5.09123 14.6883 5.13063C14.4533 5.32763 14.2183 5.48523 14.0224 5.68222C13.4741 6.19442 12.9649 6.70661 12.4949 7.25821C12.3774 7.37641 12.2991 7.49461 12.1816 7.6128L12.1424 7.6522C12.1424 7.6916 12.1816 7.6916 12.1816 7.6916C12.2991 7.6916 12.3774 7.6916 12.4949 7.6522C12.4949 7.6128 12.5341 7.6128 12.5341 7.57341C12.7299 7.06121 13.1216 6.70661 13.6308 6.47022C14.0616 6.27322 14.5316 6.19442 15.0016 6.23382C15.3149 6.23382 15.5891 6.27322 15.9024 6.35202C16.3333 6.43082 16.7249 6.50962 17.1558 6.58841C17.1949 6.58841 17.2733 6.62781 17.3124 6.62781C17.3124 6.70661 17.2733 6.74601 17.2341 6.78541C16.9991 7.10061 16.6858 7.37641 16.3724 7.6128C15.9808 7.8886 15.5499 8.125 15.0408 8.2432C14.7274 8.322 14.3749 8.3614 14.0616 8.322C13.7483 8.322 13.4349 8.2432 13.1608 8.125C13.0041 8.0462 12.8474 7.9674 12.6908 7.8886C12.6516 7.8492 12.5733 7.8492 12.5341 7.8492C12.3774 7.8886 12.2208 7.928 12.0641 7.8886C11.5941 8.322 9.98827 10.7648 9.67493 11.474C9.75327 11.474 9.87077 11.474 10.0666 11.3558C10.0666 11.3164 10.0666 11.3164 10.1058 11.277C10.2233 10.686 10.5366 10.2132 11.0458 9.89798C11.3591 9.70098 11.6724 9.58279 12.0249 9.50399C12.4166 9.38579 12.8474 9.38579 13.2783 9.34639C13.6308 9.34639 14.0224 9.30699 14.3749 9.30699C14.4924 9.30699 14.6099 9.30699 14.6883 9.30699C14.7274 9.30699 14.7274 9.30699 14.8058 9.30699C14.7666 9.34639 14.7666 9.38579 14.7274 9.42519C14.3358 10.0556 13.8266 10.6072 13.2391 11.0012C12.7299 11.3558 12.1424 11.5922 11.5158 11.671C11.0849 11.7104 10.6933 11.671 10.3016 11.5134C10.2624 11.5134 10.2233 11.474 10.2233 11.474C10.1841 11.4346 10.1449 11.474 10.1058 11.474C10.0666 11.5134 9.98827 11.5134 9.9491 11.5528C9.8316 11.5922 9.7141 11.6316 9.5966 11.671C8.81327 13.1682 8.1866 14.7442 7.7166 16.399C7.8341 16.399 7.91244 16.3202 8.0691 16.202C8.0691 16.0838 8.0691 16.005 8.0691 15.8868C8.10827 15.2564 8.34327 14.7442 8.7741 14.2714C9.0091 13.9956 9.28327 13.7986 9.5966 13.641C9.98827 13.4046 10.3799 13.247 10.7716 13.0894C11.2808 12.8924 11.7508 12.7348 12.2599 12.5772C12.2991 12.5378 12.3774 12.5378 12.4166 12.4984C12.4166 12.4984 12.4558 12.4984 12.4949 12.4984C12.4949 12.5378 12.4949 12.5772 12.4949 12.5772C12.4166 12.853 12.2991 13.1288 12.1816 13.4046C11.9858 13.7986 11.7899 14.1532 11.5549 14.5078C11.2024 15.02 10.7324 15.4534 10.2233 15.808C9.9491 15.9656 9.67493 16.1232 9.40077 16.2414C9.04827 16.3596 8.69577 16.399 8.34327 16.399C8.26494 16.399 8.1866 16.399 8.10827 16.4778C7.99077 16.5959 7.8341 16.7141 7.67743 16.7929C7.3641 17.9749 7.1291 19.1569 6.97243 20.3783C6.81577 21.5603 6.81577 22.0725 6.81577 22.2695C6.85493 22.2695 6.85493 22.2695 6.85493 22.2301C6.93327 22.1513 6.97243 22.0725 7.05077 22.0331C7.08993 21.9937 7.08993 21.9543 7.08993 21.8755C7.08993 21.8361 7.05077 21.7573 7.05077 21.7179C7.0116 21.3633 7.0116 21.0087 7.08993 20.6935C7.16827 20.3389 7.28577 19.9843 7.4816 19.6691C7.67743 19.3145 7.91244 18.9993 8.1866 18.7235C8.5391 18.3295 8.93077 18.0143 9.3616 17.6991C9.7141 17.4233 10.0666 17.1869 10.4191 16.9111C10.4974 16.8717 10.5366 16.7929 10.6149 16.7535C10.6541 16.7535 10.6541 16.7141 10.6933 16.7141C10.7324 16.7535 10.7324 16.7929 10.7324 16.7929C10.6933 17.1869 10.6541 17.5809 10.5758 17.9749C10.4191 18.6053 10.2233 19.1963 9.90993 19.7479C9.5966 20.3389 9.20493 20.8511 8.69577 21.2845C8.34327 21.5997 7.91244 21.8361 7.4816 21.9937H7.44243C7.32493 22.0331 7.20743 22.0725 7.16827 22.1907C7.08993 22.3089 7.0116 22.4665 6.85493 22.5453C6.81577 22.5847 6.81577 22.6241 6.81577 22.6635C6.81577 22.8999 6.81577 23.0969 6.81577 23.3333C6.81577 23.6485 6.81577 24.0031 6.81577 24.3183C6.81577 24.8305 6.85493 25.3033 6.8941 25.8155C6.93327 26.2489 7.0116 26.7217 7.05077 27.155C7.08993 27.3914 7.1291 27.6278 7.16827 27.8642C7.16827 27.9036 7.16827 27.943 7.20744 27.9824C7.28577 27.9036 7.3641 27.746 7.44243 27.549V27.5096C7.28577 27.3126 7.20743 27.1156 7.16827 26.8793C7.1291 26.5641 7.1291 26.2883 7.16827 25.9731C7.20743 25.5003 7.40327 25.0275 7.5991 24.5941C7.8341 24.1213 8.14743 23.6485 8.46077 23.2151C8.73493 22.8605 9.04827 22.4665 9.32243 22.1119C9.4791 21.8755 9.67493 21.6785 9.8316 21.4421C9.87077 21.4027 9.87077 21.4027 9.90993 21.3633C9.90993 21.4027 9.9491 21.4421 9.9491 21.4421C9.98827 21.6391 9.98827 21.8361 9.98827 22.0331C10.0274 22.6241 9.98827 23.1757 9.90993 23.7667C9.8316 24.2395 9.67493 24.7123 9.51827 25.1457C9.32243 25.5791 9.1266 26.0125 8.85243 26.4065C8.5391 26.8399 8.1866 27.1944 7.75577 27.4702C7.67743 27.5096 7.5991 27.5884 7.55994 27.7066C7.4816 27.9036 7.40327 28.0612 7.32493 28.2188C7.28577 28.2582 7.28577 28.337 7.28577 28.3764C7.32493 28.4946 7.32493 28.6128 7.3641 28.731C7.5991 29.7948 7.91243 30.8192 8.3041 31.8042C8.49993 32.3558 8.73494 32.9074 9.0091 33.4196C9.0091 33.459 9.04827 33.4984 9.08743 33.5378C9.1266 33.4196 9.16577 33.3014 9.16577 33.1044C9.0091 32.9468 8.85244 32.7892 8.7741 32.5528C8.73493 32.4346 8.6566 32.277 8.61743 32.1194C8.5391 31.8042 8.46077 31.4496 8.46077 31.095C8.46077 30.8586 8.49993 30.5828 8.5391 30.3464C8.61743 29.7948 8.81327 29.2826 9.0091 28.731C9.20494 28.2188 9.43993 27.7066 9.67493 27.155C9.79243 26.9186 9.87077 26.6429 9.98827 26.4065C9.98827 26.4065 9.98827 26.3671 10.0274 26.3671C10.0666 26.3671 10.0666 26.4065 10.1058 26.4459C10.2233 26.7217 10.3016 26.9581 10.3799 27.2338C10.4974 27.7066 10.6149 28.1794 10.6541 28.6522C10.6933 29.125 10.6933 29.5978 10.6149 30.0706C10.5758 30.504 10.4583 30.898 10.3408 31.3314C10.1449 31.9224 9.87077 32.474 9.4791 32.9468C9.40077 33.0256 9.3616 33.1044 9.3616 33.2226C9.32243 33.3802 9.32243 33.5378 9.28327 33.6954C9.28327 33.7742 9.28327 33.8136 9.32243 33.8924C9.43993 34.0894 9.51827 34.247 9.63577 34.444C9.98827 35.0744 10.3799 35.6654 10.8108 36.2564C11.2024 36.7686 11.5941 37.2414 12.0249 37.7141C12.0641 37.7535 12.1033 37.7929 12.1424 37.8323C12.1424 37.7929 12.1816 37.7929 12.1816 37.7535C12.1816 37.6353 12.1816 37.5172 12.1816 37.3989L12.1424 37.3595C11.9074 37.2414 11.7116 37.0444 11.5158 36.8474C11.2416 36.4928 11.0458 36.0594 10.9283 35.626C10.8891 35.5078 10.8891 35.3502 10.8499 35.232C10.8108 34.7592 10.8108 34.2864 10.8499 33.8136C10.8891 33.262 10.9674 32.7498 11.0458 32.1982C11.1241 31.7648 11.1633 31.3314 11.2416 30.8586C11.2416 30.8192 11.2416 30.8192 11.2808 30.7798C11.3591 30.7798 11.3591 30.8586 11.3983 30.898C11.5941 31.1344 11.7508 31.3708 11.9074 31.6072C12.2599 32.1982 12.5341 32.8286 12.6908 33.5378C12.7691 33.8924 12.8083 34.247 12.8474 34.641C12.8474 34.9168 12.8474 35.232 12.8474 35.5078C12.8083 36.02 12.6908 36.5322 12.4949 37.005C12.4166 37.202 12.3383 37.3989 12.3774 37.5959C12.3774 37.7141 12.3774 37.8323 12.3774 37.9505C12.3774 38.0293 12.3774 38.0687 12.4558 38.1081C12.6516 38.3051 12.8474 38.5021 13.0433 38.6597C13.7874 39.3295 14.5708 39.9205 15.4324 40.4327C15.7066 40.5903 16.0199 40.7479 16.2941 40.9055C16.3333 40.9055 16.3724 40.9449 16.4116 40.9449C16.4508 40.8267 16.4116 40.7479 16.3333 40.5903C16.0983 40.5903 15.8633 40.5115 15.6674 40.3539C15.2758 40.0781 14.9624 39.7629 14.7274 39.3689C14.6099 39.2113 14.5316 38.9749 14.4533 38.7779C14.2574 38.2657 14.1399 37.7141 14.0616 37.202C13.9833 36.611 13.9049 36.0594 13.8266 35.4684C13.8266 35.3502 13.7874 35.2714 13.7874 35.1532C13.7874 35.1138 13.7874 35.035 13.7874 34.9562C13.8266 34.9562 13.8658 34.9562 13.9049 34.9956C14.0224 35.0744 14.1791 35.1532 14.2966 35.232C14.7666 35.5472 15.1974 35.9412 15.5499 36.4534C15.7849 36.808 15.9808 37.1626 16.1374 37.5565C16.2941 37.9505 16.4508 38.3839 16.4899 38.8173C16.5683 39.2113 16.5683 39.6053 16.5291 40.0387C16.5291 40.1569 16.4899 40.2751 16.4899 40.3933C16.4899 40.4327 16.4899 40.4721 16.4899 40.4721C16.5291 40.6297 16.5683 40.8267 16.6074 40.9843C16.6074 41.0237 16.6074 41.0237 16.6466 41.0631C16.8424 41.1419 17.0383 41.2207 17.2341 41.2995C17.6258 41.4571 18.0566 41.6147 18.4483 41.7329C18.9183 41.8905 19.3883 42.0087 19.8583 42.0875C19.8583 42.0875 19.8974 42.0875 19.9366 42.0875C20.0541 42.0875 20.0933 42.1663 20.1324 42.2451C20.1716 42.3239 20.1716 42.4027 20.1716 42.5209C20.1324 42.5209 20.0933 42.5209 20.0541 42.5209C19.7408 42.4421 19.3883 42.4027 19.0749 42.3239C18.4091 42.1663 17.7433 41.9299 17.0774 41.6541C16.9991 41.6147 16.9208 41.6147 16.8033 41.6147C16.6858 41.6541 16.5291 41.6541 16.4116 41.6935C16.3724 41.6935 16.3333 41.6935 16.2941 41.7329C16.2549 41.7723 16.2549 41.8117 16.2158 41.8511C15.9808 42.2845 15.6283 42.5603 15.2366 42.7967C14.8841 42.9937 14.4924 43.0725 14.1008 43.1119C14.0224 43.1119 13.9049 43.1119 13.8266 43.1513C13.7874 43.1513 13.7091 43.1907 13.6699 43.1907C13.3958 43.1907 13.0824 43.1907 12.8083 43.1513C12.7691 43.1119 12.6908 43.1119 12.6516 43.1119C12.3774 43.0725 12.1033 43.0331 11.8291 42.9543C11.4374 42.8361 11.0458 42.7179 10.6933 42.5209C10.5366 42.4421 10.3799 42.3633 10.2624 42.2451C10.2233 42.2057 10.1841 42.1663 10.1449 42.1269C10.1058 42.0875 10.0666 42.0481 10.0666 42.0087C10.1058 42.0087 10.1058 41.9693 10.1449 41.9299C10.3799 41.7329 10.6149 41.5753 10.8499 41.4177C11.2808 41.1419 11.7116 40.9449 12.1816 40.7873C12.5341 40.6691 12.8866 40.5903 13.2391 40.5903C13.5524 40.5509 13.8266 40.5509 14.1399 40.5903C14.5708 40.6297 14.9624 40.7873 15.3149 40.9449C15.5891 41.0631 15.8633 41.2207 16.1374 41.3783C16.2158 41.4177 16.2941 41.4571 16.3724 41.4177C16.4116 41.4177 16.4508 41.4177 16.4899 41.3783C16.4899 41.2995 16.4116 41.2995 16.3724 41.2995C15.3541 40.7873 14.4141 40.1963 13.5524 39.4871C13.2783 39.2507 13.0041 39.0143 12.7691 38.7779C12.7299 38.7385 12.6516 38.6991 12.5733 38.6991C12.4558 38.6991 12.3383 38.6597 12.2208 38.6597C12.1816 38.6597 12.1424 38.6597 12.0641 38.6597C12.0249 38.6991 12.0249 38.7385 11.9858 38.7385C11.8683 38.8567 11.7508 38.9355 11.6333 39.0537C11.2808 39.2901 10.8891 39.3689 10.4974 39.3689C10.2233 39.3689 9.90993 39.3295 9.63577 39.2901C9.04827 39.1719 8.49994 38.9355 7.99077 38.6597C7.7166 38.5021 7.4816 38.3445 7.20744 38.1869C6.8941 37.9899 6.6591 37.7535 6.4241 37.4778C6.34577 37.3596 6.22827 37.2414 6.1891 37.1232C6.1891 37.0838 6.14993 37.0838 6.14993 37.0444C6.1891 37.005 6.26744 37.005 6.3066 36.9656C6.5416 36.8868 6.73743 36.808 6.97243 36.7686C7.75577 36.5716 8.5391 36.5322 9.3616 36.6504C9.75327 36.7292 10.1058 36.8474 10.4583 37.005C10.9283 37.2414 11.3199 37.5565 11.6724 37.9111C11.8291 38.0687 11.9466 38.2263 12.1033 38.3839C12.1424 38.4233 12.1424 38.4627 12.1816 38.4627C12.2208 38.4627 12.2991 38.5021 12.3774 38.5021V38.4627C12.3383 38.4233 12.2991 38.3839 12.2991 38.3445C11.9074 37.9505 11.5549 37.5172 11.2024 37.0838C10.6541 36.3746 10.1449 35.626 9.67493 34.7986C9.5966 34.6804 9.55743 34.5622 9.43993 34.5228C9.43993 34.5228 9.40077 34.5228 9.40077 34.4834C9.28327 34.4046 9.1266 34.2864 9.0091 34.2076C8.96993 34.247 8.93077 34.247 8.8916 34.247C8.69577 34.3258 8.49993 34.4046 8.3041 34.4046C7.9516 34.444 7.63827 34.4046 7.32493 34.2864C6.85493 34.1288 6.4241 33.8924 6.03243 33.5772C5.64077 33.2226 5.28827 32.868 4.97493 32.4346C4.70077 32.08 4.4266 31.6466 4.23077 31.2526C4.11327 31.0162 4.03493 30.7404 3.99577 30.4646C3.99577 30.4252 3.99577 30.3858 3.99577 30.3464C4.03493 30.3464 4.0741 30.3464 4.0741 30.3464C4.23077 30.3464 4.38743 30.3464 4.5441 30.3464C4.81827 30.3464 5.09243 30.3858 5.3666 30.4646C5.8366 30.5828 6.26743 30.7404 6.6591 30.9768C7.20743 31.292 7.67743 31.686 8.0691 32.1982C8.34327 32.5134 8.57827 32.868 8.7741 33.262C8.8916 33.459 8.96993 33.6954 9.08743 33.9318C9.1266 34.05 9.20494 34.0894 9.3616 34.1288C9.3616 34.0894 9.32243 34.05 9.32243 34.05C9.20493 33.853 9.1266 33.6166 9.0091 33.4196C8.6566 32.7104 8.38243 32.0012 8.10827 31.2526C7.87327 30.5434 7.63827 29.8342 7.44243 29.125C7.40327 29.0462 7.40327 28.928 7.32493 28.8492C7.28577 28.8098 7.28577 28.7704 7.2466 28.731C7.16827 28.6128 7.08993 28.4946 7.0116 28.3764C6.97243 28.3764 6.93327 28.3764 6.8941 28.3764C6.50243 28.4158 6.14993 28.337 5.8366 28.1794C5.52327 28.0218 5.28827 27.8248 5.05327 27.5884C4.70077 27.1944 4.38743 26.7611 4.11327 26.2883C3.87827 25.8549 3.68243 25.4215 3.52577 24.9881C3.40827 24.6335 3.2516 24.2789 3.17327 23.9243C3.1341 23.8061 3.1341 23.6485 3.09493 23.5303C3.09493 23.4909 3.09493 23.4515 3.0166 23.4121C3.0166 23.2545 3.0166 23.0969 3.0166 22.9787C3.05577 22.9787 3.09493 22.9787 3.1341 22.9787C3.44743 23.0575 3.76077 23.2151 4.0741 23.4121C4.6616 23.7667 5.20993 24.2395 5.64077 24.7911C6.03243 25.2639 6.34577 25.7367 6.5416 26.2883C6.69827 26.6823 6.81577 27.0762 6.93327 27.5096C6.97243 27.7066 7.0116 27.9036 7.05077 28.1006C7.05077 28.2188 7.08993 28.2976 7.20744 28.337C7.20744 28.2582 7.20744 28.2188 7.20744 28.1794C7.16827 27.9824 7.1291 27.746 7.08993 27.549C7.0116 26.958 6.93327 26.4065 6.85493 25.8155C6.81577 25.2639 6.7766 24.7123 6.7766 24.1607C6.7766 23.9243 6.7766 23.6879 6.7766 23.4515C6.7766 23.4121 6.7766 23.3727 6.7766 23.3333C6.69827 23.1363 6.61993 22.9393 6.5416 22.7423L6.50243 22.7029H6.46327C6.0716 22.6635 5.75827 22.4665 5.4841 22.1907C5.2491 21.9543 5.05327 21.7179 4.8966 21.4027C4.58327 20.8511 4.4266 20.2601 4.26993 19.6297C4.15243 19.1963 4.0741 18.7235 4.03493 18.2901C3.99577 17.8173 3.9566 17.3445 3.99577 16.8717C3.99577 16.6747 4.03493 16.4778 4.0741 16.2808C4.0741 16.2414 4.11327 16.2414 4.11327 16.202C4.15243 16.2414 4.1916 16.2414 4.23077 16.2808C4.50493 16.4778 4.73993 16.7141 4.97493 16.9505C5.44493 17.4627 5.8366 18.0537 6.11077 18.6841C6.50243 19.5509 6.73743 20.4571 6.73743 21.4421C6.73743 21.7967 6.73743 22.1119 6.69827 22.4665C6.69827 22.5847 6.69827 22.7029 6.7766 22.8211C6.7766 22.8605 6.81577 22.8605 6.81577 22.8211C6.8941 21.2057 7.05077 19.6297 7.3641 18.0537C7.32493 17.9749 7.28577 17.9355 7.28577 17.8961C7.2466 17.7385 7.2466 17.5809 7.20744 17.4233C7.20744 17.3839 7.16827 17.3445 7.16827 17.2657C7.1291 17.2263 7.08993 17.2263 7.08993 17.2263C6.85493 17.1081 6.6591 16.9111 6.46327 16.7141C6.22827 16.4384 6.11077 16.0838 5.99327 15.7686C5.8366 15.2564 5.79743 14.7442 5.79743 14.232C5.79743 13.7986 5.79743 13.4046 5.8366 12.9712C5.87577 12.459 5.91493 11.9468 6.03243 11.4346C6.11077 11.1588 6.1891 10.883 6.3066 10.6072C6.3066 10.5678 6.3066 10.5284 6.38493 10.5284L6.4241 10.5678C6.73744 10.9618 7.0116 11.3952 7.2466 11.868C7.4816 12.3802 7.63827 12.8924 7.75577 13.444C7.87327 14.0744 7.87327 14.7442 7.79494 15.3746C7.7166 15.9262 7.5991 16.4778 7.44243 17.0293C7.40327 17.1869 7.40327 17.3445 7.44243 17.5021V17.5415C7.44243 17.5415 7.44243 17.5809 7.4816 17.5809C7.4816 17.5415 7.52077 17.4627 7.52077 17.4233C7.5991 17.0687 7.7166 16.7141 7.79494 16.3202C8.0691 15.2958 8.46077 14.3108 8.85243 13.3652C8.8916 13.2864 8.93077 13.1682 8.8916 13.05V13.0106C8.8916 12.853 8.8916 12.7348 8.93077 12.5772C8.93077 12.4984 8.93077 12.4196 8.85243 12.3408C8.6566 12.1832 8.49994 11.9468 8.38243 11.7104C8.1866 11.3164 8.10827 10.9224 8.10827 10.489C8.0691 9.97678 8.14743 9.46459 8.22577 8.99179C8.3041 8.5978 8.38243 8.2038 8.49993 7.8098C8.6566 7.29761 8.81327 6.82481 9.0091 6.35202C9.1266 6.11562 9.2441 5.87922 9.40077 5.64282C9.43994 5.60342 9.4791 5.56402 9.4791 5.52462C9.51827 5.56402 9.51827 5.56402 9.51827 5.60342C9.79243 6.15502 9.98827 6.74601 10.0666 7.37641C10.1449 7.8492 10.1449 8.2826 10.1449 8.75539C10.1449 8.95239 10.1058 9.14939 10.1058 9.34639C10.0666 9.93738 9.90993 10.489 9.7141 11.0012C9.08743 11.5528 8.8916 11.9468 8.6566 12.3408C8.61743 12.4196 8.57827 12.4984 8.57827 12.5772C8.57827 12.6166 8.57827 12.6954 8.57827 12.7348C8.57827 12.7348 8.57827 12.7742 8.61743 12.7742C8.61743 12.7348 8.6566 12.7348 8.6566 12.6954C8.8916 12.2226 9.1266 11.7498 9.3616 11.3164C9.75327 10.6466 10.1841 9.97678 10.6149 9.30699C10.7716 9.10999 10.9283 8.91299 11.0458 8.6766C11.0849 8.6372 11.0849 8.5978 11.0849 8.5584C11.1241 8.4402 11.1241 8.2826 11.1633 8.1644C11.1633 8.0856 11.2024 7.9674 11.2024 7.8886C11.2024 7.8492 11.1633 7.8492 11.1633 7.8492C11.0066 7.6916 10.9283 7.49461 10.8499 7.29761C10.7716 7.02181 10.7324 6.78541 10.7324 6.50962C10.7324 5.91862 10.8499 5.36703 11.0066 4.77603C11.1241 4.38204 11.3199 4.02744 11.5158 3.67284C11.7899 3.16065 12.1033 2.68785 12.4949 2.29386C12.6908 2.09686 12.8866 1.89986 13.1216 1.70286C13.1608 1.66346 13.1608 1.66346 13.2391 1.66346C13.2391 1.70286 13.2783 1.78166 13.2783 1.82106C13.3174 2.09686 13.3566 2.37265 13.3566 2.64845C13.3566 3.35765 13.2783 4.02744 13.1608 4.69723C13.0824 5.09123 12.9649 5.52462 12.8083 5.91862C12.5341 6.58841 12.1424 7.21881 11.6333 7.731C11.4374 7.9674 11.4374 7.9674 11.3983 8.2432V8.2826C11.3983 8.2826 11.3983 8.322 11.4374 8.322L11.4766 8.2826C11.6724 8.0462 11.8291 7.8098 12.0249 7.6128C12.5341 7.02181 13.0433 6.47022 13.5916 5.95802C13.7874 5.76102 13.9833 5.60342 14.1791 5.40643C14.2966 5.28823 14.4533 5.17003 14.6099 5.05183C14.5708 5.05183 14.6099 5.01243 14.6099 5.01243C14.6099 4.97303 14.6099 4.97303 14.6099 4.97303C14.5708 4.50023 14.6883 4.06684 14.9624 3.67284C15.1974 3.31825 15.4716 3.04245 15.8241 2.76665C16.1766 2.49085 16.5683 2.29386 16.9991 2.13626C17.3516 2.01806 17.7041 1.89986 18.0174 1.78166C18.2133 1.70286 18.3699 1.66346 18.5658 1.58466C18.6049 1.58466 18.6833 1.54526 18.6833 1.50586C18.7224 1.54526 18.7616 1.54526 18.7616 1.54526Z" fill="#7A7384"/>
<path fill-rule="evenodd" clip-rule="evenodd" d="M117.905 1.50586C117.944 1.74226 118.023 1.93926 118.101 2.17566C118.336 2.76665 118.61 3.31825 119.041 3.79104C119.472 4.30324 119.981 4.69723 120.608 4.97303C120.96 5.13063 121.352 5.20943 121.704 5.20943C121.744 5.20943 121.783 5.20943 121.783 5.20943C121.822 5.20943 121.861 5.20943 121.9 5.24883C122.135 5.44583 122.331 5.60342 122.566 5.80042C123.114 6.31262 123.584 6.86421 124.054 7.41581C124.133 7.53401 124.25 7.6522 124.329 7.7704C124.329 7.8098 124.368 7.8098 124.368 7.8098C124.368 7.8492 124.329 7.8492 124.329 7.8492C124.211 7.8492 124.133 7.8492 124.015 7.8098C124.015 7.7704 123.976 7.7704 123.976 7.731C123.78 7.21881 123.428 6.86421 122.919 6.62781C122.488 6.43082 122.018 6.31262 121.548 6.35202C121.234 6.35202 120.96 6.39142 120.647 6.43082C120.216 6.50962 119.824 6.54902 119.394 6.62781C119.354 6.62781 119.276 6.66721 119.237 6.66721C119.237 6.74601 119.276 6.78541 119.315 6.82481C119.55 7.14001 119.864 7.41581 120.177 7.6522C120.569 7.9674 120.999 8.1644 121.469 8.2826C121.783 8.3614 122.135 8.4008 122.449 8.4008C122.762 8.4008 123.075 8.3614 123.389 8.2432C123.545 8.1644 123.741 8.0856 123.898 8.0068C123.937 7.9674 124.015 7.9674 124.054 7.9674C124.211 8.0068 124.368 8.0462 124.524 8.0068C124.994 8.4402 126.522 10.9224 126.796 11.6316C126.718 11.6316 126.6 11.5922 126.404 11.5134C126.404 11.474 126.404 11.474 126.365 11.4346C126.287 10.8436 125.934 10.3708 125.464 10.0162C125.151 9.81918 124.838 9.70099 124.485 9.58279C124.094 9.46459 123.663 9.42519 123.232 9.38579C122.879 9.34639 122.488 9.34639 122.135 9.30699C122.018 9.30699 121.9 9.30699 121.822 9.26759C121.783 9.26759 121.783 9.26759 121.704 9.26759C121.744 9.30699 121.744 9.38579 121.783 9.38579C122.174 10.0162 122.644 10.5678 123.232 11.0012C123.741 11.3558 124.329 11.6316 124.955 11.7104C125.386 11.7892 125.778 11.7498 126.209 11.5922C126.248 11.5922 126.287 11.5922 126.287 11.5528C126.326 11.5134 126.365 11.5528 126.404 11.5528C126.444 11.5922 126.522 11.6316 126.561 11.6316C126.679 11.671 126.796 11.7104 126.914 11.7498C127.658 13.2864 128.245 14.8624 128.676 16.5172C128.559 16.5172 128.48 16.4384 128.324 16.3202C128.324 16.202 128.324 16.1232 128.324 16.005C128.324 15.3746 128.089 14.8624 127.658 14.3896C127.423 14.1138 127.149 13.9168 126.874 13.7198C126.522 13.4834 126.091 13.2864 125.699 13.1288C125.229 12.9318 124.72 12.7348 124.25 12.5772C124.211 12.5378 124.133 12.5378 124.094 12.4984C124.094 12.4984 124.054 12.4984 124.015 12.4984C124.015 12.5378 124.015 12.5772 124.015 12.5772C124.094 12.853 124.172 13.1288 124.289 13.4046C124.446 13.7986 124.642 14.1926 124.916 14.5472C125.269 15.0594 125.699 15.4928 126.209 15.8868C126.483 16.0838 126.757 16.202 127.031 16.3202C127.384 16.4384 127.736 16.5172 128.089 16.4778C128.167 16.4778 128.245 16.4778 128.324 16.5566C128.441 16.6747 128.598 16.7929 128.754 16.8717C129.068 18.0537 129.264 19.2751 129.381 20.4965C129.499 21.6785 129.499 22.1907 129.459 22.3877C129.42 22.3877 129.42 22.3877 129.42 22.3483C129.342 22.2695 129.303 22.1907 129.224 22.1513C129.185 22.1119 129.185 22.0725 129.185 21.9937C129.185 21.9543 129.224 21.8755 129.224 21.8361C129.303 21.4815 129.264 21.1269 129.224 20.8117C129.146 20.4571 129.029 20.1025 128.872 19.7479C128.715 19.3933 128.48 19.0781 128.206 18.8023C127.854 18.4083 127.462 18.0537 127.07 17.7385C126.718 17.4627 126.404 17.1869 126.052 16.9111C125.974 16.8717 125.934 16.7929 125.856 16.7535C125.817 16.7535 125.817 16.7141 125.778 16.7141C125.739 16.7535 125.739 16.7929 125.739 16.7929C125.739 17.1869 125.817 17.5809 125.856 17.9749C125.974 18.6053 126.169 19.1963 126.483 19.7873C126.796 20.3783 127.188 20.8905 127.658 21.3633C128.01 21.6785 128.402 21.9149 128.872 22.0725H128.911C129.029 22.1119 129.146 22.1907 129.185 22.3089C129.264 22.4271 129.342 22.5847 129.459 22.7029C129.499 22.7423 129.499 22.7817 129.499 22.8211C129.499 23.0575 129.499 23.2939 129.499 23.4909C129.499 23.8061 129.459 24.1607 129.459 24.4759C129.42 24.9881 129.381 25.4609 129.342 25.9731C129.264 26.4065 129.224 26.8793 129.146 27.3126C129.107 27.549 129.068 27.7854 129.029 28.0218C129.029 28.0612 128.989 28.1006 128.989 28.14C128.911 28.0612 128.833 27.8642 128.794 27.7066V27.6672C128.95 27.4702 129.029 27.2733 129.068 27.0369C129.107 26.7217 129.107 26.4459 129.107 26.1307C129.068 25.6579 128.911 25.1851 128.715 24.7517C128.48 24.2789 128.206 23.8061 127.854 23.3727C127.579 22.9787 127.305 22.6241 126.992 22.2695C126.835 22.0331 126.679 21.8361 126.483 21.5997C126.444 21.5603 126.444 21.5603 126.404 21.5209C126.404 21.5603 126.365 21.5997 126.365 21.5997C126.326 21.7967 126.326 21.9937 126.287 22.1907C126.248 22.7817 126.248 23.3333 126.326 23.9243C126.404 24.3971 126.522 24.8699 126.718 25.3427C126.874 25.7761 127.109 26.2095 127.384 26.6035C127.658 27.0369 128.01 27.3914 128.441 27.7066C128.519 27.7854 128.598 27.8248 128.637 27.943C128.715 28.14 128.754 28.2976 128.872 28.4552C128.911 28.4946 128.911 28.5734 128.872 28.6128C128.833 28.731 128.833 28.8492 128.794 28.9674C128.519 29.9918 128.206 31.0162 127.775 32.0012C127.54 32.5528 127.305 33.1044 127.031 33.6166C127.031 33.656 126.992 33.6954 126.953 33.7348C126.914 33.6166 126.874 33.459 126.874 33.3014C127.031 33.1438 127.188 32.9862 127.266 32.7498C127.305 32.6316 127.384 32.474 127.423 32.3558C127.54 32.0406 127.579 31.686 127.619 31.3314C127.658 31.095 127.619 30.8192 127.579 30.5828C127.501 30.0312 127.344 29.4796 127.149 28.9674C126.953 28.4158 126.757 27.9036 126.561 27.3914C126.444 27.155 126.365 26.8793 126.287 26.6429C126.287 26.6429 126.287 26.6035 126.248 26.6035C126.209 26.6035 126.169 26.6429 126.169 26.6823C126.052 26.9187 125.934 27.1944 125.856 27.4702C125.699 27.943 125.621 28.3764 125.543 28.8886C125.504 29.3614 125.464 29.8342 125.543 30.307C125.582 30.7404 125.66 31.1344 125.778 31.5678C125.934 32.1588 126.209 32.7104 126.6 33.2226C126.679 33.3014 126.718 33.3802 126.718 33.4984C126.757 33.656 126.757 33.8136 126.796 33.9712C126.796 34.05 126.796 34.0894 126.757 34.1682C126.639 34.3652 126.561 34.5228 126.444 34.7198C126.091 35.3502 125.66 35.9412 125.229 36.4928C124.838 37.005 124.446 37.4778 123.976 37.9111C123.937 37.9505 123.898 37.9899 123.859 38.0293C123.859 37.9899 123.819 37.9899 123.819 37.9505C123.819 37.8323 123.819 37.7141 123.859 37.596L123.898 37.5566C124.172 37.4384 124.368 37.2414 124.524 37.0444C124.799 36.6898 125.034 36.2958 125.151 35.823C125.19 35.7048 125.19 35.5472 125.229 35.429C125.308 34.9562 125.308 34.4834 125.269 34.0106C125.229 33.459 125.19 32.9468 125.112 32.3952C125.034 31.9618 124.994 31.489 124.955 31.0556C124.955 31.0162 124.955 31.0162 124.916 30.9768C124.838 30.9768 124.838 31.0556 124.799 31.0556C124.603 31.292 124.446 31.5284 124.289 31.7648C123.898 32.3558 123.624 32.9862 123.467 33.656C123.389 34.0106 123.31 34.3652 123.31 34.7592C123.271 35.035 123.271 35.3502 123.271 35.626C123.31 36.1382 123.389 36.6504 123.584 37.1626C123.663 37.3596 123.702 37.5566 123.702 37.7536C123.702 37.8717 123.702 37.9899 123.702 38.1081C123.702 38.1869 123.702 38.2263 123.624 38.2657C123.428 38.4627 123.232 38.6203 123.036 38.8173C122.292 39.4871 121.469 40.0387 120.608 40.5115C120.334 40.6691 120.02 40.8267 119.707 40.9843C119.668 40.9843 119.629 41.0237 119.589 41.0237C119.55 40.9055 119.589 40.8267 119.668 40.6691C119.903 40.6691 120.138 40.5903 120.334 40.4721C120.725 40.2357 121.039 39.8811 121.313 39.5265C121.43 39.3689 121.509 39.1719 121.587 38.9749C121.783 38.4627 121.9 37.9505 122.018 37.399C122.096 36.808 122.214 36.2564 122.292 35.6654C122.292 35.5472 122.331 35.4684 122.331 35.3502C122.331 35.3108 122.331 35.232 122.37 35.1532C122.331 35.1532 122.292 35.1532 122.253 35.1926C122.135 35.2714 121.979 35.3502 121.861 35.429C121.352 35.7442 120.921 36.1382 120.569 36.611C120.334 36.9262 120.099 37.2808 119.942 37.6748C119.746 38.0687 119.629 38.5021 119.55 38.9355C119.472 39.3295 119.472 39.7235 119.511 40.1569C119.511 40.2751 119.55 40.3933 119.55 40.5115C119.55 40.5509 119.55 40.5903 119.55 40.5903C119.511 40.7479 119.472 40.9449 119.433 41.1025C119.433 41.1419 119.433 41.1419 119.394 41.1813C119.198 41.2601 119.002 41.3389 118.806 41.4177C118.414 41.5753 117.984 41.7329 117.592 41.8511C117.122 41.9693 116.652 42.0875 116.182 42.1663C116.182 42.1663 116.143 42.1663 116.104 42.1663C115.986 42.1663 115.947 42.2451 115.908 42.3239C115.869 42.4027 115.869 42.4815 115.869 42.5997C115.908 42.5997 115.947 42.5997 115.986 42.5997C116.339 42.5209 116.652 42.4815 117.004 42.4027C117.67 42.2451 118.336 42.0481 119.002 41.8117C119.08 41.7723 119.159 41.7723 119.276 41.8117C119.394 41.8511 119.55 41.8511 119.668 41.8905C119.707 41.8905 119.746 41.8905 119.785 41.9299C119.824 41.9693 119.824 42.0087 119.864 42.0481C120.099 42.4815 120.412 42.7967 120.843 42.9937C121.195 43.1907 121.587 43.3089 121.979 43.3483C122.057 43.3483 122.174 43.3483 122.253 43.3877C122.292 43.3877 122.37 43.4271 122.409 43.4271C122.684 43.4271 122.997 43.4271 123.271 43.4271C123.31 43.3877 123.389 43.3877 123.428 43.3877C123.702 43.3483 123.976 43.3089 124.25 43.2301C124.642 43.1513 125.034 43.0331 125.386 42.8361C125.543 42.7573 125.699 42.6785 125.856 42.5603C125.895 42.5209 125.934 42.4815 125.974 42.4815C126.013 42.4421 126.052 42.4027 126.052 42.3633C126.013 42.3633 126.013 42.3239 125.974 42.2845C125.739 42.0875 125.543 41.9299 125.269 41.7723C124.838 41.4965 124.407 41.2601 123.937 41.1025C123.584 40.9843 123.232 40.9055 122.879 40.8661C122.566 40.8267 122.292 40.8267 121.979 40.8661C121.548 40.9055 121.156 41.0237 120.764 41.1813C120.49 41.2995 120.216 41.4571 119.942 41.6147C119.864 41.6541 119.785 41.6935 119.707 41.6541C119.668 41.6541 119.629 41.6541 119.589 41.6147C119.589 41.5359 119.668 41.5359 119.707 41.5359C120.725 41.0631 121.704 40.4721 122.605 39.7629C122.879 39.5265 123.154 39.3295 123.428 39.0931C123.467 39.0537 123.545 39.0143 123.624 39.0143C123.741 39.0143 123.859 38.9749 123.976 38.9749C124.015 38.9749 124.054 38.9749 124.133 38.9749C124.172 39.0143 124.172 39.0537 124.211 39.0537C124.329 39.1719 124.446 39.2901 124.564 39.3689C124.916 39.6053 125.308 39.6841 125.699 39.7235C125.974 39.7235 126.287 39.7235 126.561 39.6447C127.149 39.5265 127.697 39.3295 128.245 39.0537C128.519 38.8961 128.754 38.7385 129.029 38.5809C129.342 38.3839 129.616 38.1475 129.851 37.8717C129.929 37.7536 130.047 37.6354 130.086 37.5172C130.086 37.4778 130.125 37.4778 130.125 37.4384C130.086 37.399 130.008 37.399 129.969 37.3596C129.734 37.2808 129.538 37.202 129.303 37.1232C128.519 36.8868 127.736 36.8474 126.914 36.9656C126.522 37.0444 126.169 37.1232 125.817 37.2808C125.347 37.5172 124.955 37.7929 124.564 38.1869C124.407 38.3445 124.25 38.5021 124.094 38.6597C124.054 38.6991 124.015 38.7385 124.015 38.7385C123.976 38.7385 123.898 38.7779 123.819 38.7779V38.7385C123.859 38.6991 123.898 38.6597 123.898 38.6203C124.289 38.2263 124.681 37.8323 125.034 37.399C125.621 36.6898 126.13 35.9412 126.639 35.1532C126.718 35.035 126.757 34.9168 126.914 34.8774C126.914 34.8774 126.953 34.8774 126.953 34.838C127.07 34.7592 127.227 34.641 127.344 34.5622C127.384 34.6016 127.423 34.6016 127.462 34.641C127.658 34.7592 127.854 34.7986 128.049 34.838C128.402 34.8774 128.715 34.838 129.029 34.7592C129.499 34.641 129.929 34.4046 130.321 34.0894C130.713 33.7742 131.065 33.3802 131.418 32.9862C131.731 32.6316 131.966 32.2376 132.201 31.8042C132.319 31.5678 132.436 31.292 132.475 31.0162C132.475 30.9768 132.475 30.9374 132.475 30.898C132.436 30.898 132.397 30.898 132.397 30.898C132.24 30.898 132.084 30.898 131.927 30.898C131.653 30.898 131.379 30.9374 131.104 30.9768C130.634 31.0556 130.204 31.2526 129.812 31.4496C129.264 31.7648 128.754 32.1588 128.363 32.6316C128.089 32.9468 127.854 33.3014 127.658 33.656C127.54 33.853 127.423 34.0894 127.305 34.2864C127.266 34.4046 127.188 34.444 127.031 34.4834C127.031 34.444 127.07 34.4046 127.07 34.4046C127.188 34.2076 127.305 33.9712 127.423 33.7742C127.775 33.065 128.089 32.3558 128.402 31.6466C128.676 30.9374 128.911 30.2676 129.107 29.5584C129.146 29.4796 129.146 29.3614 129.224 29.2826C129.264 29.2432 129.264 29.2038 129.303 29.1644C129.381 29.0462 129.459 28.928 129.538 28.8098C129.577 28.8098 129.616 28.8098 129.655 28.8098C130.047 28.8886 130.399 28.8098 130.713 28.6522C131.026 28.4946 131.261 28.2976 131.496 28.0612C131.888 27.6672 132.201 27.2732 132.475 26.8005C132.71 26.4065 132.906 25.9731 133.102 25.5003C133.259 25.1457 133.376 24.7911 133.454 24.4365C133.494 24.3183 133.494 24.1607 133.533 24.0425C133.533 24.0031 133.533 23.9637 133.611 23.9637C133.611 23.8061 133.611 23.6485 133.611 23.5303C133.572 23.4909 133.533 23.5303 133.454 23.5303C133.102 23.6091 132.828 23.7667 132.514 23.9243C131.888 24.2789 131.379 24.7123 130.909 25.2639C130.517 25.6973 130.204 26.2095 129.969 26.7217C129.812 27.1157 129.655 27.5096 129.577 27.943C129.538 28.14 129.499 28.337 129.459 28.534C129.42 28.6522 129.381 28.731 129.303 28.7704C129.303 28.6916 129.303 28.6522 129.303 28.6128C129.342 28.4158 129.381 28.1794 129.459 27.9824C129.577 27.3914 129.655 26.8399 129.734 26.2489C129.812 25.6973 129.812 25.1457 129.851 24.5941C129.851 24.3577 129.851 24.1213 129.89 23.8849C129.89 23.8455 129.89 23.8061 129.89 23.7667C129.969 23.5697 130.047 23.3727 130.164 23.1757L130.204 23.1363H130.243C130.634 23.0969 130.948 22.9393 131.222 22.6635C131.457 22.4271 131.653 22.1907 131.809 21.9149C132.123 21.3633 132.319 20.7723 132.475 20.1813C132.593 19.7479 132.671 19.2751 132.749 18.8417C132.828 18.3689 132.867 17.8961 132.828 17.4233C132.828 17.2263 132.789 17.0293 132.789 16.7929C132.789 16.7535 132.749 16.7535 132.749 16.7141C132.71 16.7535 132.671 16.7535 132.632 16.7929C132.358 16.9899 132.123 17.2263 131.888 17.4627C131.418 17.9749 131.026 18.5265 130.713 19.1569C130.282 20.0237 130.047 20.9299 130.047 21.8755C130.047 22.2301 130.047 22.5453 130.086 22.8999C130.086 23.0181 130.086 23.1363 130.008 23.2545C130.008 23.2939 129.969 23.2939 129.969 23.2545C129.929 21.6391 129.812 20.0631 129.538 18.4871C129.577 18.4083 129.616 18.3689 129.616 18.3295C129.655 18.1719 129.694 18.0143 129.694 17.8567C129.694 17.8173 129.734 17.7779 129.734 17.7385C129.773 17.7385 129.812 17.6991 129.812 17.6991C130.047 17.5809 130.282 17.3839 130.439 17.1869C130.674 16.9111 130.83 16.596 130.909 16.2414C131.065 15.7292 131.104 15.217 131.144 14.7048C131.183 14.2714 131.183 13.8774 131.144 13.444C131.144 12.9318 131.065 12.4196 130.987 11.9074C130.909 11.6316 130.83 11.3164 130.752 11.08C130.752 11.0406 130.752 11.0012 130.674 11.0012L130.634 11.0406C130.321 11.4346 130.008 11.8286 129.773 12.3014C129.538 12.8136 129.342 13.3258 129.224 13.8774C129.107 14.5078 129.068 15.1776 129.146 15.808C129.185 16.3596 129.303 16.9505 129.459 17.5021C129.499 17.6597 129.499 17.8173 129.459 17.9749V18.0143C129.459 18.0143 129.459 18.0537 129.42 18.0537C129.42 18.0143 129.381 17.9355 129.381 17.8961C129.303 17.5415 129.224 17.1475 129.146 16.7929C128.872 15.7686 128.559 14.7836 128.167 13.7986C128.128 13.7198 128.089 13.6016 128.128 13.4834V13.444C128.128 13.2864 128.128 13.1682 128.089 13.0106C128.089 12.9318 128.089 12.853 128.167 12.7742C128.363 12.6166 128.519 12.3802 128.637 12.1832C128.833 11.7892 128.911 11.3952 128.95 10.9618C128.989 10.4496 128.95 9.93738 128.872 9.46459C128.833 9.07059 128.715 8.6766 128.637 8.2826C128.519 7.7704 128.363 7.29761 128.167 6.82481C128.049 6.58842 127.932 6.35202 127.775 6.11562C127.736 6.07622 127.736 6.03682 127.697 5.99742C127.658 6.03682 127.658 6.03682 127.658 6.07622C127.384 6.62781 127.188 7.21881 127.07 7.8098C126.992 8.2826 126.953 8.71599 126.953 9.18879C126.953 9.38579 126.953 9.58279 126.992 9.77979C127.031 10.3708 127.149 10.9224 127.344 11.474C127.501 11.9074 127.658 12.3014 127.893 12.6954C127.932 12.7742 127.971 12.853 127.971 12.9318C127.971 12.9712 127.971 13.05 127.971 13.0894C127.971 13.0894 127.971 13.1288 127.932 13.1288C127.932 13.0894 127.893 13.0894 127.893 13.05C127.697 12.5772 127.462 12.1044 127.188 11.6316C126.835 10.9224 126.404 10.2526 125.974 9.62219C125.817 9.42519 125.699 9.18879 125.543 8.99179C125.504 8.95239 125.504 8.91299 125.504 8.87359C125.464 8.75539 125.464 8.5978 125.464 8.4796C125.464 8.3614 125.425 8.2826 125.425 8.2038C125.425 8.1644 125.464 8.1644 125.464 8.1644C125.621 8.0068 125.739 7.8492 125.778 7.6522C125.856 7.37641 125.934 7.14001 125.934 6.86421C125.974 6.27322 125.856 5.68222 125.699 5.13063C125.582 4.73663 125.425 4.38204 125.229 4.02744C124.955 3.51524 124.681 3.04245 124.289 2.60905C124.094 2.37265 123.898 2.17566 123.663 2.01806C123.624 1.97866 123.624 1.97866 123.545 1.97866C123.545 2.01806 123.506 2.09686 123.506 2.13626C123.467 2.41205 123.428 2.68785 123.428 2.96365C123.389 3.67284 123.467 4.34264 123.584 5.01243C123.663 5.44583 123.78 5.83982 123.937 6.23382C124.211 6.90361 124.564 7.53401 125.073 8.0856C125.269 8.322 125.269 8.322 125.308 8.5978V8.6372C125.308 8.6372 125.308 8.6766 125.269 8.6766L125.229 8.6372C125.034 8.4008 124.877 8.1644 124.681 7.928C124.211 7.33701 123.702 6.78541 123.154 6.23382C122.958 6.03682 122.762 5.87922 122.605 5.68222C122.488 5.56402 122.331 5.40643 122.174 5.32763C122.135 5.28823 122.135 5.28823 122.096 5.24883C122.096 5.20943 122.096 5.20943 122.096 5.20943C122.174 4.73663 122.057 4.30324 121.822 3.90924C121.626 3.55464 121.313 3.23945 120.999 3.00305C120.647 2.72725 120.255 2.49085 119.824 2.33326C119.472 2.21506 119.119 2.09686 118.806 1.93926C118.61 1.86046 118.454 1.82106 118.258 1.74226C118.219 1.74226 118.14 1.70286 118.14 1.66346C117.944 1.50586 117.905 1.50586 117.905 1.50586Z" fill="#7A7384"/>
<path d="M53.9181 23.1133H48.6702V23.4964H53.152C53.152 24.4923 53.0754 25.5266 52.9605 26.2544H47.521V26.5609H51.0069V28.208H48.6319V28.4762H53.1903V30.9661H53.9565V28.208H51.773V26.5609H55.1823V26.2544H53.6883C53.8032 25.5266 53.9181 24.1859 53.9181 23.1133Z" fill="#7A7384"/>
<path d="M61.8094 22.8828H61.0815V30.9271H61.8094V25.8707H63.2267V25.4493H61.8094V22.8828Z" fill="#7A7384"/>
<path d="M55.9101 23.5723V23.9554H56.8294C57.5189 23.9554 58.4 23.9554 59.1278 23.9171C58.898 25.6792 57.8254 27.6328 55.7568 28.667L56.1016 29.2416C58.4766 27.9775 59.6258 26.0239 59.779 23.6106C58.9363 23.6106 58.1318 23.6106 57.2891 23.6106H55.9101V23.5723Z" fill="#7A7384"/>
<path d="M65.2949 28.4756H64.5288V30.8123H70.1598V30.3526H65.2949V28.4756Z" fill="#7A7384"/>
<path d="M69.777 23.1133H64.5291V23.4581H69.0109C69.0109 24.3008 68.896 25.4117 68.8194 26.2544H63.3799V26.6375H66.023V29.0891H66.7891V26.5992H68.1682V29.0891H68.9343V26.6375H71.0411V26.2544H69.5472C69.6621 25.4117 69.777 24.3391 69.777 23.1133Z" fill="#7A7384"/>
<path d="M75.3316 22.96H72.6885V23.3431H75.3316V22.96Z" fill="#7A7384"/>
<path d="M75.9056 26.1776C75.9056 25.4881 75.2927 24.8369 73.9519 24.8369C72.6495 24.8369 72.0366 25.4881 72.0366 26.1776C72.0366 26.9054 72.6495 27.5567 73.9519 27.5567C75.2927 27.5567 75.9056 26.9054 75.9056 26.1776ZM72.7644 26.2159C72.7644 25.603 73.3007 25.1434 73.9519 25.1434C74.4882 25.1434 74.9862 25.4881 75.1011 25.9861C75.1394 26.0627 75.1394 26.1393 75.1394 26.2159C75.1394 26.2542 75.1394 26.2542 75.1394 26.2925C75.1394 26.8671 74.6031 27.3651 73.9519 27.3651C73.3007 27.2885 72.7644 26.8288 72.7644 26.2159Z" fill="#7A7384"/>
<path d="M76.3269 23.8789H71.6152V24.3003H76.3269V23.8789Z" fill="#7A7384"/>
<path d="M75.5611 28.0547C73.7607 28.0547 72.8413 28.6676 72.8413 29.472C72.8413 30.3148 73.7607 30.9277 75.5611 30.9277C77.3614 30.9277 78.2808 30.3148 78.2808 29.472C78.2808 28.6676 77.3614 28.0547 75.5611 28.0547ZM75.5611 30.6595C74.4885 30.6595 73.6074 30.1615 73.6074 29.5486C73.6074 28.9357 74.4885 28.4377 75.5611 28.4377C76.6336 28.4377 77.5147 28.9357 77.5147 29.5486C77.5147 30.1615 76.5953 30.6595 75.5611 30.6595Z" fill="#7A7384"/>
<path d="M76.1362 25.5642H77.5153V26.4836H76.1362V26.905H77.477V27.9775H78.2431V22.8828H77.477V25.1429H76.1362V25.5642Z" fill="#7A7384"/>
<path d="M83.9119 23.1133H83.1458V24.4157H80.8091V23.1133H80.043V26.6375H83.9119V23.1133ZM83.1458 26.2544H80.8091V24.7988H83.1458V26.2544Z" fill="#7A7384"/>
<path d="M86.0576 22.8828H85.2915V26.905H86.0576V25.0279H87.3217V24.7215H86.0576V22.8828Z" fill="#7A7384"/>
<path d="M81.8052 29.3571H86.0572V27.3652H81.0391V27.7483H85.2911V28.8592H81.0391V30.8511H86.2487V30.5063H81.8052V29.3571Z" fill="#7A7384"/>
<path d="M93.6419 28.8586H94.3698V22.8828H93.6419V25.0279H92.2246V25.4493H93.6419V28.8586Z" fill="#7A7384"/>
<path d="M90.6924 26.0626C91.1903 26.6755 91.8798 27.1734 92.5311 27.5565L92.8758 27.1351C92.2629 26.8287 91.4585 26.2924 90.9988 25.6795C91.4585 25.0666 91.8415 24.2239 91.9565 23.3428C91.1137 23.3428 90.5774 23.3428 89.8113 23.3428H88.4323V23.6876H89.2367C89.8879 23.6876 90.5774 23.7259 91.2286 23.7259C90.8073 25.0666 90.3476 26.1009 87.896 27.2117L88.2024 27.748C89.1218 27.365 90.0411 26.7904 90.6924 26.0626Z" fill="#7A7384"/>
<path d="M90.1939 28.667H89.4277V30.7739H94.5608V30.3525H90.1939V28.667Z" fill="#7A7384"/>
<path d="M95.6719 27.6712V28.016H97.2424C97.5106 28.016 97.7787 28.016 98.0469 28.016V30.7741H98.813V28.016C99.694 27.9777 100.575 27.9011 101.265 27.7862V27.4414C100.154 27.5946 98.3916 27.6712 97.2041 27.6712H95.6719Z" fill="#7A7384"/>
<path d="M98.3151 26.675C99.5792 26.675 100.384 25.9472 100.384 24.9513C100.384 23.9553 99.5792 23.2275 98.3151 23.2275C97.051 23.2275 96.2466 23.9553 96.2466 24.9513C96.2466 25.9472 97.051 26.675 98.3151 26.675ZM96.9744 24.9513C96.9744 24.1851 97.5873 23.5722 98.2768 23.5722C99.0046 23.5722 99.5792 24.1851 99.5792 24.913C99.5792 24.913 99.5792 24.913 99.5792 24.9513C99.5792 25.7174 99.0046 26.3303 98.2768 26.3303C97.549 26.3303 96.9744 25.7174 96.9744 24.9513Z" fill="#7A7384"/>
<path d="M102.453 22.8828H101.687V30.9271H102.453V22.8828Z" fill="#7A7384"/>
<path d="M107.815 28.2074H109.654V29.3566H110.42V22.8828H109.654V27.8626H107.815V28.2074Z" fill="#7A7384"/>
<path d="M106.436 26.1391C107.7 26.1391 108.505 25.4496 108.505 24.5686C108.505 23.6492 107.7 22.998 106.436 22.998C105.172 22.998 104.368 23.6875 104.368 24.5686C104.406 25.4496 105.172 26.1391 106.436 26.1391ZM106.475 23.2662C107.126 23.2662 107.662 23.8025 107.7 24.4537V24.492V24.5303C107.7 25.2198 107.087 25.7944 106.398 25.7944C105.708 25.7944 105.172 25.2198 105.172 24.5303C105.172 24.492 105.172 24.492 105.172 24.4537C105.21 23.8025 105.785 23.2662 106.475 23.2662Z" fill="#7A7384"/>
<path d="M106.092 27.1354V29.0507H106.858V27.0971C107.7 27.0588 108.505 27.0205 109.194 26.9056V26.5225C108.083 26.7141 106.321 26.7524 105.134 26.7524H103.678V27.1354H105.134C105.44 27.1354 105.785 27.1354 106.092 27.1354Z" fill="#7A7384"/>
<path d="M105.708 28.9355H104.942V30.7742H110.573V30.3528H105.708V28.9355Z" fill="#7A7384"/>
<path d="M115.898 23.1895H113.178V23.6492H115.898V23.1895Z" fill="#7A7384"/>
<path d="M114.978 28.016C116.012 27.9011 116.549 27.3265 116.549 26.637C116.549 25.8326 115.897 25.2197 114.595 25.2197C113.293 25.2197 112.641 25.8326 112.641 26.637C112.641 27.3648 113.178 27.9394 114.25 28.016V28.8971C113.944 28.8971 113.676 28.8971 113.407 28.8971H111.837V29.2801H113.407C114.672 29.2801 116.319 29.2418 117.43 29.0886V28.6672C116.74 28.7438 115.859 28.8205 114.978 28.8588V28.016ZM113.369 26.6753V26.637C113.369 26.5987 113.369 26.5604 113.369 26.5221C113.446 25.9475 113.944 25.4878 114.557 25.4878C115.208 25.4878 115.744 26.0241 115.744 26.637C115.744 27.2882 115.208 27.7862 114.557 27.7862C113.905 27.7862 113.369 27.2882 113.369 26.6753Z" fill="#7A7384"/>
<path d="M116.971 24.3389H112.067V24.7603H116.971V24.3389Z" fill="#7A7384"/>
<path d="M118.579 22.8828H117.813V30.9271H118.579V22.8828Z" fill="#7A7384"/>
<path d="M34.6677 20.7911C34.6677 20.7606 34.6372 20.7301 34.6372 20.6997C34.6372 20.5472 34.6372 20.3947 34.6372 20.2422C34.6982 19.5103 34.6982 19.5103 34.2408 19.4494C34.1798 19.4494 34.1188 19.4494 34.0883 19.4494L34.1188 19.4799C34.1188 19.4799 34.0883 19.4799 34.0883 19.4494C33.9968 19.4494 33.9359 19.4494 33.8444 19.4494C33.6004 19.4494 33.3564 19.4189 33.1125 19.4189C32.777 19.4494 32.5941 19.5103 32.5636 19.6933C32.5636 19.7848 32.5636 19.9068 32.5331 19.9983C32.5331 20.0593 32.5331 20.0898 32.5331 20.1507C32.5331 20.2117 32.5331 20.3032 32.5331 20.3642C32.5026 20.4862 32.5026 20.6082 32.4721 20.7301C32.4721 20.7911 32.4721 20.8216 32.4721 20.8826V20.9131V20.8826C32.4721 21.1571 32.4721 21.4315 32.4721 21.6755V21.706C32.4721 21.828 32.4721 21.95 32.4721 22.0719C32.4416 22.1634 32.4416 22.2244 32.4721 22.3159C32.5331 22.7733 32.5331 23.2003 32.5026 23.6577C32.5026 23.7187 32.5026 23.7797 32.5331 23.8102C32.6551 24.0541 32.838 23.9931 32.9905 23.9626C33.326 23.9016 33.6309 23.9626 33.9663 23.9321C34.1493 23.8711 34.3018 24.0541 34.4848 23.9931C34.5153 23.9931 34.5153 23.9931 34.5458 23.9626C34.5762 23.9321 34.6067 23.8711 34.6067 23.8102C34.6982 23.5967 34.6067 23.3527 34.6372 23.1393C34.6067 23.1698 34.6067 23.2003 34.5762 23.2307C34.6067 23.2003 34.6067 23.1698 34.6372 23.1393C34.6677 23.0173 34.7287 22.8953 34.6677 22.7428C34.6677 22.5294 34.7287 22.2854 34.6372 22.0719C34.6372 22.0109 34.6372 21.95 34.6372 21.9195C34.6372 21.95 34.6372 22.0109 34.6372 22.0719C34.6372 21.7365 34.6677 21.4315 34.6677 21.0961C34.6677 21.0351 34.7897 20.9131 34.6677 20.7911Z" fill="#7A7384"/>
<path d="M30.2462 23.0176C30.1547 22.5297 30.2462 22.0418 30.1547 21.5843C30.1547 21.4624 30.1547 21.3099 30.1547 21.1879C30.1547 21.0049 30.1547 20.8525 30.1547 20.6695C30.1547 20.578 30.1547 20.4865 30.1547 20.395C30.1547 20.2426 30.1852 20.0901 30.1242 19.9376C30.1242 19.9071 30.1242 19.8461 30.1242 19.8156C30.1547 19.6327 30.0937 19.5412 29.9717 19.4802C29.8192 19.4497 29.6668 19.3887 29.5143 19.5107V19.5412C29.3923 19.5107 29.2703 19.4802 29.1179 19.5412C29.1179 19.5107 29.1179 19.5107 29.0874 19.4802C28.7824 19.3277 28.447 19.4497 28.142 19.3887C28.0505 19.3582 27.9895 19.4497 27.959 19.5717C27.959 19.6022 27.959 19.6327 27.959 19.6632C27.9895 19.7851 27.7456 19.8766 27.9285 20.0291C27.9285 20.0291 27.959 20.0291 27.959 20.0596V20.0901C27.8676 20.6085 27.9285 21.1574 27.9285 21.6758C27.9285 21.7063 27.9285 21.7368 27.9285 21.7368H27.898C27.9285 21.9503 27.8676 22.1942 27.959 22.4077C27.959 22.4687 27.959 22.5297 27.959 22.5907C27.8371 22.9566 27.9895 23.3531 27.959 23.719C27.959 23.7495 27.959 23.8105 27.959 23.841C27.9285 23.902 27.9285 23.9935 27.9285 24.0544C27.8676 24.5424 27.898 25.0303 27.959 25.4877C27.8676 25.7622 27.9285 26.0671 27.9285 26.3416C27.9285 26.4026 27.9285 26.4636 27.9285 26.5245C27.9285 26.6465 27.9285 26.738 27.9285 26.86C27.9285 26.982 27.9285 27.1344 27.9285 27.2564C27.8981 27.3174 27.8676 27.3479 27.898 27.4089C27.9895 28.1103 27.9285 28.8117 27.9285 29.5131C27.9285 29.6655 27.959 29.7875 28.02 29.9095C27.9895 30.001 27.9895 30.0925 27.959 30.1839C27.9285 30.6414 28.142 30.8853 28.4775 30.7329C29.1179 30.6109 29.3923 30.7024 29.8497 30.7024C30.0632 30.7024 30.1242 30.5804 30.1852 30.3974C30.2157 30.2754 30.2157 30.1535 30.2462 30.001C30.2462 29.8485 30.2462 29.696 30.2462 29.5436C30.2462 29.2691 30.2462 28.9641 30.2462 28.6897C30.2462 28.6592 30.2462 28.6592 30.2462 28.6287C30.2462 28.4762 30.2462 28.3237 30.2462 28.1713C30.2462 28.0493 30.2462 27.8968 30.2462 27.7748C30.2462 27.6834 30.2462 27.5919 30.2462 27.5004C30.2462 27.1954 30.2462 26.8905 30.2462 26.5855C30.3072 26.1586 30.1547 25.7622 30.1852 25.3352C30.1852 25.2742 30.1852 25.2133 30.1852 25.1218C30.2462 24.4814 30.2157 23.8105 30.2462 23.1396C30.2157 23.1091 30.2767 23.0481 30.2462 23.0176ZM28.264 27.1954C28.264 27.1954 28.264 27.2259 28.264 27.1954C28.264 27.2259 28.264 27.2259 28.264 27.1954C28.264 27.2259 28.264 27.2259 28.264 27.1954ZM29.0569 22.2552C29.0569 22.2857 29.0569 22.3162 29.0569 22.3467C29.0569 22.3162 29.0264 22.2857 29.0569 22.2552ZM28.386 24.4204C28.386 24.3899 28.386 24.3594 28.4165 24.3594C28.4165 24.3594 28.386 24.3899 28.386 24.4204ZM28.9044 27.7748C28.9044 27.7443 28.9044 27.7443 28.9044 27.7748C28.9044 27.7443 28.9044 27.7443 28.9044 27.7748C28.9044 27.7443 28.9044 27.7443 28.9044 27.7748ZM28.0505 22.7127C28.0505 22.6822 28.0505 22.6822 28.0505 22.7127C28.0505 22.6822 28.0505 22.6822 28.0505 22.7127ZM29.5143 19.8766C29.5143 19.8461 29.5143 19.8461 29.5143 19.8766C29.5143 19.8461 29.5143 19.8461 29.5143 19.8766Z" fill="#7A7384"/>
<path d="M25.5805 19.3887C24.9401 19.3887 24.3912 19.4192 23.7813 19.3887C23.7203 19.3887 23.6593 19.3887 23.6288 19.4497C23.5678 19.5717 23.5373 19.6632 23.4764 19.7852C23.4764 19.8462 23.4459 19.8767 23.4764 19.9377C23.4764 20.0291 23.4154 20.1206 23.5373 20.2121C23.5068 20.3951 23.4764 20.5476 23.4459 20.7305C23.3849 20.822 23.4154 20.944 23.4459 21.0355C23.4459 21.066 23.4459 21.0965 23.4459 21.127C23.4154 21.188 23.3849 21.2489 23.4459 21.3404V21.3709C23.4459 21.4319 23.4459 21.4624 23.5373 21.4929C23.5373 21.5539 23.5373 21.5844 23.5983 21.6454C23.6593 21.7064 23.8118 21.7064 23.9338 21.7064C24.3302 21.6454 24.7266 21.6759 25.1231 21.6454C25.2756 21.6759 25.367 21.6454 25.428 21.5844C25.428 21.5539 25.4585 21.5539 25.4585 21.5234C25.489 21.4624 25.5195 21.4014 25.5195 21.3404C25.5805 21.3099 25.55 21.2489 25.55 21.2184C25.55 21.188 25.55 21.127 25.55 21.0965C25.55 21.066 25.55 21.005 25.55 20.9745C25.55 20.944 25.55 20.9135 25.55 20.9135C25.6415 20.7915 25.4585 20.639 25.55 20.5171C25.6415 20.3646 25.6415 20.2121 25.6415 20.0901C25.6415 19.9682 25.611 19.8157 25.6415 19.6937C25.5805 19.5717 25.55 19.5412 25.5805 19.3887ZM24.4522 20.3951C24.4522 20.3951 24.4217 20.3951 24.4522 20.3951C24.4217 20.3951 24.4217 20.3951 24.4522 20.3951C24.4217 20.3951 24.4217 20.3951 24.4522 20.3951ZM24.3302 21.0355C24.2997 21.0355 24.2997 21.0355 24.2692 21.0355C24.2997 21.0355 24.2997 21.0355 24.3302 21.0355ZM23.9643 20.3036H23.9338H23.9643Z" fill="#7A7384"/>
<path d="M39.1198 28.5372C39.0588 28.3847 38.9673 28.3542 38.6624 28.3847C38.3269 28.4152 37.961 28.4152 37.6255 28.4152C37.2901 28.4457 37.1986 28.4457 37.1681 28.6287C37.1376 28.8117 37.0766 28.9946 37.1071 29.1776C37.1376 29.2386 37.0461 29.3301 37.1681 29.3911C37.1376 29.4521 37.1376 29.5131 37.1071 29.5741C37.0461 29.7875 37.0156 29.9705 37.0461 30.184C37.0461 30.2754 37.1376 30.3974 37.0766 30.4889C37.2291 30.7329 37.2596 30.6719 37.2596 30.6719C37.8085 30.6719 38.3574 30.6414 38.8758 30.7024C38.9978 30.7024 39.0893 30.6414 39.0893 30.6109C39.0588 30.5194 39.1808 30.4279 39.1808 30.3364C39.2723 30.2144 39.1808 30.123 39.1808 30.001C39.0893 29.879 39.1808 29.7265 39.1808 29.6045C39.1808 29.5741 39.1808 29.5131 39.1808 29.4826C39.3028 29.3301 39.3028 29.2081 39.2418 29.0556C39.2418 28.9946 39.2418 28.9642 39.2418 28.9032C39.3333 28.8727 39.3028 28.8117 39.2723 28.7507C39.2113 28.6592 39.1503 28.5982 39.1198 28.5372Z" fill="#7A7384"/>
<path d="M34.6373 27.2256C34.6983 27.0121 34.6983 26.7987 34.6373 26.6157C34.6678 26.5547 34.6983 26.4937 34.6373 26.4327C34.6373 26.4022 34.6373 26.3413 34.5763 26.3108C34.5763 26.2498 34.5153 26.2193 34.4848 26.1583C34.4238 26.1583 34.3628 26.1583 34.3018 26.1583C34.2104 26.0973 34.1189 26.1278 34.0274 26.1888C33.9359 26.1888 33.8139 26.1888 33.7224 26.2193C33.6309 26.1583 33.5395 26.1888 33.448 26.1888C33.265 26.1888 33.0515 26.2193 32.8686 26.1888C32.7161 26.1583 32.6551 26.1888 32.5941 26.3108C32.5331 26.3717 32.5636 26.4632 32.5331 26.5547C32.4416 26.5852 32.4721 26.6462 32.5026 26.7072C32.5026 26.7377 32.5026 26.7681 32.5026 26.7986C32.5026 26.9511 32.5026 27.1036 32.5026 27.2561C32.5331 27.3476 32.4111 27.4696 32.5026 27.5611C32.5026 27.622 32.4721 27.6525 32.5026 27.7135C32.5331 27.7135 32.5331 27.7135 32.5636 27.7135C32.5331 27.7135 32.5331 27.7135 32.5026 27.7135C32.5331 27.927 32.4111 28.1405 32.5026 28.3539C32.5331 28.5674 32.5636 28.8114 32.5026 29.0248C32.4111 29.2078 32.4721 29.3908 32.4416 29.5432C32.4416 29.6347 32.4416 29.7262 32.4416 29.8177C32.3806 29.8787 32.3806 29.9092 32.4111 29.9702C32.4111 30.0617 32.3806 30.458 32.4111 30.519C32.4416 30.6105 32.6246 30.7629 32.8381 30.7629C33.0515 30.7629 33.9969 30.7325 34.0884 30.7325C34.1799 30.763 34.4848 30.8544 34.5153 30.6715C34.5458 30.519 34.5458 30.3666 34.5153 30.3056C34.5153 30.2446 34.4848 30.2141 34.4543 30.1531C34.4543 30.1226 34.4543 30.092 34.4543 30.092L34.4848 30.0617C34.5458 29.9702 34.5458 29.8482 34.4543 29.7567C34.4848 29.4518 34.5763 29.1773 34.5458 28.8723C34.5458 28.8418 34.5458 28.7809 34.5458 28.7504C34.5458 28.6589 34.5458 28.5368 34.5458 28.4453C34.6068 28.3538 34.6373 28.2319 34.5458 28.1405C34.5458 27.866 34.5458 27.622 34.5458 27.3476C34.6068 27.2866 34.6068 27.2561 34.6373 27.2256ZM33.326 27.439C33.326 27.4695 33.326 27.4695 33.326 27.439C33.326 27.4695 33.326 27.4695 33.326 27.439ZM34.4543 27.4086C34.4543 27.4086 34.4848 27.4086 34.4543 27.4086C34.4848 27.4086 34.4543 27.4086 34.4543 27.4086Z" fill="#7A7384"/>
<path d="M25.5194 28.7802C25.5194 28.6277 25.5194 28.5058 25.5194 28.3533C25.5194 28.2618 25.5194 28.2008 25.5194 28.1093C25.5499 27.8654 25.4279 27.6519 25.4889 27.4079C25.5499 27.286 25.5194 27.1335 25.5194 26.981C25.6109 26.8285 25.5499 26.6456 25.5499 26.4626C25.5499 26.3406 25.6109 26.2186 25.5194 26.0966C25.5194 26.0661 25.5194 26.0357 25.5194 26.0052V25.9747C25.5194 25.9137 25.5194 25.8527 25.5194 25.7917C25.5194 25.7612 25.5194 25.7002 25.4584 25.6697C25.4584 25.6392 25.4584 25.6087 25.4584 25.5782C25.4584 25.5172 25.4584 25.4258 25.4584 25.3648C25.4584 25.3343 25.4584 25.3038 25.4584 25.2733C25.4584 25.2123 25.4584 25.1818 25.4584 25.1208C25.4584 25.0293 25.4584 24.9073 25.4584 24.8159C25.4584 24.7244 25.4584 24.6024 25.4584 24.5109H25.4889C25.4889 24.3584 25.4889 24.2364 25.4889 24.084C25.4889 24.023 25.4889 23.9925 25.4889 23.9315C25.4584 23.84 25.3974 23.8095 25.3059 23.8095C25.1839 23.8095 25.0619 23.8095 24.94 23.8095C24.9095 23.8095 24.879 23.8095 24.8485 23.8095C24.757 23.8095 24.6655 23.8095 24.574 23.8095C24.5435 23.8095 24.4825 23.8095 24.452 23.8095C24.2386 23.8095 24.0556 23.718 23.8421 23.8095C23.7202 23.84 23.5982 23.657 23.4762 23.8095C23.4762 23.84 23.4762 23.84 23.4762 23.8705H23.5067C23.5067 23.901 23.5677 23.962 23.4762 23.962C23.3237 23.9925 23.4457 24.023 23.4457 24.0535C23.4457 24.084 23.4457 24.1145 23.4457 24.1755C23.4457 24.1755 23.4152 24.1755 23.4152 24.206C23.3847 24.2364 23.3847 24.2974 23.4152 24.3279C23.4152 24.3279 23.4152 24.3279 23.4457 24.3279H23.4152C23.3542 24.4804 23.3542 24.6024 23.4457 24.7549V24.7854C23.4457 24.8463 23.4457 24.9073 23.4457 24.9683C23.4457 24.9988 23.4457 24.9988 23.4762 24.9988C23.4762 25.0293 23.4762 25.0293 23.4762 25.0598C23.4762 25.0598 23.4762 25.0598 23.4457 25.0598C23.4457 25.0903 23.4457 25.1208 23.4457 25.1208C23.4457 25.2733 23.4762 25.4258 23.4762 25.5782C23.4457 25.7002 23.4152 25.8527 23.4762 25.9747C23.4762 26.0357 23.4762 26.0966 23.4762 26.1576C23.4762 26.1881 23.4762 26.2186 23.4762 26.2491C23.4762 26.3101 23.4762 26.4016 23.4762 26.4626C23.4152 26.798 23.3847 27.164 23.4762 27.4994C23.4152 27.5909 23.4457 27.6824 23.4457 27.7739C23.3237 27.8959 23.4762 28.0178 23.4457 28.1703C23.4457 28.5058 23.4457 28.8717 23.3847 29.2071V29.2376C23.2932 29.3901 23.3542 29.5731 23.3237 29.7561C23.3542 29.8475 23.2932 29.939 23.3847 30.0305C23.4152 30.183 23.3542 30.3355 23.4457 30.4879C23.4457 30.5489 23.4762 30.5794 23.5372 30.5794C23.6287 30.6404 23.7202 30.6099 23.8117 30.6099C23.9336 30.6099 24.0251 30.5184 24.1471 30.5184C24.4825 30.5489 24.8485 30.5184 25.1839 30.5489C25.3059 30.5489 25.3669 30.5184 25.3974 30.4269C25.4584 30.305 25.5194 30.1525 25.5194 30.0305C25.5194 29.6646 25.4889 29.3291 25.5499 28.9632C25.5804 28.9632 25.6109 28.8717 25.5194 28.7802ZM24.1471 29.7865C24.1471 29.7561 24.1471 29.7561 24.1471 29.7865C24.1471 29.7561 24.1471 29.7561 24.1471 29.7865C24.1471 29.7561 24.1471 29.7561 24.1471 29.7865Z" fill="#7A7384"/>
<path d="M37.0766 20.9742C37.1071 21.0962 37.0462 21.2487 37.1071 21.3706C37.1376 21.4316 37.1376 21.4926 37.1681 21.5536C37.1681 21.5536 37.1681 21.5536 37.1681 21.5841C37.1071 21.6451 37.1376 21.7366 37.1376 21.8281C37.1376 21.8586 37.1376 21.9196 37.1376 21.95C37.0766 22.0415 37.0766 22.1025 37.1376 22.194C37.1376 22.255 37.1681 22.2855 37.1681 22.3465C37.1681 22.4685 37.1681 22.5904 37.1681 22.7124C37.1071 22.8649 37.1376 22.9869 37.1071 23.1394C37.1071 23.1699 37.0766 23.2003 37.0766 23.2003C37.0462 23.3223 37.0766 23.4443 37.0462 23.5663C37.0766 23.7188 36.9852 23.8407 37.0766 23.9932C37.0766 24.0237 37.0766 24.0542 37.0766 24.0847C37.0766 24.0237 37.0766 24.1762 37.0766 24.2677C37.0462 24.4201 37.0766 24.4811 37.0766 24.6031C37.0766 24.7556 37.0766 24.9081 37.0766 25.0605C37.0766 25.213 37.0766 25.335 37.0766 25.4875C37.0766 25.518 37.0766 25.5485 37.0766 25.579C37.0766 25.7314 37.0766 25.8534 37.0766 26.0059C37.0766 26.0364 37.0766 26.0669 37.0766 26.0974C37.0766 26.3413 37.3206 26.2803 37.4731 26.2803C37.5036 26.2803 37.5646 26.2803 37.5951 26.2803C37.717 26.2803 37.839 26.2803 37.961 26.2803C38.022 26.2803 38.083 26.2803 38.144 26.2803C38.205 26.2499 38.266 26.2499 38.3269 26.2499C38.4489 26.3108 38.5709 26.2194 38.6929 26.2499C38.8149 26.2803 38.9064 26.3718 39.0588 26.2803C39.0588 26.2499 39.0588 26.2499 39.0588 26.2194H39.0283C38.9978 26.1889 38.9673 26.1584 39.0283 26.1279C39.1503 26.0974 39.0588 26.0669 39.0588 26.0364C39.0588 26.0059 39.0588 25.9754 39.0588 25.9144V25.8839C39.0893 25.7314 39.1198 25.579 39.0588 25.4265C39.0893 25.396 39.0893 25.3655 39.0893 25.3655V25.335C39.0893 25.213 39.1198 25.091 39.0588 24.9691C39.0283 24.8776 39.0893 24.7861 38.9978 24.6946C38.9978 24.5116 39.0283 24.3287 39.0283 24.1762C39.0283 24.0542 39.0283 23.9322 39.0283 23.7798C39.1503 23.2613 39.0588 22.7124 39.0893 22.1635C39.0893 21.8281 39.1198 21.4926 39.1198 21.1267C39.1198 21.0352 39.1808 20.9437 39.1198 20.8522C39.1198 20.8522 39.1198 20.8522 39.0893 20.8522C39.0893 20.6693 39.0893 20.4863 39.0893 20.3338C39.0893 20.3033 39.0893 20.2728 39.0893 20.2423V20.2118C39.0893 20.1813 39.0893 20.1508 39.0893 20.1203C39.0893 20.0898 39.0893 20.0594 39.0588 20.0594C38.9978 19.9069 39.0893 19.7544 38.9978 19.6324C38.9978 19.5714 38.9673 19.5714 38.9064 19.5409C38.8149 19.4799 38.6929 19.4799 38.5709 19.5409H38.5404H38.5099C38.3269 19.6019 38.144 19.5714 37.961 19.5714C37.717 19.5714 37.4731 19.5714 37.2596 19.5714C37.2291 19.5714 37.1681 19.5714 37.1376 19.5714C37.0157 19.5714 36.8937 19.5409 36.9242 19.6934C36.9852 20.0594 36.8937 20.3948 36.9547 20.7607C37.0462 20.7607 36.9852 20.8827 37.0766 20.9742ZM38.6624 24.3287C38.6319 24.3287 38.6319 24.3287 38.6319 24.3287C38.6319 24.3287 38.6624 24.3592 38.6624 24.3287Z" fill="#7A7384"/>
<path d="M44.3656 18.8091C44.4266 18.7786 44.4571 18.7481 44.5181 18.7481C44.3656 18.6261 44.2131 18.5346 44.0301 18.4431C43.8777 18.3212 43.7252 18.1992 43.5727 18.1077C43.4507 17.9857 43.2983 17.8637 43.1458 17.7722C43.1458 17.7417 43.1153 17.7113 43.1153 17.6808C43.0543 17.5893 43.0238 17.5283 42.9018 17.4978C42.8103 17.4063 42.7493 17.2843 42.5969 17.2843C42.5969 17.2538 42.5969 17.2233 42.5664 17.1928C42.2614 16.9489 42.048 16.6439 41.7735 16.4C41.56 16.1865 41.3466 16.0035 41.0416 15.8815C41.0111 15.8206 40.9806 15.7901 40.9196 15.7596C40.8586 15.6986 40.7977 15.6071 40.7367 15.5461C40.7062 15.4851 40.6757 15.4546 40.6147 15.4241C40.5537 15.3936 40.5232 15.3631 40.4927 15.3021C40.4927 15.2107 40.4317 15.1802 40.3707 15.1192C40.2792 15.0582 40.2183 14.9972 40.1573 14.9057C40.1268 14.7532 39.9743 14.6617 39.8523 14.5703C39.8218 14.4483 39.7303 14.3873 39.6388 14.3263C39.5169 14.2653 39.4864 14.1433 39.3949 14.0823C39.2729 13.8384 39.1814 14.0518 39.0594 14.0823C38.9985 14.0823 38.9375 14.1128 38.907 14.1738C38.724 14.2348 38.541 14.3263 38.3885 14.3873C38.2971 14.3873 38.2361 14.3873 38.1751 14.4788L38.1446 14.5093C37.8396 14.5703 37.5652 14.6617 37.3212 14.8142C37.2297 14.8447 37.1078 14.8447 37.0163 14.9057C36.8638 14.9057 36.7418 14.9362 36.5893 14.9972C36.3149 15.0582 36.0404 15.1192 35.7355 15.1497C35.6745 15.1497 35.583 15.1497 35.522 15.1497C35.4305 15.1497 35.3085 15.1192 35.2171 15.1802C35.1561 15.1802 35.0646 15.1497 35.0036 15.2107C34.9121 15.2107 34.8206 15.2412 34.6986 15.2412C34.5157 15.2412 34.3632 15.3021 34.2107 15.3326C34.1497 15.3326 34.0887 15.3326 34.0582 15.3326C33.9973 15.3326 33.9058 15.3021 33.8448 15.3631C33.8143 15.3631 33.7838 15.3631 33.7533 15.3631C33.6618 15.3936 33.5093 15.3326 33.4179 15.3936C33.3874 15.3936 33.3569 15.3936 33.3264 15.3936C33.2349 15.3936 33.1434 15.3631 33.0824 15.4241C33.0519 15.4241 33.0214 15.4241 32.9909 15.4241C32.9299 15.4241 32.8384 15.3936 32.7775 15.4546H32.747C31.9236 15.4546 31.1307 15.4851 30.3074 15.4851C30.2464 15.4851 30.1854 15.4851 30.1549 15.4851C30.0634 15.3326 29.9414 15.4851 29.8194 15.4546C29.7889 15.4546 29.728 15.4546 29.6975 15.4546C29.6365 15.3936 29.545 15.4241 29.484 15.4241C29.3315 15.4546 29.2095 15.3936 29.0571 15.3936C28.9656 15.3021 28.8436 15.3631 28.7216 15.3631C28.6911 15.3631 28.6606 15.3631 28.6301 15.3631C28.5691 15.3021 28.4472 15.3326 28.3862 15.3326C28.3252 15.3326 28.2337 15.3326 28.1727 15.3326C28.0202 15.3021 27.8982 15.2716 27.7458 15.2412C27.7153 15.2412 27.6848 15.2412 27.6543 15.2412C27.5933 15.2412 27.4408 15.2412 27.3188 15.2107C27.2274 15.1497 27.1359 15.1802 27.0139 15.1802C26.9529 15.1802 26.8919 15.1802 26.8004 15.1802C26.4345 15.1192 26.0685 15.0277 25.7026 14.9667C25.3977 14.8752 25.0927 14.7837 24.7877 14.6617C24.6963 14.6313 24.6048 14.5703 24.4828 14.6008C24.4523 14.5703 24.4218 14.5398 24.3608 14.5398V14.5093C24.3303 14.4178 24.2388 14.4178 24.1474 14.4178C24.0864 14.4178 24.0254 14.3873 23.9644 14.3568C23.7509 14.2653 23.507 14.1433 23.2935 14.0518C23.2325 14.0214 23.1105 13.9604 23.141 14.1128C23.0495 14.1738 22.9885 14.2958 22.8971 14.3568C22.8056 14.4178 22.7141 14.4788 22.6836 14.6008C22.5616 14.6922 22.4396 14.7837 22.3786 14.9362C22.2567 15.0277 22.1652 15.1497 22.0737 15.2716C21.9517 15.3631 21.8297 15.4851 21.7382 15.6071C21.6773 15.6376 21.6468 15.6681 21.6163 15.7291C21.5248 15.7596 21.4943 15.8206 21.4333 15.8815C21.1588 16.034 20.9149 16.1865 20.7014 16.4305C20.6099 16.5829 20.4879 16.7049 20.3965 16.8269C20.244 16.9794 20.061 17.1318 19.9695 17.3148C19.8475 17.3148 19.7866 17.3758 19.7256 17.4673L19.6951 17.4978C19.6036 17.4978 19.5426 17.5893 19.4816 17.6503L19.4511 17.6808C19.2986 17.7722 19.1462 17.8942 19.0242 18.0162C18.9327 18.1077 18.8107 18.1382 18.7192 18.2297C18.6582 18.2602 18.5973 18.3212 18.5363 18.3517C18.4143 18.4431 18.2923 18.5041 18.1703 18.5956C18.1093 18.6871 18.0483 18.6871 18.0483 18.7481C18.0483 18.8091 18.1398 18.8396 18.2008 18.8396C18.3838 18.9311 18.5363 18.992 18.7497 18.992C18.8107 19.053 18.9022 19.0835 18.9937 19.0835C19.0547 19.175 19.1462 19.175 19.2376 19.175C19.2681 19.2055 19.2986 19.2055 19.3291 19.175C19.3596 19.2055 19.3901 19.236 19.4511 19.2055C19.8171 19.358 19.9695 19.358 20.244 19.053C20.427 18.8701 20.6099 18.6566 20.7929 18.4431C20.8234 18.4126 20.8844 18.3517 20.9149 18.3212C21.0369 18.2297 21.1283 18.1382 21.2198 18.0162C21.3723 17.8942 21.4943 17.7722 21.6468 17.6503C21.7687 17.5283 21.8907 17.4368 22.0127 17.3148C22.1042 17.2538 22.1652 17.2233 22.1957 17.1014C22.3481 16.9184 22.5311 16.7354 22.7446 16.6134C22.8361 16.6134 22.8971 16.5524 22.958 16.5219C23.0495 16.4305 23.141 16.3085 23.2935 16.2475C23.446 16.217 23.507 16.034 23.6594 16.034C23.6899 16.1255 23.7509 16.156 23.8424 16.156C23.9034 16.217 23.9644 16.2475 24.0254 16.278C24.2388 16.339 24.4523 16.3695 24.6353 16.4C24.9707 16.4915 25.3367 16.5829 25.7026 16.5829C25.9771 16.5829 26.2515 16.8269 26.5565 16.7049C26.6175 16.7659 26.6784 16.8269 26.7394 16.8269C26.9529 16.7964 27.1664 16.8879 27.3798 16.9184C27.8678 16.9794 28.3252 17.0709 28.8131 17.0709C29.0876 17.0709 29.3925 17.0709 29.667 17.1014C29.8499 17.1318 30.0329 17.2538 30.2159 17.1623C30.3683 17.1014 30.3683 17.2233 30.4903 17.1928C30.6733 17.1928 30.6428 17.1318 30.7953 17.1623C31.0697 17.1928 31.3442 17.2233 31.5881 17.1928C31.8016 17.1623 32.1066 17.2843 32.503 17.1928C32.625 17.2233 32.686 17.1014 32.808 17.1014C33.1739 17.1014 33.5703 17.0709 33.9363 17.0709C34.1497 17.0709 34.3937 17.1014 34.5767 17.0404C35.0646 16.8879 35.6135 16.8879 36.1014 16.7659C36.2844 16.7049 36.4979 16.7049 36.6808 16.6439C36.7113 16.6134 36.7723 16.6439 36.8333 16.6134C37.1078 16.5829 37.3822 16.5829 37.6262 16.5219C37.8091 16.461 37.9921 16.4305 38.2056 16.4C38.3885 16.3695 38.602 16.339 38.7545 16.1865C38.846 16.1865 38.907 16.156 38.968 16.095C39.0289 16.095 39.0899 16.095 39.1509 16.1865C39.1814 16.278 39.2729 16.3085 39.3644 16.3085C39.5169 16.3695 39.6084 16.4915 39.6998 16.5829C39.7608 16.6439 39.8218 16.7049 39.9133 16.6744C39.8828 16.7049 39.9438 16.7659 40.0353 16.7659C40.1878 16.9184 40.3097 17.0709 40.4622 17.2233C40.4927 17.2843 40.5232 17.3148 40.5842 17.3453C40.6452 17.4368 40.7062 17.4978 40.7977 17.5588C40.8891 17.6808 41.0416 17.7417 41.1331 17.8637C41.2551 17.9857 41.4076 18.1077 41.5295 18.2297C41.743 18.4736 41.987 18.7176 42.2309 18.9311C42.5969 19.358 42.6274 19.3885 43.1153 19.2055C43.2068 19.2055 43.2983 19.175 43.3592 19.114C43.4507 19.114 43.5422 19.114 43.6032 19.0225C43.6947 19.0225 43.7862 18.992 43.8472 18.9311C44.0301 18.992 44.2131 18.9006 44.3656 18.8091ZM21.7382 15.7291L21.7077 15.7596C21.7382 15.7596 21.7382 15.7596 21.7382 15.7291ZM31.8931 16.6134C31.9236 16.6134 31.9236 16.6134 31.8931 16.6134V16.6134ZM26.5565 16.6744C26.5565 16.7049 26.5565 16.7049 26.5565 16.6744V16.6744ZM39.8828 14.6313C39.9133 14.6313 39.8828 14.6313 39.8828 14.6313V14.6313ZM22.4701 14.9362C22.4701 14.9362 22.4396 14.9362 22.4701 14.9362V14.9362ZM23.1105 16.278C23.141 16.278 23.141 16.278 23.1105 16.278C23.141 16.278 23.141 16.278 23.1105 16.278C23.141 16.278 23.141 16.278 23.1105 16.278Z" fill="#7A7384"/>
<path d="M49.0525 19.0903C49.4739 19.0903 49.8186 19.052 50.2017 18.9754L50.24 19.3202C49.7803 19.3968 49.3973 19.4351 48.8993 19.4351H48.6694V17.0601H50.0485V17.4049H49.0908V19.0903H49.0525ZM51.6573 16.6387V20.3161H51.2743V18.4391H50.8529V20.1629H50.4698V16.7537H50.8529V18.1327H51.2743V16.677H51.6573V16.6387Z" fill="#7A7384"/>
<path d="M58.5529 18.5545V18.8993H55.2202V18.5545H56.6759V18.2481H55.6416V16.7158H58.1698V17.0223H56.063V17.2904H58.0549V17.5969H56.063V17.865H58.1698V18.1715H57.0972V18.4779H58.5529V18.5545ZM58.1315 19.7037C58.1315 20.0868 57.6718 20.3166 56.8674 20.3166C56.063 20.3166 55.6033 20.1251 55.6033 19.7037C55.6033 19.3207 56.063 19.1291 56.8674 19.1291C57.6718 19.1291 58.1315 19.3207 58.1315 19.7037ZM57.7101 19.7037C57.7101 19.5122 57.4037 19.4356 56.8674 19.4356C56.3311 19.4356 56.0246 19.5122 56.0246 19.7037C56.0246 19.8953 56.3311 19.9719 56.8674 19.9719C57.442 20.0102 57.7101 19.9336 57.7101 19.7037Z" fill="#7A7384"/>
<path d="M63.8775 18.6307C63.4179 18.7073 63.0731 18.7073 62.3453 18.7073H62.0771V17.5581H63.2646V17.1367H62.0771V16.792H63.686V17.8645H62.4985V18.3242C63.1114 18.3242 63.4562 18.3242 63.8392 18.2476L63.8775 18.6307ZM64.9884 19.6649C64.9884 20.0863 64.5288 20.3544 63.7243 20.3544C62.9582 20.3544 62.4985 20.0863 62.4985 19.6649C62.4985 19.2436 62.9582 18.9754 63.7243 18.9754C64.4904 18.9754 64.9884 19.2053 64.9884 19.6649ZM64.5671 19.6649C64.5671 19.4351 64.2606 19.2819 63.7243 19.2819C63.188 19.2819 62.9199 19.3968 62.9199 19.6649C62.9199 19.8948 63.2263 20.048 63.7243 20.048C64.2606 20.0097 64.5671 19.8948 64.5671 19.6649ZM64.5288 18.2859H63.8775V17.9412H64.5288V17.5198H63.8775V17.175H64.5288V16.6387H64.9501V18.8988H64.5288V18.2859Z" fill="#7A7384"/>
<path d="M70.6577 18.7073C70.2363 18.5541 69.9299 18.2859 69.7766 17.9412C69.6234 18.3242 69.317 18.6307 68.8573 18.7839L68.6274 18.4391C69.202 18.2476 69.5468 17.7496 69.5468 17.2516V17.175H68.7424V16.8303H70.7726V17.175H69.9682V17.2516C69.9682 17.7113 70.3129 18.171 70.8875 18.3625L70.6577 18.7073ZM69.1637 19.052H71.6536V20.3161H71.2323V19.3585H69.1637V19.052ZM71.6536 16.6387V18.8605H71.2323V16.6387H71.6536Z" fill="#7A7384"/>
<path d="M78.6251 18.4398V18.7845H75.2925V18.4398H76.7481V17.9035H77.1695V18.4398H78.6251ZM78.2804 18.1333C77.7058 18.0567 77.2078 17.7502 76.9397 17.3672C76.7098 17.7502 76.2118 18.0567 75.6372 18.1333L75.484 17.7886C76.2118 17.6736 76.7481 17.2906 76.7481 16.8309V16.6777H77.1695V16.8309C77.1695 17.2906 77.7058 17.7119 78.4336 17.7886L78.2804 18.1333ZM75.6755 19.1293H78.2421V20.3551H77.8207V19.474H75.6755V19.1293Z" fill="#7A7384"/>
</svg>
