<svg width="161" height="32" viewBox="0 0 161 32" fill="none" xmlns="http://www.w3.org/2000/svg">
<path d="M9.74636 5.00251C12.2437 2.84007 15.5003 1.53464 19.0665 1.50474C22.0334 1.47484 24.8004 2.34181 27.108 3.85652C24.281 1.45491 20.6448 0 16.6491 0C7.76845 0 0.566071 7.18489 0.566071 16.0439C0.566071 18.4455 1.09551 20.7275 2.03452 22.7704C4.20222 27.464 8.96718 30.7226 14.4814 30.7226C20.0155 30.7226 24.7405 27.3145 26.6884 22.4914C27.0381 21.5945 27.2379 20.6279 27.2379 19.6015C27.2379 16.4625 24.6806 13.9114 21.5239 13.9114C19.496 13.9114 17.7079 14.9677 16.699 16.5521C15.6901 18.1466 13.912 19.1929 11.8841 19.1929C9.78632 19.1929 7.92828 18.0668 6.89937 16.2731C6.50978 15.6055 6.29002 14.878 6.19012 14.031C6.16015 13.6822 6.13019 13.3135 6.13019 12.9149C6.10022 9.77583 7.50873 6.92579 9.74636 5.00251Z" fill="white"/>
<path d="M19.2264 2.33301C26.0891 2.33301 32.7321 7.66437 32.7321 16.0251C32.7321 22.9808 28.2968 28.93 22.0934 31.1523C26.9183 28.7606 30.2248 23.798 30.2248 18.068C30.2248 10.7635 24.291 4.84423 16.9688 4.84423C13.7921 4.84423 10.9052 6.03008 8.70752 7.96333C8.44779 8.18256 8.20805 8.42172 7.98828 8.68082C8.57766 7.46507 9.42676 6.38883 10.4557 5.52186C12.8232 3.52883 15.8799 2.33301 19.2264 2.33301Z" fill="white"/>
<path d="M50.9134 20.2303V21.6675H42.466V20.2303H45.1201V15.9726H46.7234V20.2303H50.9134ZM48.5085 18.7188V12.14H42.9443V10.7163H50.0983V18.7188H48.5085ZM53.5271 22.963H51.9036V10.0078H53.5271V15.4665H55.191V16.9915H53.5271V22.963Z" fill="white"/>
<path d="M63.2072 10.8248V12.2148H55.6154V10.8248H58.5928V9.75195H60.2971V10.8248H63.2072ZM56.161 18.544H66.407V22.8421H64.8037V19.9677H56.161V18.544ZM62.4662 15.2242C62.4662 15.602 62.3854 15.9597 62.2237 16.297C62.062 16.6344 61.8532 16.9313 61.5905 17.181C61.3076 17.4239 60.9842 17.6195 60.6272 17.768C60.2702 17.9164 59.8795 17.9907 59.4618 17.9907C59.0442 17.9907 58.6535 17.9164 58.2897 17.768C57.9259 17.6195 57.6093 17.4239 57.3331 17.181C57.0637 16.9313 56.8414 16.6344 56.6864 16.297C56.5248 15.9597 56.4439 15.602 56.4439 15.2242C56.4439 14.8463 56.5248 14.4887 56.6864 14.1581C56.8481 13.8207 57.0637 13.5306 57.3331 13.2809C57.6026 13.038 57.9259 12.8423 58.2897 12.6939C58.6535 12.5454 59.0442 12.4712 59.4618 12.4712C59.8795 12.4712 60.2702 12.5454 60.6272 12.6939C60.9842 12.8423 61.3076 13.038 61.5905 13.2809C61.8532 13.5306 62.062 13.8274 62.2237 14.1581C62.3854 14.4887 62.4662 14.8463 62.4662 15.2242ZM60.9169 15.2039C60.9169 14.8193 60.7754 14.482 60.4857 14.2121C60.1961 13.9354 59.8525 13.8005 59.4551 13.8005C59.0576 13.8005 58.7141 13.9354 58.4312 14.2121C58.1482 14.4887 58.0068 14.8193 58.0068 15.2039C58.0068 15.5885 58.1482 15.9259 58.4312 16.2026C58.7141 16.486 59.0509 16.6209 59.4551 16.6209C59.8525 16.6209 60.1961 16.4792 60.4857 16.2026C60.7754 15.9259 60.9169 15.5953 60.9169 15.2039ZM66.407 17.822H64.8037V10.0084H66.407V13.0447H68.2729V14.6237H66.407V17.822Z" fill="white"/>
<path d="M75.5751 21.2627H73.9517V12.2615H68.96V10.8108H75.5751V21.2627ZM78.8288 10.0078H80.4455V22.963H78.8288V10.0078Z" fill="white"/>
<path d="M87.3839 17.3556V16.357H82.2171V15.0345H94.1876V16.357H89.0074V17.3556H93.2243V20.6349H84.7702V21.4176H93.3995V22.7401H83.1804V19.3731H91.6143V18.6309H83.1804V17.3556H87.3839V17.3556ZM88.2058 11.5325L83.652 14.7443L82.6887 13.6242L88.2058 9.76465L93.7228 13.6242L92.7595 14.7443L88.2058 11.5325Z" fill="white"/>
<path d="M95.3597 11.7622V10.3857H102.83V11.7622H99.6507L102.965 15.7837L101.84 16.7148L99.1522 13.3883L96.5116 16.9308L95.3462 15.9996L98.6605 11.7622H95.3597ZM105.707 20.2033C105.707 20.6419 105.619 21.0467 105.437 21.4313C105.255 21.816 105.013 22.1533 104.716 22.4435C104.413 22.7336 104.056 22.963 103.645 23.1317C103.234 23.3004 102.79 23.3881 102.325 23.3881C101.867 23.3881 101.429 23.3004 101.011 23.1317C100.594 22.963 100.23 22.7336 99.9337 22.4435C99.6305 22.1533 99.388 21.816 99.2129 21.4313C99.031 21.0467 98.9434 20.6419 98.9434 20.2033C98.9434 19.7647 99.031 19.3599 99.2129 18.9753C99.3948 18.5906 99.6373 18.2533 99.9337 17.9631C100.237 17.673 100.594 17.4436 101.011 17.2749C101.429 17.1062 101.867 17.0185 102.325 17.0185C102.79 17.0185 103.234 17.1062 103.645 17.2749C104.056 17.4436 104.413 17.673 104.716 17.9631C105.02 18.2533 105.262 18.5906 105.437 18.9753C105.619 19.3599 105.707 19.7647 105.707 20.2033ZM104.117 20.1898C104.117 19.704 103.942 19.2924 103.585 18.9415C103.228 18.5906 102.803 18.422 102.305 18.422C101.82 18.422 101.402 18.5974 101.052 18.9415C100.702 19.2924 100.526 19.704 100.526 20.1898C100.526 20.6824 100.702 21.1007 101.052 21.4448C101.402 21.789 101.82 21.9577 102.305 21.9577C102.803 21.9577 103.228 21.789 103.585 21.4448C103.942 21.1007 104.117 20.6824 104.117 20.1898ZM105.195 16.8768V14.0766H102.776V12.6798H105.195V10.0078H106.818V16.8768H105.195V16.8768Z" fill="white"/>
<path d="M117.987 12.554V10.5635H119.59V17.9722H115.373V20.5835H120.554V22.0073H108.583V20.5835H113.75V17.9722H109.546V10.5635H111.136V12.554H117.987ZM117.987 13.944H111.143V16.5553H117.987V13.944Z" fill="white"/>
<path d="M122.736 15.4018V10.1455H132.76V11.4545H124.339V12.136H132.699V13.3978H124.339V14.1265H132.807V15.4018H128.556V16.2318H133.737V17.5543H121.766V16.2318H126.933V15.4018H122.736V15.4018ZM130.941 20.6851C130.941 21.0697 130.86 21.4408 130.698 21.7782C130.537 22.1223 130.315 22.426 130.032 22.6891C129.728 22.9523 129.385 23.1615 129.001 23.3099C128.617 23.4651 128.199 23.5393 127.755 23.5393C127.317 23.5393 126.906 23.4651 126.515 23.3099C126.125 23.1547 125.788 22.9455 125.491 22.6891C125.202 22.426 124.973 22.1223 124.811 21.7782C124.649 21.4341 124.568 21.0697 124.568 20.6851C124.568 20.287 124.649 19.9226 124.811 19.5785C124.973 19.2412 125.195 18.9375 125.491 18.6676C125.781 18.4045 126.125 18.202 126.515 18.0468C126.906 17.8984 127.317 17.8242 127.755 17.8242C128.199 17.8242 128.617 17.8984 129.001 18.0468C129.385 18.1953 129.728 18.4045 130.032 18.6676C130.315 18.9375 130.537 19.2412 130.698 19.5785C130.86 19.9159 130.941 20.287 130.941 20.6851ZM129.331 20.6716C129.331 20.2465 129.176 19.8822 128.866 19.5853C128.556 19.2884 128.186 19.1332 127.755 19.1332C127.324 19.1332 126.953 19.2816 126.636 19.5853C126.32 19.8889 126.165 20.2465 126.165 20.6716C126.165 21.0967 126.32 21.4611 126.636 21.7715C126.953 22.0751 127.324 22.2303 127.755 22.2303C128.179 22.2303 128.55 22.0751 128.866 21.7715C129.176 21.4611 129.331 21.0967 129.331 20.6716Z" fill="white"/>
<path d="M138.87 9.93652L142.972 16.5423L141.658 17.352L138.87 12.703L136.094 17.4533L134.754 16.6368L138.87 9.93652ZM135.818 22.7028V18.3777H137.421V21.2791H146.488V22.7028H135.818ZM144.75 10.0107H146.374V18.3034H144.75V10.0107Z" fill="white"/>
<path d="M148.139 18.2002H160.109V19.6239H154.929V22.9639H153.306V19.6239H148.139V18.2002V18.2002ZM150.692 11.8643H157.536V10.2246H159.139V16.4526H149.102V10.2246H150.692V11.8643ZM157.536 13.261H150.692V15.0491H157.536V13.261Z" fill="white"/>
</svg>
