<svg width="133" height="35" viewBox="0 0 133 35" fill="none" xmlns="http://www.w3.org/2000/svg">
<path d="M6.98038 8.34277C5.15621 8.34277 3.67682 9.54321 3.67682 11.0257C3.67682 12.5051 5.15621 13.7087 6.98038 13.7087C8.80768 13.7087 10.2871 12.5051 10.2871 11.0257C10.2871 9.54321 8.80768 8.34277 6.98038 8.34277ZM6.98351 12.6023C6.00247 12.6023 5.20949 11.8971 5.20949 11.0226C5.20949 10.1513 6.00561 9.44605 6.98351 9.44605C7.96141 9.44605 8.75753 10.1513 8.75753 11.0226C8.75439 11.8939 7.96141 12.6023 6.98351 12.6023Z" fill="white"/>
<path d="M6.35966 7.08928H8.7292V8.37121H10.2587V2.60096C10.2587 2.35021 10.0487 2.14648 9.78859 2.14648H8.7292V3.27797H6.30951C5.75161 2.69812 4.94922 2.33141 4.05281 2.33141C2.36342 2.33141 1 3.61961 1 5.2087C1 6.79779 2.36656 8.08599 4.05281 8.08599C4.97743 8.08912 5.80175 7.70047 6.35966 7.08928ZM8.7292 4.38438V5.98601H6.98966C7.06175 5.7384 7.10563 5.47825 7.10563 5.21183C7.10563 4.92348 7.06174 4.64766 6.97712 4.38438H8.7292ZM2.52641 5.21183C2.52641 4.23393 3.20655 3.43782 4.05281 3.43782C4.89594 3.43782 5.57608 4.23393 5.57608 5.21183C5.57608 6.19287 4.89594 6.98585 4.05281 6.98585C3.20655 6.98272 2.52641 6.18974 2.52641 5.21183Z" fill="white"/>
<path d="M33.117 2.15039H32.0576V9.6163C30.6817 9.98302 28.9327 10.0488 28.6475 10.0363L23.9429 10.0394V11.1396H27.8044C29.9138 11.1396 31.1832 10.8794 32.0576 10.5817V13.2866H33.5872V2.60486C33.5872 2.35412 33.3772 2.15039 33.117 2.15039Z" fill="white"/>
<path d="M41.0344 6.21795H42.9902V10.8818H44.5198V2.60409C44.5198 2.35022 44.3098 2.14648 44.0496 2.14648H42.9902V5.11154H41.0344V6.21795Z" fill="white"/>
<path d="M38.5113 6.66696C39.3669 8.03665 41.1848 9.09918 41.1848 9.09918L42.0812 8.18083C39.4014 6.50397 39.2604 5.10921 39.276 3.72385V3.70191H41.6111V2.59863H35.4083V3.70191H37.7465V3.72385C37.7653 5.10921 37.618 6.50397 34.9413 8.18083L35.8377 9.09918C35.8377 9.09604 37.6556 8.03665 38.5113 6.66696Z" fill="white"/>
<path d="M38.9219 11.7525V9.78418H37.3923V11.9907C37.3923 12.7116 37.9973 13.2946 38.737 13.2946H44.6169V12.1913H39.3481C39.1131 12.1757 38.9219 11.9876 38.9219 11.7525Z" fill="white"/>
<path d="M51.3652 8.34277C49.541 8.34277 48.0616 9.54321 48.0616 11.0257C48.0616 12.5083 49.541 13.7087 51.3652 13.7087C53.1925 13.7087 54.6719 12.5083 54.6719 11.0257C54.6688 9.54635 53.1925 8.34277 51.3652 8.34277ZM51.3683 12.6023C50.3904 12.6023 49.5943 11.8971 49.5943 11.0226C49.5943 10.1481 50.3873 9.44605 51.3683 9.44605C52.3494 9.44605 53.1423 10.1513 53.1423 11.0226C53.1423 11.8971 52.3462 12.6023 51.3683 12.6023Z" fill="white"/>
<path d="M54.6967 4.65706V2.60409C54.6967 2.35022 54.4836 2.14648 54.2234 2.14648H53.1672V6.30884C51.5467 6.67556 49.5188 6.78839 49.1929 6.79779C48.3591 6.81973 47.9768 6.76018 47.9642 5.97034V3.70423H51.7379V2.60096H46.4378V5.99854C46.4347 7.3651 46.9863 7.91674 48.4062 7.98256C49.3872 8.02644 51.7881 7.64719 53.1672 7.31809V8.37435H54.6967V5.76034H56.3203V4.65706H54.6967V4.65706Z" fill="white"/>
<path d="M21.5108 2.60492C21.5108 2.35418 21.3008 2.15045 21.0406 2.15045H19.9844V9.61636C18.6115 9.98307 16.8626 10.0489 16.5805 10.0364H16.5711V8.85159C17.8342 8.51935 18.7682 7.3816 18.7682 6.02758C18.7682 5.33803 18.5238 4.7049 18.1226 4.20655H19.2478V3.10328H16.5711V2H15.0416V3.10328H12.3649V4.20655H13.4901C13.0857 4.70804 12.8413 5.33803 12.8413 6.02758C12.8413 7.3816 13.7753 8.51935 15.0416 8.85159V10.0395H11.8728V11.1428H15.7342C17.8405 11.1428 19.1099 10.8826 19.9844 10.5849V13.2835H21.5108V6.92086H23.2503V5.81758H21.5108V2.60492ZM14.3677 6.02758C14.3677 5.02147 15.0071 4.20655 15.8032 4.20655C16.5962 4.20655 17.2356 5.02147 17.2356 6.02758C17.2356 7.03369 16.593 7.84861 15.8032 7.84861C15.0102 7.84861 14.3677 7.03369 14.3677 6.02758Z" fill="white"/>
<path d="M27.5005 8.80864C29.2933 8.80864 30.7508 7.36059 30.7508 5.57717C30.7508 3.79375 29.2933 2.3457 27.5005 2.3457C25.7046 2.3457 24.2471 3.79375 24.2471 5.57717C24.2471 7.36059 25.7046 8.80864 27.5005 8.80864ZM27.4974 3.45211C28.4471 3.45211 29.2181 4.40494 29.2181 5.57717C29.2181 6.75254 28.4471 7.70223 27.4974 7.70223C26.5477 7.70223 25.7766 6.7494 25.7766 5.57717C25.7766 4.40494 26.5477 3.45211 27.4974 3.45211Z" fill="white"/>
<path d="M61.746 20.9136C66.7484 22.1955 72.0422 24.3926 78.4738 25.9567C82.0344 24.938 85.6858 23.5652 89.447 21.81C94.4493 19.4749 99.179 18.3466 103.498 17.9893H39.8216C41.0408 18.0488 42.2632 18.1146 43.4793 18.2055C49.9172 18.6882 55.4931 19.3088 61.746 20.9136Z" fill="#80C341"/>
<path d="M44.6702 25.0403C55.3206 28.7795 66.369 29.4189 78.4737 25.9555C72.0421 24.3915 66.7452 22.1943 61.7459 20.9124C55.4961 19.3076 49.9202 18.687 43.4792 18.2075C42.26 18.1166 41.0407 18.0539 39.8215 17.9912H1.46387V22.9685C3.69863 22.0783 6.00234 21.2979 8.3374 20.7118C20.6772 17.6088 32.9229 20.9155 44.6702 25.0403Z" fill="#EC008C"/>
<path d="M109.745 17.9893C120.129 18.8481 127.099 23.7094 128.115 24.308L132.208 17.9893H109.745Z" fill="#EC008C"/>
<path d="M103.498 17.9893C99.1788 18.3466 94.4492 19.4749 89.4468 21.81C85.6857 23.5652 82.0342 24.938 78.4736 25.9567C81.5233 26.6995 84.83 27.3013 88.4815 27.5928C96.0445 28.2008 100.589 26.5867 107.127 24.8126C120.564 21.1612 128.118 24.308 128.118 24.308C127.102 23.7125 120.132 18.8481 109.748 17.9893H103.498Z" fill="#00AEEF"/>
<path d="M107.128 24.8102C100.593 26.5874 96.0446 28.1984 88.4816 27.5903C84.8301 27.2957 81.5234 26.6971 78.4737 25.9542C66.369 29.4145 55.3206 28.7782 44.6703 25.039C32.9229 20.9143 20.6772 17.6076 8.33427 20.7074C5.99921 21.2935 3.6955 22.074 1.46074 22.9641V22.9672C1.46074 22.9672 33.136 23.7508 54.9351 29.0948C76.7311 34.4388 84.9962 34.514 97.546 31.3766C110.108 28.2391 118.361 24.315 128.118 24.3056C128.118 24.3056 120.561 21.1587 107.128 24.8102Z" fill="white"/>
<path d="M64.2661 4.65433C64.5137 4.51955 64.661 4.28761 64.661 4.01179V3.62314C64.661 2.98688 64.1846 2.60449 63.3885 2.60449H61.3292C61.1286 2.60449 60.9719 2.73613 60.9719 2.90539V6.77939H63.6737C64.3444 6.77939 64.8679 6.34685 64.8679 5.79521V5.36581C64.8679 5.03985 64.6297 4.76089 64.2661 4.65433ZM61.8809 3.35359C62.141 3.35359 63.3101 3.35359 63.3101 3.35359C63.5577 3.35359 63.752 3.51657 63.752 3.72657V3.94597C63.752 4.14657 63.5076 4.33463 63.2506 4.33463C63.2506 4.33463 61.9404 4.33463 61.8809 4.33463C61.8809 4.28761 61.8809 3.56986 61.8809 3.35359ZM63.9589 5.58208C63.9589 5.84223 63.727 6.03969 63.4167 6.03969C63.4167 6.03969 61.9373 6.03969 61.8809 6.03969C61.8809 5.98327 61.8809 5.13701 61.8809 5.08373C61.9373 5.08373 63.4668 5.08373 63.4668 5.08373C63.774 5.08373 63.9589 5.24044 63.9589 5.50059V5.58208Z" fill="white"/>
<path d="M67.2812 6.78211H69.6162C69.7792 6.78211 69.914 6.65047 69.914 6.49062V2.95199C69.914 2.76393 69.7416 2.61035 69.5285 2.61035H69.3906C69.1743 2.61035 69.0051 2.7608 69.0051 2.95199C69.0051 2.95199 69.0051 5.74152 69.0051 6.03615C68.6885 6.03615 67.3313 6.03615 67.3313 6.03615C67.0555 6.03615 66.8298 5.85122 66.8298 5.62242V2.95199C66.8298 2.76393 66.6575 2.61035 66.4443 2.61035H66.3064C66.0901 2.61035 65.9209 2.7608 65.9209 2.95199V5.69764C65.9209 6.33704 66.4819 6.78211 67.2812 6.78211Z" fill="white"/>
<path d="M74.794 5.7482V5.18402C74.794 4.59791 74.3082 4.33463 73.8255 4.33463H72.2396C71.9262 4.33463 71.7882 4.1403 71.7882 4.00239V3.68896C71.7882 3.47583 71.9638 3.35046 72.2584 3.35046H74.0418C74.2612 3.35046 74.4273 3.20941 74.4273 3.02449V2.93046C74.4273 2.7424 74.2612 2.60449 74.0324 2.60449H72.0891C71.3087 2.60449 70.8762 3.17493 70.8762 3.56986V4.09329C70.8762 4.67313 71.4247 5.03358 71.9324 5.03358H73.5497C73.8506 5.03358 73.8851 5.22477 73.8851 5.30626V5.64163C73.8851 5.68238 73.8757 6.03029 73.5497 6.03029H71.2523C71.0297 6.03029 70.8668 6.1682 70.8668 6.35625V6.45028C70.8668 6.63834 71.0297 6.77625 71.2523 6.77625H73.6876C74.3615 6.78252 74.794 6.37819 74.794 5.7482Z" fill="white"/>
<path d="M76.9319 6.78211H79.2388C79.4519 6.78211 79.5648 6.6254 79.5648 6.48122V3.62587C79.5648 3.08363 79.0006 2.61035 78.3612 2.61035H76.349C76.1296 2.61035 75.9634 2.7514 75.9634 2.93632V3.03035C75.9634 3.21841 76.1296 3.35632 76.3584 3.35632H78.1042C78.3549 3.35632 78.6558 3.43467 78.6558 3.80452C78.6558 3.80452 78.6558 3.9581 78.6558 4.0678C78.4301 4.0678 76.9319 4.0678 76.9319 4.0678C76.1045 4.0678 75.5685 4.49407 75.5685 5.15227V5.72585C75.5716 6.37779 76.0919 6.78211 76.9319 6.78211ZM76.4806 5.17735C76.4806 4.98929 76.6718 4.83884 76.9037 4.83884C76.9037 4.83884 78.4834 4.83884 78.6558 4.83884C78.6558 4.99242 78.6558 5.78227 78.6558 6.03928C78.3768 6.03928 76.9037 6.03928 76.9037 6.03928C76.6718 6.03928 76.4806 5.8857 76.4806 5.70078V5.17735Z" fill="white"/>
<path d="M81.0629 6.78211H81.2008C81.414 6.78211 81.5863 6.62853 81.5863 6.44047C81.5863 6.44047 81.5863 3.7387 81.5863 3.35318C81.8935 3.35318 83.2601 3.35318 83.2601 3.35318C83.5359 3.35318 83.7615 3.53811 83.7615 3.77004V6.44047C83.7615 6.63166 83.9308 6.78211 84.1471 6.78211H84.285C84.4981 6.78211 84.6705 6.62853 84.6705 6.44047V3.66975C84.6705 3.01468 84.1471 2.61035 83.3071 2.61035H80.9908C80.8059 2.61035 80.6743 2.73572 80.6743 2.91125V6.44047C80.6774 6.63166 80.8466 6.78211 81.0629 6.78211Z" fill="white"/>
<path d="M88.8138 8.92285H86.8016C86.5822 8.92285 86.4161 9.06389 86.4161 9.24882V9.34285C86.4161 9.53091 86.5822 9.66882 86.811 9.66882H88.5568C88.8076 9.66882 89.1084 9.74717 89.1084 10.117C89.1084 10.117 89.1084 10.2706 89.1084 10.3803C88.8828 10.3803 87.3846 10.3803 87.3846 10.3803C86.5571 10.3803 86.0211 10.8066 86.0211 11.4648V12.0383C86.0211 12.6903 86.5446 13.0977 87.3846 13.0977H89.6914C89.9046 13.0977 90.0174 12.9442 90.0174 12.7969V9.9415C90.0174 9.39927 89.4563 8.92285 88.8138 8.92285ZM89.1084 12.3518C88.8295 12.3518 87.3564 12.3518 87.3564 12.3518C87.1244 12.3518 86.9332 12.1982 86.9332 12.0133V11.4898C86.9332 11.3018 87.1244 11.1513 87.3564 11.1513C87.3564 11.1513 88.9361 11.1513 89.1084 11.1513C89.1084 11.3049 89.1084 12.0948 89.1084 12.3518Z" fill="white"/>
<path d="M105.131 8.92285H102.815C102.633 8.92285 102.498 9.04822 102.498 9.22374V12.753C102.498 12.9442 102.668 13.0946 102.884 13.0946H103.022C103.235 13.0946 103.407 12.941 103.407 12.753C103.407 12.753 103.407 10.0512 103.407 9.66568C103.711 9.66568 105.081 9.66568 105.081 9.66568C105.357 9.66568 105.583 9.85374 105.583 10.0825V12.753C105.583 12.9442 105.752 13.0946 105.968 13.0946H106.106C106.319 13.0946 106.491 12.941 106.491 12.753V9.98225C106.495 9.33031 105.971 8.92285 105.131 8.92285Z" fill="white"/>
<path d="M71.5031 8.92285H69.1868C69.0019 8.92285 68.8702 9.04822 68.8702 9.22374V12.753C68.8702 12.9442 69.0395 13.0946 69.2558 13.0946H69.3937C69.6068 13.0946 69.7792 12.941 69.7792 12.753C69.7792 12.753 69.7792 10.0512 69.7792 9.66568C70.0832 9.66568 71.4529 9.66568 71.4529 9.66568C71.7287 9.66568 71.9544 9.85374 71.9544 10.0825V12.753C71.9544 12.9442 72.1236 13.0946 72.3399 13.0946H72.4778C72.691 13.0946 72.8633 12.941 72.8633 12.753V9.98225C72.8633 9.33031 72.343 8.92285 71.5031 8.92285Z" fill="white"/>
<path d="M64.0279 12.3539H62.4012C62.0126 12.3539 61.8308 12.216 61.8308 11.9214V10.1254C61.8308 9.81829 62.0126 9.66784 62.3918 9.66784H64.0279C64.2504 9.66784 64.4134 9.52993 64.4134 9.34187V9.24784C64.4134 9.05978 64.2504 8.92188 64.0279 8.92188H62.1348C61.464 8.92188 60.9218 9.38262 60.9218 9.94679V12.0436C60.9218 12.6235 61.4484 13.0936 62.0972 13.0936H64.0279C64.2504 13.0936 64.4134 12.9557 64.4134 12.7677V12.6736C64.4166 12.4918 64.2536 12.3539 64.0279 12.3539Z" fill="white"/>
<path d="M67.3566 8.92285H66.5793H66.5197H65.6891C65.4697 8.92285 65.3036 9.06389 65.3036 9.24882V9.34285C65.3036 9.53091 65.4697 9.66882 65.6985 9.66882C65.6985 9.66882 66.0245 9.66882 66.0746 9.66882C66.0746 9.72837 66.0746 12.2954 66.0746 12.3518C66.0245 12.3518 65.6891 12.3518 65.6891 12.3518C65.4697 12.3518 65.3036 12.4928 65.3036 12.6777V12.7718C65.3036 12.9598 65.4697 13.0977 65.6985 13.0977H67.366C67.5854 13.0977 67.7515 12.9567 67.7515 12.7718V12.6777C67.7515 12.4897 67.5854 12.3518 67.3566 12.3518C67.3566 12.3518 67.0369 12.3518 66.9836 12.3518C66.9836 12.2922 66.9836 9.72523 66.9836 9.66882C67.0337 9.66882 67.366 9.66882 67.366 9.66882C67.5854 9.66882 67.7515 9.52777 67.7515 9.34285V9.24882C67.7546 9.06076 67.5854 8.92285 67.3566 8.92285Z" fill="white"/>
<path d="M76.7467 8.92285H75.1984C74.5245 8.92285 73.9728 9.38046 73.9728 9.9415V12.0478C73.9728 12.6182 74.5057 13.0977 75.1388 13.0977H76.7937C77.0163 13.0977 77.1792 12.9598 77.1792 12.7718V12.6777C77.1792 12.4897 77.0163 12.3518 76.7937 12.3518H75.4334C75.0667 12.3518 74.8818 12.2107 74.8818 11.9286C74.8818 11.9286 74.8818 11.4084 74.8818 11.3519C74.9413 11.3519 77.3046 11.3519 77.3046 11.3519C77.7183 11.3519 77.9659 11.1294 77.9659 10.7564V9.9415C77.9691 9.38046 77.4206 8.92285 76.7467 8.92285ZM77.0601 10.653C77.0037 10.653 74.9413 10.653 74.8849 10.653C74.8849 10.5997 74.8849 10.0355 74.8849 10.0355C74.8849 9.83493 75.0824 9.67195 75.3269 9.67195H76.6182C76.8627 9.67195 77.0601 9.83493 77.0601 10.0355C77.0601 10.0355 77.0601 10.5966 77.0601 10.653Z" fill="white"/>
<path d="M83.8053 8.92285H79.1728C78.9878 8.92285 78.8562 9.04822 78.8562 9.22374V12.753C78.8562 12.9442 79.0255 13.0946 79.2417 13.0946H79.3796C79.5928 13.0946 79.7651 12.941 79.7651 12.753C79.7651 12.753 79.7651 9.89449 79.7651 9.66568C79.994 9.66568 81.1286 9.66568 81.5172 9.66568C81.5172 9.78165 81.5172 12.753 81.5172 12.753C81.5172 12.9442 81.6865 13.0946 81.9027 13.0946H82.0407C82.2538 13.0946 82.4262 12.941 82.4262 12.753C82.4262 12.753 82.4262 10.0136 82.4262 9.66568C82.8524 9.66568 83.6862 9.66568 83.6862 9.66568C83.8868 9.66568 84.1783 9.81613 84.1783 10.0888V12.7498C84.1783 12.941 84.3475 13.0915 84.5638 13.0915H84.7017C84.9148 13.0915 85.0872 12.9379 85.0872 12.7498V9.95404C85.0872 9.45568 84.639 8.92285 83.8053 8.92285Z" fill="white"/>
<path d="M96.5273 12.3539H94.9006C94.512 12.3539 94.3302 12.216 94.3302 11.9214V10.1254C94.3302 9.81829 94.512 9.66784 94.8912 9.66784H96.5273C96.7499 9.66784 96.9128 9.52993 96.9128 9.34187V9.24784C96.9128 9.05978 96.7499 8.92188 96.5273 8.92188H94.6342C93.9666 8.92188 93.4212 9.38262 93.4212 9.94679V12.0436C93.4212 12.6235 93.9478 13.0936 94.5966 13.0936H96.5305C96.753 13.0936 96.916 12.9557 96.916 12.7677V12.6736C96.9128 12.4918 96.7499 12.3539 96.5273 12.3539Z" fill="white"/>
<path d="M100.392 8.92285H98.8438C98.17 8.92285 97.6183 9.38046 97.6183 9.9415V12.0478C97.6183 12.6182 98.1511 13.0977 98.7843 13.0977H100.439C100.662 13.0977 100.825 12.9598 100.825 12.7718V12.6777C100.825 12.4897 100.662 12.3518 100.439 12.3518H99.0789C98.7122 12.3518 98.5304 12.2107 98.5304 11.9286C98.5304 11.9286 98.5304 11.4084 98.5304 11.3519C98.59 11.3519 100.953 11.3519 100.953 11.3519C101.367 11.3519 101.615 11.1294 101.615 10.7564V9.9415C101.615 9.38046 101.066 8.92285 100.392 8.92285ZM100.706 10.653C100.649 10.653 98.5868 10.653 98.5304 10.653C98.5304 10.5997 98.5304 10.0355 98.5304 10.0355C98.5304 9.83493 98.7279 9.67195 98.9723 9.67195H100.264C100.508 9.67195 100.706 9.83493 100.706 10.0355C100.706 10.0355 100.706 10.5966 100.706 10.653Z" fill="white"/>
<path d="M110.861 8.92285H107.539C107.319 8.92285 107.153 9.06389 107.153 9.24882V9.34285C107.153 9.53091 107.319 9.66882 107.548 9.66882C107.548 9.66882 108.692 9.66882 108.748 9.66882C108.748 9.72837 108.748 12.7561 108.748 12.7561C108.748 12.9473 108.918 13.0977 109.134 13.0977H109.272C109.485 13.0977 109.657 12.9442 109.657 12.7561C109.657 12.7561 109.657 9.72837 109.657 9.66882C109.714 9.66882 110.867 9.66882 110.867 9.66882C111.087 9.66882 111.253 9.52777 111.253 9.34285V9.24882C111.256 9.06076 111.09 8.92285 110.861 8.92285Z" fill="white"/>
<path d="M114.684 8.92285H113.136C112.462 8.92285 111.914 9.38046 111.914 9.9415V12.0478C111.914 12.6182 112.447 13.0977 113.08 13.0977H114.735C114.957 13.0977 115.12 12.9598 115.12 12.7718V12.6777C115.12 12.4897 114.957 12.3518 114.735 12.3518H113.374C113.008 12.3518 112.823 12.2107 112.823 11.9286C112.823 11.9286 112.823 11.4084 112.823 11.3519C112.882 11.3519 115.246 11.3519 115.246 11.3519C115.659 11.3519 115.907 11.1294 115.907 10.7564V9.9415C115.91 9.38046 115.358 8.92285 114.684 8.92285ZM114.998 10.653C114.941 10.653 112.879 10.653 112.823 10.653C112.823 10.5997 112.823 10.0355 112.823 10.0355C112.823 9.83493 113.02 9.67195 113.265 9.67195H114.556C114.8 9.67195 114.998 9.83493 114.998 10.0355C114.998 10.0355 114.998 10.5966 114.998 10.653Z" fill="white"/>
<path d="M119.9 8.92285H118.866C118.464 8.92285 118.226 9.06703 118.054 9.1736C117.95 9.23628 117.872 9.28643 117.79 9.28643C117.734 9.28643 117.725 9.27389 117.7 9.23942L117.696 9.23315C117.696 9.23315 117.696 9.23628 117.696 9.23942C117.684 9.21434 117.656 9.17359 117.599 9.08583C117.546 8.99181 117.424 8.92599 117.308 8.92599H117.16C117.007 8.92599 116.844 9.04509 116.844 9.21748V12.7561C116.844 12.9473 117.013 13.0977 117.229 13.0977H117.367C117.58 13.0977 117.753 12.9442 117.753 12.7561V10.1202C117.753 9.84434 117.96 9.67195 118.292 9.67195H119.9C120.122 9.67195 120.285 9.53404 120.285 9.34598V9.25195C120.285 9.06076 120.122 8.92285 119.9 8.92285Z" fill="white"/>
</svg>
