<svg width="83" height="35" viewBox="0 0 83 35" fill="none" xmlns="http://www.w3.org/2000/svg">
<path d="M14.558 2H3L7.02065 9.21573C7.67468 10.1968 8.47881 10.6042 9.95305 10.6042H12.7246L10.3605 6.12251H14.0219C17.0133 6.12251 19.297 7.73077 19.801 10.6042H24.942C24.2237 5.70972 19.7045 2 14.558 2Z" fill="white"/>
<path d="M19.801 12.1104C19.2971 14.9891 17.0133 16.5974 14.022 16.5974H10.3605L12.7246 12.1104H9.96914C8.4949 12.1104 7.69077 12.5178 7.03675 13.5042L3.00002 20.7199H14.558C19.7045 20.7199 24.2076 17.0048 24.942 12.1104H19.801Z" fill="white"/>
<path d="M28.7322 4.73438C26.888 4.73438 25.7086 5.67253 25.7086 7.37728V7.76863H31.9058V18.4207H36.4036V7.76863H42.6168V4.73438H28.7322Z" fill="white"/>
<path d="M75.7256 4.73438H66.4459C65.418 4.73437 64.4321 5.14273 63.7052 5.8696C62.9784 6.59648 62.57 7.58233 62.57 8.61028V14.5448C62.57 15.5727 62.9784 16.5586 63.7052 17.2854C64.4321 18.0123 65.418 18.4207 66.4459 18.4207H75.7202C76.229 18.4214 76.7328 18.3218 77.2031 18.1276C77.6733 17.9334 78.1006 17.6484 78.4606 17.2889C78.8206 16.9294 79.1061 16.5025 79.301 16.0326C79.4958 15.5626 79.5961 15.0589 79.5961 14.5501V8.61028C79.5961 7.58326 79.1885 6.59822 78.4628 5.8715C77.7371 5.14478 76.7526 4.7358 75.7256 4.73438V4.73438ZM68.022 7.76863H74.1495C74.4031 7.77004 74.6458 7.87177 74.8246 8.05157C75.0034 8.23138 75.1037 8.47465 75.1037 8.72822V14.4322C75.1059 14.5588 75.0827 14.6847 75.0357 14.8023C74.9888 14.9199 74.9188 15.027 74.83 15.1174C74.7412 15.2077 74.6352 15.2794 74.5184 15.3284C74.4016 15.3773 74.2762 15.4025 74.1495 15.4025H68.022C67.7689 15.4025 67.5262 15.302 67.3473 15.123C67.1683 14.9441 67.0678 14.7013 67.0678 14.4483V8.72822C67.0671 8.60246 67.0912 8.4778 67.1389 8.36141C67.1865 8.24501 67.2567 8.13919 67.3454 8.05001C67.434 7.96083 67.5395 7.89006 67.6556 7.84177C67.7717 7.79348 67.8962 7.76862 68.022 7.76863V7.76863Z" fill="white"/>
<path d="M56.8445 14.0623H57.3806C57.8251 14.0824 58.269 14.013 58.6862 13.8583C59.1033 13.7036 59.4852 13.4667 59.8091 13.1617C60.1403 12.8015 60.3967 12.379 60.5633 11.9189C60.7298 11.4587 60.8033 10.9701 60.7794 10.4813V8.61034C60.7794 8.10135 60.6792 7.59734 60.4844 7.1271C60.2896 6.65685 60.0041 6.22957 59.6442 5.86966C59.2843 5.50975 58.857 5.22425 58.3867 5.02947C57.9165 4.83469 57.4125 4.73443 56.9035 4.73443H47.6399C47.1291 4.73161 46.6228 4.82978 46.1501 5.02329C45.6774 5.21681 45.2476 5.50186 44.8854 5.86205C44.5232 6.22224 44.2358 6.65048 44.0396 7.12213C43.8435 7.59378 43.7426 8.09954 43.7426 8.61034V18.4207H48.2189V7.76869H54.2499C54.8388 7.69712 55.4322 7.86087 55.901 8.22436C56.034 8.37465 56.1346 8.55078 56.1964 8.74173C56.2582 8.93268 56.2799 9.13433 56.2602 9.33406V9.77365C56.2824 9.976 56.263 10.1808 56.2031 10.3753C56.1431 10.5698 56.044 10.75 55.9117 10.9048C55.4663 11.2473 54.9042 11.4013 54.3464 11.3337H50.256C49.9076 11.3337 49.6234 11.3765 49.5537 11.5159C49.4841 11.6553 49.6502 11.8858 49.9129 12.1432L56.4532 18.4207H61.5353L56.8445 14.0623Z" fill="white"/>
<path d="M38.3119 29.549C36.3123 28.8039 35.862 27.4422 35.862 25.9894V24.2793H34.3449V26.0484C34.4006 26.8245 34.1875 27.5961 33.7413 28.2336C33.2952 28.8711 32.6432 29.3356 31.895 29.549L32.6026 30.4121C33.5959 30.0988 34.4683 29.4866 35.1008 28.6591C35.7352 29.487 36.6094 30.0991 37.6043 30.4121L38.3119 29.549Z" fill="white"/>
<path d="M18.6484 33.0502V29.4262H22.401V28.3165H20.9268C21.1204 27.7164 21.2287 27.092 21.2485 26.4616V26.4616V24.2744H14.5688V25.3841H19.7313V26.2097C19.7478 26.9179 19.6776 27.6254 19.5223 28.3165H13.3787V29.4262H17.1313V33.0502H18.6484Z" fill="white"/>
<path d="M60.6346 31.2055H56.9677V29.2059H59.5195V28.0909H54.2551V25.4104H59.5195V24.2793H52.5021V24.5152C52.5021 24.5152 52.738 24.6546 52.738 25.2389V28.5519C52.735 28.6386 52.7499 28.725 52.7817 28.8057C52.8135 28.8864 52.8616 28.9597 52.9229 29.021C52.9843 29.0824 53.0576 29.1304 53.1383 29.1622C53.219 29.1941 53.3054 29.2089 53.392 29.2059H55.4774V31.2055H51.6176V32.3206H60.6346V31.2055Z" fill="white"/>
<path d="M31.8307 31.2055H28.196V29.2059H30.7157V28.0909H25.4513V25.4104H30.7157V24.2793H23.6929V24.5152C23.6929 24.5152 23.9342 24.6546 23.9342 25.2389V28.5519C23.9341 28.7188 24.0001 28.8788 24.1175 28.9973C24.235 29.1158 24.3945 29.1831 24.5614 29.1845H26.6521V31.1841H22.8352V32.2992H31.8307V31.2055Z" fill="white"/>
<path d="M47.1521 28.4509L47.8598 27.577C46.5249 27.1964 45.887 26.6067 45.6618 25.5882H47.3934V24.4677H45.5814V23.6797H44.0643V24.4677H42.2202V25.5882H43.9839C43.7748 26.6121 43.1154 27.1964 41.7859 27.5824L42.4936 28.4562C43.3887 28.2359 44.1973 27.7522 44.8148 27.0678C45.4378 27.7525 46.2521 28.2344 47.1521 28.4509V28.4509Z" fill="white"/>
<path d="M65.556 29.1436C64.1193 29.1436 62.956 30.071 62.956 31.2182C62.956 32.3654 64.1193 33.2929 65.556 33.2929C66.9927 33.2929 68.156 32.3654 68.156 31.2182C68.156 30.071 66.9927 29.1436 65.556 29.1436ZM65.556 32.1832C65.3695 32.1635 65.1927 32.0901 65.0469 31.972C64.9012 31.854 64.7928 31.6962 64.7349 31.5177C64.677 31.3393 64.6721 31.148 64.7207 30.9668C64.7693 30.7857 64.8693 30.6225 65.0088 30.497C65.1482 30.3715 65.321 30.2891 65.5062 30.2598C65.6915 30.2305 65.8813 30.2555 66.0526 30.3318C66.224 30.4081 66.3695 30.5325 66.4717 30.6898C66.5738 30.8471 66.6282 31.0306 66.6282 31.2182C66.6213 31.352 66.5881 31.4832 66.5305 31.6042C66.4729 31.7251 66.3919 31.8335 66.2923 31.9232C66.1927 32.0128 66.0764 32.0819 65.9501 32.1265C65.8237 32.1712 65.6898 32.1904 65.556 32.1832V32.1832Z" fill="white"/>
<path d="M70.0644 27.8067H68.4562C68.6838 27.2363 68.8091 26.6302 68.8261 26.0162V26.0162V24.2793H62.2108V25.389H67.3304V26.0109C67.3245 26.6182 67.238 27.2221 67.0731 27.8067H65.8294V26.1985H64.0764V26.4558C64.0764 26.4558 64.3176 26.6006 64.3176 27.1849V27.8175H61.0475V28.9325H70.0644V27.8067Z" fill="white"/>
<path d="M78.5882 26.6602V23.8779H76.8298V24.1353C76.8298 24.1353 77.0711 24.28 77.0711 24.8643V33.0504H78.5882V27.7324H79.8963V26.6602H78.5882Z" fill="white"/>
<path d="M74.0583 25.9894V24.2793H72.5412V26.043C72.5981 26.82 72.3856 27.5929 71.9394 28.2315C71.4931 28.8701 70.8405 29.3354 70.0912 29.549L70.7989 30.4121C71.7938 30.0991 72.668 29.487 73.3024 28.6591C73.9359 29.4856 74.8079 30.0975 75.8006 30.4121L76.5082 29.549C74.5086 28.8039 74.0583 27.4422 74.0583 25.9894Z" fill="white"/>
<path d="M8.89692 33.0504H10.3175V27.7324H10.934V33.0933H12.36V23.8779H10.6928V24.1353C10.6928 24.1353 10.934 24.28 10.934 24.8643V26.6066H10.3283V23.8779H8.67176V24.1353C8.67176 24.1353 8.8862 24.2693 8.90764 24.7839V28.9868C8.23153 29.2068 7.5221 29.3066 6.81154 29.2817H5.87875V25.6256H8.0231V24.5159H4.12575V24.7732C4.12575 24.7732 4.36163 24.9179 4.36163 25.5023V29.791C4.36444 29.9569 4.43232 30.115 4.55065 30.2314C4.66898 30.3477 4.82828 30.4129 4.99421 30.4128H6.8169C7.52557 30.4352 8.2328 30.3354 8.90764 30.118L8.89692 33.0504Z" fill="white"/>
<path d="M48.6799 24.8643V25.8775H47.1949V26.9926H48.6799V28.5472H50.1756V23.8779H48.444V24.1353C48.444 24.1353 48.6799 24.28 48.6799 24.8643Z" fill="white"/>
<path d="M50.1757 31.4861V28.8057H43.3513V29.8778H48.68V30.4139H43.3513V30.6712C43.3513 30.6712 43.5925 30.8106 43.5925 31.395V32.435C43.5918 32.5178 43.6075 32.5999 43.6387 32.6766C43.6699 32.7534 43.716 32.8231 43.7743 32.882C43.8326 32.9408 43.902 32.9874 43.9785 33.0193C44.0549 33.0512 44.1369 33.0676 44.2197 33.0676H50.1757V31.9954H45.0828V31.4861H50.1757Z" fill="white"/>
<path d="M38.9875 24.8643V33.0504H40.5261V23.8779H38.7463V24.1353C38.7463 24.1353 38.9875 24.28 38.9875 24.8643Z" fill="white"/>
</svg>
