<svg width="135" height="32" viewBox="0 0 135 32" fill="none" xmlns="http://www.w3.org/2000/svg">
<path d="M10.1375 5.00252C12.6737 2.84007 15.9811 1.53464 19.6029 1.50474C22.616 1.47485 25.4262 2.34182 27.7697 3.85652C24.8986 1.45492 21.2058 0 17.1477 0C8.12872 0 0.814087 7.18489 0.814087 16.0439C0.814087 18.4455 1.35178 20.7276 2.30542 22.7704C4.50691 27.464 9.34614 30.7226 14.9463 30.7226C20.5667 30.7226 25.3653 27.3145 27.3436 22.4914C27.6987 21.5945 27.9016 20.6279 27.9016 19.6015C27.9016 16.4625 25.3044 13.9114 22.0986 13.9114C20.0391 13.9114 18.2231 14.9677 17.1985 16.5522C16.1738 18.1466 14.368 19.1929 12.3085 19.1929C10.178 19.1929 8.29105 18.0669 7.2461 16.2731C6.85044 15.6055 6.62725 14.878 6.52579 14.031C6.49536 13.6822 6.46492 13.3135 6.46492 12.9149C6.43449 9.77584 7.86495 6.9258 10.1375 5.00252Z" fill="white"/>
<path d="M19.7652 2.33301C26.7349 2.33301 33.4814 7.66437 33.4814 16.0252C33.4814 22.9808 28.9769 28.9301 22.6768 31.1523C27.5769 28.7606 30.935 23.798 30.935 18.068C30.935 10.7635 24.9088 4.84423 17.4724 4.84423C14.2462 4.84423 11.3143 6.03009 9.08235 7.96333C8.81857 8.18256 8.57509 8.42173 8.3519 8.68082C8.95046 7.46507 9.8128 6.38883 10.8577 5.52186C13.2621 3.52883 16.3666 2.33301 19.7652 2.33301Z" fill="white"/>
<path d="M44.8239 9.59473L48.8277 15.9097L47.5481 16.7159L44.8271 12.3146L42.1505 16.832L40.8392 16.0132L44.8239 9.59473ZM43.2649 17.9519V20.8286H51.9996V22.2371H41.6488V17.9519H43.2649ZM51.663 17.8797H50.0628V9.66688H51.663V12.6157H53.5268V14.1843H51.663V17.8797Z" fill="white"/>
<path d="M61.5185 12.8762C61.5185 13.2997 61.4328 13.695 61.255 14.062C61.0804 14.4322 60.8486 14.7553 60.5565 15.0314C60.2548 15.3106 59.9056 15.5302 59.5087 15.6933C59.1118 15.8564 58.6895 15.938 58.2418 15.938C57.7941 15.938 57.375 15.8564 56.975 15.6933C56.5781 15.5302 56.2288 15.3106 55.9272 15.0314C55.6351 14.7553 55.4033 14.4291 55.2287 14.062C55.0541 13.6919 54.9651 13.2966 54.9651 12.8762C54.9651 12.4558 55.0541 12.0574 55.2287 11.681C55.4033 11.3077 55.6351 10.9877 55.9272 10.7179C56.2288 10.4293 56.5781 10.2066 56.975 10.0403C57.3719 9.87718 57.7941 9.79561 58.2418 9.79561C58.6895 9.79561 59.1118 9.87718 59.5087 10.0403C59.9056 10.2034 60.2548 10.4293 60.5565 10.7179C60.8486 10.9877 61.0804 11.3077 61.255 11.681C61.4328 12.0543 61.5185 12.4527 61.5185 12.8762ZM55.9145 16.6564H57.502V17.9206H64.5349V16.6564H66.1224V22.2372H55.9177V16.6564H55.9145ZM59.9754 12.8762C59.9754 12.4057 59.804 12.0041 59.4642 11.6684C59.1245 11.3328 58.7181 11.1665 58.2418 11.1665C57.7656 11.1665 57.3623 11.3359 57.0258 11.6684C56.6924 12.0041 56.5241 12.4057 56.5241 12.8762C56.5241 13.3468 56.6924 13.7452 57.0258 14.0777C57.3592 14.4071 57.7656 14.5734 58.2418 14.5734C58.7181 14.5734 59.1245 14.4071 59.4642 14.0777C59.8072 13.7452 59.9754 13.3468 59.9754 12.8762ZM64.5317 19.1755H57.4989V20.9448H64.5317V19.1755ZM64.5031 9.66699H66.1192V15.7655H64.5031V13.3499H62.306V11.9539H64.5031V9.66699Z" fill="white"/>
<path d="M80.2674 17.0007H68.3322V15.6926H73.5013V14.8581H69.2943V9.81055H79.2958V11.1187H70.8691V11.7524H79.2958V12.9445H70.8691V13.5907H79.3275V14.8581H75.092V15.6926H80.2737V17.0007H80.2674ZM77.4892 20.1503C77.4892 20.5519 77.4034 20.9315 77.2352 21.286C77.0637 21.6404 76.8383 21.9479 76.5589 22.2051C76.2668 22.4749 75.9334 22.6882 75.5555 22.8451C75.1777 23.0019 74.7681 23.0835 74.3331 23.0835C73.8981 23.0835 73.4854 23.0051 73.1044 22.8451C72.7202 22.6882 72.3836 22.4749 72.0915 22.2051C71.8089 21.9447 71.5835 21.6404 71.4152 21.286C71.2438 20.9315 71.1612 20.5519 71.1612 20.1503C71.1612 19.7488 71.2469 19.3723 71.4152 19.021C71.5835 18.6696 71.8089 18.3653 72.0915 18.1081C72.3836 17.8383 72.7202 17.625 73.1044 17.4681C73.4886 17.3113 73.8981 17.2297 74.3331 17.2297C74.7681 17.2297 75.1777 17.3081 75.5555 17.4681C75.9334 17.625 76.2699 17.8383 76.5589 18.1081C76.8415 18.3685 77.0669 18.6696 77.2352 19.021C77.4034 19.3723 77.4892 19.7488 77.4892 20.1503ZM75.9302 20.1378C75.9302 19.7049 75.7746 19.3347 75.4635 19.0241C75.1523 18.7136 74.7745 18.5567 74.3268 18.5567C73.8791 18.5567 73.4981 18.7136 73.1837 19.0241C72.8662 19.3347 72.7107 19.708 72.7107 20.1378C72.7107 20.5707 72.8694 20.9377 73.1837 21.2452C73.4981 21.5526 73.8791 21.7063 74.3268 21.7063C74.7745 21.7063 75.1523 21.5526 75.4635 21.2452C75.7746 20.9377 75.9302 20.5676 75.9302 20.1378Z" fill="white"/>
<path d="M88.0686 16.0096L85.3603 12.1133L82.6678 16.1131L81.3723 15.2661L85.3603 9.5127L89.364 15.1375L88.0686 16.0096ZM91.6501 19.7646C91.6501 20.1976 91.5612 20.6022 91.3802 20.9787C91.1992 21.3583 90.9643 21.6908 90.6722 21.9794C90.361 22.268 90.0022 22.4939 89.5895 22.6633C89.1767 22.8296 88.7417 22.9143 88.2845 22.9143C87.8305 22.9143 87.3923 22.8296 86.9732 22.6633C86.5541 22.4939 86.1921 22.268 85.881 21.9794C85.5793 21.6908 85.3412 21.3583 85.1602 20.9787C84.9792 20.5991 84.8903 20.1944 84.8903 19.7646C84.8903 19.3349 84.9792 18.927 85.1602 18.5506C85.338 18.171 85.5793 17.8385 85.881 17.5499C86.1921 17.2613 86.5541 17.0354 86.9732 16.866C87.3891 16.6997 87.8273 16.615 88.2845 16.615C88.7417 16.615 89.1735 16.6997 89.5895 16.866C90.0022 17.0323 90.3642 17.2613 90.6722 17.5499C90.9643 17.8385 91.1992 18.171 91.3802 18.5506C91.558 18.927 91.6501 19.3317 91.6501 19.7646ZM90.0753 19.749C90.0753 19.269 89.8975 18.858 89.5355 18.513C89.1767 18.1679 88.7544 17.9953 88.2686 17.9953C87.7828 17.9953 87.3637 18.1679 87.0113 18.513C86.6557 18.858 86.4811 19.2721 86.4811 19.749C86.4811 20.2383 86.6589 20.6524 87.0113 20.9944C87.3669 21.3332 87.786 21.5057 88.2686 21.5057C88.7544 21.5057 89.1767 21.3363 89.5355 20.9944C89.8975 20.6524 90.0753 20.2383 90.0753 19.749ZM92.3042 11.9533H94.1679V13.5219H92.3042V16.2417H90.7039V9.66641H92.3042V11.9533Z" fill="white"/>
<path d="M95.1713 11.8692V10.4607H102.915V11.8692H99.6545L103.265 20.2546L101.852 20.8601L99.0703 14.3004L96.3333 20.9605L94.8792 20.3581L98.4892 11.8724H95.1713V11.8692ZM105.9 22.4976H104.3V9.66699H105.9V14.6424H107.764V16.2392H105.9V22.4976Z" fill="white"/>
<path d="M113.965 17.0605V18.7859H112.364V17.0605H108.827V15.7366H117.489V17.0605H113.965ZM111.256 18.1804V20.8563H120.531V22.2367H109.643V18.1804H111.256ZM116.162 12.3863C116.162 12.7784 116.076 13.1517 115.908 13.4999C115.736 13.8513 115.511 14.1587 115.228 14.4285C114.946 14.6889 114.619 14.8928 114.238 15.0465C113.86 15.2002 113.457 15.2755 113.028 15.2755C112.602 15.2755 112.199 15.2002 111.818 15.0465C111.44 14.8928 111.104 14.6857 110.815 14.4285C110.542 14.1587 110.323 13.8513 110.154 13.4999C109.983 13.1486 109.897 12.7784 109.897 12.3863C109.897 11.9941 109.983 11.6239 110.154 11.2789C110.323 10.9338 110.545 10.6264 110.815 10.3597C111.107 10.0899 111.44 9.88287 111.818 9.73543C112.196 9.58799 112.599 9.5127 113.028 9.5127C113.453 9.5127 113.857 9.58799 114.238 9.73543C114.615 9.88287 114.946 10.0931 115.228 10.3597C115.511 10.6295 115.736 10.9338 115.908 11.2789C116.076 11.6239 116.162 11.991 116.162 12.3863ZM114.635 12.3988C114.635 11.9659 114.479 11.602 114.168 11.2977C113.857 10.9965 113.479 10.846 113.031 10.846C112.583 10.846 112.206 10.9965 111.894 11.2977C111.583 11.5988 111.428 11.9659 111.428 12.3988C111.428 12.8317 111.583 13.1956 111.894 13.4999C112.206 13.8011 112.583 13.9517 113.031 13.9517C113.479 13.9517 113.857 13.8011 114.168 13.4999C114.479 13.1988 114.635 12.8317 114.635 12.3988ZM118.578 14.6136H116.73V13.3054H118.578V9.66641H120.178V18.9302H118.578V14.6136Z" fill="white"/>
<path d="M122.566 17.771H134.501V19.1796H129.332V22.486H127.716V19.1796H122.563V17.771H122.566ZM125.116 11.5H131.942V9.875H133.542V16.0456H123.528V9.875H125.116V11.5ZM131.942 12.8803H125.116V14.6496H131.942V12.8803Z" fill="white"/>
</svg>
