<svg width="76" height="35" viewBox="0 0 76 35" fill="none" xmlns="http://www.w3.org/2000/svg">
<path d="M73.3881 6H67.8842V20.0909H73.3881V6Z" fill="white"/>
<path d="M23.2209 6V8.96427H29.6551V20.0909H35.1694V8.96427H41.6089V6H23.2209Z" fill="white"/>
<path d="M19.9646 8.96427V6H2V17.3933C2 18.8807 3.18126 20.0856 4.63955 20.0856H19.9646V17.1213H7.51953V14.5303H19.9698V11.566H7.51953V8.96427H19.9646Z" fill="white"/>
<path d="M58.1989 13.5205H51.7019L59.1502 21.0378H65.6471L58.1989 13.5205Z" fill="white"/>
<path d="M61.0789 6.00293H44.3739V20.0939H49.8935V8.9672H58.2041V13.5202H63.7237V8.68997C63.7184 7.20783 62.5372 6.00293 61.0789 6.00293Z" fill="white"/>
<path d="M4.90598 27.0438C4.75963 27.1291 4.56101 27.1718 4.31012 27.1718C4.05923 27.1718 3.86061 27.1291 3.70903 27.0438C3.56268 26.9585 3.48951 26.8412 3.48951 26.6973C3.48951 26.548 3.56268 26.4307 3.70903 26.3508C3.85539 26.2655 4.054 26.2228 4.31012 26.2228C4.55578 26.2228 4.7544 26.2655 4.90075 26.3508C5.0471 26.4361 5.12028 26.5533 5.12028 26.6973C5.12028 26.8466 5.0471 26.9639 4.90598 27.0438ZM5.2614 23.5518H3.33793V24.2342H5.2614V23.5518ZM6.12383 24.5861H2.47028V25.2738H6.12383V24.5861V24.5861ZM8.19888 25.4551H7.39395V23.5944H6.63083V28.3714H7.39395V26.2388H8.19888V25.4551ZM5.50184 25.8923C5.20913 25.6683 4.81189 25.5564 4.30489 25.5564C3.82402 25.5564 3.43201 25.6683 3.12363 25.8869C2.81525 26.1108 2.65844 26.3827 2.65844 26.7026C2.65844 26.9959 2.81002 27.2624 3.1184 27.4917C3.42679 27.7209 3.8188 27.8382 4.29967 27.8382C4.80667 27.8382 5.20913 27.7263 5.50184 27.497C5.79454 27.2731 5.94089 27.0065 5.94089 26.7026C5.93566 26.3881 5.78931 26.1215 5.50184 25.8923ZM7.59257 29.2137H4.14286V28.1528H3.33793V29.9601H7.59257V29.2137V29.2137Z" fill="white"/>
<path d="M16.238 26.883H13.6454V27.9653H15.5166V30.1139H14.764V28.7224H11.1418V27.9653H12.851V26.883H10.4937V26.1366H14.5183C14.5601 25.9287 14.6072 25.6835 14.6594 25.4009C14.7117 25.1183 14.7431 24.8411 14.764 24.5745H11.1313V23.8281H15.6421C15.6421 23.9454 15.6264 24.1373 15.5898 24.3986C15.5585 24.6598 15.5219 24.8784 15.4957 25.0597C15.4539 25.3049 15.4173 25.5075 15.386 25.6728C15.3546 25.8327 15.3233 25.9927 15.2919 26.142H16.2432V26.883H16.238Z" fill="white"/>
<path d="M24.0938 28.3024H23.3411V25.8659H22.186V25.0822H23.3411V23.5947H24.0938V28.3024ZM24.214 29.9604H19.8862V27.8332H20.6388V29.2087H24.2088V29.9604H24.214ZM20.3148 24.725H19.2119V23.9626H22.233V24.725H21.1197V24.821C21.1197 25.0822 21.1668 25.3168 21.2608 25.53C21.3549 25.7433 21.4856 25.9246 21.6476 26.0792C21.8149 26.2338 21.956 26.3511 22.0814 26.4257C22.2069 26.5057 22.348 26.575 22.51 26.6336L22.0553 27.3001C21.9508 27.2574 21.841 27.2041 21.726 27.1348C21.6163 27.0708 21.4804 26.9748 21.3183 26.8469C21.1929 26.7509 21.0831 26.6443 20.989 26.5377C20.895 26.431 20.8061 26.3191 20.7172 26.2071C20.6545 26.3297 20.5761 26.4524 20.4768 26.5803C20.3775 26.7083 20.2625 26.8309 20.1214 26.9535C19.9646 27.0921 19.8182 27.2041 19.6823 27.2894C19.5464 27.3747 19.421 27.444 19.306 27.5027L18.7676 26.8576C18.9297 26.7776 19.0969 26.6816 19.2694 26.5697C19.4367 26.4577 19.6196 26.3084 19.8078 26.1272C19.9594 25.9725 20.0796 25.7859 20.1684 25.5567C20.2625 25.3274 20.3043 25.0822 20.3043 24.8156V24.725H20.3148Z" fill="white"/>
<path d="M28.4215 25.006H27.1671V24.2596H30.4913V25.006H29.2264V25.278C29.2264 25.4592 29.2578 25.7418 29.3205 26.1256C29.3832 26.5095 29.5139 26.8507 29.7125 27.1599C29.8902 27.4265 30.0784 27.6451 30.2718 27.8104C30.4652 27.981 30.6063 28.0929 30.7004 28.1516L30.2143 28.7967C30.1568 28.7594 30.047 28.6794 29.885 28.5568C29.723 28.4342 29.561 28.2742 29.3937 28.0716C29.2682 27.9117 29.1585 27.7571 29.0696 27.5971C28.9808 27.4372 28.9024 27.2826 28.8344 27.128C28.7665 27.3092 28.6828 27.4905 28.5835 27.6611C28.4842 27.8317 28.3588 28.0183 28.202 28.2102C28.0713 28.3755 27.9406 28.5141 27.81 28.6314C27.6793 28.7487 27.5329 28.8713 27.3657 28.994L26.7385 28.4288C26.9946 28.2476 27.2298 28.0396 27.4441 27.8157C27.6584 27.5865 27.8413 27.3412 27.9824 27.0693C28.1445 26.7654 28.2542 26.4349 28.317 26.0777C28.3797 25.7258 28.411 25.4592 28.411 25.2726V25.006H28.4215ZM32.7545 26.9254H31.9392V30.1082H31.1865V23.5879H31.9392V26.1043H32.7545V26.9254Z" fill="white"/>
<path d="M38.8805 29.4068C38.6192 29.4921 38.2847 29.5347 37.8665 29.5347C37.4431 29.5347 37.1086 29.4867 36.8577 29.3961C36.6068 29.3055 36.4814 29.1882 36.4814 29.0442C36.4814 28.8896 36.6068 28.783 36.863 28.7137C37.1191 28.6444 37.4536 28.6124 37.877 28.6124C38.2951 28.6124 38.6296 28.6497 38.8857 28.7243C39.1419 28.799 39.2725 28.9109 39.2725 29.0602C39.2673 29.2095 39.1419 29.3215 38.8805 29.4068ZM39.5966 28.2552C39.1941 28.0419 38.6192 27.9353 37.8665 27.9353C37.1138 27.9353 36.5389 28.0366 36.1417 28.2445C35.7496 28.4471 35.551 28.719 35.551 29.0549C35.551 29.3854 35.7496 29.6573 36.1521 29.8759C36.5546 30.0945 37.1243 30.2012 37.8665 30.2012C38.6192 30.2012 39.1941 30.0999 39.5966 29.8919C39.9991 29.684 40.1977 29.4174 40.1977 29.0869C40.1977 28.7457 39.9991 28.4684 39.5966 28.2552ZM40.7413 26.9117H38.2951V26.4318H40.1088V25.7601H36.4971V25.3815H40.02V24.7578H36.4971V24.3792H40.0356V23.7021H35.7131V26.4265H37.4431V26.9063H34.997V27.6154H40.7465V26.9117H40.7413Z" fill="white"/>
<path d="M48.4926 28.3024H47.7347V23.5947H48.4978V28.3024H48.4926ZM48.6233 29.9604H44.3111V27.9238H45.0795V29.214H48.6233V29.9604ZM47.0866 26.7029L46.6423 27.3534C46.5378 27.3107 46.3914 27.2308 46.2137 27.1188C46.036 27.0068 45.8687 26.8736 45.7119 26.7243C45.6074 26.623 45.5081 26.5163 45.4192 26.4044C45.3304 26.2978 45.2415 26.1698 45.1631 26.0312C45.0951 26.1645 45.0115 26.2978 44.9174 26.4364C44.8233 26.5697 44.7031 26.7136 44.562 26.8629C44.4104 27.0228 44.2589 27.1561 44.102 27.2734C43.9452 27.3907 43.8041 27.4813 43.6839 27.5506L43.156 26.9429C43.3442 26.8362 43.5376 26.6976 43.7414 26.5377C43.94 26.3777 44.123 26.1858 44.2902 25.9619C44.4784 25.7166 44.6038 25.4661 44.6665 25.2101C44.7293 24.9542 44.7606 24.693 44.7606 24.4211V23.76H45.5656V24.4211C45.5656 24.6823 45.6021 24.9382 45.6701 25.1888C45.738 25.4394 45.853 25.6633 46.0151 25.8659C46.1771 26.0685 46.36 26.2391 46.5534 26.3777C46.7468 26.527 46.9245 26.6336 47.0866 26.7029Z" fill="white"/>
<path d="M53.8241 24.8155C53.9652 24.9968 54.0332 25.2154 54.0332 25.466C54.0332 25.7112 53.9652 25.9298 53.8241 26.1111C53.683 26.2923 53.4791 26.383 53.2073 26.383C52.9408 26.383 52.7369 26.2923 52.5958 26.1111C52.4547 25.9298 52.3815 25.7112 52.3815 25.466C52.3815 25.2154 52.4547 24.9968 52.5958 24.8155C52.7369 24.6343 52.9408 24.5383 53.2073 24.5383C53.4791 24.5383 53.683 24.6289 53.8241 24.8155ZM53.9391 23.9625C53.7196 23.8452 53.4791 23.7866 53.2073 23.7866C52.7421 23.7866 52.3606 23.9519 52.0574 24.2771C51.7543 24.6076 51.6027 24.9968 51.6027 25.4553C51.6027 25.9138 51.7543 26.3083 52.0574 26.6336C52.3606 26.9588 52.7421 27.124 53.2073 27.124C53.4843 27.124 53.73 27.0654 53.9495 26.9428C54.1691 26.8202 54.352 26.6602 54.4984 26.463H55.8939V28.2916H56.6518V23.584H55.8939V24.421H54.4774C54.3363 24.2344 54.1586 24.0798 53.9391 23.9625ZM54.8067 25.6099C54.8067 25.5619 54.812 25.514 54.812 25.466C54.812 25.4127 54.812 25.3593 54.8067 25.3114C54.8015 25.2634 54.7963 25.2101 54.7911 25.1621H55.8939V25.7485H54.7963C54.8015 25.7006 54.8015 25.6579 54.8067 25.6099ZM56.7773 29.214H53.2178V27.8758H52.4338V29.9657H56.7773V29.214Z" fill="white"/>
<path d="M65.2445 27.3937H62.6258V30.1127H61.847V27.3937H59.495V26.6473H63.4674C63.5196 26.4714 63.5823 26.1835 63.6451 25.7889C63.713 25.3944 63.7548 25.0265 63.7705 24.68H60.1379V23.9336H64.6382C64.6382 24.0456 64.6173 24.2695 64.5807 24.6107C64.5441 24.9519 64.5023 25.2451 64.4657 25.4797C64.4343 25.7196 64.3925 25.9489 64.3402 26.1675C64.2932 26.3807 64.2566 26.546 64.2409 26.6526H65.2445V27.3937Z" fill="white"/>
<path d="M70.4922 24.323C70.6177 24.4563 70.6752 24.5789 70.6752 24.6909C70.6752 24.7975 70.6125 24.9095 70.4922 25.0374C70.372 25.1654 70.1682 25.224 69.8807 25.224C69.6089 25.224 69.4103 25.16 69.2848 25.0374C69.1594 24.9095 69.0967 24.7975 69.0967 24.6909C69.0967 24.5789 69.1594 24.4563 69.2796 24.323C69.3998 24.1897 69.6037 24.1257 69.8807 24.1257C70.1682 24.1257 70.3668 24.195 70.4922 24.323ZM73.0429 23.5873H72.2903V27.2713H70.947V27.9804H72.2903V28.5082H73.0429V23.5873ZM72.0917 26.045C71.9505 26.0824 71.6212 26.1197 71.0933 26.1677C70.5706 26.2157 70.1473 26.237 69.8284 26.237H67.8684V26.9994H69.2117V28.0976H70.0009V26.994C70.1995 26.994 70.5393 26.9727 71.0149 26.9301C71.4906 26.8874 71.8512 26.8448 72.0917 26.7914V26.045ZM73.1736 29.2066H69.6246V28.3536H68.8249V29.953H73.1736V29.2066ZM68.736 23.8432C68.4695 24.0884 68.3388 24.371 68.3388 24.6909C68.3388 25.0161 68.4695 25.304 68.7308 25.5439C68.9921 25.7838 69.3789 25.9064 69.8859 25.9064C70.3877 25.9064 70.7745 25.7891 71.0306 25.5492C71.2919 25.3093 71.4226 25.0267 71.4226 24.6962C71.4226 24.3763 71.2972 24.0937 71.0411 23.8485C70.7849 23.6033 70.3982 23.4806 69.8807 23.4806C69.3789 23.4753 68.9974 23.5979 68.736 23.8432Z" fill="white"/>
</svg>
