<svg width="108" height="32" viewBox="0 0 108 32" fill="none" xmlns="http://www.w3.org/2000/svg">
<path d="M9.97705 5.00252C12.4744 2.84007 15.731 1.53464 19.2972 1.50474C22.2641 1.47485 25.0311 2.34182 27.3387 3.85652C24.5117 1.45492 20.8755 0 16.8797 0C7.99914 0 0.796753 7.18489 0.796753 16.0439C0.796753 18.4455 1.32619 20.7276 2.2652 22.7704C4.43291 27.464 9.19787 30.7226 14.712 30.7226C20.2462 30.7226 24.9712 27.3145 26.9191 22.4914C27.2688 21.5945 27.4686 20.6279 27.4686 19.6015C27.4686 16.4625 24.9113 13.9114 21.7546 13.9114C19.7267 13.9114 17.9386 14.9677 16.9297 16.5522C15.9208 18.1466 14.1426 19.1929 12.1148 19.1929C10.017 19.1929 8.15897 18.0669 7.13006 16.2731C6.74047 15.6055 6.5207 14.878 6.42081 14.031C6.39084 13.6822 6.36087 13.3135 6.36087 12.9149C6.3309 9.77584 7.73941 6.9258 9.97705 5.00252Z" fill="white"/>
<path d="M19.4571 2.33301C26.3198 2.33301 32.9628 7.66437 32.9628 16.0252C32.9628 22.9808 28.5275 28.9301 22.324 31.1523C27.1489 28.7606 30.4554 23.798 30.4554 18.068C30.4554 10.7635 24.5217 4.84423 17.1994 4.84423C14.0228 4.84423 11.1359 6.03009 8.93818 7.96333C8.67845 8.18256 8.43871 8.42173 8.21894 8.68082C8.80832 7.46507 9.65742 6.38883 10.6863 5.52186C13.0538 3.52883 16.1106 2.33301 19.4571 2.33301Z" fill="white"/>
<path d="M52.2053 18.0561V22.5852H50.5801V19.4683H41.9805V18.0561H46.3603V16.1478H41.1583V14.7357H53.1714V16.1478H47.9727V18.0561H52.2053ZM52.2053 9.82812V13.702H50.5801V11.2562H42.1277V9.82812H52.2053Z" fill="white"/>
<path d="M65.9042 17.8241H61.6556V20.1841H66.8576V21.5962H54.8445V20.1841H60.0304V17.8241H55.8106V10.2227H65.8754V11.6348H57.4071V13.3237H65.8754V14.7072H57.4071V16.412H65.9042V17.8241Z" fill="white"/>
<path d="M71.3814 20.1841V16.148H72.9203V20.1841H75.1021V16.148H76.6538V20.1841H80.5344V21.5962H68.5213V20.1841H71.3814ZM77.9463 17.8973V11.6634H69.4939V10.2227H79.5747V17.8973H77.9463Z" fill="white"/>
<path d="M94.0704 16.9943H82.0572V15.6681H87.2592V14.822H83.0266V9.71094H93.0914V11.0372H84.6102V11.6797H93.0914V12.8883H84.6102V13.5435H93.1202V14.8252H88.8556V15.6712H94.0704V16.9943ZM91.2742 20.1844C91.2742 20.5915 91.1879 20.9764 91.0183 21.3358C90.8455 21.6952 90.6184 22.0069 90.3369 22.2677C90.0425 22.538 89.7066 22.7543 89.3259 22.9165C88.9452 23.0755 88.5357 23.1582 88.0942 23.1582C87.6527 23.1582 87.2432 23.0787 86.8561 22.9165C86.469 22.7575 86.1299 22.5412 85.8387 22.2677C85.5572 22.0069 85.3269 21.6952 85.1573 21.3358C84.9845 20.9764 84.9014 20.5947 84.9014 20.1844C84.9014 19.7773 84.9877 19.3956 85.1573 19.0426C85.3269 18.6864 85.554 18.3811 85.8387 18.1171C86.1331 17.8467 86.4722 17.6304 86.8561 17.4682C87.2432 17.3092 87.6527 17.2265 88.0942 17.2265C88.5325 17.2265 88.942 17.306 89.3259 17.4682C89.7066 17.6273 90.0425 17.8435 90.3369 18.1171C90.6184 18.3811 90.8487 18.6864 91.0183 19.0426C91.1879 19.3956 91.2742 19.7741 91.2742 20.1844ZM89.7066 20.1685C89.7066 19.7328 89.5498 19.3543 89.2363 19.0394C88.926 18.7245 88.5421 18.5655 88.0942 18.5655C87.6431 18.5655 87.2624 18.7245 86.9457 19.0394C86.6257 19.3543 86.469 19.7296 86.469 20.1685C86.469 20.6042 86.6289 20.9795 86.9457 21.2912C87.2624 21.6029 87.6463 21.7556 88.0942 21.7556C88.5421 21.7556 88.926 21.5997 89.2363 21.2912C89.5498 20.9795 89.7066 20.6042 89.7066 20.1685Z" fill="white"/>
<path d="M95.6667 17.7693H107.68V19.1973H102.481V22.5464H100.856V19.1973H95.6699V17.7693H95.6667ZM98.2293 11.4209H105.101V9.77662H106.714V16.0232H96.6329V9.77344H98.2293V11.4209V11.4209ZM105.101 12.8172H98.2293V14.6078H105.101V12.8172Z" fill="white"/>
</svg>
