<svg width="136" height="32" viewBox="0 0 136 32" fill="none" xmlns="http://www.w3.org/2000/svg">
<path d="M9.1843 5.00252C11.6793 2.84007 14.9329 1.53464 18.4958 1.50474C21.4599 1.47485 24.2243 2.34182 26.5298 3.85652C23.7054 1.45492 20.0726 0 16.0806 0C7.20824 0 0.0125732 7.18489 0.0125732 16.0439C0.0125732 18.4455 0.54152 20.7276 1.47965 22.7704C3.64534 27.464 8.40585 30.7226 13.9149 30.7226C19.4439 30.7226 24.1645 27.3145 26.1106 22.4914C26.4599 21.5945 26.6595 20.6279 26.6595 19.6015C26.6595 16.4625 24.1046 13.9114 20.9509 13.9114C18.9249 13.9114 17.1385 14.9677 16.1305 16.5522C15.1225 18.1466 13.346 19.1929 11.32 19.1929C9.22422 19.1929 7.36792 18.0669 6.33997 16.2731C5.95074 15.6055 5.73118 14.878 5.63138 14.031C5.60144 13.6822 5.5715 13.3135 5.5715 12.9149C5.54156 9.77584 6.94876 6.9258 9.1843 5.00252Z" fill="white"/>
<path d="M18.6555 2.33301C25.5118 2.33301 32.1486 7.66437 32.1486 16.0252C32.1486 22.9808 27.7174 28.9301 21.5198 31.1523C26.3402 28.7606 29.6436 23.798 29.6436 18.068C29.6436 10.7635 23.7154 4.84423 16.4 4.84423C13.2263 4.84423 10.342 6.03009 8.14639 7.96333C7.88691 8.18256 7.64739 8.42173 7.42783 8.68082C8.01665 7.46507 8.86496 6.38883 9.89292 5.52186C12.2582 3.52883 15.3121 2.33301 18.6555 2.33301Z" fill="white"/>
<path d="M45.7067 17.3357V16.5373H40.4177V15.11H52.6828V16.5373H47.3784V17.3357C47.5323 17.3819 47.7016 17.4282 47.8525 17.4898C48.2496 17.6594 48.6037 17.8721 48.9115 18.1495C49.2194 18.4424 49.4626 18.763 49.6473 19.1329C49.8166 19.5182 49.909 19.9159 49.909 20.3474C49.909 20.7759 49.8166 21.1767 49.6473 21.5435C49.4626 21.9257 49.2163 22.2648 48.9115 22.5392C48.6037 22.8166 48.2527 23.0447 47.8525 23.1989C47.44 23.3684 47.009 23.4455 46.5502 23.4455C46.0915 23.4455 45.6451 23.3684 45.248 23.1989C44.8355 23.0447 44.4814 22.8135 44.189 22.5392C43.8842 22.2648 43.6379 21.9257 43.4686 21.5435C43.2838 21.1736 43.1915 20.7759 43.1915 20.3474C43.1915 19.9159 43.2838 19.5182 43.4686 19.1329C43.6379 18.763 43.8842 18.4424 44.189 18.1495C44.4814 17.8721 44.8324 17.6594 45.248 17.4898C45.4019 17.4282 45.5528 17.3819 45.7067 17.3357ZM51.8239 11.0564H47.3168L52.0702 13.5903L51.319 14.8172L46.5502 12.2679L41.7815 14.8172L41.0303 13.5903L45.7837 11.0564H41.2766V9.64453H51.8239V11.0564V11.0564ZM48.2681 20.3474C48.2681 19.8881 48.0988 19.4874 47.7632 19.1514C47.4092 18.8277 47.012 18.6582 46.5502 18.6582C46.0915 18.6582 45.6913 18.8277 45.3557 19.1514C45.0017 19.4874 44.8355 19.8881 44.8355 20.3474C44.8355 20.8067 45.0048 21.2075 45.3557 21.5281C45.6944 21.8641 46.0915 22.0336 46.5502 22.0336C47.009 22.0336 47.4092 21.8641 47.7632 21.5281C48.0988 21.2044 48.2681 20.8067 48.2681 20.3474Z" fill="white"/>
<path d="M59.385 20.391V16.5531H61.0567V20.391H66.3611V21.8645H54.096V20.391H59.385ZM60.2285 12.2405L55.783 17.8139L54.4962 16.846L60.2316 9.67578L65.9671 16.846L64.6802 17.8139L60.2285 12.2405Z" fill="white"/>
<path d="M74.0915 16.8604H68.3129V9.76731H69.8923V11.6878H72.546V9.76731H74.0945V16.8604H74.0915ZM68.8794 22.588V18.1182H70.5357V21.1114H80.0578V22.5849H68.8794V22.588ZM72.5429 13.115H69.8892V15.4332H72.5429V13.115ZM75.7939 9.48987H77.3579V17.964H75.7939V13.8826H74.3993V12.4245H75.7939V9.48987ZM78.3369 9.47754H79.9316V18.0442H78.3369V9.47754Z" fill="white"/>
<path d="M85.116 10.8901V9.46289H86.8954V10.8901H90.0848V12.3174H86.6953L90.3588 20.5295L88.9796 21.143L86.0057 14.3581L83.0625 21.2509L81.6525 20.622L85.3161 12.3174H81.788V10.8901H85.116V10.8901ZM92.1075 16.2632H89.5307V14.7897H92.1075V9.4783H93.7638V22.8508H92.1075V16.2632Z" fill="white"/>
<path d="M102.445 21.096H100.789V11.7957H95.6694V10.3068H102.445V21.096ZM105.786 9.47754H107.442V22.85H105.786V9.47754Z" fill="white"/>
<path d="M117.226 12.9763C117.226 13.4511 117.133 13.898 116.952 14.2957C116.752 14.7119 116.493 15.0633 116.17 15.3715C115.85 15.6767 115.48 15.9233 115.049 16.0929C114.606 16.2778 114.144 16.3703 113.655 16.3703C113.162 16.3703 112.703 16.2778 112.275 16.0929C111.832 15.9233 111.447 15.6767 111.139 15.3715C110.801 15.0633 110.558 14.7119 110.373 14.2957C110.173 13.898 110.08 13.4511 110.08 12.9763C110.08 12.5139 110.173 12.07 110.373 11.6415C110.558 11.2439 110.801 10.874 111.139 10.5657C111.447 10.2574 111.829 10.0139 112.275 9.82896C112.706 9.65941 113.165 9.56694 113.655 9.56694C114.144 9.56694 114.606 9.65941 115.049 9.82896C115.477 10.0139 115.847 10.2574 116.17 10.5657C116.493 10.874 116.752 11.2408 116.952 11.6415C117.133 12.07 117.226 12.517 117.226 12.9763ZM110.97 16.9375H112.596V18.1952H119.803V16.9375H121.428V22.588H110.97V16.9375ZM115.631 12.9763C115.631 12.44 115.431 11.9776 115.065 11.5799C114.667 11.1946 114.206 10.9973 113.67 10.9973C113.119 10.9973 112.657 11.1976 112.275 11.5799C111.878 11.9806 111.694 12.44 111.694 12.9763C111.694 13.5281 111.878 13.9905 112.275 14.3573C112.66 14.7581 113.119 14.94 113.67 14.94C114.206 14.94 114.667 14.755 115.065 14.3573C115.434 13.9905 115.631 13.5281 115.631 12.9763ZM119.803 19.5454H112.596V21.2039H119.803V19.5454ZM117.657 12.255H119.772V9.47754H121.428V16.5553H119.772V13.7162H117.657V12.255Z" fill="white"/>
<path d="M123.716 17.9357H135.981V19.4092H130.673V22.8463H129.002V19.4092H123.716V17.9357ZM126.335 11.3944H133.358V9.70508H134.999V16.1385H124.695V9.70508H126.335V11.3944ZM133.358 12.837H126.335V14.6804H133.358V12.837Z" fill="white"/>
</svg>
