<svg width="150" height="35" viewBox="0 0 150 35" fill="none" xmlns="http://www.w3.org/2000/svg">
<path d="M11.6556 15.9111H18.9388V14.3818C17.7997 14.3818 15.6111 14.3818 14.4003 14.3818C12.714 14.3818 11.6556 15.9111 11.6556 15.9111Z" fill="white"/>
<path d="M5.32316 16.8886C6.19319 15.9916 6.85245 15.9109 6.85245 15.9109H8.85711C8.85711 15.9109 9.6195 15.144 11.0187 13.7224C12.418 12.3007 13.3911 12.5115 13.3911 12.5115H18.9342V10.7939C18.9342 9.80276 18.1315 9 17.1403 9H3.79388C2.80725 9 2 9.80276 2 10.7939V20.1714C2.79379 19.3955 4.65046 17.5882 5.32316 16.8886Z" fill="white"/>
<path d="M6.8839 20.8714C6.8839 20.8714 7.5297 20.1987 8.12168 19.6068C8.71814 19.0103 9.54781 19.1314 9.54781 19.1314H18.9388V17.5752C17.4992 17.5752 10.5703 17.5752 9.17558 17.5752C7.61939 17.5752 6.87941 18.6022 6.87941 18.6022L2.02697 23.486L2.00006 23.504V24.1946C2.00006 25.1857 2.80731 25.9885 3.79394 25.9885H17.1449C18.136 25.9885 18.9388 25.1857 18.9388 24.1946V20.8714H6.8839Z" fill="white"/>
<path d="M67.5484 12.1891V13.7094H79.2131C79.2131 13.7094 79.536 13.7408 79.536 14.1264C79.536 14.5166 79.536 21.9478 79.536 21.9478H77.5941V15.9203H74.7508V21.8895H72.3291V15.8306H69.4096V21.9478H66.6694V23.3829H83.6305V21.9209H82.6215V13.3506C82.6215 13.3506 82.6484 12.1846 81.451 12.1846C80.2491 12.1891 67.5484 12.1891 67.5484 12.1891Z" fill="white"/>
<path d="M108.776 11.6861V13.1661H120.665C120.665 13.1661 120.912 13.2154 120.912 13.5204C120.912 13.8253 120.912 15.812 120.912 15.812H116.759V13.8253H113.404V15.7627H108.005V17.3907H124.908V15.812H124.181V12.7535C124.181 12.7535 124.248 11.6816 122.773 11.6816C121.302 11.6861 108.776 11.6861 108.776 11.6861Z" fill="white"/>
<path d="M116.535 22.1815C113.965 22.1815 111.88 21.4415 111.88 20.5266C111.88 19.6072 113.965 18.8673 116.535 18.8673C119.105 18.8673 121.185 19.6072 121.185 20.5266C121.185 21.4415 119.105 22.1815 116.535 22.1815ZM116.476 17.625C112.113 17.625 108.57 18.9883 108.57 20.6701C108.57 22.3519 112.108 23.7152 116.476 23.7152C120.845 23.7152 124.387 22.3519 124.387 20.6701C124.387 18.9839 120.845 17.625 116.476 17.625Z" fill="white"/>
<path d="M37.344 16.8939H27.9979V14.5618H37.344V16.8939ZM37.3216 12.149V13.3285H27.9979V12.0459H25.0066C25.0066 12.0459 24.9842 15.6157 24.9842 16.7683C24.9842 18.1496 26.5942 18.0733 26.5942 18.0733H40.3443V12.149H37.3216Z" fill="white"/>
<path d="M41.1918 19.3271H24.0872V20.686H31.0205V23.5248H34.2136V20.686H41.1918V19.3271Z" fill="white"/>
<path d="M132.684 12.1123H135.882V17.5119C136.281 18.642 136.841 21.3822 141.133 22.158H141.313V23.3375C141.313 23.3375 137.254 23.7994 134.514 20.7274H134.204C134.204 20.7274 131.989 23.2119 128.769 23.2119V22.0504C128.769 22.0504 131.585 21.4494 132.68 17.5836V12.1123" fill="white"/>
<path d="M147.286 15.2339H144.959V11.4443H141.828V23.5979H144.959V16.6645H147.286V15.2339Z" fill="white"/>
<path d="M49.4796 12.1982H52.6996C52.6996 12.1982 52.7445 14.5123 54.5742 15.7905C56.4085 17.0731 57.4848 17.1987 57.4848 17.1987V18.4544C57.4848 18.4544 54.0405 18.7818 51.0672 16.1448C51.0672 16.1448 48.632 18.6562 44.7662 18.4051V17.0731C44.7617 17.0731 49.1881 16.239 49.4796 12.1982Z" fill="white"/>
<path d="M63.028 13.9744H61.0817V11.6064H57.8616V19.2798H61.0817V15.5889H63.028V13.9744Z" fill="white"/>
<path d="M45.5778 19.241L48.7889 19.2051V22.1695H61.1532V23.6987H47.5601C47.5601 23.6987 45.5733 23.6449 45.5733 22.0663L45.5778 19.241Z" fill="white"/>
<path d="M87.8147 11.6328H103.547V13.041H91.0123V13.7451H103.511V15.0412H90.9764V15.5973H103.511V16.8216H97.1788V17.4898H104.305V18.6379H87.0882V17.3777H93.9184V16.7857H89.4651C89.4651 16.7857 87.8147 16.6736 87.8147 15.2295C87.8147 13.7855 87.8147 11.6328 87.8147 11.6328Z" fill="white"/>
<path d="M95.8065 22.9554C95.4298 22.9554 91.0661 23.09 91.111 21.3813C91.1514 19.8924 95.6495 20.0493 95.6899 20.0493C95.6899 20.0493 100.305 19.9372 100.349 21.5113C100.385 23.0227 96.1832 22.9554 95.8065 22.9554ZM95.663 19.0762C95.5957 19.0762 88.0793 18.816 88.0121 21.3006C87.9358 24.1484 95.2324 23.9286 95.8603 23.9286C96.4882 23.9286 103.511 24.0407 103.448 21.5203C103.377 18.8923 95.663 19.0762 95.663 19.0762Z" fill="white"/>
</svg>
