<svg width="117" height="35" viewBox="0 0 117 35" fill="none" xmlns="http://www.w3.org/2000/svg">
<path d="M16.2426 18.6868C23.1677 17.3372 27.0399 21.188 29.0537 24.5943C30.1088 22.5591 30.7086 20.2454 30.7086 17.7978C30.7086 16.8123 30.6122 15.8483 30.4248 14.9163C15.075 12.2759 10.2334 23.9034 8.7177 30.7802C10.8332 31.9371 13.2648 32.5959 15.8463 32.5959C19.9703 32.5959 23.6979 30.9249 26.3865 28.2202C23.3712 18.885 16.2426 18.6868 16.2426 18.6868Z" fill="white"/>
<path d="M25.476 6.52412C22.8035 11.1623 19.0544 13.3314 19.0544 13.3314C21.1378 10.8302 22.1769 7.28465 22.6803 4.65494C20.6398 3.59985 18.3153 3 15.857 3C10.619 3 6.01304 5.69933 3.36727 9.7751C5.5203 11.6014 10.378 14.6382 18.2885 13.8402C18.2885 13.8402 9.79959 15.3237 1.72839 13.2082C1.25708 14.6542 1 16.1967 1 17.7981C1 21.665 2.49427 25.1891 4.93116 27.8242C9.22117 13.5456 25.9688 12.6887 29.7982 12.6779C28.9091 10.2732 27.4041 8.15764 25.476 6.52412ZM15.3803 13.0046C14.0093 13.0046 12.8953 11.9067 12.8953 10.557C12.8953 9.20738 14.0093 8.10944 15.3803 8.10944C16.7514 8.10944 17.8654 9.20738 17.8654 10.557C17.8654 11.9067 16.7514 13.0046 15.3803 13.0046Z" fill="white"/>
<path d="M108.271 13.1282C108.271 14.6065 108.679 15.8704 109.498 16.9148C110.317 17.9645 111.924 18.5001 112.979 18.6929L111.71 19.7855C110.864 19.7159 109.348 19.4481 108.518 18.8161C107.682 18.1841 107.163 17.5147 106.954 16.8077C106.766 17.5147 106.258 18.1788 105.417 18.8054C104.581 19.432 103.178 19.6677 102.332 19.7427L101.046 18.6501C102.112 18.4626 103.607 17.9592 104.415 16.9041C105.224 15.8544 105.631 14.5904 105.631 13.1229V11.3287C105.631 11.0127 105.652 10.1611 105.631 10.1504H108.271C108.261 10.1611 108.271 11.0127 108.271 11.3287V13.1282ZM113.295 9.81836H115.898C115.877 9.82907 115.877 25.2538 115.898 25.2752H113.295C113.317 25.2538 113.317 9.83443 113.295 9.81836Z" fill="white"/>
<path d="M59.0569 11.6331C59.0569 11.6331 54.483 11.6224 54.4723 11.6331V10.2031H66.2872V11.6331C66.2765 11.6224 61.6973 11.6331 61.6973 11.6331V11.7349C61.6973 12.8542 62.3132 13.8451 63.5504 14.702C64.7823 15.5589 66.0623 15.9928 67.3798 16.0035L65.9927 17.1817C64.8894 17.1817 63.9039 16.8336 62.7149 16.298C61.5259 15.7678 60.7493 15.1358 60.3744 14.4074C60.0156 15.1465 59.2444 15.7785 58.0554 16.3087C56.8664 16.8336 55.7202 17.096 54.6062 17.096L53.3744 16.0035C54.708 15.9928 55.988 15.5589 57.2145 14.7074C58.441 13.8558 59.0569 12.865 59.0569 11.7349V11.6331ZM59.073 19.7472H52.9084V18.3225C52.9299 18.3332 66.7586 18.3225 66.7586 18.3225C67.0263 18.3225 67.8404 18.3332 67.8565 18.3225V19.7472H61.6812C61.6812 19.7472 61.6598 25.0816 61.6812 25.1083H59.073C59.0997 25.0869 59.073 19.7472 59.073 19.7472Z" fill="white"/>
<path d="M92.7395 17.3895C93.3126 17.1485 93.8053 16.8272 94.207 16.4255H97.5276V18.2251H100.136C100.136 18.2251 100.114 9.83786 100.136 9.82715H97.5276C97.549 9.83786 97.5276 11.3054 97.5276 11.3054H94.3463C93.9499 10.8448 93.4519 10.4859 92.852 10.2235C92.2468 9.96104 91.5987 9.82715 90.9078 9.82715C89.6921 9.82715 88.6531 10.2128 87.7908 10.984C86.9231 11.7552 86.4947 12.6925 86.4947 13.7904C86.4947 14.8777 86.9231 15.8096 87.7908 16.5862C88.6531 17.3681 89.6921 17.7537 90.9078 17.7537C91.5559 17.7484 92.1665 17.6252 92.7395 17.3895ZM95.2943 13.2281C95.2675 13.0513 95.2246 12.8746 95.1657 12.7086H97.5276V15.0116H95.1122C95.1925 14.8241 95.2514 14.6206 95.2889 14.4171C95.321 14.2136 95.3425 13.9993 95.3425 13.7851C95.3371 13.5923 95.321 13.4102 95.2943 13.2281ZM89.6385 15.5739C89.2797 15.0758 89.0976 14.4813 89.0976 13.7851C89.0976 13.0888 89.2797 12.4943 89.6385 11.9963C89.9974 11.4982 90.4205 11.2464 90.9078 11.2464C91.4059 11.2464 91.8344 11.4928 92.1932 11.9963C92.5521 12.4943 92.7342 13.0888 92.7342 13.7851C92.7342 14.4813 92.5574 15.0758 92.1932 15.5739C91.8344 16.072 91.4059 16.3184 90.9078 16.3184C90.4205 16.3184 89.9974 16.072 89.6385 15.5739Z" fill="white"/>
<path d="M100.131 21.0232C100.104 20.1234 99.3381 19.4004 98.3955 19.4004H88.5783V20.8304C88.589 20.809 97.5278 20.8304 97.5278 20.8304C97.5278 20.8304 97.5493 25.2596 97.5278 25.2811H100.136C100.125 25.2596 100.131 22.7585 100.131 21.0232Z" fill="white"/>
<path d="M75.8259 11.5853V13.4812C75.8259 13.9311 75.8045 14.3703 75.7563 14.8095C75.7081 15.2433 75.617 15.6289 75.4778 15.9503H77.7379C77.9254 15.7574 78.0861 15.404 78.2253 14.8845C78.3646 14.3649 78.4342 13.8722 78.4342 13.417V11.837C78.4342 10.9104 77.6576 10.1553 76.6989 10.1553H69.7685V11.5853C69.7792 11.5746 75.8259 11.5853 75.8259 11.5853Z" fill="white"/>
<path d="M82.3655 12.8926C82.3655 12.8926 82.344 9.82907 82.3655 9.81836H79.7572C79.7786 9.82907 79.7572 16.2507 79.7572 16.2507C79.4305 16.3632 79.0234 16.4596 78.5307 16.5345C78.038 16.6149 77.481 16.6524 76.8543 16.6524H74.0586C74.0586 16.6524 74.0479 13.2889 74.0586 13.2782H71.5896C71.611 13.2889 71.5896 16.6524 71.5896 16.6524C71.5896 16.6524 69.1795 16.6631 69.158 16.6524V18.0824H76.7526C77.331 18.0824 77.888 18.0235 78.4236 17.9056C78.9538 17.7878 79.4037 17.6432 79.7625 17.4772V18.8697H82.3708V14.3172C82.3708 14.3172 84.963 14.3065 84.9791 14.3172V12.8872C84.9577 12.9087 82.3655 12.8926 82.3655 12.8926Z" fill="white"/>
<path d="M80.5874 19.7671C79.6662 19.0762 78.5575 18.7334 77.2561 18.7334C75.9546 18.7334 74.8406 19.0762 73.9248 19.7671C73.0089 20.458 72.5483 21.3042 72.5483 22.3004C72.5483 23.2858 73.0089 24.1267 73.9248 24.823C74.846 25.5192 75.9546 25.8673 77.2561 25.8673C78.5575 25.8673 79.6715 25.5192 80.5874 24.823C81.5086 24.1267 81.9638 23.2858 81.9638 22.3004C81.9638 21.3042 81.5032 20.458 80.5874 19.7671ZM78.7664 23.7786C78.3487 24.207 77.8452 24.4213 77.2507 24.4213C76.6562 24.4213 76.1474 24.207 75.735 23.7786C75.3173 23.3501 75.1084 22.8574 75.1084 22.3004C75.1084 21.7327 75.3173 21.2346 75.735 20.8007C76.1528 20.3616 76.6562 20.1473 77.2507 20.1473C77.8452 20.1473 78.3487 20.3669 78.7664 20.8007C79.1842 21.2346 79.393 21.738 79.393 22.3004C79.393 22.8574 79.1842 23.3447 78.7664 23.7786Z" fill="white"/>
<path d="M44.0661 11.45V13.346C44.0661 13.7958 44.0447 14.235 43.9965 14.6742C43.9483 15.108 43.8572 15.4936 43.718 15.815H45.9781C46.1656 15.6275 46.3262 15.2687 46.4655 14.7492C46.6047 14.2297 46.6744 13.7369 46.6744 13.2763V11.6964C46.6744 10.7698 45.8978 10.0146 44.9337 10.0146H38.2122V11.4446C38.2229 11.4393 44.0661 11.45 44.0661 11.45Z" fill="white"/>
<path d="M50.6002 12.7588C50.6002 12.7588 50.5735 9.69528 50.6002 9.68457H47.992C48.0134 9.69528 47.992 16.1169 47.992 16.1169C47.6653 16.2294 47.2582 16.3258 46.7655 16.4008C46.2727 16.4811 45.7157 16.5186 45.0891 16.5186H42.2934C42.2934 16.5186 42.2827 13.1498 42.2934 13.1391H39.8297C39.8511 13.1498 39.8297 16.5186 39.8297 16.5186C39.8297 16.5186 37.6285 16.5293 37.607 16.5186V17.9486H44.9927C45.5711 17.9486 46.1281 17.8897 46.6584 17.7718C47.1939 17.654 47.6385 17.5094 47.9973 17.3434V18.7359H50.6056V14.1834C50.6056 14.1834 53.1978 14.1727 53.2139 14.1834V12.7534C53.1978 12.7695 50.6002 12.7588 50.6002 12.7588Z" fill="white"/>
<path d="M48.822 19.6343C47.9008 18.9434 46.7921 18.6006 45.4907 18.6006C44.1892 18.6006 43.0752 18.9487 42.1593 19.6343C41.2381 20.3252 40.7829 21.1714 40.7829 22.1676C40.7829 23.153 41.2435 23.9992 42.1593 24.6901C43.0752 25.3864 44.1892 25.7345 45.4907 25.7345C46.7921 25.7345 47.9061 25.3864 48.822 24.6901C49.7432 23.9939 50.2038 23.153 50.2038 22.1676C50.2038 21.166 49.7432 20.3252 48.822 19.6343ZM47.0064 23.6404C46.5886 24.0689 46.0852 24.2831 45.4907 24.2831C44.8962 24.2831 44.3927 24.0689 43.975 23.6404C43.5572 23.2119 43.3483 22.7192 43.3483 22.1622C43.3483 21.5945 43.5572 21.0964 43.975 20.6626C44.3927 20.2288 44.8962 20.0092 45.4907 20.0092C46.0852 20.0092 46.5886 20.2288 47.0064 20.6626C47.4241 21.0964 47.633 21.5998 47.633 22.1622C47.633 22.7192 47.4241 23.2119 47.0064 23.6404Z" fill="white"/>
</svg>
