<svg width="44" height="27" viewBox="0 0 44 27" fill="none" xmlns="http://www.w3.org/2000/svg">
<path d="M12.9559 9.84279C12.9559 10.3734 13.0133 10.8037 13.1137 11.1192C13.2284 11.4347 13.3718 11.7789 13.5726 12.1518C13.6443 12.2666 13.673 12.3813 13.673 12.4817C13.673 12.6251 13.587 12.7685 13.4005 12.912L12.497 13.5143C12.3679 13.6004 12.2388 13.6434 12.1241 13.6434C11.9807 13.6434 11.8372 13.5717 11.6938 13.4426C11.493 13.2275 11.3209 12.998 11.1775 12.7685C11.0341 12.5247 10.8907 12.2522 10.7329 11.9224C9.61425 13.2418 8.20875 13.9015 6.51641 13.9015C5.31169 13.9015 4.35078 13.5573 3.64803 12.8689C2.94528 12.1805 2.58673 11.2626 2.58673 10.1153C2.58673 8.89622 3.01699 7.90663 3.89184 7.16086C4.7667 6.41508 5.92839 6.04219 7.4056 6.04219C7.89323 6.04219 8.39519 6.08522 8.92584 6.15692C9.45649 6.22863 10.0015 6.34337 10.5752 6.47245V5.42549C10.5752 4.33551 10.3457 3.57539 9.90109 3.13079C9.44215 2.68619 8.66769 2.47106 7.56336 2.47106C7.0614 2.47106 6.54509 2.52843 6.01444 2.65751C5.48379 2.78658 4.96748 2.94434 4.46552 3.14513C4.23605 3.24552 4.06394 3.30289 3.96355 3.33157C3.86316 3.36026 3.79145 3.3746 3.73408 3.3746C3.5333 3.3746 3.4329 3.23118 3.4329 2.93V2.22725C3.4329 1.99778 3.46159 1.82568 3.5333 1.72528C3.605 1.62489 3.73408 1.5245 3.93487 1.4241C4.43683 1.16595 5.03919 0.950821 5.74195 0.778719C6.4447 0.592274 7.19048 0.506223 7.97928 0.506223C9.68596 0.506223 10.9337 0.893454 11.7369 1.66792C12.5257 2.44238 12.9272 3.61841 12.9272 5.19602V9.84279H12.9559V9.84279ZM7.13311 12.0228C7.60639 12.0228 8.09401 11.9367 8.61032 11.7646C9.12663 11.5925 9.58557 11.277 9.9728 10.8467C10.2023 10.5742 10.3744 10.273 10.4604 9.92884C10.5465 9.58464 10.6038 9.16872 10.6038 8.6811V8.07874C10.1879 7.97834 9.74333 7.89229 9.28439 7.83493C8.82545 7.77756 8.38085 7.74887 7.93625 7.74887C6.97535 7.74887 6.2726 7.93532 5.79931 8.32255C5.32603 8.70978 5.09656 9.25477 5.09656 9.97187C5.09656 10.6459 5.26866 11.1479 5.62721 11.4921C5.97142 11.8507 6.47338 12.0228 7.13311 12.0228ZM18.6496 13.5717C18.3915 13.5717 18.2194 13.5287 18.1046 13.4283C17.9899 13.3422 17.8895 13.1414 17.8035 12.8689L14.4331 1.78265C14.3471 1.49581 14.304 1.30937 14.304 1.20898C14.304 0.979505 14.4188 0.850428 14.6483 0.850428H16.0538C16.3263 0.850428 16.5127 0.893454 16.6131 0.993847C16.7278 1.0799 16.8139 1.28068 16.8999 1.55318L19.3094 11.0475L21.5467 1.55318C21.6184 1.26634 21.7045 1.0799 21.8192 0.993847C21.9339 0.907796 22.1347 0.850428 22.3929 0.850428H23.5402C23.8127 0.850428 23.9992 0.893454 24.1139 0.993847C24.2286 1.0799 24.329 1.28068 24.3864 1.55318L26.6524 11.1622L29.1336 1.55318C29.2196 1.26634 29.32 1.0799 29.4204 0.993847C29.5351 0.907796 29.7216 0.850428 29.9797 0.850428H31.3135C31.543 0.850428 31.6721 0.965163 31.6721 1.20898C31.6721 1.28068 31.6577 1.35239 31.6434 1.43845C31.629 1.5245 31.6004 1.63923 31.543 1.79699L28.0866 12.8833C28.0005 13.1701 27.9002 13.3566 27.7854 13.4426C27.6707 13.5287 27.4842 13.586 27.2404 13.586H26.007C25.7345 13.586 25.5481 13.543 25.4333 13.4426C25.3186 13.3422 25.2182 13.1558 25.1609 12.8689L22.9379 3.61841L20.7292 12.8546C20.6575 13.1414 20.5715 13.3279 20.4567 13.4283C20.342 13.5287 20.1412 13.5717 19.883 13.5717H18.6496V13.5717ZM37.079 13.9589C36.3332 13.9589 35.5874 13.8729 34.8703 13.7008C34.1532 13.5287 33.5939 13.3422 33.221 13.1271C32.9915 12.998 32.8338 12.8546 32.7764 12.7255C32.719 12.5964 32.6903 12.453 32.6903 12.3239V11.5925C32.6903 11.2913 32.8051 11.1479 33.0202 11.1479C33.1063 11.1479 33.1923 11.1622 33.2784 11.1909C33.3644 11.2196 33.4935 11.277 33.6369 11.3343C34.1245 11.5495 34.6552 11.7216 35.2145 11.8363C35.7882 11.951 36.3475 12.0084 36.9212 12.0084C37.8247 12.0084 38.5275 11.8507 39.0151 11.5351C39.5027 11.2196 39.7609 10.7607 39.7609 10.1727C39.7609 9.77108 39.6318 9.44122 39.3737 9.16872C39.1155 8.89622 38.6279 8.65241 37.9251 8.42294L35.8456 7.77756C34.7986 7.44769 34.0241 6.96007 33.5509 6.31469C33.0776 5.68364 32.8338 4.98089 32.8338 4.23511C32.8338 3.63275 32.9628 3.1021 33.221 2.64316C33.4791 2.18422 33.8234 1.78265 34.2536 1.46713C34.6839 1.13727 35.1715 0.893454 35.7452 0.721351C36.3188 0.549248 36.9212 0.477539 37.5522 0.477539C37.8678 0.477539 38.1976 0.491881 38.5131 0.534907C38.843 0.577932 39.1442 0.6353 39.4454 0.692667C39.7322 0.764377 40.0047 0.836086 40.2629 0.922137C40.521 1.00819 40.7218 1.09424 40.8652 1.18029C41.066 1.29503 41.2094 1.40976 41.2955 1.53884C41.3815 1.65357 41.4246 1.81133 41.4246 2.01212V2.68619C41.4246 2.98737 41.3098 3.14513 41.0947 3.14513C40.98 3.14513 40.7935 3.08776 40.5497 2.97303C39.7322 2.60014 38.8143 2.41369 37.7961 2.41369C36.9786 2.41369 36.3332 2.54277 35.8886 2.81527C35.444 3.08776 35.2145 3.50368 35.2145 4.09169C35.2145 4.49327 35.3579 4.83747 35.6448 5.10997C35.9316 5.38246 36.4623 5.65496 37.2224 5.89877L39.2589 6.54416C40.2915 6.87402 41.0373 7.33296 41.4819 7.92098C41.9265 8.50899 42.1416 9.18306 42.1416 9.92884C42.1416 10.5455 42.0126 11.1049 41.7688 11.5925C41.5106 12.0801 41.1664 12.5104 40.7218 12.8546C40.2772 13.2131 39.7466 13.4713 39.1299 13.6577C38.4845 13.8585 37.8104 13.9589 37.079 13.9589Z" fill="white"/>
<path d="M39.7897 20.9291C35.0712 24.4142 28.2158 26.2643 22.3212 26.2643C14.0603 26.2643 6.61689 23.2095 0.994869 18.1324C0.550271 17.7309 0.951844 17.1859 1.48249 17.5014C7.56345 21.0295 15.0643 23.1664 22.8232 23.1664C28.058 23.1664 33.8091 22.0764 39.1012 19.8391C39.8901 19.4806 40.5641 20.3554 39.7897 20.9291ZM41.7545 18.6918C41.1521 17.9173 37.7675 18.3189 36.2329 18.5053C35.7739 18.5627 35.7022 18.1611 36.1181 17.8599C38.8144 15.9668 43.2461 16.5118 43.7624 17.1428C44.2787 17.7882 43.6189 22.2199 41.0948 24.3425C40.7075 24.6723 40.3346 24.5002 40.5068 24.07C41.0804 22.6501 42.3569 19.4519 41.7545 18.6918Z" fill="white"/>
</svg>
