<svg width="100" height="35" viewBox="0 0 100 35" fill="none" xmlns="http://www.w3.org/2000/svg">
<path d="M28.9253 16.7456L22.6392 10.938C21.604 12.1499 20.5914 13.421 20.5914 13.421C19.2753 15.2677 17.9051 15.6379 17.9051 15.6379C15.3285 16.1657 13.1905 15.6379 13.1905 15.6379C14.735 15.3501 19.3113 9.65966 20.1347 8.6228L16.5875 5.34592C16.5875 5.34592 15.8753 4.50139 14.8882 5.45148L8.96573 10.5707C8.96573 10.5707 10.665 10.5172 11.323 10.7818C11.323 10.7818 12.3837 11.0985 12.9682 11.8896C12.9682 11.8896 13.79 13.4196 14.448 13.4196C14.448 13.4196 14.8867 14.3161 12.6932 14.3696C12.6932 14.3696 11.323 14.2641 10.8287 12.7341C10.8287 12.7341 10.4441 11.045 8.58111 10.8874L2.27698 16.8512C2.27698 16.8512 1.78419 17.2561 2.11322 17.5366H18.0689C18.0689 17.5366 18.5076 15.7955 19.5487 17.0088C19.5487 17.0088 20.0971 16.0587 20.7552 16.9032C20.7552 16.9032 21.1383 15.1086 22.4544 16.4289C22.4544 16.4289 23.2221 14.4767 24.2092 15.4253C24.2092 15.4253 24.8117 15.6364 25.031 16.7977C25.031 16.7977 25.9625 15.5309 26.4568 17.5366C26.4568 17.5366 14.6133 17.7478 6.11565 21.7058L9.29626 24.7137C9.29626 24.7137 20.4817 19.3833 27.3357 18.17C27.3357 18.17 18.7825 21.2835 12.2034 27.3528L14.6704 29.6738C14.6704 29.6738 15.5478 30.6774 16.7542 29.5683L29.0906 18.2221C29.0891 18.2235 29.7471 17.2199 28.9253 16.7456Z" fill="white"/>
<path d="M20.3015 8.46216C23.0975 5.34869 28.2312 7.0898 28.2312 7.0898C27.1885 7.14331 24.7216 8.83092 24.7216 8.83092C24.7216 8.83092 23.5692 9.81427 22.6918 10.922L20.1497 8.6328L20.3015 8.46216Z" fill="white"/>
<path d="M77.5778 14.3092C78.7301 14.3092 79.7533 13.8421 80.4128 13.1191H83.4793V14.9209H75.9281V16.4711H83.4793V19.4733H85.3347V8.38015H83.4793V9.26517H80.3918C79.7307 8.55513 78.7166 8.09961 77.5778 8.09961C75.5871 8.09961 73.972 9.48932 73.972 11.2044C73.972 12.9195 75.5871 14.3092 77.5778 14.3092ZM83.4793 10.892V11.4922H81.1655C81.1761 11.3967 81.1821 11.3013 81.1821 11.2044C81.1821 11.0988 81.1761 10.9947 81.164 10.892H83.4793V10.892ZM77.5778 9.57175C78.5724 9.57175 79.3792 10.3035 79.3792 11.2044C79.3792 12.1053 78.5739 12.8371 77.5778 12.8371C76.5832 12.8371 75.7779 12.1053 75.7779 11.2044C75.7764 10.3035 76.5832 9.57175 77.5778 9.57175Z" fill="white"/>
<path d="M62.7474 16.7078C62.7474 18.6124 64.5412 20.1568 66.7543 20.1568C68.9673 20.1568 70.7597 18.6138 70.7597 16.7078C70.7597 16.0094 70.5178 15.3615 70.1032 14.8192H71.1443V13.7679V13.2068V12.0543H72.6407V10.517H71.1443V8.36523H69.2723V13.2068H67.9743L67.9863 9.25315C67.9743 8.71519 67.3492 8.76581 67.3492 8.76581L61.0601 8.74122V10.2423H66.1022V13.2083H64.2828V10.9017H62.3868V13.2068H60.5148V14.8192H63.4009C62.9892 15.3615 62.7474 16.0108 62.7474 16.7078ZM65.9805 14.8192H67.5265C68.3724 15.1041 68.9779 15.8416 68.9779 16.7078C68.9779 17.8213 67.9833 18.7237 66.7543 18.7237C65.5268 18.7237 64.5307 17.8213 64.5307 16.7078C64.5292 15.8416 65.1332 15.1041 65.9805 14.8192Z" fill="white"/>
<path d="M35.5523 14.2888H44.3835V8.3916H42.5866V9.89411H36.8985V8.45378H35.028L35.022 13.7697C35.022 14.2961 35.5523 14.2888 35.5523 14.2888ZM36.8985 11.4082H42.6617V12.7777H36.8985V11.4082V11.4082Z" fill="white"/>
<path d="M38.7929 25.3504C38.7929 25.6223 38.7643 25.8204 38.7102 25.9448C38.6231 26.166 38.4368 26.2774 38.1468 26.2774C37.8569 26.2774 37.6676 26.166 37.5819 25.9448C37.5263 25.8204 37.4978 25.6223 37.4978 25.3504V22.9238H36.7736V25.3504C36.7736 25.7712 36.8307 26.0966 36.9434 26.3309C37.1552 26.7589 37.5564 26.9744 38.1468 26.9744C38.7373 26.9744 39.1384 26.7589 39.3488 26.3309C39.4614 26.0966 39.517 25.7698 39.517 25.3504V22.9238H38.7929V25.3504Z" fill="white"/>
<path d="M41.6762 24.6254L41.0887 24.462C40.8619 24.3998 40.7131 24.3448 40.644 24.2986C40.5359 24.2291 40.4818 24.1236 40.4818 23.9819C40.4818 23.8286 40.5374 23.7085 40.647 23.6232C40.7567 23.5365 40.904 23.4945 41.0872 23.4945C41.2525 23.4945 41.3907 23.5278 41.5019 23.5929C41.6687 23.6926 41.7573 23.8618 41.7708 24.099H42.4559C42.4439 23.6796 42.3102 23.3586 42.0563 23.1388C41.8024 22.9175 41.4959 22.8076 41.1368 22.8076C40.7071 22.8076 40.3796 22.9248 40.1573 23.159C39.9349 23.3933 39.8252 23.6869 39.8252 24.0397C39.8252 24.4273 39.9394 24.7121 40.1693 24.8958C40.306 25.0043 40.5509 25.1055 40.9055 25.198L41.266 25.292C41.4764 25.3455 41.6326 25.4063 41.7318 25.4771C41.8294 25.548 41.879 25.6492 41.879 25.7794C41.879 26.0035 41.7799 26.1554 41.58 26.2378C41.4749 26.2812 41.3381 26.3014 41.1699 26.3014C40.8889 26.3014 40.6906 26.2204 40.5749 26.057C40.5118 25.9688 40.4698 25.8329 40.4487 25.6521H39.7681C39.7681 26.0643 39.8958 26.3853 40.1497 26.621C40.4036 26.8567 40.7537 26.9739 41.1984 26.9739C41.6326 26.9739 41.9707 26.8553 42.208 26.6167C42.4469 26.3781 42.5656 26.0787 42.5656 25.7186C42.5656 25.3672 42.4635 25.0983 42.2606 24.9117C42.1284 24.7917 41.9331 24.6962 41.6762 24.6254Z" fill="white"/>
<path d="M43.802 22.9199L42.5851 26.8692H43.3303L43.5662 26.058H44.8237L45.043 26.8692H45.8153L44.6073 22.9199H43.802V22.9199ZM43.7585 25.3769L44.1987 23.8223L44.6254 25.3769H43.7585Z" fill="white"/>
<path d="M48.2838 25.6777L46.9271 22.9199H46.1789V26.8692H46.843V24.0652L48.2357 26.8692H48.9478V22.9199H48.2838V25.6777Z" fill="white"/>
<path d="M52.1042 26.0286L51.4837 22.9238H50.447V26.8732H51.1111V24.2022C51.1111 24.1255 51.1111 24.0171 51.1096 23.8797C51.1081 23.7409 51.1066 23.6353 51.1066 23.5587L51.7481 26.8732H52.4407L53.0868 23.5587C53.0868 23.6339 53.0868 23.7409 53.0853 23.8797C53.0838 24.0185 53.0823 24.1255 53.0823 24.2022V26.8732H53.7463V22.9238H52.7217L52.1042 26.0286Z" fill="white"/>
<path d="M54.0771 26.8692H56.1174V26.1592H54.7742V25.144H56.1189V24.4586H54.7742V23.6198H56.1624V22.9199H54.0771V26.8692Z" fill="white"/>
<path d="M56.3891 23.6198H57.2064V26.8692H57.9231V23.6198H58.7359V22.9199H56.3891V23.6198Z" fill="white"/>
<path d="M61.6778 24.5989C61.7589 24.4166 61.7995 24.233 61.7995 24.0464C61.7995 23.8903 61.7784 23.7529 61.7349 23.6314C61.6913 23.5099 61.6327 23.3986 61.5591 23.2988C61.4704 23.1773 61.3608 23.0848 61.2315 23.0226C61.1023 22.959 60.919 22.9257 60.6802 22.9199H59.0065V26.8692H59.7036V24.7406L60.2069 25.5432L61.0678 26.8678H61.9317L60.8019 25.2655C61.3352 25.2424 61.5951 24.7796 61.6778 24.5989ZM59.7036 24.6683V23.6068H60.5314C60.6847 23.6068 60.8004 23.63 60.8785 23.6762C61.0167 23.7587 61.0843 23.9177 61.0843 24.1578C61.0843 24.379 61.0137 24.5266 60.871 24.6017C60.7898 24.6451 60.6696 24.6668 60.5104 24.6668H59.7036V24.6683Z" fill="white"/>
<path d="M67.8646 22.9199H66.3787V26.8692H67.0864V25.4492H67.812C68.1906 25.4492 68.4806 25.3537 68.6849 25.1599C68.8893 24.9676 68.9899 24.6379 68.9899 24.1723C68.9899 23.7457 68.8878 23.4304 68.6849 23.2265C68.4791 23.0226 68.2057 22.9199 67.8646 22.9199ZM68.1426 24.6263C68.0494 24.7218 67.9187 24.7681 67.7504 24.7681H67.0864V23.6054H67.7504C67.9187 23.6054 68.0494 23.6488 68.1426 23.737C68.2357 23.8252 68.2823 23.9712 68.2823 24.1766C68.2823 24.3819 68.2357 24.5323 68.1426 24.6263Z" fill="white"/>
<path d="M74.6013 22.9199H73.8892V26.8692H76.2915V26.1592H74.6013V22.9199Z" fill="white"/>
<path d="M77.36 22.9199H76.6523V26.8692H77.36V22.9199Z" fill="white"/>
<path d="M80.0117 22.9199H77.6649V23.6198H78.4807V26.8692H79.1989V23.6198H80.0117V22.9199Z" fill="white"/>
<path d="M81.1205 22.9199L79.9035 26.8692H80.6487L80.8846 26.058H82.1406L82.3614 26.8692H83.1337L81.9257 22.9199H81.1205V22.9199ZM81.0769 25.3769L81.5156 23.8223L81.9408 25.3769H81.0769Z" fill="white"/>
<path d="M85.3767 25.6777L84.017 22.9199H83.2703V26.8692H83.9343V24.0652L85.3271 26.8692H86.0407V22.9199H85.3767V25.6777Z" fill="white"/>
<path d="M92.3569 22.9199H91.6493V26.8692H92.3569V22.9199Z" fill="white"/>
<path d="M92.7552 23.6198H93.5726V26.8692H94.2892V23.6198H95.102V22.9199H92.7552V23.6198Z" fill="white"/>
<path d="M97.6922 22.9199L97.0131 24.6408L96.3055 22.9199H95.4656L96.645 25.3855V26.8692H97.3587V25.3855L98.5005 22.9199H97.6922Z" fill="white"/>
<path d="M71.4178 22.9199C70.3165 22.9199 69.4241 23.7992 69.4241 24.8837C69.4241 25.9683 70.3165 26.8476 71.4178 26.8476C72.5175 26.8476 73.4115 25.9683 73.4115 24.8837C73.4115 23.7992 72.5175 22.9199 71.4178 22.9199ZM71.4178 26.2359C70.7838 26.2359 70.2699 25.6299 70.2699 24.8823C70.2699 24.1347 70.7838 23.5287 71.4178 23.5287C72.0518 23.5287 72.5671 24.1347 72.5671 24.8823C72.5671 25.6299 72.0518 26.2359 71.4178 26.2359Z" fill="white"/>
<path d="M64.0711 22.9199C62.9699 22.9199 62.0789 23.7992 62.0789 24.8837C62.0789 25.9683 62.9714 26.8476 64.0711 26.8476C65.1724 26.8476 66.0663 25.9683 66.0663 24.8837C66.0663 23.7992 65.1724 22.9199 64.0711 22.9199ZM64.0711 26.2359C63.4371 26.2359 62.9233 25.6299 62.9233 24.8823C62.9233 24.1347 63.4371 23.5287 64.0711 23.5287C64.7066 23.5287 65.2205 24.1347 65.2205 24.8823C65.2205 25.6299 64.7066 26.2359 64.0711 26.2359Z" fill="white"/>
<path d="M89.5716 26.1704C88.9376 26.1704 88.4222 25.5645 88.4222 24.8169C88.4222 24.0692 88.9376 23.4648 89.5716 23.4648C89.9096 23.4648 90.2131 23.6383 90.4235 23.913H91.3399C91.0079 23.284 90.3408 22.8545 89.5716 22.8545C88.4703 22.8545 87.5779 23.7337 87.5779 24.8183C87.5779 25.9029 88.4703 26.7821 89.5716 26.7821C90.3709 26.7821 91.059 26.3165 91.376 25.6484H90.4775C90.2672 25.9651 89.9397 26.1704 89.5716 26.1704Z" fill="white"/>
<path d="M38.919 19.6937H40.7911V16.9475H45.3389V15.4219H34.1384V16.9475H38.919V19.6937Z" fill="white"/>
<path d="M50.1303 15.3463H48.1982V18.4236C48.2508 19.2493 48.7961 19.3245 48.7961 19.3245L57.5417 19.3332V11.9841H59.0381V10.4931H57.5417V8.34277H55.5795V17.8206H50.1303V15.3463Z" fill="white"/>
<path d="M98.0406 8.26562H96.0424V19.4036H98.0406V8.26562Z" fill="white"/>
<path d="M50.6921 11.0923L53.3168 14.2188L54.7456 13.1935L51.0286 8.59052C50.7432 8.13934 50.3781 8.53991 50.3781 8.53991L46.5574 13.1429L47.9862 14.1942L50.6921 11.0923Z" fill="white"/>
<path d="M90.7147 8.44188L86.7379 13.9197L88.2343 14.9378L90.9281 10.9032L93.7722 14.9378L95.2085 13.9458L91.2842 8.46791C90.9732 8.11651 90.7147 8.44188 90.7147 8.44188Z" fill="white"/>
<path d="M36.0615 23.1888C35.8632 22.982 35.5958 22.8779 35.2607 22.8779H33.8094V24.5612H35.2607C35.5958 24.5612 35.8632 24.6653 36.0615 24.8721C36.072 24.8822 36.081 24.8953 36.09 24.9068C36.2688 24.7073 36.359 24.3963 36.3635 24.0652C36.368 23.7253 36.2613 23.3956 36.0615 23.1888ZM35.5417 24.405C35.4395 24.4903 35.3148 24.5337 35.151 24.5337H34.502V23.5764H35.151C35.3148 23.5764 35.45 23.6053 35.5417 23.6935C35.6333 23.7832 35.6739 23.8859 35.6739 23.9987C35.6739 24.1115 35.6694 24.2966 35.5417 24.405Z" fill="white"/>
<path d="M35.2097 25.235H34.5006V25.2596H35.1496C35.3134 25.2596 35.4486 25.2885 35.5403 25.3782C35.6319 25.4678 35.6725 25.5705 35.6725 25.6818C35.6725 25.7946 35.668 25.9797 35.5403 26.0882C35.4381 26.1735 35.3134 26.2169 35.1496 26.2169H34.5006V26.9009H33.808V26.9125H34.5006V26.9183H35.2097C35.5793 26.9183 35.8633 26.8199 36.0616 26.6233C36.2614 26.4266 36.3591 26.0983 36.3636 25.7469C36.3681 25.4259 36.2704 25.115 36.0901 24.9053C36.0796 24.9168 36.0706 24.9284 36.0616 24.9385C35.8633 25.1367 35.5793 25.235 35.2097 25.235Z" fill="white"/>
<path d="M35.2607 24.5615H33.8094V26.9028H34.502V26.2188V25.26V25.2354H35.2111C35.5807 25.2354 35.8647 25.1371 36.063 24.9404C36.0735 24.9303 36.0825 24.9187 36.0916 24.9071C36.081 24.8956 36.072 24.884 36.063 24.8724C35.8632 24.6656 35.5958 24.5615 35.2607 24.5615Z" fill="white"/>
</svg>
