<svg width="60" height="27" viewBox="0 0 60 27" fill="none" xmlns="http://www.w3.org/2000/svg">
<path d="M13.9971 0.375C6.59009 0.375 0.56604 6.23172 0.56604 13.433C0.56604 20.6342 6.59009 26.491 13.9971 26.491C21.4041 26.491 27.4282 20.6342 27.4282 13.433C27.4282 6.23172 21.4041 0.375 13.9971 0.375ZM17.2084 18.0819V19.1074H13.4814L13.458 7.71299L14.5362 7.6902V18.0819H17.2084ZM13.9971 24.3488C7.78553 24.3488 2.76939 19.4492 2.76939 13.433C2.76939 7.39395 7.80897 2.51715 14.4893 2.58551V3.58822C8.55905 3.47428 3.91795 8.03203 3.91795 13.433C3.91795 18.8339 8.41841 23.2322 13.9971 23.2322C19.5758 23.2322 24.0763 18.8339 24.0528 13.9343H17.1849V12.9544H25.2248C25.2248 19.472 20.2087 24.3488 13.9971 24.3488ZM11.4422 9.28542C11.4422 10.197 10.6921 10.949 9.73104 10.949C8.79345 10.949 8.04337 10.197 8.04337 9.28542C8.04337 8.37387 8.79345 7.62184 9.73104 7.62184C10.6921 7.64462 11.4422 8.37387 11.4422 9.28542Z" fill="white"/>
<path d="M59.4684 12.7937H52.9199V15.4147H55.9579C55.7553 18.1506 54.3151 19.0012 52.8974 19.0012C50.7145 19.0012 49.6119 16.7711 49.6119 13.7593C49.6119 11.4143 50.4895 8.74738 52.7624 8.74738C53.8425 8.74738 54.8777 9.34514 55.2602 10.8165H59.4684C59.0408 6.56326 55.0802 5.59766 52.7849 5.59766C49.6344 5.59766 45.4262 7.34495 45.3362 13.9433C45.3362 18.1965 47.519 22.059 51.8622 22.013C53.46 21.99 55.3278 21.4612 56.2054 19.7829V21.6911H59.5134V12.7937H59.4684Z" fill="white"/>
<path d="M37.1064 17.8979V5.59766H33.3975V21.2672H43.8439V17.8979H37.1064Z" fill="white"/>
</svg>
