<svg width="714" height="618" viewBox="0 0 714 618" fill="none" xmlns="http://www.w3.org/2000/svg">
<g style="mix-blend-mode:lighten" opacity="0.6" clip-path="url(#clip0_56_34)">
<path d="M383.902 453.985H330.064L355.653 165.832H358.313L383.902 453.985ZM332.993 451.327H381.007L357 180.975L332.993 451.327Z" fill="url(#paint0_linear_56_34)"/>
<path d="M386.764 458.427H327.236L355.653 161.39H358.313L386.764 458.427ZM330.165 455.769H383.835L357 175.456L330.165 455.769Z" fill="url(#paint1_linear_56_34)"/>
<path d="M389.895 463.004H324.071L356.966 143.992L389.895 463.004ZM327.034 460.345H386.966L357 169.904L327.034 460.345Z" fill="url(#paint2_linear_56_34)"/>
<path d="M393.397 467.749H320.569L357 140.224L393.397 467.749ZM323.566 465.09H390.468L357.034 164.318L323.566 465.09Z" fill="url(#paint3_linear_56_34)"/>
<path d="M397.303 472.594H316.697L357 136.219L397.303 472.594ZM319.694 469.936H394.306L357 158.563L319.694 469.936Z" fill="url(#paint4_linear_56_34)"/>
<path d="M401.612 477.642H312.354L357 132.046L401.612 477.642ZM315.384 474.983H398.616L357 152.809L315.384 474.983Z" fill="url(#paint5_linear_56_34)"/>
<path d="M406.427 482.79H307.539L356.966 127.604L406.427 482.79ZM310.603 480.132H403.363L356.966 146.887L310.603 480.132Z" fill="url(#paint6_linear_56_34)"/>
<path d="M411.781 488.141H302.219L357 122.994L411.781 488.141ZM305.317 485.483H408.717L357 140.93L305.317 485.483Z" fill="url(#paint7_linear_56_34)"/>
<path d="M417.707 493.626H296.294L357 118.115L417.707 493.626ZM299.391 490.968H414.575L357 134.806L299.391 490.968Z" fill="url(#paint8_linear_56_34)"/>
<path d="M424.306 499.313H289.694L357 113.067L424.306 499.313ZM292.859 496.654H421.141L357 128.58L292.859 496.654Z" fill="url(#paint9_linear_56_34)"/>
<path d="M431.612 505.135H282.354L357 107.784L431.612 505.135ZM285.553 502.476H428.413L357 122.22L285.553 502.476Z" fill="url(#paint10_linear_56_34)"/>
<path d="M439.76 511.192H274.24L357 102.333L439.76 511.192ZM277.472 508.533H436.494L357 115.726L277.472 508.533Z" fill="url(#paint11_linear_56_34)"/>
<path d="M448.817 517.384H265.183L357 96.5784L448.817 517.384ZM268.482 514.725H445.484L357 109.063L268.482 514.725Z" fill="url(#paint12_linear_56_34)"/>
<path d="M458.851 523.777H255.149L357 90.6221L458.851 523.777ZM258.482 521.119H455.484L357 102.265L258.482 521.119Z" fill="url(#paint13_linear_56_34)"/>
<path d="M469.996 530.406H243.971L357 84.4639L469.996 530.406ZM247.405 527.748H466.595L357 95.2995L247.405 527.748Z" fill="url(#paint14_linear_56_34)"/>
<path d="M482.42 537.204H231.58L357 78.0366L482.42 537.204ZM235.048 534.546H478.918L357 88.1319L235.048 534.546Z" fill="url(#paint15_linear_56_34)"/>
<path d="M496.191 544.204H217.809L357 71.3738L496.191 544.204ZM221.345 541.545H492.622L357 80.8297L221.345 541.545Z" fill="url(#paint16_linear_56_34)"/>
<path d="M511.477 551.438H202.49L357 64.5088L511.477 551.438ZM206.126 548.78H507.84L356.966 73.2917L206.126 548.78Z" fill="url(#paint17_linear_56_34)"/>
<path d="M528.514 558.909H185.486L357 57.375L528.514 558.909ZM189.224 556.251H524.81L357 65.5858L189.224 556.251Z" fill="url(#paint18_linear_56_34)"/>
<path d="M547.402 566.615H166.598L357 50.0054L547.402 566.615ZM170.402 563.923H543.564L357 57.6778L170.402 563.923Z" fill="url(#paint19_linear_56_34)"/>
<path d="M568.378 574.523H145.588L146.295 572.706L356.966 42.333L568.378 574.523ZM149.527 571.865H564.473L357 49.5343L149.527 571.865Z" fill="url(#paint20_linear_56_34)"/>
<path d="M591.712 582.7H122.255L356.966 34.425L591.712 582.7ZM126.295 580.042H587.671L357 41.1889L126.295 580.042Z" fill="url(#paint21_linear_56_34)"/>
<path d="M617.637 591.113H96.3291L357 26.2478L617.637 591.113ZM100.504 588.455H613.496L357 32.5742L100.504 588.455Z" fill="url(#paint22_linear_56_34)"/>
<path d="M646.425 599.795H67.5414L357 17.7678L646.425 599.795ZM71.8512 597.137H642.149L357 23.7577L71.8512 597.137Z" fill="url(#paint23_linear_56_34)"/>
<path d="M678.445 608.746H35.5552L357 9.01855L678.445 608.746ZM39.9996 606.088H674L357 14.6719L39.9996 606.088Z" fill="url(#paint24_linear_56_34)"/>
<path d="M714 618H0L357 0L714 618ZM4.61275 615.342H709.387L357 5.31685L4.61275 615.342Z" fill="url(#paint25_linear_56_34)"/>
</g>
<defs>
<linearGradient id="paint0_linear_56_34" x1="330.076" y1="309.91" x2="383.909" y2="309.91" gradientUnits="userSpaceOnUse">
<stop stop-color="#3DDEED"/>
<stop offset="0.9966" stop-color="#CB00DD"/>
</linearGradient>
<linearGradient id="paint1_linear_56_34" x1="327.237" y1="309.915" x2="386.749" y2="309.915" gradientUnits="userSpaceOnUse">
<stop stop-color="#3DDEED"/>
<stop offset="0.9966" stop-color="#CB00DD"/>
</linearGradient>
<linearGradient id="paint2_linear_56_34" x1="324.083" y1="303.506" x2="389.903" y2="303.506" gradientUnits="userSpaceOnUse">
<stop stop-color="#3DDEED"/>
<stop offset="0.9966" stop-color="#CB00DD"/>
</linearGradient>
<linearGradient id="paint3_linear_56_34" x1="320.578" y1="303.979" x2="393.408" y2="303.979" gradientUnits="userSpaceOnUse">
<stop stop-color="#3DDEED"/>
<stop offset="0.9966" stop-color="#CB00DD"/>
</linearGradient>
<linearGradient id="paint4_linear_56_34" x1="316.685" y1="304.418" x2="397.302" y2="304.418" gradientUnits="userSpaceOnUse">
<stop stop-color="#3DDEED"/>
<stop offset="0.9966" stop-color="#CB00DD"/>
</linearGradient>
<linearGradient id="paint5_linear_56_34" x1="312.358" y1="304.827" x2="401.628" y2="304.827" gradientUnits="userSpaceOnUse">
<stop stop-color="#3DDEED"/>
<stop offset="0.9966" stop-color="#CB00DD"/>
</linearGradient>
<linearGradient id="paint6_linear_56_34" x1="307.553" y1="305.206" x2="406.435" y2="305.206" gradientUnits="userSpaceOnUse">
<stop stop-color="#3DDEED"/>
<stop offset="0.9966" stop-color="#CB00DD"/>
</linearGradient>
<linearGradient id="paint7_linear_56_34" x1="302.212" y1="305.559" x2="411.774" y2="305.559" gradientUnits="userSpaceOnUse">
<stop stop-color="#3DDEED"/>
<stop offset="0.9966" stop-color="#CB00DD"/>
</linearGradient>
<linearGradient id="paint8_linear_56_34" x1="296.279" y1="305.887" x2="417.707" y2="305.887" gradientUnits="userSpaceOnUse">
<stop stop-color="#3DDEED"/>
<stop offset="0.9966" stop-color="#CB00DD"/>
</linearGradient>
<linearGradient id="paint9_linear_56_34" x1="289.686" y1="306.192" x2="424.3" y2="306.192" gradientUnits="userSpaceOnUse">
<stop stop-color="#3DDEED"/>
<stop offset="0.9966" stop-color="#CB00DD"/>
</linearGradient>
<linearGradient id="paint10_linear_56_34" x1="282.363" y1="306.475" x2="431.624" y2="306.475" gradientUnits="userSpaceOnUse">
<stop stop-color="#3DDEED"/>
<stop offset="0.9966" stop-color="#CB00DD"/>
</linearGradient>
<linearGradient id="paint11_linear_56_34" x1="274.225" y1="306.74" x2="439.761" y2="306.74" gradientUnits="userSpaceOnUse">
<stop stop-color="#3DDEED"/>
<stop offset="0.9966" stop-color="#CB00DD"/>
</linearGradient>
<linearGradient id="paint12_linear_56_34" x1="265.184" y1="306.985" x2="448.802" y2="306.985" gradientUnits="userSpaceOnUse">
<stop stop-color="#3DDEED"/>
<stop offset="0.9966" stop-color="#CB00DD"/>
</linearGradient>
<linearGradient id="paint13_linear_56_34" x1="255.139" y1="307.214" x2="458.847" y2="307.214" gradientUnits="userSpaceOnUse">
<stop stop-color="#3DDEED"/>
<stop offset="0.9966" stop-color="#CB00DD"/>
</linearGradient>
<linearGradient id="paint14_linear_56_34" x1="243.978" y1="307.426" x2="470.008" y2="307.426" gradientUnits="userSpaceOnUse">
<stop stop-color="#3DDEED"/>
<stop offset="0.9966" stop-color="#CB00DD"/>
</linearGradient>
<linearGradient id="paint15_linear_56_34" x1="231.578" y1="307.624" x2="482.408" y2="307.624" gradientUnits="userSpaceOnUse">
<stop stop-color="#3DDEED"/>
<stop offset="0.9966" stop-color="#CB00DD"/>
</linearGradient>
<linearGradient id="paint16_linear_56_34" x1="217.802" y1="307.808" x2="496.186" y2="307.808" gradientUnits="userSpaceOnUse">
<stop stop-color="#3DDEED"/>
<stop offset="0.9966" stop-color="#CB00DD"/>
</linearGradient>
<linearGradient id="paint17_linear_56_34" x1="202.493" y1="307.98" x2="511.493" y2="307.98" gradientUnits="userSpaceOnUse">
<stop stop-color="#3DDEED"/>
<stop offset="0.9966" stop-color="#CB00DD"/>
</linearGradient>
<linearGradient id="paint18_linear_56_34" x1="185.486" y1="308.14" x2="528.5" y2="308.14" gradientUnits="userSpaceOnUse">
<stop stop-color="#3DDEED"/>
<stop offset="0.9966" stop-color="#CB00DD"/>
</linearGradient>
<linearGradient id="paint19_linear_56_34" x1="166.589" y1="308.289" x2="547.398" y2="308.289" gradientUnits="userSpaceOnUse">
<stop stop-color="#3DDEED"/>
<stop offset="0.9966" stop-color="#CB00DD"/>
</linearGradient>
<linearGradient id="paint20_linear_56_34" x1="145.594" y1="308.428" x2="568.392" y2="308.428" gradientUnits="userSpaceOnUse">
<stop stop-color="#3DDEED"/>
<stop offset="0.9966" stop-color="#CB00DD"/>
</linearGradient>
<linearGradient id="paint21_linear_56_34" x1="122.265" y1="308.557" x2="591.721" y2="308.557" gradientUnits="userSpaceOnUse">
<stop stop-color="#3DDEED"/>
<stop offset="0.9966" stop-color="#CB00DD"/>
</linearGradient>
<linearGradient id="paint22_linear_56_34" x1="96.3459" y1="308.677" x2="617.64" y2="308.677" gradientUnits="userSpaceOnUse">
<stop stop-color="#3DDEED"/>
<stop offset="0.9966" stop-color="#CB00DD"/>
</linearGradient>
<linearGradient id="paint23_linear_56_34" x1="67.5482" y1="308.79" x2="646.438" y2="308.79" gradientUnits="userSpaceOnUse">
<stop stop-color="#3DDEED"/>
<stop offset="0.9966" stop-color="#CB00DD"/>
</linearGradient>
<linearGradient id="paint24_linear_56_34" x1="35.5519" y1="308.895" x2="678.435" y2="308.895" gradientUnits="userSpaceOnUse">
<stop stop-color="#3DDEED"/>
<stop offset="0.9966" stop-color="#CB00DD"/>
</linearGradient>
<linearGradient id="paint25_linear_56_34" x1="0" y1="308.993" x2="713.986" y2="308.993" gradientUnits="userSpaceOnUse">
<stop stop-color="#3DDEED"/>
<stop offset="0.9966" stop-color="#CB00DD"/>
</linearGradient>
<clipPath id="clip0_56_34">
<rect width="714" height="618" fill="white"/>
</clipPath>
</defs>
</svg>
