<svg width="177" height="37" viewBox="0 0 177 37" fill="none" xmlns="http://www.w3.org/2000/svg">
<g clip-path="url(#clip0_56_219)">
<path d="M97.062 2.82683C97.062 4.38158 98.304 5.65365 99.8565 5.65365C101.393 5.65365 102.651 4.38158 102.651 2.82683C102.651 1.27207 101.409 0 99.8565 0C98.3195 0 97.062 1.25637 97.062 2.82683Z" fill="#210C4D"/>
<path d="M0 14.6212V9.01465H19.5614V14.3699L7.85563 31.1267V31.3937H19.934V37.0159H0V31.2837L11.3953 14.8882V14.6212H0Z" fill="#210C4D"/>
<path d="M23.8618 37.0002V9.01465H43.563V14.6683H30.8015V19.9764H42.1347V25.4731H30.8015V31.3466H43.563V37.0002H23.8618Z" fill="#210C4D"/>
<path d="M70.4522 37.0002H63.1245L57.7218 27.1849H54.9739V37.0002H48.0652V9.01465H59.2432C62.4879 9.01465 64.8632 9.62713 66.3847 10.8678C67.8906 12.1085 68.6513 14.0244 68.6513 16.6157V19.3326C68.6513 21.0444 68.3253 22.4892 67.6888 23.667C67.0523 24.8449 65.9655 25.74 64.4596 26.3211L70.4522 37.0002ZM58.5135 21.5312C59.7711 21.5312 60.6249 21.2956 61.0596 20.8402C61.4943 20.3848 61.7272 19.6624 61.7272 18.6573V17.4794C61.7272 16.5371 61.5099 15.8304 61.0596 15.3436C60.6249 14.8568 59.8021 14.6212 58.6222 14.6212H54.9583V21.5312H58.5135Z" fill="#210C4D"/>
<path d="M73.0138 27.0749V18.9399C73.0138 15.6577 73.759 13.1764 75.2339 11.5117C76.7243 9.84699 79.0375 9.01465 82.1891 9.01465H85.1388C88.4146 9.01465 90.821 9.83129 92.3735 11.4803C93.926 13.1135 94.7022 15.6106 94.7022 18.9399V26.9179C94.7022 30.2787 93.9104 32.7914 92.3424 34.4718C90.7744 36.1522 88.4301 36.9845 85.3407 36.9845H81.9717C78.9444 36.9845 76.6933 36.1522 75.1873 34.5032C73.6969 32.8699 72.9673 30.3886 73.0138 27.0749ZM80.0467 19.0499V26.965C80.0467 28.5669 80.3106 29.7133 80.8229 30.3729C81.3352 31.0482 82.2201 31.378 83.4466 31.378H84.1297C85.3872 31.378 86.2877 31.0482 86.8466 30.3729C87.4055 29.6976 87.6849 28.5512 87.6849 26.9179V19.0813C87.6849 17.4794 87.4055 16.333 86.8776 15.642C86.3343 14.951 85.4183 14.6055 84.1452 14.6055H83.5708C82.3443 14.6055 81.4439 14.9353 80.885 15.6106C80.3106 16.3173 80.0467 17.448 80.0467 19.0499Z" fill="#210C4D"/>
<path d="M115.055 37.0002L112.665 20.6517L110.165 37.0002H100.819L97.062 9.01465H103.52L106.051 29.0066H105.989L109.171 9.03035H116.437L119.201 28.9595H119.17L122.492 9.01465H128.795L123.998 37.0159H115.055V37.0002Z" fill="#210C4D"/>
<path d="M131.838 37.0002V9.01465H151.539V14.6683H138.793V19.9764H150.111V25.4731H138.793V31.3466H151.555V37.0002H131.838Z" fill="#210C4D"/>
<path d="M156.072 9.01465H166.831C170.231 9.01465 172.637 9.59572 174.035 10.7736C175.447 11.9514 176.146 13.7574 176.146 16.1916V17.448C176.146 18.7515 175.789 19.8037 175.075 20.636C174.361 21.4684 173.522 22.0809 172.56 22.4892C172.762 22.5991 173.103 22.7248 173.6 22.8975C174.097 23.0703 174.594 23.3529 175.09 23.7613C175.572 24.1382 176.006 24.6721 176.395 25.3631C176.783 26.0541 176.984 26.9493 176.984 28.08V29.5719C176.984 31.0953 176.736 32.3517 176.27 33.3096C175.789 34.2833 175.121 35.0371 174.268 35.6025C173.445 36.1679 172.451 36.5291 171.302 36.7332C170.153 36.9217 168.911 37.0159 167.576 37.0159H156.057V9.01465H156.072ZM166.769 14.6212H162.996V19.9607H166.816C167.747 19.9607 168.399 19.8037 168.756 19.4582C169.129 19.1284 169.3 18.5316 169.3 17.6679V16.8041C169.3 16.066 169.098 15.5163 168.71 15.1551C168.322 14.8096 167.669 14.6212 166.769 14.6212ZM167.033 25.3631H162.996V31.3937H167.142C168.353 31.3937 169.144 31.1738 169.517 30.7498C169.89 30.3101 170.076 29.7133 170.076 28.9595V27.8601C170.076 26.9493 169.859 26.3054 169.408 25.9285C168.989 25.5516 168.182 25.3631 167.033 25.3631Z" fill="#210C4D"/>
</g>
<defs>
<clipPath id="clip0_56_219">
<rect width="177" height="37" fill="white"/>
</clipPath>
</defs>
</svg>
