<svg width="137" height="29" viewBox="0 0 137 29" fill="none" xmlns="http://www.w3.org/2000/svg">
<g clip-path="url(#clip0_56_126)">
<path d="M75.1271 2.21562C75.1271 3.43421 76.0884 4.43124 77.29 4.43124C78.4797 4.43124 79.453 3.43421 79.453 2.21562C79.453 0.997029 78.4917 0 77.29 0C76.1004 0 75.1271 0.98472 75.1271 2.21562Z" fill="white"/>
<path d="M0 11.4597V7.06537H15.1408V11.2627L6.08034 24.3964V24.6057H15.4292V29.0123H0V24.5195L8.8201 11.6689V11.4597H0Z" fill="white"/>
<path d="M18.4694 29V7.06537H33.7183V11.4966H23.8407V15.6571H32.6128V19.9652H23.8407V24.5688H33.7183V29H18.4694Z" fill="white"/>
<path d="M54.5308 29H48.8591L44.6773 21.3069H42.5504V29H37.2031V7.06537H45.8549C48.3664 7.06537 50.2049 7.54542 51.3825 8.51783C52.5481 9.49024 53.1369 10.9919 53.1369 13.0229V15.1524C53.1369 16.4941 52.8846 17.6265 52.3919 18.5497C51.8992 19.4728 51.0581 20.1745 49.8925 20.6299L54.5308 29ZM45.2902 16.8756C46.2635 16.8756 46.9244 16.691 47.2609 16.334C47.5973 15.9771 47.7776 15.4109 47.7776 14.6231V13.6999C47.7776 12.9614 47.6093 12.4075 47.2609 12.0259C46.9244 11.6443 46.2875 11.4597 45.3743 11.4597H42.5384V16.8756H45.2902Z" fill="white"/>
<path d="M56.5136 21.2207V14.8447C56.5136 12.2721 57.0903 10.3273 58.2319 9.0225C59.3855 7.71775 61.176 7.06537 63.6153 7.06537H65.8984C68.4339 7.06537 70.2965 7.70544 71.4981 8.99788C72.6998 10.278 73.3006 12.2351 73.3006 14.8447V21.0976C73.3006 23.7318 72.6878 25.7012 71.4741 27.0183C70.2604 28.3353 68.4459 28.9877 66.0547 28.9877H63.4471C61.1039 28.9877 59.3615 28.3353 58.1959 27.0429C57.0423 25.7627 56.4775 23.8179 56.5136 21.2207ZM61.957 14.9308V21.1346C61.957 22.3901 62.1613 23.2886 62.5579 23.8056C62.9544 24.3349 63.6393 24.5934 64.5886 24.5934H65.1174C66.0907 24.5934 66.7877 24.3349 67.2202 23.8056C67.6528 23.2763 67.8691 22.3778 67.8691 21.0976V14.9554C67.8691 13.6999 67.6528 12.8014 67.2443 12.2598C66.8237 11.7182 66.1147 11.4474 65.1294 11.4474H64.6848C63.7355 11.4474 63.0385 11.7059 62.6059 12.2351C62.1613 12.7891 61.957 13.6753 61.957 14.9308Z" fill="white"/>
<path d="M89.0542 29L87.2036 16.1863L85.269 29H78.0351L75.1271 7.06537H80.1259L82.0846 22.7347H82.0366L84.4999 7.07768H90.1237L92.2626 22.6978H92.2386L94.8101 7.06537H99.6888L95.9757 29.0123H89.0542V29Z" fill="white"/>
<path d="M102.044 29V7.06537H117.293V11.4966H107.427V15.6571H116.187V19.9652H107.427V24.5688H117.305V29H102.044Z" fill="white"/>
<path d="M120.802 7.06537H129.129C131.761 7.06537 133.623 7.5208 134.705 8.44398C135.798 9.36715 136.339 10.7827 136.339 12.6906V13.6753C136.339 14.6969 136.063 15.5217 135.51 16.174C134.957 16.8264 134.308 17.3065 133.563 17.6265C133.719 17.7127 133.984 17.8111 134.368 17.9465C134.753 18.0819 135.137 18.3035 135.522 18.6235C135.894 18.9189 136.231 19.3374 136.531 19.879C136.832 20.4206 136.988 21.1222 136.988 22.0085V23.1778C136.988 24.3718 136.796 25.3565 136.435 26.1074C136.063 26.8705 135.546 27.4614 134.885 27.9045C134.248 28.3476 133.479 28.6307 132.59 28.7908C131.701 28.9385 130.739 29.0123 129.706 29.0123H120.79V7.06537H120.802ZM129.081 11.4597H126.161V15.6447H129.117C129.838 15.6447 130.343 15.5217 130.619 15.2509C130.908 14.9924 131.04 14.5246 131.04 13.8476V13.1706C131.04 12.5921 130.884 12.1613 130.583 11.8782C130.283 11.6074 129.778 11.4597 129.081 11.4597ZM129.285 19.879H126.161V24.6057H129.37C130.307 24.6057 130.92 24.4334 131.208 24.101C131.496 23.7564 131.641 23.2886 131.641 22.6978V21.8362C131.641 21.1222 131.472 20.6176 131.124 20.3222C130.799 20.0267 130.175 19.879 129.285 19.879Z" fill="white"/>
</g>
<defs>
<clipPath id="clip0_56_126">
<rect width="137" height="29" fill="white"/>
</clipPath>
</defs>
</svg>
